<svg xmlns="http://www.w3.org/2000/svg" viewBox="0 0 266.22 78.73"><defs><style>.cls-1{fill:#696158;}.cls-2{fill:#221f1f;}.cls-3{fill:#fff;}</style></defs><title>logo_1</title><g id="Layer_2" data-name="Layer 2"><g id="faces"><path class="cls-1" d="M85.1,22.8c1.93-4.9,5.79-8,10.85-8,8,0,10.86,6.12,10.86,12V48.59h6.12v2H93.82v-2h6.6V25.66c0-4.9-.8-9-6.13-9-2.73,0-9.19,2.52-9.19,16.13V48.59h5.79v2H72.18v-2h6.53V7.69c0-3.81-2.47-5.1-6.53-5.1v-2L85.1,0Z"/><path class="cls-1" d="M137.37,24.23c0-7.08-5-8-7.59-8-3.86,0-6,1.7-6,2.92,0,1.43,3.66,1.36,3.66,5a4.35,4.35,0,0,1-4.33,4.22,4.81,4.81,0,0,1-4.73-4.83c0-4.77,4.6-9,12.79-9,10.92,0,12.59,6.26,12.59,10.48V41.65c0,3.4.86,5.38,2.92,5.38,2.4,0,3.33-3.48,3.33-8.92V35.46h2v1.08c0,8.58-.66,14.64-7.39,14.64-5,0-6.53-3.2-6.53-9-1.66,5.45-5.19,9-11.18,9-4.4,0-9.72-1.84-9.72-8.17a9.69,9.69,0,0,1,3.13-6.6c4.12-4.22,10.45-5,17-8.58Zm0,5.58c-4.93,2.86-8.19,2.86-10.85,5.65-1.67,1.63-2.2,3.81-2.2,6.46,0,4.77,2.26,7.22,5.26,7.22s7.79-3.27,7.79-14.36Z"/><path class="cls-1" d="M151.62,15.79h19v2h-4.53c-1,0-1.4.21-1.4.82a4.76,4.76,0,0,0,.4,1.5l7.86,22L180.25,25a9.79,9.79,0,0,0,1-3.81c0-2.39-1.73-3.41-5.12-3.41H174.4v-2h16.78v2h-1.94c-3,0-4.79,2.25-6.59,6.33L170.73,51.58h-1.2l-11.45-32c-.46-1.36-.86-1.77-2.26-1.77h-4.2Z"/><path class="cls-1" d="M222,39.88c-.27,2.45-3.73,11.77-14.32,11.77-11.72,0-16-11.36-16-19,0-9.46,6.39-18.51,15.31-18.51,8.66,0,14.45,7.28,15,17.83h-23v3.2c0,8.78,2.93,13.61,9.46,13.61A10.72,10.72,0,0,0,219,39.88Zm-7.46-14.36c0-3.61-.4-10.07-7.46-10.07s-7.92,6.19-7.92,14h15.38Z"/><path class="cls-1" d="M238.72,24.91c2.46-8.24,7.06-10.28,10.85-10.28,7.8,0,11.12,7.76,11.12,13.88V48.59h5.53v2h-18v-2h6.06v-23c0-6.33-2.2-9.19-5.66-9.19a6.7,6.7,0,0,0-5.06,2.31c-2.4,2.46-4.86,6.74-4.86,22.26v7.62h5.93v2H226.07v-2h6.26V22.19c0-2.73-1.73-4.43-6.39-4.43v-2l12-.89h.8Z"/><path class="cls-2" d="M117.69,77.37a3.4,3.4,0,0,1-1.16,1,3.6,3.6,0,0,1-1.71.37,4.16,4.16,0,0,1-1.59-.29,3.68,3.68,0,0,1-2.07-2.07,4.44,4.44,0,0,1,0-3.21,3.58,3.58,0,0,1,.84-1.24,3.86,3.86,0,0,1,1.27-.8,4.16,4.16,0,0,1,1.59-.29,4.11,4.11,0,0,1,.78.07,3.83,3.83,0,0,1,.75.23,3.48,3.48,0,0,1,.66.36,2.46,2.46,0,0,1,.51.51l-.83.64A2,2,0,0,0,116,72a2.49,2.49,0,0,0-1.09-.25,2.8,2.8,0,0,0-1.18.24,2.69,2.69,0,0,0-.9.66,2.72,2.72,0,0,0-.57,1,3.18,3.18,0,0,0-.2,1.16A3.54,3.54,0,0,0,112.2,76a2.72,2.72,0,0,0,.57,1,2.51,2.51,0,0,0,.89.64,2.78,2.78,0,0,0,1.17.24,2.6,2.6,0,0,0,1.16-.26,2.19,2.19,0,0,0,.86-.74Z"/><path class="cls-2" d="M123.43,78.54h-1.06V71h2.42a4.93,4.93,0,0,1,1,.11,2.73,2.73,0,0,1,.85.36,1.79,1.79,0,0,1,.58.64,2.07,2.07,0,0,1,.21,1,1.8,1.8,0,0,1-.51,1.34,2.36,2.36,0,0,1-1.32.65l2.11,3.45h-1.28l-1.91-3.34h-1.12Zm0-4.23h1.21a3.85,3.85,0,0,0,.69-.06,1.58,1.58,0,0,0,.55-.21,1,1,0,0,0,.38-.37,1.09,1.09,0,0,0,.14-.57,1.15,1.15,0,0,0-.14-.57,1,1,0,0,0-.37-.36,1.67,1.67,0,0,0-.53-.2,3.42,3.42,0,0,0-.65-.06h-1.28Z"/><path class="cls-2" d="M135.37,78.54H134.3V75.29L131.49,71h1.29l2.09,3.4L137,71h1.22l-2.81,4.27Z"/><path class="cls-2" d="M146.4,72.41a1.75,1.75,0,0,0-.6-.5,1.88,1.88,0,0,0-.86-.2,1.91,1.91,0,0,0-.52.07A1.56,1.56,0,0,0,144,72a1.31,1.31,0,0,0-.35.39,1.13,1.13,0,0,0-.13.54,1,1,0,0,0,.12.52,1.1,1.1,0,0,0,.33.35,2,2,0,0,0,.49.24l.6.21q.39.12.78.27a2.87,2.87,0,0,1,.71.39,2.06,2.06,0,0,1,.52.61,1.94,1.94,0,0,1,.2.93,2.12,2.12,0,0,1-.22,1,2,2,0,0,1-.58.72,2.48,2.48,0,0,1-.83.41,3.16,3.16,0,0,1-1,.14,3.65,3.65,0,0,1-1.38-.27,2.82,2.82,0,0,1-1.1-.82L143,77a2.19,2.19,0,0,0,.71.64,2,2,0,0,0,1,.24,1.93,1.93,0,0,0,.53-.07,1.35,1.35,0,0,0,.48-.24,1.16,1.16,0,0,0,.5-1A1,1,0,0,0,146,76a1.18,1.18,0,0,0-.38-.39,2.31,2.31,0,0,0-.57-.27l-.69-.23a6.77,6.77,0,0,1-.71-.26,2.32,2.32,0,0,1-.62-.39,1.75,1.75,0,0,1-.45-.59,2.08,2.08,0,0,1-.17-.87,2,2,0,0,1,.23-1,2.12,2.12,0,0,1,.59-.67,2.44,2.44,0,0,1,.83-.39,3.71,3.71,0,0,1,.93-.12,3.32,3.32,0,0,1,1.23.23,2.55,2.55,0,0,1,.93.63Z"/><path class="cls-2" d="M154.78,78.54h-1.05V72h-2.41V71h5.88V72h-2.42Z"/><path class="cls-2" d="M161.47,78.54H160.3L163.56,71h1l3.22,7.52h-1.18l-.77-1.85h-3.57Zm1.12-2.77h2.82L164,72.24Z"/><path class="cls-2" d="M173.37,77.61h3.36v.93h-4.41V71h1.05Z"/><path class="cls-2" d="M188.42,77.61h3.35v.93h-4.4V71h1Z"/><path class="cls-2" d="M196.71,78.54h-1.17L198.81,71h.95L203,78.54H201.8L201,76.69h-3.57Zm1.13-2.77h2.82l-1.41-3.53Z"/><path class="cls-2" d="M208.62,74.33h0L212,71h1.46l-3.66,3.44,3.88,4.08h-1.51l-3.53-3.89h0v3.89h-1.05V71h1.05Z"/><path class="cls-2" d="M219.22,77.61h3.94v.93h-5V71H223V72h-3.78V74.2h3.55v.9h-3.55Z"/><path class="cls-1" d="M32.37,20.14c-3.2,0-10.78,3-10.78,18.93V51.14a24.64,24.64,0,0,0,3.87.33,25.37,25.37,0,0,0,14.1-4.27V30.69c0-5.75-.94-10.55-7.19-10.55"/><path class="cls-1" d="M34.32,17.91c9.38,0,12.74,7.18,12.74,14.05v7.47A25.42,25.42,0,0,0,25.46.56a25.79,25.79,0,0,0-3.87.32V27.33c2.26-5.75,6.8-9.42,12.73-9.42"/><path class="cls-1" d="M11.59,4.68a25.42,25.42,0,0,0,2.5,44.08V9.6c0-2.47-.91-4-2.5-4.92"/><path class="cls-3" d="M47.06,39.43V32c0-6.87-3.36-14.06-12.73-14.06-5.94,0-10.48,3.68-12.74,9.43V.88a25.4,25.4,0,0,0-10,3.8c1.59.91,2.5,2.45,2.5,4.92V48.76a24.82,24.82,0,0,0,7.5,2.38V39.07c0-16,7.58-18.93,10.78-18.93,6.25,0,7.19,4.79,7.19,10.54V47.2a25.5,25.5,0,0,0,7.5-7.77"/></g></g></svg>