<?xml version="1.0" encoding="utf-8"?>
<!-- Generator: Adobe Illustrator 22.1.0, SVG Export Plug-In . SVG Version: 6.00 Build 0)  -->
<svg version="1.1" id="Layer_1" xmlns="http://www.w3.org/2000/svg" xmlns:xlink="http://www.w3.org/1999/xlink" x="0px" y="0px"
	 viewBox="0 0 1439.9 638.9" style="enable-background:new 0 0 1439.9 638.9;" xml:space="preserve">
<style type="text/css">
	.st0{fill:none;}
	.st1{clip-path:url(#SVGID_2_);}
	.st2{fill:none;stroke:#FFFFFF;stroke-width:3;stroke-miterlimit:10;}
	.st3{fill:#FFFFFF;}
	.st4{fill:none;stroke:#FFFFFF;stroke-miterlimit:10;}
	.st5{clip-path:url(#SVGID_4_);}
	.st6{clip-path:url(#SVGID_6_);}
	.st7{clip-path:url(#SVGID_8_);}
	.st8{clip-path:url(#SVGID_10_);}
	.st9{clip-path:url(#SVGID_12_);}
	.st10{clip-path:url(#SVGID_14_);}
	.st11{fill:#D5BA8C;}
	.st12{opacity:0.17;fill:url(#SVGID_15_);enable-background:new    ;}
	.st13{enable-background:new    ;}
</style>
<pattern  y="638.9" width="233.2" height="182.9" patternUnits="userSpaceOnUse" id="canoe_white" viewBox="116.6 -211.9 233.2 182.9" style="overflow:visible;">
	<g>
		<rect x="116.6" y="-211.9" class="st0" width="233.2" height="182.9"/>
		<rect x="116.6" y="-211.9" class="st0" width="233.2" height="182.9"/>
		<g>
			<defs>
				<path id="SVGID_1_" d="M349.8-212c-29.8,0-64.1-22.4-123.5-22.4S144.9-212,116.6-212c28.3,0,50.4,22.4,109.7,22.4
					S320-212,349.8-212z"/>
			</defs>
			<clipPath id="SVGID_2_">
				<use xlink:href="#SVGID_1_"  style="overflow:visible;"/>
			</clipPath>
			<g class="st1">
				<line class="st2" x1="323.4" y1="-182.9" x2="323.4" y2="-240.4"/>
				<line class="st2" x1="317.7" y1="-182.9" x2="317.7" y2="-240.4"/>
				<line class="st2" x1="312.1" y1="-182.9" x2="312.1" y2="-240.4"/>
				<line class="st2" x1="306.5" y1="-182.9" x2="306.5" y2="-240.4"/>
				<line class="st2" x1="300.8" y1="-182.9" x2="300.8" y2="-240.4"/>
				<line class="st2" x1="295.2" y1="-182.9" x2="295.2" y2="-240.4"/>
				<line class="st2" x1="289.5" y1="-182.9" x2="289.5" y2="-240.4"/>
				<line class="st2" x1="283.9" y1="-182.9" x2="283.9" y2="-240.4"/>
				<line class="st2" x1="278.3" y1="-182.9" x2="278.3" y2="-240.4"/>
				<line class="st2" x1="272.6" y1="-182.9" x2="272.6" y2="-240.4"/>
				<line class="st2" x1="267" y1="-182.9" x2="267" y2="-240.4"/>
				<line class="st2" x1="261.4" y1="-182.9" x2="261.4" y2="-240.4"/>
				<line class="st2" x1="255.8" y1="-182.9" x2="255.8" y2="-240.4"/>
				<line class="st2" x1="250.1" y1="-182.9" x2="250.1" y2="-240.4"/>
				<line class="st2" x1="244.5" y1="-182.9" x2="244.5" y2="-240.4"/>
				<line class="st2" x1="238.9" y1="-182.9" x2="238.9" y2="-240.4"/>
				<line class="st2" x1="233.2" y1="-182.9" x2="233.2" y2="-240.4"/>
				<line class="st2" x1="227.6" y1="-182.9" x2="227.6" y2="-240.4"/>
				<line class="st2" x1="221.9" y1="-182.9" x2="221.9" y2="-240.4"/>
				<line class="st2" x1="216.3" y1="-182.9" x2="216.3" y2="-240.4"/>
				<line class="st2" x1="210.7" y1="-182.9" x2="210.7" y2="-240.4"/>
				<line class="st2" x1="205.1" y1="-182.9" x2="205.1" y2="-240.4"/>
				<line class="st2" x1="199.4" y1="-182.9" x2="199.4" y2="-240.4"/>
				<line class="st2" x1="193.8" y1="-182.9" x2="193.8" y2="-240.4"/>
				<line class="st2" x1="188.1" y1="-182.9" x2="188.1" y2="-240.4"/>
				<line class="st2" x1="182.5" y1="-182.9" x2="182.5" y2="-240.4"/>
				<line class="st2" x1="176.9" y1="-182.9" x2="176.9" y2="-240.4"/>
				<line class="st2" x1="171.2" y1="-182.9" x2="171.2" y2="-240.4"/>
				<line class="st2" x1="165.6" y1="-182.9" x2="165.6" y2="-240.4"/>
				<line class="st2" x1="160" y1="-182.9" x2="160" y2="-240.4"/>
				<line class="st2" x1="154.4" y1="-182.9" x2="154.4" y2="-240.4"/>
				<line class="st2" x1="148.7" y1="-182.9" x2="148.7" y2="-240.4"/>
				<line class="st2" x1="143.1" y1="-182.9" x2="143.1" y2="-240.4"/>
				<path class="st3" d="M327.2-205.9c3.2-3.6,3.2-9.1,0-12.7l27.4,6.6L327.2-205.9z"/>
				<path class="st3" d="M139.3-204.3c0,0-4.8-6.7,0-16.4l-31,7.5L139.3-204.3z"/>
			</g>
		</g>
		<path id="_Clipping_Path_8_1_" class="st4" d="M349.8-212c-29.8,0-64.1-22.4-123.5-22.4S144.9-212,116.6-212
			c28.3,0,50.4,22.4,109.7,22.4S320-212,349.8-212z"/>
		<g>
			<defs>
				<path id="SVGID_3_" d="M466.4-166.2c-29.8,0-64.1-22.4-123.5-22.4c-59.4,0-81.4,22.4-109.7,22.4c28.3,0,50.4,22.4,109.7,22.4
					S436.6-166.2,466.4-166.2z"/>
			</defs>
			<clipPath id="SVGID_4_">
				<use xlink:href="#SVGID_3_"  style="overflow:visible;"/>
			</clipPath>
			<g class="st5">
				<line class="st2" x1="349.8" y1="-137.2" x2="349.8" y2="-194.7"/>
				<line class="st2" x1="344.2" y1="-137.2" x2="344.2" y2="-194.7"/>
				<line class="st2" x1="338.6" y1="-137.2" x2="338.6" y2="-194.7"/>
				<line class="st2" x1="332.9" y1="-137.2" x2="332.9" y2="-194.7"/>
				<line class="st2" x1="327.3" y1="-137.2" x2="327.3" y2="-194.7"/>
				<line class="st2" x1="321.7" y1="-137.2" x2="321.7" y2="-194.7"/>
				<line class="st2" x1="316" y1="-137.2" x2="316" y2="-194.7"/>
				<line class="st2" x1="310.4" y1="-137.2" x2="310.4" y2="-194.7"/>
				<line class="st2" x1="304.8" y1="-137.2" x2="304.8" y2="-194.7"/>
				<line class="st2" x1="299.1" y1="-137.2" x2="299.1" y2="-194.7"/>
				<line class="st2" x1="293.5" y1="-137.2" x2="293.5" y2="-194.7"/>
				<line class="st2" x1="287.9" y1="-137.2" x2="287.9" y2="-194.7"/>
				<line class="st2" x1="282.2" y1="-137.2" x2="282.2" y2="-194.7"/>
				<line class="st2" x1="276.6" y1="-137.2" x2="276.6" y2="-194.7"/>
				<line class="st2" x1="271" y1="-137.2" x2="271" y2="-194.7"/>
				<line class="st2" x1="265.3" y1="-137.2" x2="265.3" y2="-194.7"/>
				<line class="st2" x1="259.7" y1="-137.2" x2="259.7" y2="-194.7"/>
				<path class="st3" d="M255.9-158.6c0,0-4.8-6.7,0-16.4l-31,7.5L255.9-158.6z"/>
			</g>
		</g>
		<path id="_Clipping_Path_9_1_" class="st4" d="M466.4-166.2c-29.8,0-64.1-22.4-123.5-22.4c-59.4,0-81.4,22.4-109.7,22.4
			c28.3,0,50.4,22.4,109.7,22.4S436.6-166.2,466.4-166.2z"/>
		<g>
			<defs>
				<path id="SVGID_5_" d="M233.2-166.2c-29.8,0-64.1-22.4-123.5-22.4S28.3-166.2,0-166.2c28.3,0,50.4,22.4,109.7,22.4
					S203.4-166.2,233.2-166.2z"/>
			</defs>
			<clipPath id="SVGID_6_">
				<use xlink:href="#SVGID_5_"  style="overflow:visible;"/>
			</clipPath>
			<g class="st6">
				<line class="st2" x1="206.8" y1="-137.2" x2="206.8" y2="-194.7"/>
				<line class="st2" x1="201.1" y1="-137.2" x2="201.1" y2="-194.7"/>
				<line class="st2" x1="195.5" y1="-137.2" x2="195.5" y2="-194.7"/>
				<line class="st2" x1="189.9" y1="-137.2" x2="189.9" y2="-194.7"/>
				<line class="st2" x1="184.2" y1="-137.2" x2="184.2" y2="-194.7"/>
				<line class="st2" x1="178.6" y1="-137.2" x2="178.6" y2="-194.7"/>
				<line class="st2" x1="172.9" y1="-137.2" x2="172.9" y2="-194.7"/>
				<line class="st2" x1="167.3" y1="-137.2" x2="167.3" y2="-194.7"/>
				<line class="st2" x1="161.7" y1="-137.2" x2="161.7" y2="-194.7"/>
				<line class="st2" x1="156" y1="-137.2" x2="156" y2="-194.7"/>
				<line class="st2" x1="150.4" y1="-137.2" x2="150.4" y2="-194.7"/>
				<line class="st2" x1="144.8" y1="-137.2" x2="144.8" y2="-194.7"/>
				<line class="st2" x1="139.1" y1="-137.2" x2="139.1" y2="-194.7"/>
				<line class="st2" x1="133.5" y1="-137.2" x2="133.5" y2="-194.7"/>
				<line class="st2" x1="127.9" y1="-137.2" x2="127.9" y2="-194.7"/>
				<line class="st2" x1="122.2" y1="-137.2" x2="122.2" y2="-194.7"/>
				<line class="st2" x1="116.6" y1="-137.2" x2="116.6" y2="-194.7"/>
				<path class="st3" d="M210.6-160.1c3.2-3.6,3.2-9.1,0-12.7l27.4,6.6L210.6-160.1z"/>
			</g>
		</g>
		<path id="_Clipping_Path_10_1_" class="st4" d="M233.2-166.2c-29.8,0-64.1-22.4-123.5-22.4S28.3-166.2,0-166.2
			c28.3,0,50.4,22.4,109.7,22.4S203.4-166.2,233.2-166.2z"/>
		<g>
			<defs>
				<path id="SVGID_7_" d="M349.8-120.5c-29.8,0-64.1-22.4-123.5-22.4s-81.4,22.4-109.7,22.4c28.3,0,50.4,22.4,109.7,22.4
					S320-120.5,349.8-120.5z"/>
			</defs>
			<clipPath id="SVGID_8_">
				<use xlink:href="#SVGID_7_"  style="overflow:visible;"/>
			</clipPath>
			<g class="st7">
				<line class="st2" x1="323.4" y1="-91.5" x2="323.4" y2="-149"/>
				<line class="st2" x1="317.7" y1="-91.5" x2="317.7" y2="-149"/>
				<line class="st2" x1="312.1" y1="-91.5" x2="312.1" y2="-149"/>
				<line class="st2" x1="306.5" y1="-91.5" x2="306.5" y2="-149"/>
				<line class="st2" x1="300.8" y1="-91.5" x2="300.8" y2="-149"/>
				<line class="st2" x1="295.2" y1="-91.5" x2="295.2" y2="-149"/>
				<line class="st2" x1="289.5" y1="-91.5" x2="289.5" y2="-149"/>
				<line class="st2" x1="283.9" y1="-91.5" x2="283.9" y2="-149"/>
				<line class="st2" x1="278.3" y1="-91.5" x2="278.3" y2="-149"/>
				<line class="st2" x1="272.6" y1="-91.5" x2="272.6" y2="-149"/>
				<line class="st2" x1="267" y1="-91.5" x2="267" y2="-149"/>
				<line class="st2" x1="261.4" y1="-91.5" x2="261.4" y2="-149"/>
				<line class="st2" x1="255.8" y1="-91.5" x2="255.8" y2="-149"/>
				<line class="st2" x1="250.1" y1="-91.5" x2="250.1" y2="-149"/>
				<line class="st2" x1="244.5" y1="-91.5" x2="244.5" y2="-149"/>
				<line class="st2" x1="238.9" y1="-91.5" x2="238.9" y2="-149"/>
				<line class="st2" x1="233.2" y1="-91.5" x2="233.2" y2="-149"/>
				<line class="st2" x1="227.6" y1="-91.5" x2="227.6" y2="-149"/>
				<line class="st2" x1="221.9" y1="-91.5" x2="221.9" y2="-149"/>
				<line class="st2" x1="216.3" y1="-91.5" x2="216.3" y2="-149"/>
				<line class="st2" x1="210.7" y1="-91.5" x2="210.7" y2="-149"/>
				<line class="st2" x1="205.1" y1="-91.5" x2="205.1" y2="-149"/>
				<line class="st2" x1="199.4" y1="-91.5" x2="199.4" y2="-149"/>
				<line class="st2" x1="193.8" y1="-91.5" x2="193.8" y2="-149"/>
				<line class="st2" x1="188.1" y1="-91.5" x2="188.1" y2="-149"/>
				<line class="st2" x1="182.5" y1="-91.5" x2="182.5" y2="-149"/>
				<line class="st2" x1="176.9" y1="-91.5" x2="176.9" y2="-149"/>
				<line class="st2" x1="171.2" y1="-91.5" x2="171.2" y2="-149"/>
				<line class="st2" x1="165.6" y1="-91.5" x2="165.6" y2="-149"/>
				<line class="st2" x1="160" y1="-91.5" x2="160" y2="-149"/>
				<line class="st2" x1="154.4" y1="-91.5" x2="154.4" y2="-149"/>
				<line class="st2" x1="148.7" y1="-91.5" x2="148.7" y2="-149"/>
				<line class="st2" x1="143.1" y1="-91.5" x2="143.1" y2="-149"/>
				<path class="st3" d="M327.2-114.4c3.2-3.6,3.2-9.1,0-12.7l27.4,6.6L327.2-114.4z"/>
				<path class="st3" d="M139.3-112.8c0,0-4.8-6.7,0-16.4l-31,7.5L139.3-112.8z"/>
			</g>
		</g>
		<path id="_Clipping_Path_11_1_" class="st4" d="M349.8-120.5c-29.8,0-64.1-22.4-123.5-22.4s-81.4,22.4-109.7,22.4
			c28.3,0,50.4,22.4,109.7,22.4S320-120.5,349.8-120.5z"/>
		<g>
			<defs>
				<path id="SVGID_9_" d="M466.4-74.7c-29.8,0-64.1-22.4-123.5-22.4c-59.4,0-81.4,22.4-109.7,22.4c28.4,0,50.4,22.4,109.7,22.4
					C402.3-52.3,436.6-74.7,466.4-74.7z"/>
			</defs>
			<clipPath id="SVGID_10_">
				<use xlink:href="#SVGID_9_"  style="overflow:visible;"/>
			</clipPath>
			<g class="st8">
				<line class="st2" x1="349.8" y1="-45.7" x2="349.8" y2="-103.2"/>
				<line class="st2" x1="344.2" y1="-45.7" x2="344.2" y2="-103.2"/>
				<line class="st2" x1="338.6" y1="-45.7" x2="338.6" y2="-103.2"/>
				<line class="st2" x1="332.9" y1="-45.7" x2="332.9" y2="-103.2"/>
				<line class="st2" x1="327.3" y1="-45.7" x2="327.3" y2="-103.2"/>
				<line class="st2" x1="321.7" y1="-45.7" x2="321.7" y2="-103.2"/>
				<line class="st2" x1="316" y1="-45.7" x2="316" y2="-103.2"/>
				<line class="st2" x1="310.4" y1="-45.7" x2="310.4" y2="-103.2"/>
				<line class="st2" x1="304.8" y1="-45.7" x2="304.8" y2="-103.2"/>
				<line class="st2" x1="299.1" y1="-45.7" x2="299.1" y2="-103.2"/>
				<line class="st2" x1="293.5" y1="-45.7" x2="293.5" y2="-103.2"/>
				<line class="st2" x1="287.9" y1="-45.7" x2="287.9" y2="-103.2"/>
				<line class="st2" x1="282.2" y1="-45.7" x2="282.2" y2="-103.2"/>
				<line class="st2" x1="276.6" y1="-45.7" x2="276.6" y2="-103.2"/>
				<line class="st2" x1="271" y1="-45.7" x2="271" y2="-103.2"/>
				<line class="st2" x1="265.3" y1="-45.7" x2="265.3" y2="-103.2"/>
				<line class="st2" x1="259.7" y1="-45.7" x2="259.7" y2="-103.2"/>
				<path class="st3" d="M255.9-67.1c0,0-4.8-6.7,0-16.4l-31,7.5L255.9-67.1z"/>
			</g>
		</g>
		<path id="_Clipping_Path_12_1_" class="st4" d="M466.4-74.7c-29.8,0-64.1-22.4-123.5-22.4c-59.4,0-81.4,22.4-109.7,22.4
			c28.4,0,50.4,22.4,109.7,22.4C402.3-52.3,436.6-74.7,466.4-74.7z"/>
		<g>
			<defs>
				<path id="SVGID_11_" d="M233.2-74.7c-29.8,0-64.1-22.4-123.5-22.4S28.3-74.7,0-74.7c28.3,0,50.4,22.4,109.7,22.4
					S203.4-74.7,233.2-74.7z"/>
			</defs>
			<clipPath id="SVGID_12_">
				<use xlink:href="#SVGID_11_"  style="overflow:visible;"/>
			</clipPath>
			<g class="st9">
				<line class="st2" x1="206.8" y1="-45.7" x2="206.8" y2="-103.2"/>
				<line class="st2" x1="201.1" y1="-45.7" x2="201.1" y2="-103.2"/>
				<line class="st2" x1="195.5" y1="-45.7" x2="195.5" y2="-103.2"/>
				<line class="st2" x1="189.9" y1="-45.7" x2="189.9" y2="-103.2"/>
				<line class="st2" x1="184.2" y1="-45.7" x2="184.2" y2="-103.2"/>
				<line class="st2" x1="178.6" y1="-45.7" x2="178.6" y2="-103.2"/>
				<line class="st2" x1="172.9" y1="-45.7" x2="172.9" y2="-103.2"/>
				<line class="st2" x1="167.3" y1="-45.7" x2="167.3" y2="-103.2"/>
				<line class="st2" x1="161.7" y1="-45.7" x2="161.7" y2="-103.2"/>
				<line class="st2" x1="156" y1="-45.7" x2="156" y2="-103.2"/>
				<line class="st2" x1="150.4" y1="-45.7" x2="150.4" y2="-103.2"/>
				<line class="st2" x1="144.8" y1="-45.7" x2="144.8" y2="-103.2"/>
				<line class="st2" x1="139.1" y1="-45.7" x2="139.1" y2="-103.2"/>
				<line class="st2" x1="133.5" y1="-45.7" x2="133.5" y2="-103.2"/>
				<line class="st2" x1="127.9" y1="-45.7" x2="127.9" y2="-103.2"/>
				<line class="st2" x1="122.2" y1="-45.7" x2="122.2" y2="-103.2"/>
				<line class="st2" x1="116.6" y1="-45.7" x2="116.6" y2="-103.2"/>
				<path class="st3" d="M210.6-68.6c3.2-3.6,3.2-9.1,0-12.7l27.4,6.6L210.6-68.6z"/>
			</g>
		</g>
		<path id="_Clipping_Path_13_1_" class="st4" d="M233.2-74.7c-29.8,0-64.1-22.4-123.5-22.4S28.3-74.7,0-74.7
			c28.3,0,50.4,22.4,109.7,22.4S203.4-74.7,233.2-74.7z"/>
		<g>
			<defs>
				<path id="SVGID_13_" d="M349.8-29c-29.8,0-64.1-22.4-123.5-22.4S144.9-29,116.6-29C144.9-29,167-6.6,226.4-6.6S320-29,349.8-29z
					"/>
			</defs>
			<clipPath id="SVGID_14_">
				<use xlink:href="#SVGID_13_"  style="overflow:visible;"/>
			</clipPath>
			<g class="st10">
				<line class="st2" x1="323.4" y1="0" x2="323.4" y2="-57.5"/>
				<line class="st2" x1="317.7" y1="0" x2="317.7" y2="-57.5"/>
				<line class="st2" x1="312.1" y1="0" x2="312.1" y2="-57.5"/>
				<line class="st2" x1="306.5" y1="0" x2="306.5" y2="-57.5"/>
				<line class="st2" x1="300.8" y1="0" x2="300.8" y2="-57.5"/>
				<line class="st2" x1="295.2" y1="0" x2="295.2" y2="-57.5"/>
				<line class="st2" x1="289.5" y1="0" x2="289.5" y2="-57.5"/>
				<line class="st2" x1="283.9" y1="0" x2="283.9" y2="-57.5"/>
				<line class="st2" x1="278.3" y1="0" x2="278.3" y2="-57.5"/>
				<line class="st2" x1="272.6" y1="0" x2="272.6" y2="-57.5"/>
				<line class="st2" x1="267" y1="0" x2="267" y2="-57.5"/>
				<line class="st2" x1="261.4" y1="0" x2="261.4" y2="-57.5"/>
				<line class="st2" x1="255.8" y1="0" x2="255.8" y2="-57.5"/>
				<line class="st2" x1="250.1" y1="0" x2="250.1" y2="-57.5"/>
				<line class="st2" x1="244.5" y1="0" x2="244.5" y2="-57.5"/>
				<line class="st2" x1="238.9" y1="0" x2="238.9" y2="-57.5"/>
				<line class="st2" x1="233.2" y1="0" x2="233.2" y2="-57.5"/>
				<line class="st2" x1="227.6" y1="0" x2="227.6" y2="-57.5"/>
				<line class="st2" x1="221.9" y1="0" x2="221.9" y2="-57.5"/>
				<line class="st2" x1="216.3" y1="0" x2="216.3" y2="-57.5"/>
				<line class="st2" x1="210.7" y1="0" x2="210.7" y2="-57.5"/>
				<line class="st2" x1="205.1" y1="0" x2="205.1" y2="-57.5"/>
				<line class="st2" x1="199.4" y1="0" x2="199.4" y2="-57.5"/>
				<line class="st2" x1="193.8" y1="0" x2="193.8" y2="-57.5"/>
				<line class="st2" x1="188.1" y1="0" x2="188.1" y2="-57.5"/>
				<line class="st2" x1="182.5" y1="0" x2="182.5" y2="-57.5"/>
				<line class="st2" x1="176.9" y1="0" x2="176.9" y2="-57.5"/>
				<line class="st2" x1="171.2" y1="0" x2="171.2" y2="-57.5"/>
				<line class="st2" x1="165.6" y1="0" x2="165.6" y2="-57.5"/>
				<line class="st2" x1="160" y1="0" x2="160" y2="-57.5"/>
				<line class="st2" x1="154.4" y1="0" x2="154.4" y2="-57.5"/>
				<line class="st2" x1="148.7" y1="0" x2="148.7" y2="-57.5"/>
				<line class="st2" x1="143.1" y1="0" x2="143.1" y2="-57.5"/>
				<path class="st3" d="M327.2-22.9c3.2-3.6,3.2-9.1,0-12.7l27.4,6.6L327.2-22.9z"/>
				<path class="st3" d="M139.3-21.4c0,0-4.8-6.7,0-16.4l-31,7.5L139.3-21.4z"/>
			</g>
		</g>
		<path id="_Clipping_Path_14_1_" class="st4" d="M349.8-29c-29.8,0-64.1-22.4-123.5-22.4S144.9-29,116.6-29
			C144.9-29,167-6.6,226.4-6.6S320-29,349.8-29z"/>
	</g>
</pattern>
<title>banner</title>
<g id="Layer_2_1_">
	<g id="Layer_1-2">
		<rect class="st11" width="1439.9" height="638.9"/>
		<pattern  id="SVGID_15_" xlink:href="#canoe_white" patternTransform="matrix(0.7 0 0 -0.7 -2216.7532 -15933.8076)">
		</pattern>
		<rect y="0.4" class="st12" width="1439.9" height="638"/>
	</g>
	<g id="Layer_2-2">
		<g class="st13">
			<path class="st3" d="M651.6,247.3h1.2l9.6,12.1v-12.1h2v16.2h-1.2l-9.6-12.1v12.1h-2V247.3z"/>
			<path class="st3" d="M670.8,247.3h9.8v1.8h-7.6v4.9h6.3v1.8h-6.3v5.8h7.6v1.8h-9.8V247.3z"/>
			<path class="st3" d="M684.9,247.3h2.2l3.9,12c0.1,0.3,0.2,0.9,0.2,1c0-0.1,0.2-0.7,0.3-1l3.8-12h1.3l3.8,12c0.1,0.3,0.3,1,0.3,1
				s0.1-0.7,0.2-1l3.9-12h2.1l-5.6,16.2H700l-3.8-11.1c-0.1-0.2-0.2-0.8-0.3-0.9c0,0.1-0.2,0.7-0.3,0.9l-3.8,11.1h-1.3L684.9,247.3z
				"/>
			<path class="st3" d="M719.1,247.3h2.2v6.7h8.9v-6.7h2.2v16.2h-2.2v-7.6h-8.9v7.6h-2.2V247.3z"/>
			<path class="st3" d="M738,255.4c0-5,3.6-8.6,8.6-8.6c4.9,0,8.6,3.6,8.6,8.6s-3.6,8.6-8.6,8.6C741.6,264,738,260.4,738,255.4z
				 M752.9,255.4c0-3.9-2.6-6.7-6.3-6.7c-3.7,0-6.4,2.8-6.4,6.7c0,3.9,2.6,6.7,6.4,6.7C750.3,262.2,752.9,259.4,752.9,255.4z"/>
			<path class="st3" d="M760.8,247.3h5.3c3.7,0,5.3,2.3,5.3,4.9c0,2.6-1.6,4.9-5.3,4.9h-3.2v6.4h-2.2V247.3z M766.1,255.3
				c2.4,0,3.2-1.6,3.2-3.1c0-1.5-0.7-3.1-3.2-3.1h-3.2v6.2H766.1z"/>
			<path class="st3" d="M776.4,247.3h9.8v1.8h-7.6v4.9h6.3v1.8h-6.3v5.8h7.6v1.8h-9.8V247.3z"/>
		</g>
		<g class="st13">
			<path class="st3" d="M640,373.5h1.4l7,16.2h-2.2l-1.9-4.5h-7.1l-1.9,4.5H633L640,373.5z M643.5,383.4l-2.8-6.7l-2.8,6.7H643.5z"
				/>
		</g>
		<g class="st13">
			<path class="st3" d="M653.1,373.5h5.3c3.7,0,5.3,2.3,5.3,4.9c0,2.6-1.6,4.9-5.3,4.9h-3.2v6.4h-2.2V373.5z M658.5,381.4
				c2.4,0,3.2-1.6,3.2-3.1c0-1.5-0.7-3.1-3.2-3.1h-3.2v6.2H658.5z"/>
		</g>
		<g class="st13">
			<path class="st3" d="M672.8,373.5h1.4l7,16.2H679l-1.9-4.5h-7.1l-1.9,4.5h-2.1L672.8,373.5z M676.3,383.4l-2.8-6.7l-2.8,6.7
				H676.3z"/>
		</g>
		<g class="st13">
			<path class="st3" d="M686,373.5h5.3c3.7,0,5.3,2.1,5.3,4.8c0,2.1-1,3.9-3.3,4.5l4.9,6.9h-2.5L691,383h-2.9v6.7H686V373.5z
				 M691.3,381.2c2.4,0,3.2-1.5,3.2-2.9c0-1.5-0.7-2.9-3.2-2.9h-3.2v5.9H691.3z"/>
		</g>
		<g class="st13">
			<path class="st3" d="M706.3,375.3h-5.7v-1.8h13.7v1.8h-5.7v14.4h-2.2V375.3z"/>
			<path class="st3" d="M719.1,373.5h2.1l6.3,13.4l6.3-13.4h2v16.2h-2.1v-11c0-0.4,0.1-1.3,0.1-1.3c-0.1,0.1-0.4,1-0.6,1.3l-5,11
				h-1.5l-5-11c-0.2-0.4-0.5-1.3-0.6-1.3c0,0,0.1,0.9,0.1,1.3v11h-2V373.5z"/>
			<path class="st3" d="M742.1,373.5h9.8v1.8h-7.6v4.9h6.3v1.8h-6.3v5.8h7.6v1.8h-9.8V373.5z"/>
			<path class="st3" d="M757.8,373.5h1.2l9.6,12.1v-12.1h2v16.2h-1.2l-9.6-12.1v12.1h-2V373.5z"/>
		</g>
		<g class="st13">
			<path class="st3" d="M781.2,375.3h-5.8v-1.8h13.7v1.8h-5.8v14.4h-2.2V375.3z"/>
		</g>
		<g class="st13">
			<path class="st3" d="M792.6,388.1l0.5-2c1,1.1,2.6,2.2,4.9,2.2c1.9,0,3.4-1.1,3.4-2.8c0-1.6-0.8-2.6-3.8-3.4
				c-3-0.8-4.5-2.5-4.5-4.7c0-2.3,1.9-4.2,5.2-4.2c1.9,0,3.5,0.8,4.4,1.5l-0.5,1.7c-1.1-0.8-2.6-1.4-3.9-1.4c-2,0-3.2,0.9-3.2,2.5
				c0,1.2,0.7,2.1,3.3,2.8c3.5,0.9,5.1,2.4,5.1,5.1c0,3.2-2.6,4.8-5.4,4.8C795.4,390,793.5,389,792.6,388.1z"/>
		</g>
		<path class="st3" d="M592.2,347.5H586c-0.8,0.1-1.5-0.4-1.8-1.2l-7.4-17.1h-12.6v17.1c0.1,0.5-0.2,1.1-0.8,1.2c-0.1,0-0.3,0-0.4,0
			h-6.6c-0.5,0.1-1.1-0.2-1.2-0.8c0-0.1,0-0.3,0-0.4v-52.8c-0.1-0.5,0.2-1.1,0.8-1.2c0.1,0,0.3,0,0.4,0h19.7
			c10.7,0,15.8,5.9,15.8,15.7v5.4c0,6.4-2.2,11.1-6.7,13.7l8.2,18.5C593.9,346.7,593.4,347.5,592.2,347.5z M564.2,321.1h11.9
			c4.8,0,6.9-1.7,6.9-7.6V308c0-5.8-2-7.6-6.9-7.6h-11.9V321.1z"/>
		<path class="st3" d="M644.4,308.3v23.2c0,10-5.2,16.4-15.8,16.4h-7.7c-10.6,0-15.8-6.4-15.8-16.4v-23.2c0-10,5.2-16.4,15.8-16.4
			h7.7C639.2,291.9,644.4,298.3,644.4,308.3z M635.4,308.3c0-6.1-2-8.3-6.9-8.3h-7.7c-4.8,0-6.8,2.2-6.8,8.3v23.2
			c0,6.1,2,8.3,6.8,8.3h7.7c4.8,0,6.9-2.1,6.9-8.3V308.3z"/>
		<path class="st3" d="M695.8,293.5v52.8c0.1,0.5-0.2,1.1-0.8,1.2c-0.1,0-0.3,0-0.4,0h-9c-0.6,0-1.2-0.3-1.4-0.9l-17.5-39.5v39.2
			c0.1,0.5-0.2,1.1-0.8,1.2c-0.1,0-0.3,0-0.4,0H659c-0.5,0.1-1.1-0.2-1.2-0.8c0-0.1,0-0.3,0-0.4v-52.8c-0.1-0.5,0.2-1.1,0.8-1.2
			c0.1,0,0.3,0,0.4,0h9c0.6,0,1.2,0.3,1.4,0.9l17.5,39.4v-39.1c-0.1-0.5,0.2-1.1,0.8-1.2c0.1,0,0.3,0,0.4,0h6.6
			c0.5-0.1,1.1,0.3,1.1,0.9C695.9,293.2,695.9,293.4,695.8,293.5z"/>
		<path class="st3" d="M823.6,308.3v23.2c0,10-5.2,16.4-15.8,16.4H800c-10.6,0-15.8-6.4-15.8-16.4v-23.2c0-10,5.2-16.4,15.8-16.4
			h7.7C818.4,291.9,823.6,298.3,823.6,308.3z M814.6,308.3c0-6.1-2-8.3-6.9-8.3H800c-4.8,0-6.8,2.2-6.8,8.3v23.2
			c0,6.1,2,8.3,6.8,8.3h7.7c4.8,0,6.9-2.1,6.9-8.3L814.6,308.3z"/>
		<path class="st3" d="M875.5,308.3v23.2c0,10-5.2,16.4-15.8,16.4H852c-10.6,0-15.8-6.4-15.8-16.4v-23.2c0-10,5.2-16.4,15.8-16.4
			h7.7C870.3,291.9,875.5,298.3,875.5,308.3z M866.5,308.3c0-6.1-2-8.3-6.9-8.3H852c-4.8,0-6.9,2.2-6.9,8.3v23.2
			c0,6.1,2,8.3,6.9,8.3h7.7c4.8,0,6.9-2.1,6.9-8.3L866.5,308.3z"/>
		<path class="st3" d="M926,307.7v24.2c0,9.5-5.2,15.5-15.6,15.5h-20.3c-0.5,0.1-1.1-0.2-1.2-0.8c0-0.1,0-0.3,0-0.4v-52.8
			c-0.1-0.5,0.2-1.1,0.8-1.2c0.1,0,0.3,0,0.4,0h20.3C920.8,292.3,926,298.2,926,307.7z M917,307.7c0-5.6-2-7.3-6.6-7.3h-12.5v38.9
			h12.5c4.6,0,6.6-1.7,6.6-7.4L917,307.7z"/>
		<path class="st3" d="M513.9,299.1v-5.6c-0.1-0.5,0.2-1.1,0.8-1.2c0.1,0,0.3,0,0.4,0h25.5c0.6-0.1,1.1,0.4,1.2,0.9
			c0,0.1,0,0.2,0,0.2v5.6c0.1,0.6-0.4,1.1-0.9,1.2c-0.1,0-0.2,0-0.2,0h-25.5c-0.5,0.1-1.1-0.2-1.2-0.8
			C513.9,299.3,513.9,299.2,513.9,299.1z"/>
		<path class="st3" d="M513.9,346.3v-5.6c-0.1-0.5,0.2-1.1,0.8-1.2c0.1,0,0.3,0,0.4,0h25.5c0.6-0.1,1.1,0.4,1.2,1c0,0.1,0,0.1,0,0.2
			v5.6c0.1,0.6-0.4,1.1-0.9,1.2c-0.1,0-0.2,0-0.2,0h-25.5c-0.5,0.1-1.1-0.2-1.2-0.8C513.9,346.5,513.9,346.4,513.9,346.3z"/>
		<path class="st3" d="M524.5,292.3h6.8c0.7,0,1.2,0.5,1.2,1.2v52.8c0,0.7-0.5,1.2-1.2,1.2h-6.8c-0.7,0-1.2-0.5-1.2-1.2v-52.8
			C523.3,292.8,523.8,292.3,524.5,292.3z"/>
		<path class="st3" d="M729,333.8l15.9-39.8c0.2-0.9,0.6-1.3,1.4-1.3h6.9c0.8,0,1.2,0.4,1,1.3l-20.8,52.7c-0.2,0.7-0.8,1.2-1.5,1.3
			h-5.7c-0.7,0-1.3-0.5-1.5-1.3L703.8,294c-0.2-0.9,0.2-1.3,0.9-1.3h6.9c0.8,0,1.2,0.4,1.4,1.3L729,333.8z"/>
		<path class="st3" d="M754.3,333.8l15.9-39.8c0.2-0.9,0.6-1.3,1.4-1.3h6.9c0.8,0,1.2,0.4,1,1.3l-20.8,52.7
			c-0.1,0.7-0.8,1.2-1.5,1.3h-5.8c-0.7,0-1.3-0.5-1.5-1.3L729.1,294c-0.2-0.9,0.2-1.3,1-1.3h7c0.8,0,1.2,0.4,1.4,1.3L754.3,333.8z"
			/>
	</g>
</g>
</svg>
