<?xml version="1.0" encoding="utf-8"?>
<!-- Generator: Adobe Illustrator 22.1.0, SVG Export Plug-In . SVG Version: 6.00 Build 0)  -->
<svg version="1.1" id="Layer_1" xmlns="http://www.w3.org/2000/svg" xmlns:xlink="http://www.w3.org/1999/xlink" x="0px" y="0px"
	 viewBox="0 0 209.1 78.7" style="enable-background:new 0 0 209.1 78.7;" xml:space="preserve">
<style type="text/css">
	.st0{enable-background:new    ;}
	.st1{fill:#6D6E71;}
	.st2{fill:#231F20;}
</style>
<title>logo</title>
<g id="Layer_2_1_">
	<g id="Layer_1-2">
		<g class="st0">
			<path class="st1" d="M69.8,2.7h0.6l4.9,6.1V2.7h1V11h-0.6l-4.9-6.1V11h-1V2.7z"/>
			<path class="st1" d="M79.6,2.7h5v0.9h-3.9v2.5h3.2v0.9h-3.2v3h3.9V11h-5V2.7z"/>
			<path class="st1" d="M86.7,2.7h1.1l2,6.1c0,0.1,0.1,0.5,0.1,0.5c0,0,0.1-0.4,0.1-0.5L92,2.7h0.7l1.9,6.1c0.1,0.2,0.1,0.5,0.1,0.5
				s0.1-0.4,0.1-0.5l2-6.1h1.1L95.1,11h-0.7l-1.9-5.6c0-0.1-0.1-0.4-0.1-0.5c0,0-0.1,0.3-0.1,0.5L90.3,11h-0.7L86.7,2.7z"/>
			<path class="st1" d="M104.1,2.7h1.1v3.4h4.5V2.7h1.1V11h-1.1V7.1h-4.5V11h-1.1V2.7z"/>
			<path class="st1" d="M113.7,6.8c0-2.5,1.9-4.3,4.4-4.3c2.5,0,4.4,1.8,4.4,4.3c0,2.5-1.8,4.3-4.4,4.3
				C115.5,11.2,113.7,9.4,113.7,6.8z M121.3,6.8c0-2-1.3-3.4-3.2-3.4c-1.9,0-3.2,1.4-3.2,3.4c0,2,1.3,3.4,3.2,3.4
				C119.9,10.3,121.3,8.8,121.3,6.8z"/>
			<path class="st1" d="M125.2,2.7h2.7c1.9,0,2.7,1.2,2.7,2.5s-0.8,2.5-2.7,2.5h-1.6V11h-1.1V2.7z M128,6.8c1.2,0,1.6-0.8,1.6-1.6
				s-0.4-1.6-1.6-1.6h-1.6v3.1H128z"/>
			<path class="st1" d="M133.2,2.7h5v0.9h-3.9v2.5h3.2v0.9h-3.2v3h3.9V11h-5V2.7z"/>
		</g>
		<g class="st0">
			<path class="st1" d="M64,66.7h0.7l3.5,8.2h-1.1l-1-2.3h-3.6l-1,2.3h-1.1L64,66.7z M65.7,71.8l-1.4-3.4l-1.4,3.4H65.7z"/>
		</g>
		<g class="st0">
			<path class="st1" d="M70.6,66.7h2.7c1.9,0,2.7,1.2,2.7,2.5s-0.8,2.5-2.7,2.5h-1.6V75h-1.1V66.7z M73.3,70.8
				c1.2,0,1.6-0.8,1.6-1.6s-0.4-1.6-1.6-1.6h-1.6v3.1H73.3z"/>
		</g>
		<g class="st0">
			<path class="st1" d="M80.6,66.7h0.7l3.5,8.2h-1.1l-1-2.3h-3.6l-1,2.3h-1.1L80.6,66.7z M82.4,71.8l-1.4-3.4l-1.4,3.4H82.4z"/>
		</g>
		<g class="st0">
			<path class="st1" d="M87.3,66.7H90c1.9,0,2.7,1.1,2.7,2.4c0,1.1-0.5,2-1.7,2.3l2.5,3.5h-1.3l-2.4-3.4h-1.5V75h-1.1V66.7z
				 M90,70.6c1.2,0,1.6-0.7,1.6-1.5c0-0.8-0.4-1.5-1.6-1.5h-1.6v3H90z"/>
		</g>
		<g class="st0">
			<path class="st1" d="M97.6,67.7h-2.9v-0.9h6.9v0.9h-2.9V75h-1.1V67.7z"/>
			<path class="st1" d="M104.1,66.7h1.1l3.2,6.8l3.2-6.8h1V75h-1.1v-5.6c0-0.2,0-0.7,0-0.7c0,0-0.2,0.5-0.3,0.7l-2.6,5.6h-0.7
				l-2.6-5.6c-0.1-0.2-0.3-0.6-0.3-0.7c0,0,0,0.5,0,0.7V75h-1V66.7z"/>
			<path class="st1" d="M115.8,66.7h5v0.9h-3.9v2.5h3.2v0.9h-3.2v3h3.9V75h-5V66.7z"/>
			<path class="st1" d="M123.7,66.7h0.6l4.9,6.1v-6.1h1V75h-0.6l-4.9-6.1V75h-1V66.7z"/>
		</g>
		<g class="st0">
			<path class="st1" d="M135.6,67.7h-2.9v-0.9h6.9v0.9h-2.9V75h-1.1V67.7z"/>
		</g>
		<g class="st0">
			<path class="st1" d="M141.4,74.1l0.2-1c0.5,0.5,1.3,1.1,2.5,1.1c1,0,1.7-0.5,1.7-1.4c0-0.8-0.4-1.3-1.9-1.7
				c-1.5-0.4-2.3-1.2-2.3-2.4c0-1.2,1-2.1,2.6-2.1c0.9,0,1.8,0.4,2.2,0.8l-0.2,0.9c-0.5-0.4-1.3-0.7-2-0.7c-1,0-1.6,0.5-1.6,1.2
				c0,0.6,0.4,1.1,1.7,1.4c1.8,0.5,2.6,1.2,2.6,2.6c0,1.6-1.3,2.4-2.8,2.4C142.8,75.1,141.8,74.6,141.4,74.1z"/>
		</g>
		<path class="st2" d="M39.7,53.5h-3.2c-0.4,0-0.8-0.2-0.9-0.6l-3.8-8.7h-6.4v8.7c0,0.3-0.2,0.6-0.4,0.6c-0.1,0-0.1,0-0.2,0h-3.4
			c-0.3,0-0.6-0.2-0.6-0.4c0,0,0-0.1,0-0.2V26.1c0-0.3,0.2-0.6,0.4-0.6c0.1,0,0.1,0,0.2,0h10c5.4,0,8,3,8,8v2.8c0,3.2-1.1,5.6-3.4,7
			l4.2,9.4C40.6,53.2,40.3,53.5,39.7,53.5z M25.5,40.1h6c2.4,0,3.5-0.9,3.5-3.9v-2.8c0-3-1-3.8-3.5-3.8h-6V40.1z"/>
		<path class="st2" d="M66.2,33.7v11.8c0,5.1-2.6,8.3-8,8.3h-4c-5.4,0-8-3.2-8-8.3V33.7c0-5.1,2.6-8.3,8-8.3h3.9
			C63.6,25.3,66.2,28.6,66.2,33.7z M61.7,33.7c0-3.1-1-4.2-3.5-4.2h-3.9c-2.4,0-3.5,1.1-3.5,4.2v11.8c0,3.1,1,4.2,3.5,4.2h3.9
			c2.4,0,3.5-1.1,3.5-4.2V33.7z"/>
		<path class="st2" d="M92.3,26.1v26.8c0,0.3-0.2,0.6-0.4,0.6c0,0-0.1,0-0.2,0h-4.6c-0.3,0-0.6-0.2-0.7-0.4l-8.9-20v19.8
			c0,0.3-0.2,0.6-0.4,0.6c0,0-0.1,0-0.2,0h-3.4c-0.3,0-0.6-0.2-0.6-0.4c0-0.1,0-0.1,0-0.2V26.1c0-0.3,0.2-0.6,0.4-0.6
			c0.1,0,0.1,0,0.2,0h4.6c0.3,0,0.6,0.2,0.7,0.4l8.9,20V26.1c0-0.3,0.2-0.6,0.4-0.6c0.1,0,0.1,0,0.2,0h3.4c0.3,0,0.6,0.2,0.6,0.4
			C92.3,26,92.3,26.1,92.3,26.1z"/>
		<path class="st2" d="M157.1,33.7v11.8c0,5.1-2.6,8.3-8,8.3h-3.9c-5.4,0-8-3.2-8-8.3V33.7c0-5.1,2.6-8.3,8-8.3h3.9
			C154.5,25.3,157.1,28.6,157.1,33.7z M152.6,33.7c0-3.1-1-4.2-3.5-4.2h-3.9c-2.4,0-3.5,1.1-3.5,4.2v11.8c0,3.1,1,4.2,3.5,4.2h3.9
			c2.4,0,3.5-1.1,3.5-4.2V33.7z"/>
		<path class="st2" d="M183.5,33.7v11.8c0,5.1-2.6,8.3-8,8.3h-3.9c-5.4,0-8-3.2-8-8.3V33.7c0-5.1,2.6-8.3,8-8.3h3.9
			C180.8,25.3,183.5,28.6,183.5,33.7z M178.9,33.7c0-3.1-1-4.2-3.5-4.2h-3.9c-2.4,0-3.5,1.1-3.5,4.2v11.8c0,3.1,1,4.2,3.5,4.2h3.9
			c2.4,0,3.5-1.1,3.5-4.2V33.7z"/>
		<path class="st2" d="M209.1,33.4v12.3c0,4.8-2.6,7.9-7.9,7.9h-10.3c-0.3,0-0.6-0.2-0.6-0.4c0-0.1,0-0.1,0-0.2V26.1
			c0-0.3,0.2-0.6,0.4-0.6c0.1,0,0.1,0,0.2,0h10.3C206.4,25.5,209.1,28.5,209.1,33.4z M204.5,33.4c0-2.8-1-3.7-3.4-3.7h-6.4v19.7h6.4
			c2.3,0,3.4-0.9,3.4-3.8V33.4z"/>
		<path class="st2" d="M0,29v-2.9c0-0.3,0.2-0.6,0.4-0.6c0.1,0,0.1,0,0.2,0h13c0.3,0,0.6,0.2,0.6,0.5c0,0,0,0.1,0,0.1V29
			c0,0.3-0.2,0.6-0.5,0.6c0,0-0.1,0-0.1,0h-13c-0.3,0-0.6-0.2-0.6-0.4C0,29.1,0,29.1,0,29z"/>
		<path class="st2" d="M0,52.9v-2.8c0-0.3,0.2-0.6,0.5-0.6c0,0,0.1,0,0.1,0h13c0.3,0,0.6,0.2,0.6,0.5c0,0,0,0.1,0,0.1v2.8
			c0,0.3-0.2,0.6-0.5,0.6c0,0-0.1,0-0.1,0h-13c-0.3,0-0.6-0.2-0.6-0.4C0,53,0,53,0,52.9z"/>
		<path class="st2" d="M5.4,25.5h3.4c0.3,0,0.6,0.3,0.6,0.6v26.8c0,0.3-0.3,0.6-0.6,0.6H5.4c-0.3,0-0.6-0.3-0.6-0.6V26.1
			C4.8,25.8,5,25.5,5.4,25.5z"/>
		<path class="st2" d="M109.1,46.6l8.1-20.2c0.1-0.4,0.3-0.6,0.7-0.6h3.5c0.4,0,0.6,0.2,0.5,0.6l-10.6,26.7
			c-0.1,0.4-0.4,0.6-0.8,0.6h-2.9c-0.4,0-0.7-0.3-0.8-0.6L96.3,26.4c-0.1-0.4,0.1-0.6,0.5-0.6h3.5c0.4,0,0.6,0.2,0.7,0.6L109.1,46.6
			z"/>
		<path class="st2" d="M121.9,46.6l8.1-20.2c0.1-0.4,0.3-0.6,0.7-0.6h3.5c0.4,0,0.6,0.2,0.5,0.6l-10.6,26.7
			c-0.1,0.4-0.4,0.6-0.8,0.6h-2.9c-0.4,0-0.7-0.3-0.8-0.6l-10.6-26.7c-0.1-0.4,0.1-0.6,0.5-0.6h3.5c0.4,0,0.6,0.2,0.7,0.6
			L121.9,46.6z"/>
	</g>
</g>
</svg>
