<svg xmlns="http://www.w3.org/2000/svg" viewBox="0 0 101.87 64.45"><defs><style>.cls-1{fill:#231f20;}</style></defs><title>logo</title><g id="Layer_2" data-name="Layer 2"><g id="Layer_1-2" data-name="Layer 1"><path class="cls-1" d="M14.48,51.08l-.11.19H12L10.8,48.48H4.11L2.86,51.27H.6l-.11-.19L6.87,37.54H8.14ZM10,46.71,7.48,40.88,4.89,46.71Z"/><path class="cls-1" d="M15.45,49.94a1.6,1.6,0,0,1,3.19,0,1.6,1.6,0,0,1-3.19,0Z"/><path class="cls-1" d="M33.72,51.34l-.95-8.77-4,8.77h-1.2l-3.91-8.79-.95,8.79H20.47l1.67-13.73h1.27l4.77,10.45L33,37.61H34.2l1.69,13.73Z"/><path class="cls-1" d="M37.08,49.94a1.59,1.59,0,1,1,1.58,1.58A1.58,1.58,0,0,1,37.08,49.94Z"/><path class="cls-1" d="M53.27,37.5V51.44H51V39.49H48.31v-2Z"/><path class="cls-1" d="M66.73,48.59a36.08,36.08,0,0,1-3,3.42h-.19l-1.37-1.27v-.17A35,35,0,0,0,64.66,48c.5-.61,1-1.22,1.33-1.79a4.18,4.18,0,0,1-2,.55c-3,0-5.13-2-5.13-4.71,0-3,2.24-4.86,5.26-4.86a4.91,4.91,0,0,1,5.28,5C69.41,44.32,68.35,46.43,66.73,48.59Zm.33-6.66a3,3,0,0,0-5.91,0,2.87,2.87,0,0,0,3,2.9A2.83,2.83,0,0,0,67.06,41.93Z"/><path class="cls-1" d="M84.92,47.21c0,2.56-2.24,4.38-5.38,4.38s-5.37-1.82-5.37-4.38a4.06,4.06,0,0,1,2.41-3.71,3.23,3.23,0,0,1-1.41-2.73c0-2.13,1.81-3.63,4.37-3.63s4.39,1.5,4.39,3.63a3.21,3.21,0,0,1-1.44,2.73A4,4,0,0,1,84.92,47.21Zm-2.34-.1a3.05,3.05,0,0,0-6.06,0,3.06,3.06,0,0,0,6.06,0ZM77.4,40.86A2.16,2.16,0,1,0,79.54,39,2,2,0,0,0,77.4,40.86Z"/><path class="cls-1" d="M95.72,51.59c-3.38,0-5.66-2.9-5.66-7.23s2.28-7.22,5.66-7.22,5.68,2.89,5.68,7.22S99.12,51.59,95.72,51.59Zm0-2c2,0,3.34-2.09,3.34-5.2s-1.33-5.19-3.34-5.19-3.33,2.09-3.33,5.19S93.72,49.56,95.72,49.56Z"/><path class="cls-1" d="M3.64,64.22l0,.06H2.78l-.25-.6H1.09l-.26.6H0l0-.06,1.57-3.35h.5ZM2.3,63.12,1.82,62l-.49,1.16Z"/><path class="cls-1" d="M9.07,64.16l0,0a.59.59,0,0,1-.39.13c-.44,0-.65-.25-.9-.7-.12-.22-.35-.64-.55-.64H6.87v1.28H6.05V60.87H7.52c.86,0,1.31.41,1.31,1.09a1,1,0,0,1-.68.94,1,1,0,0,1,.25.35c.09.18.17.38.34.38a.4.4,0,0,0,.16,0l0,0ZM7.52,62.44A.44.44,0,0,0,8,62a.45.45,0,0,0-.48-.46H6.87v.9Z"/><path class="cls-1" d="M14.73,64.28l-.21-1.84-.81,1.84h-.46l-.8-1.84-.21,1.84h-.81l.48-3.41h.48l1.09,2.35,1.06-2.35H15l.47,3.41Z"/><path class="cls-1" d="M19.27,61.53v2.09h.5v.66H17.93v-.66h.52V61.53h-.52v-.66h1.84v.66Z"/><path class="cls-1" d="M24,64.28h-.83V61.54H22.11v-.67h3v.67H24Z"/><path class="cls-1" d="M30.46,64.22l0,.06h-.83l-.24-.6H27.9l-.25.6h-.8l0-.06,1.57-3.35h.5Zm-1.35-1.1L28.64,62l-.5,1.16Z"/><path class="cls-1" d="M36.09,62.62a1.64,1.64,0,0,1-.51,1.22,1.78,1.78,0,0,1-1.27.5,1.77,1.77,0,1,1,0-3.53,1.85,1.85,0,0,1,1.43.65v.07l-.51.42h-.06a1.06,1.06,0,0,0-.83-.4,1,1,0,0,0-1,1,1,1,0,0,0,1.65.79.81.81,0,0,0,.25-.45h-.91v-.61H36l.06.06A2,2,0,0,1,36.09,62.62Z"/><path class="cls-1" d="M39.48,61.54v.71h1.29v.64H39.48v.72h1.68v.67h-2.5V60.87h2.49v.67Z"/><path class="cls-1" d="M49.91,64.22l0,.06a1.15,1.15,0,0,1-1.17,0,1.65,1.65,0,0,1-.68.13,1.4,1.4,0,0,1-1.56-1.33,1.2,1.2,0,0,1,.58-1,1.34,1.34,0,0,1-.07-.18.75.75,0,0,1-.06-.29.92.92,0,0,1,1-.91,1.08,1.08,0,0,1,.93.48v.06l-.38.3h-.06a.53.53,0,0,0-.44-.28.35.35,0,0,0-.38.34,1.07,1.07,0,0,0,.26.53l.93,1.34a.79.79,0,0,0,.1-.37.81.81,0,0,0-.22-.55v0l.48-.32h.06a1.39,1.39,0,0,1,.37.94,1.23,1.23,0,0,1-.28.79h0a.67.67,0,0,0,.35-.14l0,0ZM48,63.86a.8.8,0,0,0,.23,0l-.72-1-.15-.24a.68.68,0,0,0-.2.49A.79.79,0,0,0,48,63.86Z"/><path class="cls-1" d="M58.32,64.28l-.21-1.84-.82,1.84h-.45L56,62.44l-.22,1.84H55l.47-3.41H56l1.09,2.35,1.07-2.35h.47l.47,3.41Z"/><path class="cls-1" d="M62.85,61.53v2.09h.51v.66H61.52v-.66H62V61.53h-.51v-.66h1.84v.66Z"/><path class="cls-1" d="M68.28,64.28H66V60.87h.82v2.74h1.43Z"/><path class="cls-1" d="M75.12,60.93l-1.27,3.35h-.48l-.78-2.11-.79,2.11h-.47l-1.26-3.35,0-.06h.8L71.61,63l.74-2.13h.48L73.57,63l.73-2.15h.78Z"/><path class="cls-1" d="M80.55,64.22l0,.06h-.82l-.25-.6H78l-.26.6H77l0-.06,1.57-3.35H79Zm-1.34-1.1L78.73,62l-.49,1.16Z"/><path class="cls-1" d="M83.58,60.87v1.94a.77.77,0,1,0,1.54,0V60.87h.8v1.89a1.58,1.58,0,1,1-3.15,0V60.87Z"/><path class="cls-1" d="M91.8,64.16l0,0a.67.67,0,0,1-.43.13,1,1,0,0,1-.88-.52l-.7-.92-.25.28v1.1h-.82V60.87h.82v1.39l1.21-1.39h.89l0,.06-1.28,1.48.7.93c.17.22.27.27.38.27a.48.48,0,0,0,.18,0l0,0Z"/><path class="cls-1" d="M95,61.54v.71h1.29v.64H95v.72h1.68v.67h-2.5V60.87H96.7v.67Z"/><path class="cls-1" d="M100.19,61.54v.71h1.29v.64h-1.29v.72h1.68v.67h-2.5V60.87h2.48v.67Z"/><path class="cls-1" d="M50.62,21c-.74,0-1.53,0-2.36-.06s-1.37-.06-1.89-.05a.78.78,0,0,1-.77-.73.76.76,0,0,1,.74-.77c.55,0,1.23,0,2,.05,1.94.08,5.18.2,6-.58a.41.41,0,0,0,.13-.32.75.75,0,0,1,.74-.76h0a.75.75,0,0,1,.75.74A1.88,1.88,0,0,1,55.34,20C54.47,20.82,52.79,21,50.62,21Z"/><path class="cls-1" d="M50.63,24.58c-1.17,0-2.43,0-3.75-.07s-2.31-.07-3.17-.05a.75.75,0,1,1,0-1.5c.91,0,2,0,3.25.05,3.62.11,9.08.28,10.43-1.05a.72.72,0,0,0,.23-.54.75.75,0,0,1,.74-.76.74.74,0,0,1,.76.74A2.21,2.21,0,0,1,58.41,23C57.14,24.28,54.33,24.58,50.63,24.58Z"/><path class="cls-1" d="M58.75,17.54A.75.75,0,0,1,58,16.8c0-.54,0-1.23,0-2,.08-1.94.2-5.18-.58-6a.37.37,0,0,0-.31-.13.75.75,0,1,1,0-1.5,2,2,0,0,1,1.41.58c1.14,1.17,1.14,3.79,1,7.09,0,.71,0,1.37,0,1.89a.76.76,0,0,1-.74.76Z"/><path class="cls-1" d="M62.27,20.2a.75.75,0,0,1-.75-.74c0-.9,0-2,0-3.25.11-3.61.28-9.08-1-10.42A.71.71,0,0,0,60,5.55a.75.75,0,0,1,0-1.5,2.24,2.24,0,0,1,1.63.68c1.64,1.67,1.65,6,1.48,11.53,0,1.19-.07,2.31,0,3.18a.76.76,0,0,1-.74.76Z"/><path class="cls-1" d="M46.54,6.76A.75.75,0,0,1,45.79,6a1.88,1.88,0,0,1,.58-1.41c1.16-1.14,3.78-1.14,7.08-1,.71,0,1.37,0,1.89,0a.75.75,0,1,1,0,1.5c-.54,0-1.23,0-2-.05-1.94-.07-5.18-.2-6,.58a.38.38,0,0,0-.12.32.76.76,0,0,1-.74.76Z"/><path class="cls-1" d="M43.36,3.92a.76.76,0,0,1-.75-.74,2.19,2.19,0,0,1,.69-1.63C45-.09,49.31-.1,54.82.07,56,.11,57.13.14,58,.13a.74.74,0,0,1,.76.73.75.75,0,0,1-.74.77c-.9,0-2,0-3.24-.06-3.62-.11-9.09-.27-10.43,1.05a.7.7,0,0,0-.24.54.73.73,0,0,1-.73.76Z"/><path class="cls-1" d="M44.55,17.36a1.89,1.89,0,0,1-1.38-.58C42,15.61,42,13,42.16,9.7c0-.72.06-1.37.05-1.9a.75.75,0,0,1,1.5,0c0,.54,0,1.23-.05,2-.07,1.94-.2,5.18.59,6a.44.44,0,0,0,.31.13.75.75,0,0,1,0,1.5Z"/><path class="cls-1" d="M41.71,20.53a2.23,2.23,0,0,1-1.6-.68c-1.64-1.67-1.64-6-1.48-11.53,0-1.19.07-2.31.06-3.18a.75.75,0,0,1,1.5,0c0,.9,0,2-.06,3.24-.11,3.62-.27,9.09,1,10.43a.67.67,0,0,0,.54.24.76.76,0,0,1,.76.74.75.75,0,0,1-.73.76Z"/></g></g></svg>