<svg id="logo" xmlns="http://www.w3.org/2000/svg" viewBox="0 0 704.19 301.92"><defs><style>.cls-1{fill:#9a9ac1;}.cls-2{fill:#343249;}.cls-3{fill:#e0a217;}</style></defs><title>logo</title><path class="cls-1" d="M653.87,412.59c9.12,0,14.14,7.26,14.14,15.88v0.87H643c0.31,6.51,4.65,11.91,11.72,11.91a13.17,13.17,0,0,0,9.8-4.16l1.67,2.11A15.46,15.46,0,0,1,654.43,444c-8.75,0-15-6.51-15-15.75C639.42,419.6,645.56,412.59,653.87,412.59ZM643,426.79h21.77c-0.06-5.09-3.41-11.41-10.92-11.41C646.74,415.38,643.21,421.58,643,426.79Z" transform="translate(-639.27 -153.53)"/><path class="cls-1" d="M715.72,422.33c0-4.22-1.8-6.82-6-6.82-3.23,0-6.88,2.36-8.56,5.09v22.7h-3.29v-21c0-4.22-1.74-6.82-6-6.82-3.16,0-6.76,2.42-8.56,5.15v22.64H680v-30h3.23v4.53c1.24-1.92,5.33-5.27,9.68-5.27,4.65,0,7.13,2.73,7.88,5.64a12.45,12.45,0,0,1,9.92-5.64c5.52,0,8.19,3.1,8.19,9.12v21.58h-3.23v-21Z" transform="translate(-639.27 -153.53)"/><path class="cls-1" d="M732.71,401.92h3.23v16.25a12.8,12.8,0,0,1,10.42-5.58c8,0,13.4,6.26,13.4,15.75S754.3,444,746.36,444a12.76,12.76,0,0,1-10.42-5.52v4.78h-3.23V401.92Zm13.09,39.2c6.7,0,10.48-5.52,10.48-12.78S752.5,415.5,745.8,415.5a12.21,12.21,0,0,0-9.86,5.46v14.82A12.11,12.11,0,0,0,745.8,441.12Z" transform="translate(-639.27 -153.53)"/><path class="cls-1" d="M771.85,413.33h3.23v5.15c2.54-3.35,6-5.77,10.11-5.77v3.54a6.82,6.82,0,0,0-1.61-.12c-3,0-7.13,2.73-8.5,5.33v21.83h-3.23v-30Z" transform="translate(-639.27 -153.53)"/><path class="cls-1" d="M814.27,439.76A13,13,0,0,1,804.1,444c-5.15,0-10.48-3.54-10.48-10s5.27-9.92,10.48-9.92a13,13,0,0,1,10.17,4.28v-6.08c0-4.46-3.6-6.88-8.06-6.88a11.65,11.65,0,0,0-9.37,4.4l-1.8-2.23a14.55,14.55,0,0,1,11.54-5c6.08,0,10.92,2.92,10.92,9.61v21.09h-3.23v-3.54Zm0-8.93a11.25,11.25,0,0,0-9.06-4.16c-5,0-8.19,3.16-8.19,7.44s3.23,7.38,8.19,7.38a11.2,11.2,0,0,0,9.06-4.09v-6.58Z" transform="translate(-639.27 -153.53)"/><path class="cls-1" d="M844.11,412.59a12.37,12.37,0,0,1,10.61,5.09l-2.23,2a9.48,9.48,0,0,0-8.19-4.16c-7,0-11.29,5.58-11.29,12.78s4.28,12.84,11.29,12.84a9.54,9.54,0,0,0,8.19-4.22l2.23,2A12.26,12.26,0,0,1,844.11,444c-8.81,0-14.58-7-14.58-15.75S835.3,412.59,844.11,412.59Z" transform="translate(-639.27 -153.53)"/><path class="cls-1" d="M878.35,412.59c9.12,0,14.14,7.26,14.14,15.88v0.87H867.43c0.31,6.51,4.65,11.91,11.72,11.91a13.17,13.17,0,0,0,9.8-4.16l1.67,2.11A15.46,15.46,0,0,1,878.91,444c-8.75,0-15-6.51-15-15.75C863.89,419.6,870,412.59,878.35,412.59Zm-10.92,14.2H889.2c-0.06-5.09-3.41-11.41-10.92-11.41C871.21,415.38,867.68,421.58,867.43,426.79Z" transform="translate(-639.27 -153.53)"/><path class="cls-1" d="M948.68,413.33l-15.51,36.53c-1.61,3.78-4.16,5.58-7.69,5.58a12.58,12.58,0,0,1-3.16-.43l0.56-3a7.46,7.46,0,0,0,2.61.5c2,0,3.35-.81,4.53-3.66l2.36-5.33-12.65-30.21h3.6l10.92,26.17L945,413.33h3.66Z" transform="translate(-639.27 -153.53)"/><path class="cls-1" d="M956.13,428.28c0-8.75,5.64-15.69,14.39-15.69S985,419.54,985,428.28,979.39,444,970.52,444,956.13,437,956.13,428.28Zm25.37,0c0-6.64-3.91-12.78-11-12.78s-10.92,6.14-10.92,12.78,4,12.84,10.92,12.84S981.5,435,981.5,428.28Z" transform="translate(-639.27 -153.53)"/><path class="cls-1" d="M1017.22,438.89a15.2,15.2,0,0,1-10.79,5.15c-6.14,0-9.43-2.85-9.43-9.61V413.33h3.23v20.34c0,5.83,2.92,7.44,7.26,7.44a13,13,0,0,0,9.74-5V413.33h3.23v30h-3.23v-4.4Z" transform="translate(-639.27 -153.53)"/><path class="cls-1" d="M1034.22,413.33h3.23v5.15c2.54-3.35,6-5.77,10.11-5.77v3.54a6.82,6.82,0,0,0-1.61-.12c-3,0-7.13,2.73-8.5,5.33v21.83h-3.23v-30Z" transform="translate(-639.27 -153.53)"/><path class="cls-1" d="M1076.52,405.89a2.53,2.53,0,0,1,2.48-2.48,2.48,2.48,0,1,1,0,5A2.53,2.53,0,0,1,1076.52,405.89Zm0.87,7.44h3.23v30h-3.23v-30Z" transform="translate(-639.27 -153.53)"/><path class="cls-1" d="M1114.6,423c0-5.77-2.92-7.51-7.26-7.51a12.82,12.82,0,0,0-9.74,5.15v22.64h-3.23v-30h3.23v4.53a15.18,15.18,0,0,1,10.79-5.27c6.08,0,9.43,3,9.43,9.74v21h-3.23V423Z" transform="translate(-639.27 -153.53)"/><path class="cls-1" d="M1151.82,423c0-5.77-2.92-7.51-7.26-7.51a12.82,12.82,0,0,0-9.74,5.15v22.64h-3.23v-30h3.23v4.53a15.18,15.18,0,0,1,10.79-5.27c6.08,0,9.43,3,9.43,9.74v21h-3.23V423Z" transform="translate(-639.27 -153.53)"/><path class="cls-1" d="M1181.53,412.59c9.12,0,14.14,7.26,14.14,15.88v0.87h-25.06c0.31,6.51,4.65,11.91,11.72,11.91a13.17,13.17,0,0,0,9.8-4.16l1.67,2.11a15.46,15.46,0,0,1-11.72,4.84c-8.75,0-15-6.51-15-15.75C1167.08,419.6,1173.22,412.59,1181.53,412.59Zm-10.92,14.2h21.77c-0.06-5.09-3.41-11.41-10.92-11.41C1174.4,415.38,1170.86,421.58,1170.61,426.79Z" transform="translate(-639.27 -153.53)"/><path class="cls-1" d="M1207.71,413.33h3.23v5.15c2.54-3.35,6-5.77,10.11-5.77v3.54a6.82,6.82,0,0,0-1.61-.12c-3,0-7.13,2.73-8.5,5.33v21.83h-3.23v-30Z" transform="translate(-639.27 -153.53)"/><path class="cls-1" d="M1249.14,428.28c0-8.75,5.64-15.69,14.39-15.69s14.45,6.95,14.45,15.69S1272.4,444,1263.53,444,1249.14,437,1249.14,428.28Zm25.37,0c0-6.64-3.91-12.78-11-12.78s-10.92,6.14-10.92,12.78,4,12.84,10.92,12.84S1274.51,435,1274.51,428.28Z" transform="translate(-639.27 -153.53)"/><path class="cls-1" d="M1307.32,417.68l-8.44,25.62h-3.1l-9.74-30h3.47l7.94,25.43,8.44-25.43h2.79l8.44,25.43,7.94-25.43h3.47l-9.74,30h-3.1Z" transform="translate(-639.27 -153.53)"/><path class="cls-1" d="M1338.33,401.92h3.23v41.37h-3.23V401.92Z" transform="translate(-639.27 -153.53)"/><path class="cls-2" d="M719,331.09c1.48-11.21,7.33-21.18,10.78-31.78,1.77-5.44,4.13-11.43,4.72-17.2,0.28-2.72.58-5.39,1.07-8.08,0.35-1.92.23-5.38,2.45-3.9,3.12,2.08,3.2,8.54,4,12.11,1.31,5.69,3.32,11.08,4.73,16.72,1.35,5.38,2.1,11,3.35,16.46,0.67,2.93,1.36,5.85,2,8.78,0.3,1.31.59,2.62,0.81,3.95,0.28,1.74.45,2.63,1.17,0.36,1.81-5.75,2.71-11.66,3.82-17.6s2.36-11.87,3.46-17.82c1.06-5.71,1.78-11.4,2.52-17.15,0.23-1.76,3.44-13.05,5.73-8.84,2.87,5.29-.61,10.58-0.77,16-0.08,2.84.44,5.38,0,8.26s-0.73,5.52-1,8.32c-0.59,5.76-2.36,11.5-3.64,17.11s-2.9,11.18-4.18,16.82c-0.74,3.26-1.42,6.53-2.08,9.81-0.5,2.48-.58,5.93-2.81,7.35-3.68,2.33-7.11-9.49-7.87-12.26-1.64-5.91-3.65-12-4.64-18.11-1-5.84-1.4-12.07-4.59-17-1,4.59-1.85,9.23-2.9,13.8-1.1,4.77-3.6,8.8-4.8,13.49a78.65,78.65,0,0,1-5.08,13.64,23.14,23.14,0,0,1-3.14,5.5c-1.13,1.33-2.3,3.71-4.2,3.36-3.47-.64-4.17-8.08-4.86-11-1.15-4.9-2.62-9.7-3.88-14.56a136,136,0,0,1-2.57-15.17c-0.67-4.7-2-9.49-2.11-14.24-0.15-5-2.18-9.83-3.32-14.62-1.26-5.29-3.22-11.26-2.61-16.79,4.31,2.84,5.3,9,6.92,13.89,1.94,5.92,3.65,11.89,5.44,17.87,1.74,5.81,4,11.43,5.45,17.36a79.82,79.82,0,0,1,1.34,8.81c0.25,2-.24,4.92,1.23,6.34C719.22,329.48,717.54,329.68,719,331.09Z" transform="translate(-639.27 -153.53)"/><path class="cls-2" d="M1040.81,311.6c5.36,5.5,10.35,10.08,12.87,17.55,1.34,4,.28,6.48-2,9.83s-4.67,7.34-8,10c-6.57,5.34-15.77,6.48-23.77,4.24-2.07-.58-7.82-2.21-8.69-4.52-0.54-1.44.64-3.74,0.86-5.23a52.58,52.58,0,0,0,.45-7c0.17-8.87.43-17.69,0.26-26.57-0.09-4.25-.25-8.49-0.38-12.74-0.14-4.51-.88-9-1-13.46-0.12-3.89,1.52-7.54.77-11.45-0.2-1.05-1.57-3.21-1.14-4.25s2.93-.89,3.86-1c8.24-.68,18.66-1.87,25.71,3.29a39.77,39.77,0,0,1,8.9,9.08c2.71,3.82,3.59,7.66,4.16,12.24a17.54,17.54,0,0,1-3.58,13c-2.41,3.36-6.1,4.54-9.29,6.9C1042.46,313.3,1041.63,311,1040.81,311.6Zm-23.21-38c-0.48,1.73.71,4.09,1.62,5.61a11.84,11.84,0,0,1,2,5.93c0.33,4.79,0,9.49.72,14.28,0.18,1.24.24,5.22,1.56,5.91s4.58-.21,6-0.61a31.83,31.83,0,0,0,10.89-5.7c6-4.82,10.51-13.49,3.71-19.71-3.2-2.93-7.53-3.65-11.7-4.07-4.72-.47-10.39.37-14.79-1.63C1017.47,274,1021.51,275.34,1017.59,273.56Zm7.23,70.32c3.89-1,7.71-1.83,11.12-4.06a31.78,31.78,0,0,0,7.48-6.93c2.35-3,4.31-6.44,2-9.93a15,15,0,0,0-9.16-6.09,59.53,59.53,0,0,0-6.17-1.08c-1.54-.21-4.44-1.22-5.88-0.67-2.61,1-1.46,7.56-1.37,9.67a105.08,105.08,0,0,1-.13,12.54c-0.22,2.95-1.52,5.93,2.16,6.55C1026.58,343.43,1022.29,343.46,1024.82,343.89Z" transform="translate(-639.27 -153.53)"/><path class="cls-2" d="M1199.28,300.12c-1.31,1.84-1.07,4.17-1.25,6.32-0.21,2.48-.41,5-0.63,7.45a75.28,75.28,0,0,0,.26,14.93,38.13,38.13,0,0,1-1.18,13.81c-0.49,1.95-.21,3.93-0.62,5.86s-1.68,2.6-3.55,3.54c-1.19.6-3.46,2.62-4.92,2.27-2.18-.52-2.09-4.15-2-5.61,0.29-5,.83-9.9,1.19-14.84,0.16-2.24.34-4.49,0.41-6.74,0.08-2.55-.59-5-0.85-7.5-0.48-4.58.1-9.4,0.13-14,0.07-9.69.19-19.38,2.44-28.88,0.55-2.33.81-4.7,1.17-7,0.39-2.51,1.39-3.72,3.8-1.39,2.85,2.75,3.17,7.27,5.18,10.53,4.86,7.88,8,16.53,13.06,24.28a81.48,81.48,0,0,1,6.54,12.25c0.56,1.28,3.61,11.7,5.92,10.1,1.29-.89.14-5.15,0-6.44-0.22-2.67-.46-5.34-0.58-8a92.6,92.6,0,0,1,1.18-16.84c0.71-5.26,2.45-10.33,2.74-15.63,0.28-5.06-1.23-11.93,1.63-16.43,3.88,2.81,4.07,9.58,5.11,13.75,1.37,5.54,3,9.95,1.23,15.58-3.23,10-2.74,21.58-1.66,31.86,0.29,2.78.9,5.61,0.74,8.41s-0.95,5.2-1,7.88c0,2.49.19,5,.25,7.48,0.05,2.27.12,3.67-2.12,4.67-1.46.66-3.25,1.63-4.8,0.7-1.87-1.12-2.89-4.5-3.88-6.21-2.73-4.73-5.79-9.21-8.18-14.1-2.64-5.38-5.4-10.67-8.22-16a77.37,77.37,0,0,1-3.53-8.08c-0.58-1.47-2.3-7.68-4-7.92C1199,300.5,1199.46,300.14,1199.28,300.12Z" transform="translate(-639.27 -153.53)"/><path class="cls-2" d="M694.75,308.73c0.14,4-.74,7.38-1.36,11.3a54.07,54.07,0,0,1-1.14,6c-0.55,2-1.15,3.7-.53,5.73,0.93,3.06-1.19,6-2.61,8.77-1.73,3.39-3.6,6.82-6.38,9.47a38.92,38.92,0,0,1-9.18,6.25c-4,2-8,.5-12.08-0.53-1.9-.48-4-0.84-5.69-1.92a18.57,18.57,0,0,1-3.51-3.54c-2.79-3.18-5.92-6.33-8.36-9.77-4.54-6.38-4.94-14.17-4.49-21.72,0.48-8.07,1-16.43,2.94-24.31a41.5,41.5,0,0,1,10.71-19.25c2.5-2.62,5.49-6.43,8.72-8.11,3.08-1.61,7.67.42,10.81,1.15,3.9,0.91,7.3,2.06,9.62,5.54s3.64,7.18,5.85,10.56a35.07,35.07,0,0,1,5.4,11.7c0.3,1.35,1.9,12.66,1.27,12.72C694.75,308.87,694.81,308.72,694.75,308.73Zm-44.2-14.92c-1.75,2-2.72,5.51-3.48,8a26.77,26.77,0,0,0-.63,10.1c0.53,6.46,1.26,12.89,1.8,19.34a29.22,29.22,0,0,0,2,7.88c1.14,3,2.81,4.45,4.9,6.7,1.74,1.88,2.83,4.22,5.35,5.25,3,1.24,5.95-1.44,8.34-3.1,9.68-6.69,15.17-19.39,16.89-30.74,1-6.64,1.28-14-.13-20.61a29.5,29.5,0,0,0-2.73-8.32c-1.67-2.9-3.58-5.66-5.23-8.59-0.93-1.67-2.5-6-4.7-6.43-2.38-.42-5.86,3.25-7.45,4.61-5.73,4.91-10.18,10.53-14.51,16.65l-0.46-.79C650.24,294.15,650.73,294.11,650.55,293.8Z" transform="translate(-639.27 -153.53)"/><path class="cls-2" d="M1248.65,340.75a70.1,70.1,0,0,0,1.37-10.63c0.15-3.94-.94-7.79-1.32-11.72-0.75-7.69,0-15.47-.27-23.18s1.27-15.44,1.35-23.19a9.75,9.75,0,0,0-1.09-4.71c-0.81-1.58-2.26-3,.91-3.08a60.63,60.63,0,0,1,15.31,2.13c9.63,2.59,17.18,6.2,22.84,12.77a44.41,44.41,0,0,1,10.14,20.34c0.69,3.59,1,7.26,1.36,10.87a23.05,23.05,0,0,1-1.55,11.66c-2.81,7.25-2.56,14.89-8.66,21.23-3,3.08-7.11,5.71-11.09,8-4.16,2.43-8.56,2.32-13.49,3.05-2.61.39-4.8,1.11-7.52,0.68-1.6-.25-4.78-0.89-5.82-1.84-1.39-1.27-1.13-3.73-1.37-5.29-0.37-2.37-.72-4.75-1.08-7.12C1249,338.72,1249.19,344.29,1248.65,340.75Zm10.4,0.89c-0.28,0-1,6.26-.3,7.12,1.39,1.61,4.94.16,6.68-.44a29.52,29.52,0,0,0,14-10.7c3.87-5.35,4.11-11.73,5.52-17.62,0.63-2.63,2.06-5.4,2.21-8a58,58,0,0,0-.73-10.14c-0.69-5.72-4.91-10.11-7.24-15.41-1.94-4.42-5-9.61-10.77-11.76a39,39,0,0,0-10-2.51c-3.68-.23-2,4-1.82,6,0.49,6.66,2.08,13.21,2.43,19.9,0.39,7.38-1.82,14.52-.85,22,0.44,3.37,1.67,6.64,1.33,10-0.39,3.88-.33,7.71-0.41,11.6C1258.93,341.63,1259.13,337.94,1259.05,341.63Z" transform="translate(-639.27 -153.53)"/><path class="cls-2" d="M1155.59,355.63c-7.74.2-14.49-1.8-21.92-3-2.39-.38-3.72-0.81-4.31-2.84-0.82-2.85-.4-6.18-0.49-9.09-0.08-2.67-.29-5.33-0.39-8-0.12-3.12.38-6.21,0.18-9.33-0.38-5.85-.71-11.73-0.66-17.57,0.05-6.33.14-12.67,0.21-19,0.06-6.11.65-12.41,0.06-18.51s8.69-3.65,13.77-3.56c7.56,0.14,15.65-.8,23,1.08,2.36,0.61,5.4,2.48,6.09,4.43,1.12,3.17-3.75,2.78-6.08,2.71-7.67-.24-15.48-0.55-23.14-0.07-3.06.19-6.86,0-6.64,3s1.14,6.12,1.63,9.11c0.44,2.7,1,5.4,1.48,8.1,0.39,2.07-.07,6.25,2.65,7.33,2.91,1.15,7.88,1,11.11,1.37,3.45,0.35,7.92.1,11.13,1.15,2,0.66,3.47,2.65,2.65,4.36-1,2.05-4.11,2.32-6.46,2.14-3.58-.28-7.13-0.84-10.68-1.3-2.71-.35-7.84-2-9.22.38-1.23,2.13-.24,4.81-0.22,7.08,0,3.07.1,6.14,0.24,9.21,0.14,3.31-.67,6-1.57,9.22a33.43,33.43,0,0,0-1,9.85c0.07,2.78,1.28,3,4.58,2.94,4.62,0,9.24-.07,13.87-0.08,4.31,0,8.62,0,12.93.1,3.59,0.09,6.06,0,4.3,3-1.22,2.12-.84,4.8-4.28,5.49-3.76.75-8.85,0.15-12.77,0.21C1148.6,355.81,1159.53,355.58,1155.59,355.63Z" transform="translate(-639.27 -153.53)"/><path class="cls-2" d="M1329.72,329.88a39.16,39.16,0,0,0-1.45-9.08c-1-3.28-2.94-6.18-4.26-9.35-2.27-5.46-7.27-9.14-11.45-13.5a31.27,31.27,0,0,1-5-6.9c-1.53-2.78-3.9-5-4.63-8.09-1.29-5.57.66-12.54,6.69-15.26a93.94,93.94,0,0,1,9.55-3.39c2.9-.94,5.85-2.1,9-1.78s4.94,1.92,7.22,3.59c2.48,1.82,4.48,3.09,4.56,6.19,0.1,3.42-3.86,12.06-9.34,10-3-1.13.46-3.93,1.35-5.52,1.18-2.11,1.74-4.07-.07-6.05s-4.79-2-7.58-2c-3.33,0-6.63.14-8.62,2.83-1.78,2.41-2.11,5.87-2.5,8.64-0.46,3.28-.45,6,1.22,9,6.09,11,18.93,17.52,25.2,28.49,1.38,2.41,1.71,5.07,2.33,7.7a42.59,42.59,0,0,1,1.46,9.73,22.1,22.1,0,0,1-7.08,16.45c-4.26,3.85-10.25,5.55-16.28,5.33-7.31-.27-12.48-3.53-17.82-7.55-2.86-2.16-3.05-4.88-2.19-8.11a11.72,11.72,0,0,1,5.9-7.13c1.67-.94,6.45-4.16,7.41-1.5s-3.39,5.77-4.3,8.08c-0.83,2.11.37,4.27,2.31,5.74,3.23,2.44,6.54,1.14,9.69-.5,2.81-1.47,5.27-2.53,6.66-5.31a20.39,20.39,0,0,0,2-10.75C1329.41,324.72,1330.09,333,1329.72,329.88Z" transform="translate(-639.27 -153.53)"/><path class="cls-2" d="M820,353.79c-9,.28-17.9-1-26.85-1.74a12.33,12.33,0,0,1-4.78-1.39c-1.64-.77-3.44-0.8-5.22-1.09-2.26-.37-2.9-0.68-3.05-3-0.17-2.64,0-5.34,0-8,0.05-9.08-.61-18.23.13-27.28s-0.39-18.06.66-27a50.11,50.11,0,0,0,.37-12.34c-0.15-1.29-1.08-4.86.19-5.85s3,1.58,3.56,2.69c2,3.61,2.34,8.52,3.26,12.49a78,78,0,0,1,1.83,14,127.5,127.5,0,0,1-.42,13.07c-0.22,4.26-.36,9.38.49,13.56,0.4,2,1.26,3.69,1.51,5.7a53.77,53.77,0,0,1,.27,6.08c0,2.48-1.39,8.82,1,10.25,1.5,0.9,5.19.32,6.92,0.4l7.88,0.39c5.11,0.27,10.21.37,15.32,0.58,2,0.09,12-.05,8.1,4.26-1,1.09-10.91,6.31-11.18,4.29C817.85,353.86,820,353.9,820,353.79Z" transform="translate(-639.27 -153.53)"/><path class="cls-2" d="M1110.71,353.63c-9,.39-17.91-0.82-26.87-1.43a12.33,12.33,0,0,1-4.8-1.33c-1.65-.75-3.45-0.76-5.23-1-2.27-.35-2.91-0.65-3.09-3-0.2-2.64-.06-5.34-0.07-8-0.05-9.08-.82-18.22-0.19-27.28s-0.61-18.06.34-27a50.11,50.11,0,0,0,.23-12.35c-0.17-1.29-1.14-4.84.12-5.86s3,1.54,3.59,2.65c2,3.59,2.44,8.49,3.4,12.45a78,78,0,0,1,2,13.93,127.5,127.5,0,0,1-.27,13.08c-0.17,4.26-.25,9.38.65,13.56,0.42,2,1.31,3.68,1.57,5.68a53.77,53.77,0,0,1,.34,6.08c0,2.48-1.28,8.84,1.11,10.24,1.51,0.89,5.19.26,6.93,0.32l7.88,0.3c5.11,0.21,10.22.25,15.33,0.41,2,0.06,12-.19,8.15,4.16-1,1.1-10.83,6.44-11.13,4.42C1108.53,353.72,1110.72,353.73,1110.71,353.63Z" transform="translate(-639.27 -153.53)"/><path class="cls-3" d="M990,264.91a2.9,2.9,0,0,1-.38,2.35,17.35,17.35,0,0,1-3.51,4.26c-0.71.66-1.33,1.4-2,2a19,19,0,0,1-1.79,1.3,0.32,0.32,0,0,1-.25,0c-1.22-.44-2.43-0.93-3.66-1.31-1.39-.44-2.8-0.79-4.21-1.16a16.65,16.65,0,0,0-5.59-.18c-1.36.11-2.74,0.12-4.09,0.28a32.2,32.2,0,0,0-4.26.76,48.83,48.83,0,0,0-5.54,1.76,31.16,31.16,0,0,0-6.94,3.89c-1.15.85-2.38,1.59-3.51,2.46a28.77,28.77,0,0,0-3.12,2.7c-1.28,1.32-2.43,2.75-3.63,4.13a21.49,21.49,0,0,0-3.43,5.75c-0.57,1.3-1.16,2.58-1.75,3.9l-0.35-1.16c-0.43-1.36-1-2.71-1.26-4.1s-1.29-2.64-1.81-4a20.37,20.37,0,0,0-3.51-5.83c-1-1.17-2.2-2.16-3.26-3.28-1.34-1.41-3.12-2.18-4.65-3.32-0.55-.4-1.32-0.51-1.88-0.9-2.13-1.52-4.65-2.08-7.06-2.83a49.91,49.91,0,0,0-5.49-.93,6.94,6.94,0,0,0-3.14.05c-1.17.3-2.44,0.23-3.65,0.44a45.06,45.06,0,0,0-4.87,1.09,20.55,20.55,0,0,0-2.53,1.26c-1.2.53-2.49,0.9-3.63,1.54-1.66.93-3.22,2-4.81,3.09a5.73,5.73,0,0,0-.74.74c-0.84-.86-1.7-1.66-2.46-2.55a8.58,8.58,0,0,1-2-4.28,11.49,11.49,0,0,1-.08-2.81,5.1,5.1,0,0,1,.64-1.47,26.82,26.82,0,0,1,3.44-5.31,20,20,0,0,1,3.36-3.39c1-.77,2.14-1.35,3.19-2.06a31.52,31.52,0,0,1,6.54-3.28c1.39-.53,2.75-1.15,4.13-1.71a10,10,0,0,1,3.75-.71,10.34,10.34,0,0,0,3.68-.68,35.41,35.41,0,0,1,7.41-1.63,75.59,75.59,0,0,1,8-.64c2.64-.09,5.27-0.39,7.91-0.55,0.89,0,1.79,0,2.69,0,1.92,0,3.84-.16,5.74,0,3.26,0.27,6.5.69,9.74,1.12,3.08,0.42,6.14.95,9.2,1.42,5,0.74,9.91,1.42,14.85,2.25a33.11,33.11,0,0,1,5,1.45,51.86,51.86,0,0,1,5.54,2.06,61.43,61.43,0,0,1,6.1,3.25A9.33,9.33,0,0,1,990,264.91Z" transform="translate(-639.27 -153.53)"/><path class="cls-3" d="M940.68,332.66a6.51,6.51,0,0,1-.27,2A18.19,18.19,0,0,1,939.3,338c-0.9,1.75-1.43,3.73-2.79,5.2s-2.21,3.59-3.52,5.25a11,11,0,0,0-.88,1.57,3.65,3.65,0,0,1-.26-0.63,17.87,17.87,0,0,0-2-4.7c-1.55-3.1-3.14-6.2-3.74-9.67-0.09-.48-0.07-1-0.12-1.47a7.06,7.06,0,0,0-.19-1.38,7,7,0,0,1,.18-3.77,7.63,7.63,0,0,1,3.36-4.76c1.08-.76,2.25-1.62,3.77-1.46a6.9,6.9,0,0,1,5.88,3.72A15.56,15.56,0,0,1,940.68,332.66Z" transform="translate(-639.27 -153.53)"/><path class="cls-2" d="M988.8,278.29a12.56,12.56,0,0,0,1.66-1.49c0.88-1.16,1.67-2.39,2.44-3.62a8.06,8.06,0,0,0,1.2-2.4,11,11,0,0,0-.69-6.88,12.6,12.6,0,0,0-2.43-3.51c-0.93-1-2-1.85-3-2.76a22.07,22.07,0,0,0-5.61-3.93c-1.49-.69-3.1-1.14-4.57-1.87a45.4,45.4,0,0,0-9.42-3.49,43.2,43.2,0,0,0-9.19-1.08c-2.42-.06-4.84,0-7.26,0a46.62,46.62,0,0,1-9.5-.76,40.69,40.69,0,0,0-4.83-.46c-1.06-.09-2.11-0.2-3.17-0.19-1.21,0-2.42.16-3.64,0.18s-2.28-.18-3.41-0.08c-1.53.14-3.05,0.47-4.57,0.72-1,.15-1.94.35-2.92,0.42-1.71.14-3.43,0.12-5.13,0.29-1.92.2-3.83,0.56-5.75,0.8a43.19,43.19,0,0,0-7.11,1.4c-0.63.18-1.22,0.5-1.85,0.67-1.05.28-2.14,0.44-3.19,0.72-1.43.39-2.83,0.84-4.24,1.28a10,10,0,0,0-2.06.71c-2.11,1.19-4.17,2.44-6.25,3.68a20.31,20.31,0,0,0-3.13,2,25.39,25.39,0,0,0-3.78,4,30.73,30.73,0,0,0-2.51,4.67,6.71,6.71,0,0,0-.68,3.58,23.17,23.17,0,0,0,.61,3.39,9.45,9.45,0,0,0,3.28,5.06c1.08,0.91,1.11.87,0.2,2-0.42.52-.88,1-1.24,1.56s-0.66,1.28-1,1.91a16.94,16.94,0,0,0-2.6,7.92c0,1.43,0,2.86,0,4.29a4.39,4.39,0,0,0,.19.93c0.07,0.31.17,0.61,0.21,0.93,0.13,1,.27,2.1.37,3.16,0.08,0.81.12,1.61,0.15,2.42,0,0.2,0,.53-0.4.34-0.85-.44-1.71-0.85-2.51-1.35a15.2,15.2,0,0,0-4.27-1.93c-2.1-.54-4.21-1-6.33-1.44a24.55,24.55,0,0,0-3.92-.38,23.08,23.08,0,0,0-3.09.3,24.35,24.35,0,0,0-2.7.38c-0.82.2-1.58,0.63-2.4,0.83a9.39,9.39,0,0,0-4.68,2.3,26.88,26.88,0,0,1-3.63,2.66,2.18,2.18,0,0,0-.4.34,16.16,16.16,0,0,0-3.13,5,11.13,11.13,0,0,0-.94,2.17,20.81,20.81,0,0,0-.06,8.68c0.34,1.3.41,2.68,1.25,3.82,0.22,0.31.41,0.64,0.61,1,0.84,1.4,1.38,3,2.87,3.93,0.44,0.27.9,0.49,1.37,0.72a6.64,6.64,0,0,1,.83.35,20.2,20.2,0,0,0,5.81,2.39c1.62,0.47,3.31.72,5,1.08a2.17,2.17,0,0,1,.77.3,7.24,7.24,0,0,0,3.08,1c1.41,0.29,2.84.48,4.25,0.72a10.1,10.1,0,0,0,3.36.53,1.56,1.56,0,0,1,.56.09c1.07,0.33,2.12.7,3.2,1s2.4,0.49,3.58.81a36.25,36.25,0,0,1,4.9,1.48c1.73,0.75,3.6,1.15,5.4,1.75,1.1,0.37,2.17.81,3.25,1.24,2,0.79,4,1.67,6,2.37a23.6,23.6,0,0,1,5.59,2.8c1.06,0.7,1.95,1.64,3,2.39a10.65,10.65,0,0,0,3.54,2.16,1,1,0,0,1,.35.22c2.5,2,5.45,3.27,8.26,4.73,1.47,0.77,3.05,1.32,4.55,2a24.72,24.72,0,0,0,7.37,2.32c2.22,0.28,4.47.34,6.83,0.5,1.88-.22,3.88-0.37,5.86-0.7,3.31-.56,6.7-0.77,9.82-2.25,1.38-.66,3-0.94,4.35-1.59,2.15-1,4.26-2.1,6.31-3.29,1.8-1,3.52-2.21,5.21-3.42,1.34-1,2.5-2.17,3.87-3.06a27.88,27.88,0,0,0,4.59-3.41c1.09-1.09,2.2-2.17,3.29-3.26a16.49,16.49,0,0,0,1.41-1.49c1.14-1.52,2.24-3.08,3.34-4.64,0.65-.94,1.31-1.89,1.88-2.88,1-1.7,1.95-3.43,2.86-5.18s1.92-3.83,2.88-5.74c0.27-.55.63-1.07,0.85-1.64,0.31-.78.55-1.6,0.79-2.41,0.48-1.6.87-3.23,1.41-4.8a57.67,57.67,0,0,0,2.75-10.31,35.86,35.86,0,0,0,.69-8c-0.16-2-.05-4-0.19-6a14.63,14.63,0,0,0-3.58-8.58c-0.56-.66-1.26-1.2-1.88-1.81a0.42,0.42,0,0,1,0-.37C988.19,278.81,988.5,278.55,988.8,278.29ZM875.26,311.07h0a6.81,6.81,0,0,1-.71-0.38A6.81,6.81,0,0,0,875.26,311.07ZM874,305.72a0.83,0.83,0,0,0-.27-0.29A0.83,0.83,0,0,1,874,305.72Zm-12.63,18.55c-1-.23-2.07-0.27-3.07-0.53a14.73,14.73,0,0,1-2.19-.88c-0.21-.09-0.37-0.27-0.58-0.37a4.89,4.89,0,0,1-2.58-3,5.34,5.34,0,0,1,.85-5.54,11.23,11.23,0,0,1,6.43-4.22,15.43,15.43,0,0,1,3.9-.73c0.87,0,1.73.21,2.6,0.31s1.63,0.13,2.43.24a3.78,3.78,0,0,1,.94.38l1.49,0.65,2.63,1.13a1.39,1.39,0,0,0,.27.14c1.24,0.15,1.3,1.16,1.47,2a47.07,47.07,0,0,0,2.24,7.92c0.56,1.49,1.14,3,1.77,4.44s1.31,2.84,2,4.27a5.54,5.54,0,0,1,.22.66c-0.69-.38-1.26-0.7-1.84-1a50,50,0,0,0-9.13-3.51C867.89,325.77,864.59,325,861.32,324.27Zm9.06,14.34c0.76,0.2,1.52.39,2.29,0.51C871.9,339,871.14,338.8,870.38,338.61Zm36.88-11.77a20.77,20.77,0,0,0,3.36-1A20.76,20.76,0,0,1,907.26,326.83ZM919,318.65c-0.9.89-1.78,1.8-2.74,2.62a20.19,20.19,0,0,1-3.25,2.47,17.43,17.43,0,0,1-6.33,2.35c-0.23,0-.46,0-0.68,0a0.49,0.49,0,0,0,0,.12c-2.31-.21-4.63-0.3-6.91-0.66a8.72,8.72,0,0,1-6.12-4.06c-0.43-.65-1-1.18-1.41-1.86a15.46,15.46,0,0,1-1-2.57,1,1,0,0,1,.16-0.78,16.22,16.22,0,0,1,1.91-2.29,11.15,11.15,0,0,1,4.54-2.91,18.34,18.34,0,0,1,11,.33c0.64,0.22,1.31.39,2,.62a12.75,12.75,0,0,1,3.62,2c1.43,1.11,2.93,2.12,4.39,3.19a6.62,6.62,0,0,1,1,1A0.43,0.43,0,0,1,919,318.65Zm2.57-6.65a0.46,0.46,0,0,1-.12.33,0.36,0.36,0,0,1-.29-0.08,38,38,0,0,0-3-2.42,28.82,28.82,0,0,0-4.18-2.22,17.84,17.84,0,0,0-5.72-1.12,23.16,23.16,0,0,0-8.52.91,20.07,20.07,0,0,0-5.48,2.92,9.62,9.62,0,0,0-3,3.07c-0.4.67-.69,1.41-1,2.12-0.08.15-.15,0.31-0.23,0.47h-0.13c-0.11-.52-0.24-1-0.31-1.55-0.22-1.57-.52-3.19.11-4.69a8,8,0,0,1,3.85-4.55,6.86,6.86,0,0,0,1.36-1.14,7.51,7.51,0,0,1,.89-0.81c1.16-.72,2.36-1.38,3.51-2.12a4.54,4.54,0,0,1,1.77-.67c1.53-.25,3-0.72,4.55-0.88a13.47,13.47,0,0,1,4.11.09,37,37,0,0,1,5.26,1.68c0.73,0.27,1.34.88,2.06,1.2a5.15,5.15,0,0,1,2.3,1.61,17.12,17.12,0,0,1,1.27,2.09A11.68,11.68,0,0,1,921.62,312Zm-22.1-12.13c0.53-.18,1.06-0.33,1.6-0.47C900.58,299.54,900,299.68,899.52,299.87Zm30.34,44.87c-1.55-3.1-3.14-6.2-3.74-9.67-0.09-.48-0.07-1-0.12-1.47a7.06,7.06,0,0,0-.19-1.38,7,7,0,0,1,.18-3.77,7.63,7.63,0,0,1,3.36-4.76c1.08-.76,2.25-1.62,3.77-1.46a6.9,6.9,0,0,1,5.88,3.72,15.56,15.56,0,0,1,1.68,6.71,6.52,6.52,0,0,1-.27,2A18.19,18.19,0,0,1,939.3,338c-0.9,1.75-1.43,3.73-2.79,5.2s-2.21,3.59-3.52,5.25a11,11,0,0,0-.88,1.57,3.65,3.65,0,0,1-.26-0.63A17.87,17.87,0,0,0,929.86,344.74Zm3.78-23.2h0a6.62,6.62,0,0,1,1.14.14A6.62,6.62,0,0,0,933.64,321.54Zm-5.36,22.56a3.23,3.23,0,0,1-.49-1.22,8.35,8.35,0,0,0-1.11-2.76,8.35,8.35,0,0,1,1.11,2.76,3.23,3.23,0,0,0,.49,1.22c0.15,0.25.31,0.5,0.47,0.75C928.59,344.6,928.43,344.35,928.28,344.1Zm3.23,8.26a5.14,5.14,0,0,0-.09-1.61,5.14,5.14,0,0,1,.09,1.61,1,1,0,0,0,0,.32A1,1,0,0,1,931.51,352.36Zm0.41,0.92,0.12,0.09h0Zm2.46-5.65a11.31,11.31,0,0,0-1.95,4.06,4.1,4.1,0,0,0-.07.59,4.1,4.1,0,0,1,.07-0.59,11.31,11.31,0,0,1,1.95-4.06c0.28-.42.56-0.83,0.82-1.26C934.94,346.79,934.66,347.2,934.38,347.62Zm5.66-9c1.37-2.81,1.37-5.88,1.36-9a3.41,3.41,0,0,0-.34-1.45,3.41,3.41,0,0,1,.34,1.45C941.41,332.72,941.41,335.8,940,338.6Zm2-21.2a9.28,9.28,0,0,0,.73,1.67A9.28,9.28,0,0,1,942,317.41Zm30.35,0.72c-1.75,1.88-3.32,4-5.72,5.13-2.61,1.25-5.23,2.46-8.19,2.63-0.87,0-1.73.23-2.6,0.35-1.62.17-3-.65-4.44-1.12a16.61,16.61,0,0,1-3.31-1.54,8.31,8.31,0,0,1-2.8-2.23c-0.7-1-1.43-1.89-2.12-2.85a2.41,2.41,0,0,1-.43-0.9,0.89,0.89,0,0,1,.79-1,20.92,20.92,0,0,0,4.16-2.25,18.25,18.25,0,0,1,6.2-2.61,9.86,9.86,0,0,1,3.34.08c1.27,0.21,2.57.24,3.8,0.55,1.88,0.47,3.73,1.09,5.59,1.68a13.18,13.18,0,0,1,4,2.19c0.62,0.47,1.18,1,1.75,1.52A0.34,0.34,0,0,1,972.38,318.13Zm2.26-5.54a0.49,0.49,0,0,1-.39,0c-0.83-.6-1.64-1.23-2.45-1.85a16.57,16.57,0,0,0-5.31-2.58,26,26,0,0,0-7.76-.88,17.57,17.57,0,0,0-8.29,1.9,20.46,20.46,0,0,0-7.09,6,15.4,15.4,0,0,1-1.06,1.18,17.74,17.74,0,0,1-.59-3,25.07,25.07,0,0,1,.28-3.66,4.94,4.94,0,0,1,1.82-3c1.05-1,2-2.15,3.12-3.07a22.19,22.19,0,0,1,3.28-2.13,14.91,14.91,0,0,1,6.34-1.7,25.81,25.81,0,0,1,8,.28,29.5,29.5,0,0,1,4.82,1.47,8.54,8.54,0,0,1,4.06,3.84c0.42,0.78.88,1.54,1.26,2.35a3.39,3.39,0,0,1,.42,1.5C975,310.39,974.81,311.49,974.64,312.59Zm-29.3-8.7c1.21-1,2.4-2,3.67-2.84a11.88,11.88,0,0,1,2.16-1.18A11.89,11.89,0,0,0,949,301C947.74,301.92,946.55,302.92,945.34,303.89ZM975.42,314a9.91,9.91,0,0,0,.45-3A9.91,9.91,0,0,1,975.42,314Zm10.68-42.47c-0.71.66-1.33,1.4-2.05,2a19,19,0,0,1-1.79,1.3,0.32,0.32,0,0,1-.25,0c-1.22-.44-2.43-0.93-3.66-1.31-1.39-.44-2.8-0.79-4.21-1.16a16.65,16.65,0,0,0-5.59-.18c-1.36.11-2.74,0.12-4.09,0.28a32.2,32.2,0,0,0-4.26.76,48.84,48.84,0,0,0-5.54,1.76,31.16,31.16,0,0,0-6.94,3.89c-1.15.85-2.38,1.59-3.51,2.46a28.77,28.77,0,0,0-3.12,2.7c-1.28,1.32-2.43,2.75-3.63,4.13a21.49,21.49,0,0,0-3.43,5.75c-0.57,1.3-1.16,2.58-1.75,3.9l-0.35-1.16c-0.43-1.36-1-2.71-1.26-4.1s-1.29-2.64-1.81-4a20.37,20.37,0,0,0-3.51-5.83c-1-1.17-2.2-2.16-3.26-3.28-1.34-1.41-3.12-2.18-4.65-3.32-0.55-.4-1.32-0.51-1.88-0.9-2.13-1.52-4.65-2.08-7.06-2.83a49.91,49.91,0,0,0-5.49-.93,6.94,6.94,0,0,0-3.14,0c-1.17.3-2.44,0.23-3.65,0.44a45,45,0,0,0-4.87,1.09,20.55,20.55,0,0,0-2.53,1.26c-1.2.53-2.49,0.9-3.63,1.54-1.66.93-3.22,2-4.81,3.09a5.73,5.73,0,0,0-.74.74c-0.84-.86-1.7-1.66-2.46-2.55a8.58,8.58,0,0,1-2-4.28,11.48,11.48,0,0,1-.08-2.81,5.1,5.1,0,0,1,.64-1.47,26.83,26.83,0,0,1,3.44-5.31,20,20,0,0,1,3.36-3.39c1-.77,2.14-1.35,3.19-2.06a31.52,31.52,0,0,1,6.54-3.28c1.39-.53,2.75-1.15,4.13-1.71a10,10,0,0,1,3.75-.71,10.34,10.34,0,0,0,3.68-.68,35.41,35.41,0,0,1,7.41-1.63,75.59,75.59,0,0,1,8-.64c2.64-.09,5.27-0.39,7.91-0.55,0.89-.05,1.79,0,2.69,0,1.92,0,3.84-.16,5.74,0,3.26,0.27,6.5.69,9.74,1.12,3.08,0.42,6.14,1,9.2,1.42,5,0.74,9.91,1.42,14.85,2.25a33.12,33.12,0,0,1,5,1.45,51.86,51.86,0,0,1,5.54,2.06,61.45,61.45,0,0,1,6.1,3.25,9.33,9.33,0,0,1,4,4.74,2.9,2.9,0,0,1-.38,2.35A17.36,17.36,0,0,1,986.1,271.52Z" transform="translate(-639.27 -153.53)"/><path class="cls-3" d="M940.37,167.41c0.08-2.22-.38-4.61.32-6.76a8,8,0,0,1,1.57-2.46c0.31-.38.71-0.62,1-1a14.92,14.92,0,0,0,1-1.45c1.5-2.06,3.76-2.26,6.14-2.24a32.32,32.32,0,0,1,7,.44c1.11,0.26,2.23.63,3.31,1a22.94,22.94,0,0,1,3.28,1.21c1.92,1,3.25,2.81,4.55,4.49a14.64,14.64,0,0,1,2.79,5.87,12.4,12.4,0,0,1-.25,6.95,29.9,29.9,0,0,1-1.11,2.87c-0.53,1-1.12,2-1.72,3a23.93,23.93,0,0,1-4.38,5.27,22,22,0,0,1-5.54,3.52,29.21,29.21,0,0,1-3.14,1.12c-1.05.35-2.06,0.82-3.11,1.16a7,7,0,0,0-2.72,1.47,18.69,18.69,0,0,0-2.27,2.32,5.9,5.9,0,0,1-1,1c-0.46.34-1,.51-1.48,0.82a8.13,8.13,0,0,0-2.21,2.17,9,9,0,0,0-1.58,2.75c-0.33,1.16.2,2.26,0.35,3.41s0,2.37.13,3.56a12.13,12.13,0,0,1-.4,3.5,19,19,0,0,0-.38,3.3,7.24,7.24,0,0,1-.49,3.39c-0.66,1.12-1.5-.09-1.87-0.75-0.61-1.07-1.18-2.16-1.76-3.25a9.33,9.33,0,0,1-.94-3.05,27.61,27.61,0,0,1-.1-3.5c-0.09-2.21-1.18-4.38-.74-6.6a8.44,8.44,0,0,0,.32-1.29,11.47,11.47,0,0,1,0-1.68,6.37,6.37,0,0,1,1.65-2.71,22.07,22.07,0,0,0,1.56-2.86,5.66,5.66,0,0,1,2.25-2.13c0.4-.21.84-0.34,1.24-0.55A6.44,6.44,0,0,0,943,188.7a9.32,9.32,0,0,1,2.48-1.71c1.05-.49,2.12-0.93,3.16-1.45s2.06-1.24,3.09-1.84,2-1.29,3.05-1.91,1.89-1,2.8-1.58a14.49,14.49,0,0,0,4.91-4.75,22.88,22.88,0,0,1,1.57-2.77,3.6,3.6,0,0,0,.85-2.74,5.2,5.2,0,0,0-1.14-2.79,10.77,10.77,0,0,1-1.38-2.79,4.12,4.12,0,0,0-1.55-2.34c-1-.56-1.93-1.1-2.86-1.74a8.38,8.38,0,0,0-2.79-1.52,13.21,13.21,0,0,0-3.58,0c-2.27.2-3.89,1.81-5.3,3.42a8.09,8.09,0,0,0-1.53,6.37,4.32,4.32,0,0,0,1.17,2.85,8.54,8.54,0,0,0,.9.83,7.78,7.78,0,0,0,1.56.7,5.09,5.09,0,0,0,3.22.33,1.81,1.81,0,0,0,1.13-.52,2.47,2.47,0,0,1,.92-0.89c0.86-.37,1.74-0.68,1.68-1.81a6,6,0,0,0-1.18-3c-0.37-.43-1.91-1.31-1.54-2.08a1.34,1.34,0,0,1,1.1-.35,2.26,2.26,0,0,1,1.32.81c1.4,1.4,2.85,3.56,2.78,5.63A6.06,6.06,0,0,1,956.7,174a5.15,5.15,0,0,1-2.46,1.78,30.3,30.3,0,0,1-3.32.42c-1.13.15-2.34,0.58-3.43,0.15a16,16,0,0,1-3.12-1.13A8,8,0,0,1,942.2,173a14.91,14.91,0,0,1-1.51-2.73,9.13,9.13,0,0,1-.32-2.85C940.38,167,940.4,168.11,940.37,167.41Z" transform="translate(-639.27 -153.53)"/><path class="cls-3" d="M909.64,202.9a2.23,2.23,0,0,1,.46-1.74c0.6-.46,1.1.06,1.28,0.64s0.29,1.34.48,2a2.27,2.27,0,0,0,1.44,1.47,2.57,2.57,0,0,0,3.34-1,4.75,4.75,0,0,0,.1-4.2,9.19,9.19,0,0,0-1.27-1.54c-0.47-.48-0.83-1.11-1.34-1.55a4.47,4.47,0,0,0-3.9-.4,4.57,4.57,0,0,0-1.6.86c-0.51.47-.87,1-1.43,1.45-1.12.85-2,1.79-2,3.28,0,0.72.09,1.43,0.13,2.15a14.49,14.49,0,0,0,.17,2.35,6.14,6.14,0,0,0,2.68,3.29A8.56,8.56,0,0,0,910,211a18.13,18.13,0,0,0,2.1.62c1.47,0.43,2.93.84,4.39,1.3a14.24,14.24,0,0,1,1.93.63c0.69,0.33,1.29.81,2,1.18a30.42,30.42,0,0,1,3.79,2.26,7.94,7.94,0,0,1,2.39,3.37,10.94,10.94,0,0,1,.59,2.13c0.13,0.72.06,1.43,0.23,2.14a9,9,0,0,1,.15,4.43,39.47,39.47,0,0,1-1.39,4.35,1.54,1.54,0,0,1-1,1.15c-0.74.22-1-.32-1-1a7.88,7.88,0,0,1,.41-2,7.28,7.28,0,0,0,0-2.45,10.92,10.92,0,0,0-1-4.31,8.76,8.76,0,0,0-2.47-3.39,13.36,13.36,0,0,0-3.59-2c-0.66-.2-1.33-0.39-2-0.56s-1.5-.18-2.23-0.36a19.33,19.33,0,0,1-4.13-1.55,25.73,25.73,0,0,1-3.53-2.63,11.93,11.93,0,0,1-2.8-2.75,14.27,14.27,0,0,1-1.7-4.19,10.5,10.5,0,0,1-.36-4.25c0.21-1.33.15-2.9,1-4a24.73,24.73,0,0,0,2.37-3.38,7.33,7.33,0,0,1,2.74-2.92,5.58,5.58,0,0,1,4.26-.53,18.68,18.68,0,0,1,1.93.57,7.65,7.65,0,0,0,2,.34c1.24,0.16,2.54,1.46,3.26,2.42a9.52,9.52,0,0,1,1.64,3.89,8.9,8.9,0,0,1-.35,4.31,12.65,12.65,0,0,1-.53,1.81,6.4,6.4,0,0,1-1.29,1.62,4.28,4.28,0,0,1-3.63,1.2,5.76,5.76,0,0,1-4.45-5.52C909.64,202.75,909.52,204.08,909.64,202.9Z" transform="translate(-639.27 -153.53)"/></svg>