<svg xmlns="http://www.w3.org/2000/svg" viewBox="0 0 1439.93 638.91"><defs><style>.cls-1{fill:#9ca739;}.cls-2{fill:none;}.cls-3{fill:#fff;}</style></defs><title>banner</title><g id="Layer_2" data-name="Layer 2"><g id="background"><rect class="cls-1" width="1439.93" height="638.91"/></g><g id="faces_copy" data-name="faces copy"><path class="cls-2" d="M982.95,293.81a145.49,145.49,0,0,0-42.73,56.59c-8.93,21.4-10.92,42.58-5.46,58.09,6.44,18.28,22.32,28,46,28.22v-27c-5-2-21.59-10.1-28.59-32.21a2.15,2.15,0,0,1,4.1-1.3c5.78,18.24,18.8,26.14,24.49,28.81V374c-5-2-21.59-10.1-28.59-32.21a2.15,2.15,0,0,1,4.1-1.3c5.78,18.24,18.8,26.14,24.49,28.81V331a2.15,2.15,0,1,1,4.3,0v53.73a47.17,47.17,0,0,0,24.6-28.85,2.15,2.15,0,0,1,4.1,1.3c-7.05,22.27-23.79,30.32-28.7,32.25v31.31a47.17,47.17,0,0,0,24.6-28.85,2.15,2.15,0,0,1,4.1,1.3c-7.05,22.27-23.79,30.32-28.7,32.25v11.27c23.7-.21,39.6-9.94,46-28.22,5.46-15.51,3.47-36.68-5.46-58.09A145.5,145.5,0,0,0,982.95,293.81Z"/><path class="cls-2" d="M1241.54,42.05a145.49,145.49,0,0,0-42.73,56.59c-8.93,21.4-10.92,42.58-5.46,58.09,6.44,18.28,22.32,28,46,28.22V158c-5-2-21.59-10.1-28.59-32.21a2.15,2.15,0,0,1,4.1-1.3c5.78,18.24,18.8,26.14,24.49,28.81v-31c-5-2-21.59-10.1-28.59-32.21a2.15,2.15,0,0,1,4.1-1.3c5.78,18.24,18.8,26.14,24.49,28.81V79.24a2.15,2.15,0,1,1,4.3,0V133a47.17,47.17,0,0,0,24.6-28.85,2.15,2.15,0,0,1,4.1,1.3c-7.05,22.27-23.79,30.32-28.7,32.25V169a47.17,47.17,0,0,0,24.6-28.85,2.15,2.15,0,0,1,4.1,1.3c-7.05,22.27-23.79,30.32-28.7,32.25v11.27c23.7-.21,39.6-9.94,46-28.22,5.46-15.51,3.47-36.68-5.46-58.09A145.5,145.5,0,0,0,1241.54,42.05Z"/><path class="cls-2" d="M1108.63,414.22a145.49,145.49,0,0,0-42.73,56.59c-8.93,21.4-10.92,42.58-5.46,58.09,6.44,18.28,22.32,28,46,28.22v-27c-5-2-21.59-10.1-28.59-32.21a2.15,2.15,0,0,1,4.1-1.3c5.78,18.24,18.8,26.14,24.49,28.81v-31c-5-2-21.59-10.1-28.59-32.21a2.15,2.15,0,0,1,4.1-1.3c5.78,18.24,18.8,26.14,24.49,28.81V451.4a2.15,2.15,0,1,1,4.3,0v53.73a47.17,47.17,0,0,0,24.6-28.85,2.15,2.15,0,0,1,4.1,1.3c-7.05,22.27-23.79,30.32-28.7,32.25v31.31a47.17,47.17,0,0,0,24.6-28.85,2.15,2.15,0,0,1,4.1,1.3c-7.05,22.27-23.79,30.32-28.7,32.25v11.27c23.7-.21,39.6-9.94,46-28.22,5.46-15.51,3.47-36.68-5.46-58.09A145.5,145.5,0,0,0,1108.63,414.22Z"/><path class="cls-2" d="M1108.63,162.46A145.49,145.49,0,0,0,1065.9,219c-8.93,21.4-10.92,42.58-5.46,58.09,6.44,18.28,22.32,28,46,28.22v-27c-5-2-21.59-10.1-28.59-32.21a2.15,2.15,0,0,1,4.1-1.3c5.78,18.24,18.8,26.14,24.49,28.81v-31c-5-2-21.59-10.1-28.59-32.21a2.15,2.15,0,0,1,4.1-1.3c5.78,18.24,18.8,26.14,24.49,28.81V199.64a2.15,2.15,0,1,1,4.3,0v53.73a47.17,47.17,0,0,0,24.6-28.85,2.15,2.15,0,0,1,4.1,1.3c-7.05,22.27-23.79,30.32-28.7,32.25v31.31a47.17,47.17,0,0,0,24.6-28.85,2.15,2.15,0,0,1,4.1,1.3c-7.05,22.27-23.79,30.32-28.7,32.25v11.27c23.7-.21,39.6-9.94,46-28.22,5.46-15.51,3.47-36.68-5.46-58.09A145.5,145.5,0,0,0,1108.63,162.46Z"/><path class="cls-2" d="M1241.54,293.81a145.49,145.49,0,0,0-42.73,56.59c-8.93,21.4-10.92,42.58-5.46,58.09,6.44,18.28,22.32,28,46,28.22v-27c-5-2-21.59-10.1-28.59-32.21a2.15,2.15,0,0,1,4.1-1.3c5.78,18.24,18.8,26.14,24.49,28.81V374c-5-2-21.59-10.1-28.59-32.21a2.15,2.15,0,0,1,4.1-1.3c5.78,18.24,18.8,26.14,24.49,28.81V331a2.15,2.15,0,1,1,4.3,0v53.73a47.17,47.17,0,0,0,24.6-28.85,2.15,2.15,0,0,1,4.1,1.3c-7.05,22.27-23.79,30.32-28.7,32.25v31.31a47.17,47.17,0,0,0,24.6-28.85,2.15,2.15,0,0,1,4.1,1.3c-7.05,22.27-23.79,30.32-28.7,32.25v11.27c23.7-.21,39.6-9.94,46-28.22,5.46-15.51,3.47-36.68-5.46-58.09A145.5,145.5,0,0,0,1241.54,293.81Z"/><path class="cls-2" d="M982.95,42.05a145.49,145.49,0,0,0-42.73,56.59c-8.93,21.4-10.92,42.58-5.46,58.09,6.44,18.28,22.32,28,46,28.22V158c-5-2-21.59-10.1-28.59-32.21a2.15,2.15,0,0,1,4.1-1.3c5.78,18.24,18.8,26.14,24.49,28.81v-31c-5-2-21.59-10.1-28.59-32.21a2.15,2.15,0,0,1,4.1-1.3c5.78,18.24,18.8,26.14,24.49,28.81V79.24a2.15,2.15,0,1,1,4.3,0V133a47.17,47.17,0,0,0,24.6-28.85,2.15,2.15,0,0,1,4.1,1.3c-7.05,22.27-23.79,30.32-28.7,32.25V169a47.17,47.17,0,0,0,24.6-28.85,2.15,2.15,0,0,1,4.1,1.3c-7.05,22.27-23.79,30.32-28.7,32.25v11.27c23.7-.21,39.6-9.94,46-28.22,5.46-15.51,3.47-36.68-5.46-58.09A145.5,145.5,0,0,0,982.95,42.05Z"/><path class="cls-2" d="M1365.07,305.36v-27c-5-2-21.59-10.1-28.59-32.21a2.15,2.15,0,0,1,4.1-1.3c5.78,18.24,18.8,26.14,24.49,28.81v-31c-5-2-21.59-10.1-28.59-32.21a2.15,2.15,0,0,1,4.1-1.3c5.78,18.24,18.8,26.14,24.49,28.81V199.64a2.15,2.15,0,1,1,4.3,0v53.73a47.17,47.17,0,0,0,24.6-28.85,2.15,2.15,0,0,1,4.1,1.3c-7.05,22.27-23.79,30.32-28.7,32.25v31.31a47.17,47.17,0,0,0,24.6-28.85,2.15,2.15,0,0,1,4.1,1.3c-7.05,22.27-23.79,30.32-28.7,32.25v11.27c23.7-.21,39.6-9.94,46-28.22,5.46-15.51,3.47-36.68-5.46-58.09a145.5,145.5,0,0,0-42.73-56.59A145.49,145.49,0,0,0,1324.5,219c-8.93,21.4-10.92,42.58-5.46,58.09C1325.48,295.42,1341.36,305.11,1365.07,305.36Z"/><path class="cls-2" d="M1367.22,414.22a145.49,145.49,0,0,0-42.73,56.59c-8.93,21.4-10.92,42.58-5.46,58.09,6.44,18.28,22.32,28,46,28.22v-27c-5-2-21.59-10.1-28.59-32.21a2.15,2.15,0,0,1,4.1-1.3c5.78,18.24,18.8,26.14,24.49,28.81v-31c-5-2-21.59-10.1-28.59-32.21a2.15,2.15,0,0,1,4.1-1.3c5.78,18.24,18.8,26.14,24.49,28.81V451.4a2.15,2.15,0,1,1,4.3,0v53.73a47.17,47.17,0,0,0,24.6-28.85,2.15,2.15,0,0,1,4.1,1.3c-7.05,22.27-23.79,30.32-28.7,32.25v31.31a47.17,47.17,0,0,0,24.6-28.85,2.15,2.15,0,0,1,4.1,1.3c-7.05,22.27-23.79,30.32-28.7,32.25v11.27c23.7-.21,39.6-9.94,46-28.22,5.46-15.51,3.47-36.68-5.46-58.09A145.5,145.5,0,0,0,1367.22,414.22Z"/><path class="cls-2" d="M207.16,293.81a145.49,145.49,0,0,0-42.73,56.59c-8.93,21.4-10.92,42.58-5.46,58.09,6.44,18.28,22.32,28,46,28.22v-27c-5-2-21.59-10.1-28.59-32.21a2.15,2.15,0,0,1,4.1-1.3c5.78,18.24,18.8,26.14,24.49,28.81V374c-5-2-21.59-10.1-28.59-32.21a2.15,2.15,0,0,1,4.1-1.3c5.78,18.24,18.8,26.14,24.49,28.81V331a2.15,2.15,0,1,1,4.3,0v53.73a47.17,47.17,0,0,0,24.6-28.85,2.15,2.15,0,0,1,4.1,1.3c-7.05,22.27-23.79,30.32-28.7,32.25v31.31a47.17,47.17,0,0,0,24.6-28.85,2.15,2.15,0,0,1,4.1,1.3c-7.05,22.27-23.79,30.32-28.7,32.25v11.27c23.7-.21,39.6-9.94,46-28.22,5.46-15.51,3.47-36.68-5.46-58.09A145.5,145.5,0,0,0,207.16,293.81Z"/><path class="cls-2" d="M332.84,162.46A145.49,145.49,0,0,0,290.11,219c-8.93,21.4-10.92,42.58-5.46,58.09,6.44,18.28,22.32,28,46,28.22v-27c-5-2-21.59-10.1-28.59-32.21a2.15,2.15,0,0,1,4.1-1.3C312,263.1,325,271,330.69,273.66v-31c-5-2-21.59-10.1-28.59-32.21a2.15,2.15,0,0,1,4.1-1.3C312,227.4,325,235.3,330.69,238V199.64a2.15,2.15,0,1,1,4.3,0v53.73a47.17,47.17,0,0,0,24.6-28.85,2.15,2.15,0,0,1,4.1,1.3c-7.05,22.27-23.79,30.32-28.7,32.25v31.31a47.17,47.17,0,0,0,24.6-28.85,2.15,2.15,0,0,1,4.1,1.3c-7.05,22.27-23.79,30.32-28.7,32.25v11.27c23.7-.21,39.6-9.94,46-28.22,5.46-15.51,3.47-36.68-5.46-58.09A145.5,145.5,0,0,0,332.84,162.46Z"/><path class="cls-2" d="M850,162.46A145.49,145.49,0,0,0,807.3,219c-8.93,21.4-10.92,42.58-5.46,58.09,6.44,18.28,22.32,28,46,28.22v-27c-5-2-21.59-10.1-28.59-32.21a2.15,2.15,0,0,1,4.1-1.3c5.78,18.24,18.8,26.14,24.49,28.81v-31c-5-2-21.59-10.1-28.59-32.21a2.15,2.15,0,0,1,4.1-1.3c5.78,18.24,18.8,26.14,24.49,28.81V199.64a2.15,2.15,0,1,1,4.3,0v53.73a47.17,47.17,0,0,0,24.6-28.85,2.15,2.15,0,0,1,4.1,1.3c-7.05,22.27-23.79,30.32-28.7,32.25v31.31a47.17,47.17,0,0,0,24.6-28.85,2.15,2.15,0,0,1,4.1,1.3c-7.05,22.27-23.79,30.32-28.7,32.25v11.27c23.7-.21,39.6-9.94,46-28.22,5.46-15.51,3.47-36.68-5.46-58.09A145.5,145.5,0,0,0,850,162.46Z"/><path class="cls-2" d="M591.43,414.22a145.49,145.49,0,0,0-42.73,56.59c-8.93,21.4-10.92,42.58-5.46,58.09,6.44,18.28,22.32,28,46,28.22v-27c-5-2-21.59-10.1-28.59-32.21a2.15,2.15,0,0,1,4.1-1.3c5.78,18.24,18.8,26.14,24.49,28.81v-31c-5-2-21.59-10.1-28.59-32.21a2.15,2.15,0,0,1,4.1-1.3c5.78,18.24,18.8,26.14,24.49,28.81V451.4a2.15,2.15,0,1,1,4.3,0v53.73a47.17,47.17,0,0,0,24.6-28.85,2.15,2.15,0,0,1,4.1,1.3c-7.05,22.27-23.79,30.32-28.7,32.25v31.31a47.17,47.17,0,0,0,24.6-28.85,2.15,2.15,0,0,1,4.1,1.3c-7.05,22.27-23.79,30.32-28.7,32.25v11.27c23.7-.21,39.6-9.94,46-28.22,5.46-15.51,3.47-36.68-5.46-58.09A145.5,145.5,0,0,0,591.43,414.22Z"/><path class="cls-2" d="M74.24,162.46A145.49,145.49,0,0,0,31.51,219c-8.93,21.4-10.92,42.58-5.46,58.09,6.44,18.28,22.32,28,46,28.22v-27c-5-2-21.59-10.1-28.59-32.21a2.15,2.15,0,0,1,4.1-1.3c5.78,18.24,18.8,26.14,24.49,28.81v-31c-5-2-21.59-10.1-28.59-32.21a2.15,2.15,0,0,1,4.1-1.3C53.38,227.4,66.41,235.3,72.09,238V199.64a2.15,2.15,0,1,1,4.3,0v53.73A47.17,47.17,0,0,0,101,224.52a2.15,2.15,0,0,1,4.1,1.3C98,248.09,81.3,256.14,76.39,258.07v31.31A47.17,47.17,0,0,0,101,260.53a2.15,2.15,0,0,1,4.1,1.3C98,284.1,81.3,292.15,76.39,294.08v11.27c23.7-.21,39.6-9.94,46-28.22,5.46-15.51,3.47-36.68-5.46-58.09A145.5,145.5,0,0,0,74.24,162.46Z"/><path class="cls-2" d="M207.16,42.05a145.49,145.49,0,0,0-42.73,56.59c-8.93,21.4-10.92,42.58-5.46,58.09,6.44,18.28,22.32,28,46,28.22V158c-5-2-21.59-10.1-28.59-32.21a2.15,2.15,0,0,1,4.1-1.3c5.78,18.24,18.8,26.14,24.49,28.81v-31c-5-2-21.59-10.1-28.59-32.21a2.15,2.15,0,0,1,4.1-1.3c5.78,18.24,18.8,26.14,24.49,28.81V79.24a2.15,2.15,0,1,1,4.3,0V133a47.17,47.17,0,0,0,24.6-28.85,2.15,2.15,0,0,1,4.1,1.3c-7.05,22.27-23.79,30.32-28.7,32.25V169a47.17,47.17,0,0,0,24.6-28.85,2.15,2.15,0,0,1,4.1,1.3c-7.05,22.27-23.79,30.32-28.7,32.25v11.27c23.7-.21,39.6-9.94,46-28.22,5.46-15.51,3.47-36.68-5.46-58.09A145.5,145.5,0,0,0,207.16,42.05Z"/><path class="cls-2" d="M850,414.22a145.49,145.49,0,0,0-42.73,56.59c-8.93,21.4-10.92,42.58-5.46,58.09,6.44,18.28,22.32,28,46,28.22v-27c-5-2-21.59-10.1-28.59-32.21a2.15,2.15,0,0,1,4.1-1.3c5.78,18.24,18.8,26.14,24.49,28.81v-31c-5-2-21.59-10.1-28.59-32.21a2.15,2.15,0,0,1,4.1-1.3c5.78,18.24,18.8,26.14,24.49,28.81V451.4a2.15,2.15,0,1,1,4.3,0v53.73a47.17,47.17,0,0,0,24.6-28.85,2.15,2.15,0,0,1,4.1,1.3c-7.05,22.27-23.79,30.32-28.7,32.25v31.31a47.17,47.17,0,0,0,24.6-28.85,2.15,2.15,0,0,1,4.1,1.3c-7.05,22.27-23.79,30.32-28.7,32.25v11.27c23.7-.21,39.6-9.94,46-28.22,5.46-15.51,3.47-36.68-5.46-58.09A145.5,145.5,0,0,0,850,414.22Z"/><path class="cls-2" d="M724.35,42.05a145.49,145.49,0,0,0-42.73,56.59c-8.93,21.4-10.92,42.58-5.46,58.09,6.44,18.28,22.32,28,46,28.22V158c-5-2-21.59-10.1-28.59-32.21a2.15,2.15,0,0,1,4.1-1.3c5.78,18.24,18.8,26.14,24.49,28.81v-31c-5-2-21.59-10.1-28.59-32.21a2.15,2.15,0,0,1,4.1-1.3c5.78,18.24,18.8,26.14,24.49,28.81V79.24a2.15,2.15,0,1,1,4.3,0V133a47.17,47.17,0,0,0,24.6-28.85,2.15,2.15,0,0,1,4.1,1.3c-7.05,22.27-23.79,30.32-28.7,32.25V169a47.17,47.17,0,0,0,24.6-28.85,2.15,2.15,0,0,1,4.1,1.3c-7.05,22.27-23.79,30.32-28.7,32.25v11.27c23.7-.21,39.6-9.94,46-28.22C778,141.22,776,120,767.08,98.64A145.5,145.5,0,0,0,724.35,42.05Z"/><path class="cls-2" d="M591.43,162.46A145.49,145.49,0,0,0,548.71,219c-8.93,21.4-10.92,42.58-5.46,58.09,6.44,18.28,22.32,28,46,28.22v-27c-5-2-21.59-10.1-28.59-32.21a2.15,2.15,0,0,1,4.1-1.3c5.78,18.24,18.8,26.14,24.49,28.81v-31c-5-2-21.59-10.1-28.59-32.21a2.15,2.15,0,0,1,4.1-1.3c5.78,18.24,18.8,26.14,24.49,28.81V199.64a2.15,2.15,0,1,1,4.3,0v53.73a47.17,47.17,0,0,0,24.6-28.85,2.15,2.15,0,0,1,4.1,1.3c-7.05,22.27-23.79,30.32-28.7,32.25v31.31a47.17,47.17,0,0,0,24.6-28.85,2.15,2.15,0,0,1,4.1,1.3c-7.05,22.27-23.79,30.32-28.7,32.25v11.27c23.7-.21,39.6-9.94,46-28.22,5.46-15.51,3.47-36.68-5.46-58.09A145.5,145.5,0,0,0,591.43,162.46Z"/><path class="cls-2" d="M724.35,293.81a145.49,145.49,0,0,0-42.73,56.59c-8.93,21.4-10.92,42.58-5.46,58.09,6.44,18.28,22.32,28,46,28.22v-27c-5-2-21.59-10.1-28.59-32.21a2.15,2.15,0,0,1,4.1-1.3c5.78,18.24,18.8,26.14,24.49,28.81V374c-5-2-21.59-10.1-28.59-32.21a2.15,2.15,0,0,1,4.1-1.3c5.78,18.24,18.8,26.14,24.49,28.81V331a2.15,2.15,0,1,1,4.3,0v53.73a47.17,47.17,0,0,0,24.6-28.85,2.15,2.15,0,0,1,4.1,1.3c-7.05,22.27-23.79,30.32-28.7,32.25v31.31a47.17,47.17,0,0,0,24.6-28.85,2.15,2.15,0,0,1,4.1,1.3c-7.05,22.27-23.79,30.32-28.7,32.25v11.27c23.7-.21,39.6-9.94,46-28.22C778,393,776,371.81,767.08,350.4A145.5,145.5,0,0,0,724.35,293.81Z"/><path class="cls-2" d="M465.75,293.81A145.49,145.49,0,0,0,423,350.4c-8.93,21.4-10.92,42.58-5.46,58.09,6.44,18.28,22.32,28,46,28.22v-27c-5-2-21.59-10.1-28.59-32.21a2.15,2.15,0,0,1,4.1-1.3c5.78,18.24,18.8,26.14,24.49,28.81V374c-5-2-21.59-10.1-28.59-32.21a2.15,2.15,0,0,1,4.1-1.3c5.78,18.24,18.8,26.14,24.49,28.81V331a2.15,2.15,0,1,1,4.3,0v53.73a47.17,47.17,0,0,0,24.6-28.85,2.15,2.15,0,0,1,4.1,1.3c-7.05,22.27-23.79,30.32-28.7,32.25v31.31a47.17,47.17,0,0,0,24.6-28.85,2.15,2.15,0,0,1,4.1,1.3c-7.05,22.27-23.79,30.32-28.7,32.25v11.27c23.7-.21,39.6-9.94,46-28.22,5.46-15.51,3.47-36.68-5.46-58.09A145.5,145.5,0,0,0,465.75,293.81Z"/><path class="cls-2" d="M465.75,42.05A145.49,145.49,0,0,0,423,98.64c-8.93,21.4-10.92,42.58-5.46,58.09,6.44,18.28,22.32,28,46,28.22V158c-5-2-21.59-10.1-28.59-32.21a2.15,2.15,0,0,1,4.1-1.3c5.78,18.24,18.8,26.14,24.49,28.81v-31c-5-2-21.59-10.1-28.59-32.21a2.15,2.15,0,0,1,4.1-1.3c5.78,18.24,18.8,26.14,24.49,28.81V79.24a2.15,2.15,0,1,1,4.3,0V133a47.17,47.17,0,0,0,24.6-28.85,2.15,2.15,0,0,1,4.1,1.3c-7.05,22.27-23.79,30.32-28.7,32.25V169a47.17,47.17,0,0,0,24.6-28.85,2.15,2.15,0,0,1,4.1,1.3c-7.05,22.27-23.79,30.32-28.7,32.25v11.27c23.7-.21,39.6-9.94,46-28.22,5.46-15.51,3.47-36.68-5.46-58.09A145.5,145.5,0,0,0,465.75,42.05Z"/><path class="cls-2" d="M332.84,414.22a145.49,145.49,0,0,0-42.73,56.59c-8.93,21.4-10.92,42.58-5.46,58.09,6.44,18.28,22.32,28,46,28.22v-27c-5-2-21.59-10.1-28.59-32.21a2.15,2.15,0,0,1,4.1-1.3c5.78,18.24,18.8,26.14,24.49,28.81v-31c-5-2-21.59-10.1-28.59-32.21a2.15,2.15,0,0,1,4.1-1.3c5.78,18.24,18.8,26.14,24.49,28.81V451.4a2.15,2.15,0,1,1,4.3,0v53.73a47.17,47.17,0,0,0,24.6-28.85,2.15,2.15,0,0,1,4.1,1.3c-7.05,22.27-23.79,30.32-28.7,32.25v31.31a47.17,47.17,0,0,0,24.6-28.85,2.15,2.15,0,0,1,4.1,1.3c-7.05,22.27-23.79,30.32-28.7,32.25v11.27c23.7-.21,39.6-9.94,46-28.22,5.46-15.51,3.47-36.68-5.46-58.09A145.5,145.5,0,0,0,332.84,414.22Z"/><path class="cls-2" d="M72.09,557.12v-27c-5-2-21.59-10.1-28.59-32.21a2.15,2.15,0,0,1,4.1-1.3c5.78,18.24,18.8,26.14,24.49,28.81v-31c-5-2-21.59-10.1-28.59-32.21a2.15,2.15,0,0,1,4.1-1.3c5.78,18.24,18.8,26.14,24.49,28.81V451.4a2.15,2.15,0,1,1,4.3,0v53.73A47.17,47.17,0,0,0,101,476.28a2.15,2.15,0,0,1,4.1,1.3C98,499.85,81.3,507.9,76.39,509.83v31.31A47.17,47.17,0,0,0,101,512.29a2.15,2.15,0,0,1,4.1,1.3C98,535.86,81.3,543.91,76.39,545.84v11.27c23.7-.21,39.6-9.94,46-28.22,5.46-15.51,3.47-36.68-5.46-58.09a145.5,145.5,0,0,0-42.73-56.59,145.49,145.49,0,0,0-42.73,56.59c-8.93,21.4-10.92,42.58-5.46,58.09C32.49,547.18,48.38,556.87,72.09,557.12Z"/><path class="cls-3" d="M35.26,53.29A43,43,0,0,0,23.33,82.67c0,25.18,22.84,45.67,50.91,45.67s50.91-20.49,50.91-45.67a43,43,0,0,0-12-29.41,2.15,2.15,0,0,0-3.13,2.94,38.71,38.71,0,0,1,10.79,26.47c0,22.81-20.91,41.37-46.61,41.37S27.63,105.48,27.63,82.67A38.71,38.71,0,0,1,38.39,56.23a2.15,2.15,0,0,0-3.14-2.94Z"/><path class="cls-3" d="M22,26.81c7.2,20.43,25.78,31.44,52.24,31.09h1.3c25.8,0,43.87-11,50.94-31.1A66.3,66.3,0,0,0,129.58,0H125.2c.72,9.35-.18,18-2.77,25.38-6.44,18.28-22.34,28-46,28.22V42.32c4.91-1.93,21.65-10,28.7-32.25a2.15,2.15,0,0,0-4.1-1.3,47.17,47.17,0,0,1-24.6,28.85V6.31A45.77,45.77,0,0,0,87.29,0H79.47c-1.17.67-2.21,1.2-3.07,1.61V0h-4.3V21.9A46.46,46.46,0,0,1,50.34,0H45.6A49.85,49.85,0,0,0,72.09,26.6v27c-23.71-.25-39.6-9.94-46-28.22C23.46,18,22.56,9.35,23.28,0H18.9A66.3,66.3,0,0,0,22,26.81Z"/><path class="cls-3" d="M51.14,80.87A2.15,2.15,0,0,0,47,79.61c-.75,2.45-2,4.06-3.59,4.78-2.85,1.26-6.33-.33-6.4-.36a2.15,2.15,0,0,0-1.85,3.88A14.65,14.65,0,0,0,41,89.17,11.15,11.15,0,0,0,43.15,89a35.41,35.41,0,0,0,32.58,20.78q1,0,2.08-.06c13.69-.74,24.55-8.67,28.69-20.77a11.61,11.61,0,0,0,1.38.09,14.66,14.66,0,0,0,5.79-1.26,2.15,2.15,0,0,0-1.86-3.88s-3.52,1.61-6.37.37c-1.64-.72-2.86-2.33-3.61-4.79a2.15,2.15,0,0,0-4.11,1.26,11.72,11.72,0,0,0,4.73,6.78c-3.56,10.43-13,17.26-24.87,17.91A31.26,31.26,0,0,1,47.08,87.19,12.17,12.17,0,0,0,51.14,80.87Z"/><path class="cls-3" d="M35.26,305a43,43,0,0,0-11.92,29.38c0,25.18,22.84,45.67,50.91,45.67s50.91-20.49,50.91-45.67a43,43,0,0,0-12-29.41,2.15,2.15,0,0,0-3.13,2.94,38.71,38.71,0,0,1,10.79,26.47c0,22.81-20.91,41.37-46.61,41.37s-46.61-18.56-46.61-41.37A38.71,38.71,0,0,1,38.39,308,2.15,2.15,0,0,0,35.26,305Z"/><path class="cls-3" d="M75.56,158l-1.32-1-1.32,1C32.53,189.56,9.69,243.63,22,278.57,29.19,299,47.78,310,74.24,309.66h1.3c25.8,0,43.87-11,50.94-31.1C138.79,243.63,115.95,189.56,75.56,158Zm46.86,119.12c-6.44,18.28-22.34,28-46,28.22V294.08c4.91-1.93,21.65-10,28.7-32.25a2.15,2.15,0,0,0-4.1-1.3,47.17,47.17,0,0,1-24.6,28.85V258.07c4.91-1.93,21.65-10,28.7-32.25a2.15,2.15,0,0,0-4.1-1.3,47.17,47.17,0,0,1-24.6,28.85V199.64a2.15,2.15,0,1,0-4.3,0V238c-5.68-2.67-18.71-10.56-24.49-28.81a2.15,2.15,0,0,0-4.1,1.3c7,22.1,23.54,30.2,28.59,32.21v31C66.41,271,53.38,263.1,47.6,244.86a2.15,2.15,0,0,0-4.1,1.3c7,22.1,23.54,30.2,28.59,32.21v27c-23.71-.25-39.6-9.94-46-28.22-5.46-15.51-3.47-36.68,5.46-58.09a145.49,145.49,0,0,1,42.73-56.59A145.5,145.5,0,0,1,117,219C125.9,240.45,127.89,261.63,122.43,277.14Z"/><path class="cls-3" d="M51.14,332.63A2.15,2.15,0,0,0,47,331.37c-.75,2.45-2,4.06-3.59,4.78-2.85,1.26-6.33-.33-6.4-.36a2.15,2.15,0,0,0-1.85,3.88A14.65,14.65,0,0,0,41,340.93a11.15,11.15,0,0,0,2.18-.22,35.41,35.41,0,0,0,32.58,20.78q1,0,2.08-.06c13.69-.74,24.55-8.67,28.69-20.77a11.61,11.61,0,0,0,1.38.09,14.66,14.66,0,0,0,5.79-1.26,2.15,2.15,0,1,0-1.86-3.88s-3.52,1.61-6.37.37c-1.64-.72-2.86-2.33-3.61-4.79a2.15,2.15,0,0,0-4.11,1.26,11.72,11.72,0,0,0,4.73,6.78c-3.56,10.43-13,17.26-24.87,17.91A31.26,31.26,0,0,1,47.08,339,12.17,12.17,0,0,0,51.14,332.63Z"/><path class="cls-3" d="M35.26,556.81a43,43,0,0,0-11.92,29.38c0,25.18,22.84,45.67,50.91,45.67s50.91-20.49,50.91-45.67a43,43,0,0,0-12-29.41,2.15,2.15,0,0,0-3.13,2.94,38.71,38.71,0,0,1,10.79,26.47c0,22.81-20.91,41.37-46.61,41.37S27.63,609,27.63,586.19a38.71,38.71,0,0,1,10.76-26.44,2.15,2.15,0,0,0-3.14-2.94Z"/><path class="cls-3" d="M74.24,561.42h1.3c25.8,0,43.87-11,50.94-31.1,12.31-34.93-10.54-89-50.92-120.54l-1.32-1-1.32,1C32.53,441.32,9.69,495.39,22,530.33,29.19,550.75,47.78,561.77,74.24,561.42ZM31.51,470.81a145.49,145.49,0,0,1,42.73-56.59A145.5,145.5,0,0,1,117,470.81c8.93,21.4,10.92,42.58,5.46,58.09-6.44,18.28-22.34,28-46,28.22V545.84c4.91-1.93,21.65-10,28.7-32.25a2.15,2.15,0,0,0-4.1-1.3,47.17,47.17,0,0,1-24.6,28.85V509.83c4.91-1.93,21.65-10,28.7-32.25a2.15,2.15,0,0,0-4.1-1.3,47.17,47.17,0,0,1-24.6,28.85V451.4a2.15,2.15,0,1,0-4.3,0v38.32c-5.68-2.67-18.71-10.56-24.49-28.81a2.15,2.15,0,0,0-4.1,1.3c7,22.1,23.54,30.2,28.59,32.21v31c-5.68-2.67-18.71-10.56-24.49-28.81a2.15,2.15,0,0,0-4.1,1.3c7,22.1,23.54,30.2,28.59,32.21v27c-23.71-.25-39.6-9.94-46-28.22C20.59,513.39,22.58,492.21,31.51,470.81Z"/><path class="cls-3" d="M51.14,584.38A2.15,2.15,0,0,0,47,583.12c-.75,2.45-2,4.06-3.59,4.78-2.85,1.26-6.33-.33-6.4-.36a2.15,2.15,0,0,0-1.85,3.88A14.65,14.65,0,0,0,41,592.69a11.15,11.15,0,0,0,2.18-.22,35.41,35.41,0,0,0,32.58,20.78q1,0,2.08-.06c13.69-.74,24.55-8.67,28.69-20.77a11.61,11.61,0,0,0,1.38.09,14.66,14.66,0,0,0,5.79-1.26,2.15,2.15,0,0,0-1.86-3.88s-3.52,1.61-6.37.37c-1.64-.72-2.86-2.33-3.61-4.79a2.15,2.15,0,0,0-4.11,1.26,11.72,11.72,0,0,0,4.73,6.78c-3.56,10.43-13,17.26-24.87,17.91a31.26,31.26,0,0,1-30.51-18.19A12.17,12.17,0,0,0,51.14,584.38Z"/><path class="cls-3" d="M235.8,0h-9.57a51.33,51.33,0,0,1-19.07,3.63A51.33,51.33,0,0,1,188.09,0h-9.57a54.76,54.76,0,0,0,28.64,7.93A54.76,54.76,0,0,0,235.8,0Z"/><path class="cls-3" d="M168.17,184.64A43,43,0,0,0,156.25,214c0,25.18,22.84,45.67,50.91,45.67S258.07,239.2,258.07,214a43,43,0,0,0-12-29.41,2.15,2.15,0,0,0-3.13,2.94A38.71,38.71,0,0,1,253.77,214c0,22.81-20.91,41.37-46.61,41.37S160.55,236.83,160.55,214a38.71,38.71,0,0,1,10.76-26.44,2.15,2.15,0,0,0-3.14-2.94Z"/><path class="cls-3" d="M208.48,37.62l-1.32-1-1.32,1c-40.38,31.53-63.23,85.61-50.92,120.54,7.2,20.43,25.78,31.44,52.24,31.09h1.3c25.8,0,43.87-11,50.94-31.1C271.71,123.23,248.87,69.15,208.48,37.62Zm46.86,119.12c-6.44,18.28-22.34,28-46,28.22V173.68c4.91-1.93,21.65-10,28.7-32.25a2.15,2.15,0,0,0-4.1-1.3A47.17,47.17,0,0,1,209.31,169V137.66c4.91-1.93,21.65-10,28.7-32.25a2.15,2.15,0,0,0-4.1-1.3A47.17,47.17,0,0,1,209.31,133V79.24a2.15,2.15,0,1,0-4.3,0v38.32c-5.68-2.67-18.71-10.56-24.49-28.81a2.15,2.15,0,0,0-4.1,1.3c7,22.1,23.54,30.2,28.59,32.21v31c-5.68-2.67-18.71-10.56-24.49-28.81a2.15,2.15,0,0,0-4.1,1.3C183.42,147.85,200,156,205,158v27c-23.71-.25-39.6-9.94-46-28.22-5.46-15.51-3.47-36.68,5.46-58.09a145.49,145.49,0,0,1,42.73-56.59,145.5,145.5,0,0,1,42.73,56.59C258.82,120,260.81,141.22,255.35,156.73Z"/><path class="cls-3" d="M184.05,212.22a2.15,2.15,0,0,0-4.11-1.26c-.75,2.45-2,4.06-3.59,4.78-2.85,1.26-6.33-.33-6.4-.36a2.15,2.15,0,0,0-1.85,3.88,14.65,14.65,0,0,0,5.79,1.26,11.15,11.15,0,0,0,2.18-.22,35.41,35.41,0,0,0,32.58,20.78q1,0,2.08-.06c13.69-.74,24.55-8.67,28.69-20.77a11.61,11.61,0,0,0,1.38.09,14.66,14.66,0,0,0,5.79-1.26,2.15,2.15,0,0,0-1.86-3.88s-3.52,1.61-6.37.37c-1.64-.72-2.86-2.33-3.61-4.79a2.15,2.15,0,0,0-4.11,1.26,11.72,11.72,0,0,0,4.73,6.78c-3.56,10.43-13,17.26-24.87,17.91A31.26,31.26,0,0,1,180,218.55,12.17,12.17,0,0,0,184.05,212.22Z"/><path class="cls-3" d="M168.17,436.4a43,43,0,0,0-11.92,29.38c0,25.18,22.84,45.67,50.91,45.67s50.91-20.49,50.91-45.67a43,43,0,0,0-12-29.41,2.15,2.15,0,0,0-3.13,2.94,38.71,38.71,0,0,1,10.79,26.47c0,22.81-20.91,41.37-46.61,41.37s-46.61-18.56-46.61-41.37a38.71,38.71,0,0,1,10.76-26.44,2.15,2.15,0,0,0-3.14-2.94Z"/><path class="cls-3" d="M208.48,289.37l-1.32-1-1.32,1c-40.38,31.53-63.23,85.61-50.92,120.54,7.2,20.43,25.78,31.44,52.24,31.09h1.3c25.8,0,43.87-11,50.94-31.1C271.71,375,248.87,320.91,208.48,289.37Zm46.86,119.12c-6.44,18.28-22.34,28-46,28.22V425.43c4.91-1.93,21.65-10,28.7-32.25a2.15,2.15,0,0,0-4.1-1.3,47.17,47.17,0,0,1-24.6,28.85V389.42c4.91-1.93,21.65-10,28.7-32.25a2.15,2.15,0,0,0-4.1-1.3,47.17,47.17,0,0,1-24.6,28.85V331a2.15,2.15,0,1,0-4.3,0v38.32c-5.68-2.67-18.71-10.56-24.49-28.81a2.15,2.15,0,0,0-4.1,1.3C183.42,363.92,200,372,205,374v31c-5.68-2.67-18.71-10.56-24.49-28.81a2.15,2.15,0,0,0-4.1,1.3c7,22.1,23.54,30.2,28.59,32.21v27c-23.71-.25-39.6-9.94-46-28.22-5.46-15.51-3.47-36.68,5.46-58.09a145.49,145.49,0,0,1,42.73-56.59,145.5,145.5,0,0,1,42.73,56.59C258.82,371.81,260.81,393,255.35,408.49Z"/><path class="cls-3" d="M184.05,464a2.15,2.15,0,0,0-4.11-1.26c-.75,2.45-2,4.06-3.59,4.78-2.85,1.26-6.33-.33-6.4-.36A2.15,2.15,0,0,0,168.1,471a14.65,14.65,0,0,0,5.79,1.26,11.15,11.15,0,0,0,2.18-.22,35.41,35.41,0,0,0,32.58,20.78q1,0,2.08-.06c13.69-.74,24.55-8.67,28.69-20.77a11.61,11.61,0,0,0,1.38.09,14.66,14.66,0,0,0,5.79-1.26,2.15,2.15,0,1,0-1.86-3.88s-3.52,1.61-6.37.37c-1.64-.72-2.86-2.33-3.61-4.79a2.15,2.15,0,0,0-4.11,1.26,11.72,11.72,0,0,0,4.73,6.78c-3.56,10.43-13,17.26-24.87,17.91A31.26,31.26,0,0,1,180,470.31,12.17,12.17,0,0,0,184.05,464Z"/><path class="cls-3" d="M180.52,628a2.15,2.15,0,0,0-4.1,1.3,56.37,56.37,0,0,0,4.05,9.65h5A50.58,50.58,0,0,1,180.52,628Z"/><path class="cls-3" d="M207.16,580.6a2.15,2.15,0,0,0-2.15,2.15v38.32c-5.68-2.67-18.71-10.56-24.49-28.81a2.15,2.15,0,0,0-4.1,1.3c7,22.1,23.54,30.2,28.59,32.21v13.13h9.07c7.08-3.92,18.44-12.64,23.93-30a2.15,2.15,0,0,0-4.1-1.3,47.17,47.17,0,0,1-24.6,28.85V582.75A2.15,2.15,0,0,0,207.16,580.6Z"/><path class="cls-3" d="M208.48,541.13l-1.32-1-1.32,1c-32.36,25.27-53.44,65-54.21,97.78H156c.3-11.41,3.14-24,8.44-36.75a145.49,145.49,0,0,1,42.73-56.59,145.5,145.5,0,0,1,42.73,56.59c5.31,12.71,8.14,25.34,8.44,36.75h4.36C261.92,606.14,240.84,566.4,208.48,541.13Z"/><path class="cls-3" d="M293.85,53.29a43,43,0,0,0-11.92,29.38c0,25.18,22.84,45.67,50.91,45.67s50.91-20.49,50.91-45.67a43,43,0,0,0-12-29.41,2.15,2.15,0,1,0-3.13,2.94,38.71,38.71,0,0,1,10.79,26.47c0,22.81-20.91,41.37-46.61,41.37s-46.61-18.56-46.61-41.37A38.71,38.71,0,0,1,297,56.23a2.15,2.15,0,0,0-3.14-2.94Z"/><path class="cls-3" d="M280.59,26.81c7.2,20.43,25.78,31.44,52.24,31.09h1.3c25.8,0,43.87-11,50.94-31.1A66.3,66.3,0,0,0,388.18,0H383.8c.72,9.35-.18,18-2.77,25.38-6.44,18.28-22.34,28-46,28.22V42.32c4.91-1.93,21.65-10,28.7-32.25a2.15,2.15,0,0,0-4.1-1.3A47.17,47.17,0,0,1,335,37.62V6.31A45.77,45.77,0,0,0,345.88,0h-7.82c-1.17.67-2.21,1.2-3.07,1.61V0h-4.3V21.9A46.46,46.46,0,0,1,308.94,0H304.2a49.85,49.85,0,0,0,26.49,26.6v27c-23.71-.25-39.6-9.94-46-28.22-2.6-7.37-3.49-16-2.77-25.38H277.5A66.3,66.3,0,0,0,280.59,26.81Z"/><path class="cls-3" d="M309.74,80.87a2.15,2.15,0,0,0-4.11-1.26c-.75,2.45-2,4.06-3.59,4.78-2.85,1.26-6.33-.33-6.4-.36a2.15,2.15,0,0,0-1.85,3.88,14.65,14.65,0,0,0,5.79,1.26,11.15,11.15,0,0,0,2.18-.22,35.41,35.41,0,0,0,32.58,20.78q1,0,2.08-.06C350.1,108.94,361,101,365.1,88.91a11.61,11.61,0,0,0,1.38.09,14.66,14.66,0,0,0,5.79-1.26,2.15,2.15,0,0,0-1.86-3.88s-3.52,1.61-6.37.37c-1.64-.72-2.86-2.33-3.61-4.79a2.15,2.15,0,0,0-4.11,1.26A11.72,11.72,0,0,0,361,87.48c-3.56,10.43-13,17.26-24.87,17.91a31.26,31.26,0,0,1-30.51-18.19A12.17,12.17,0,0,0,309.74,80.87Z"/><path class="cls-3" d="M293.85,305a43,43,0,0,0-11.92,29.38c0,25.18,22.84,45.67,50.91,45.67s50.91-20.49,50.91-45.67a43,43,0,0,0-12-29.41,2.15,2.15,0,0,0-3.13,2.94,38.71,38.71,0,0,1,10.79,26.47c0,22.81-20.91,41.37-46.61,41.37s-46.61-18.56-46.61-41.37A38.71,38.71,0,0,1,297,308a2.15,2.15,0,0,0-3.14-2.94Z"/><path class="cls-3" d="M334.16,158l-1.32-1-1.32,1c-40.38,31.53-63.23,85.61-50.92,120.54,7.2,20.43,25.78,31.44,52.24,31.09h1.3c25.8,0,43.87-11,50.94-31.1C397.39,243.63,374.55,189.56,334.16,158ZM381,277.14c-6.44,18.28-22.34,28-46,28.22V294.08c4.91-1.93,21.65-10,28.7-32.25a2.15,2.15,0,0,0-4.1-1.3A47.17,47.17,0,0,1,335,289.38V258.07c4.91-1.93,21.65-10,28.7-32.25a2.15,2.15,0,0,0-4.1-1.3A47.17,47.17,0,0,1,335,253.37V199.64a2.15,2.15,0,1,0-4.3,0V238C325,235.3,312,227.4,306.2,209.16a2.15,2.15,0,0,0-4.1,1.3c7,22.1,23.54,30.2,28.59,32.21v31C325,271,312,263.1,306.2,244.86a2.15,2.15,0,0,0-4.1,1.3c7,22.1,23.54,30.2,28.59,32.21v27c-23.71-.25-39.6-9.94-46-28.22-5.46-15.51-3.47-36.68,5.46-58.09a145.49,145.49,0,0,1,42.73-56.59A145.5,145.5,0,0,1,375.57,219C384.5,240.45,386.49,261.63,381,277.14Z"/><path class="cls-3" d="M309.74,332.63a2.15,2.15,0,0,0-4.11-1.26c-.75,2.45-2,4.06-3.59,4.78-2.85,1.26-6.33-.33-6.4-.36a2.15,2.15,0,0,0-1.85,3.88,14.65,14.65,0,0,0,5.79,1.26,11.15,11.15,0,0,0,2.18-.22,35.41,35.41,0,0,0,32.58,20.78q1,0,2.08-.06c13.69-.74,24.55-8.67,28.69-20.77a11.61,11.61,0,0,0,1.38.09,14.66,14.66,0,0,0,5.79-1.26,2.15,2.15,0,0,0-1.86-3.88s-3.52,1.61-6.37.37c-1.64-.72-2.86-2.33-3.61-4.79a2.15,2.15,0,0,0-4.11,1.26,11.72,11.72,0,0,0,4.73,6.78c-3.56,10.43-13,17.26-24.87,17.91A31.26,31.26,0,0,1,305.67,339,12.17,12.17,0,0,0,309.74,332.63Z"/><path class="cls-3" d="M293.85,556.81a43,43,0,0,0-11.92,29.38c0,25.18,22.84,45.67,50.91,45.67s50.91-20.49,50.91-45.67a43,43,0,0,0-12-29.41,2.15,2.15,0,1,0-3.13,2.94,38.71,38.71,0,0,1,10.79,26.47c0,22.81-20.91,41.37-46.61,41.37S286.23,609,286.23,586.19A38.71,38.71,0,0,1,297,559.75a2.15,2.15,0,0,0-3.14-2.94Z"/><path class="cls-3" d="M334.16,409.78l-1.32-1-1.32,1c-40.38,31.53-63.23,85.61-50.92,120.54,7.2,20.43,25.78,31.44,52.24,31.09h1.3c25.8,0,43.87-11,50.94-31.1C397.39,495.39,374.55,441.32,334.16,409.78ZM381,528.9c-6.44,18.28-22.34,28-46,28.22V545.84c4.91-1.93,21.65-10,28.7-32.25a2.15,2.15,0,0,0-4.1-1.3A47.17,47.17,0,0,1,335,541.14V509.83c4.91-1.93,21.65-10,28.7-32.25a2.15,2.15,0,0,0-4.1-1.3A47.17,47.17,0,0,1,335,505.13V451.4a2.15,2.15,0,1,0-4.3,0v38.32C325,487.06,312,479.16,306.2,460.92a2.15,2.15,0,0,0-4.1,1.3c7,22.1,23.54,30.2,28.59,32.21v31C325,522.75,312,514.86,306.2,496.62a2.15,2.15,0,0,0-4.1,1.3c7,22.1,23.54,30.2,28.59,32.21v27c-23.71-.25-39.6-9.94-46-28.22-5.46-15.51-3.47-36.68,5.46-58.09a145.49,145.49,0,0,1,42.73-56.59,145.5,145.5,0,0,1,42.73,56.59C384.5,492.21,386.49,513.39,381,528.9Z"/><path class="cls-3" d="M309.74,584.38a2.15,2.15,0,0,0-4.11-1.26c-.75,2.45-2,4.06-3.59,4.78-2.85,1.26-6.33-.33-6.4-.36a2.15,2.15,0,0,0-1.85,3.88,14.65,14.65,0,0,0,5.79,1.26,11.15,11.15,0,0,0,2.18-.22,35.41,35.41,0,0,0,32.58,20.78q1,0,2.08-.06c13.69-.74,24.55-8.67,28.69-20.77a11.61,11.61,0,0,0,1.38.09,14.66,14.66,0,0,0,5.79-1.26,2.15,2.15,0,0,0-1.86-3.88s-3.52,1.61-6.37.37c-1.64-.72-2.86-2.33-3.61-4.79a2.15,2.15,0,0,0-4.11,1.26A11.72,11.72,0,0,0,361,591c-3.56,10.43-13,17.26-24.87,17.91a31.26,31.26,0,0,1-30.51-18.19A12.17,12.17,0,0,0,309.74,584.38Z"/><path class="cls-3" d="M494.39,0h-9.57a51.33,51.33,0,0,1-19.07,3.63A51.33,51.33,0,0,1,446.69,0h-9.57a54.76,54.76,0,0,0,28.64,7.93A54.76,54.76,0,0,0,494.39,0Z"/><path class="cls-3" d="M426.77,184.64A43,43,0,0,0,414.85,214c0,25.18,22.84,45.67,50.91,45.67S516.66,239.2,516.66,214a43,43,0,0,0-12-29.41,2.15,2.15,0,0,0-3.13,2.94A38.71,38.71,0,0,1,512.36,214c0,22.81-20.91,41.37-46.61,41.37S419.15,236.83,419.15,214a38.71,38.71,0,0,1,10.76-26.44,2.15,2.15,0,0,0-3.14-2.94Z"/><path class="cls-3" d="M467.08,37.62l-1.32-1-1.32,1C424,69.15,401.2,123.23,413.51,158.16c7.2,20.43,25.78,31.44,52.24,31.09h1.3c25.8,0,43.87-11,50.94-31.1C530.31,123.23,507.46,69.15,467.08,37.62Zm46.86,119.12c-6.44,18.28-22.34,28-46,28.22V173.68c4.91-1.93,21.65-10,28.7-32.25a2.15,2.15,0,0,0-4.1-1.3A47.17,47.17,0,0,1,467.9,169V137.66c4.91-1.93,21.65-10,28.7-32.25a2.15,2.15,0,0,0-4.1-1.3A47.17,47.17,0,0,1,467.9,133V79.24a2.15,2.15,0,1,0-4.3,0v38.32c-5.68-2.67-18.71-10.56-24.49-28.81a2.15,2.15,0,0,0-4.1,1.3c7,22.1,23.54,30.2,28.59,32.21v31c-5.68-2.67-18.71-10.56-24.49-28.81a2.15,2.15,0,0,0-4.1,1.3c7,22.1,23.54,30.2,28.59,32.21v27c-23.71-.25-39.6-9.94-46-28.22C412.1,141.22,414.09,120,423,98.64a145.49,145.49,0,0,1,42.73-56.59,145.5,145.5,0,0,1,42.73,56.59C517.42,120,519.41,141.22,513.94,156.73Z"/><path class="cls-3" d="M442.65,212.22a2.15,2.15,0,0,0-4.11-1.26c-.75,2.45-2,4.06-3.59,4.78-2.85,1.26-6.33-.33-6.4-.36a2.15,2.15,0,0,0-1.85,3.88,14.65,14.65,0,0,0,5.79,1.26,11.15,11.15,0,0,0,2.18-.22,35.41,35.41,0,0,0,32.58,20.78q1,0,2.08-.06c13.69-.74,24.55-8.67,28.69-20.77a11.61,11.61,0,0,0,1.38.09,14.66,14.66,0,0,0,5.79-1.26,2.15,2.15,0,0,0-1.86-3.88s-3.52,1.61-6.37.37c-1.64-.72-2.86-2.33-3.61-4.79a2.15,2.15,0,0,0-4.11,1.26,11.72,11.72,0,0,0,4.73,6.78c-3.56,10.43-13,17.26-24.87,17.91a31.26,31.26,0,0,1-30.51-18.19A12.17,12.17,0,0,0,442.65,212.22Z"/><path class="cls-3" d="M426.77,436.4a43,43,0,0,0-11.92,29.38c0,25.18,22.84,45.67,50.91,45.67s50.91-20.49,50.91-45.67a43,43,0,0,0-12-29.41,2.15,2.15,0,0,0-3.13,2.94,38.71,38.71,0,0,1,10.79,26.47c0,22.81-20.91,41.37-46.61,41.37s-46.61-18.56-46.61-41.37a38.71,38.71,0,0,1,10.76-26.44,2.15,2.15,0,0,0-3.14-2.94Z"/><path class="cls-3" d="M467.08,289.37l-1.32-1-1.32,1C424,320.91,401.2,375,413.51,409.92c7.2,20.43,25.78,31.44,52.24,31.09h1.3c25.8,0,43.87-11,50.94-31.1C530.31,375,507.46,320.91,467.08,289.37Zm46.86,119.12c-6.44,18.28-22.34,28-46,28.22V425.43c4.91-1.93,21.65-10,28.7-32.25a2.15,2.15,0,0,0-4.1-1.3,47.17,47.17,0,0,1-24.6,28.85V389.42c4.91-1.93,21.65-10,28.7-32.25a2.15,2.15,0,0,0-4.1-1.3,47.17,47.17,0,0,1-24.6,28.85V331a2.15,2.15,0,1,0-4.3,0v38.32c-5.68-2.67-18.71-10.56-24.49-28.81a2.15,2.15,0,0,0-4.1,1.3c7,22.1,23.54,30.2,28.59,32.21v31c-5.68-2.67-18.71-10.56-24.49-28.81a2.15,2.15,0,0,0-4.1,1.3c7,22.1,23.54,30.2,28.59,32.21v27c-23.71-.25-39.6-9.94-46-28.22C412.1,393,414.09,371.81,423,350.4a145.49,145.49,0,0,1,42.73-56.59,145.5,145.5,0,0,1,42.73,56.59C517.42,371.81,519.41,393,513.94,408.49Z"/><path class="cls-3" d="M442.65,464a2.15,2.15,0,0,0-4.11-1.26c-.75,2.45-2,4.06-3.59,4.78-2.85,1.26-6.33-.33-6.4-.36A2.15,2.15,0,0,0,426.7,471a14.65,14.65,0,0,0,5.79,1.26,11.15,11.15,0,0,0,2.18-.22,35.41,35.41,0,0,0,32.58,20.78q1,0,2.08-.06C483,492,493.87,484.12,498,472a11.61,11.61,0,0,0,1.38.09,14.66,14.66,0,0,0,5.79-1.26,2.15,2.15,0,1,0-1.86-3.88s-3.52,1.61-6.37.37c-1.64-.72-2.86-2.33-3.61-4.79a2.15,2.15,0,0,0-4.11,1.26,11.72,11.72,0,0,0,4.73,6.78c-3.56,10.43-13,17.26-24.87,17.91a31.26,31.26,0,0,1-30.51-18.19A12.17,12.17,0,0,0,442.65,464Z"/><path class="cls-3" d="M465.75,580.6a2.15,2.15,0,0,0-2.15,2.15v38.32c-5.68-2.67-18.71-10.56-24.49-28.81a2.15,2.15,0,0,0-4.1,1.3c7,22.1,23.54,30.2,28.59,32.21v13.13h9.07c7.08-3.92,18.44-12.64,23.93-30a2.15,2.15,0,0,0-4.1-1.3,47.17,47.17,0,0,1-24.6,28.85V582.75A2.15,2.15,0,0,0,465.75,580.6Z"/><path class="cls-3" d="M467.08,541.13l-1.32-1-1.32,1c-32.36,25.27-53.44,65-54.21,97.78h4.36c.3-11.41,3.14-24,8.44-36.75a145.49,145.49,0,0,1,42.73-56.59,145.5,145.5,0,0,1,42.73,56.59c5.31,12.71,8.14,25.34,8.44,36.75h4.36C520.52,606.14,499.44,566.4,467.08,541.13Z"/><path class="cls-3" d="M439.12,628a2.15,2.15,0,0,0-4.1,1.3,56.37,56.37,0,0,0,4.05,9.65h5A50.58,50.58,0,0,1,439.12,628Z"/><path class="cls-3" d="M552.45,53.29a43,43,0,0,0-11.92,29.38c0,25.18,22.84,45.67,50.91,45.67s50.91-20.49,50.91-45.67a43,43,0,0,0-12-29.41,2.15,2.15,0,1,0-3.13,2.94A38.71,38.71,0,0,1,638,82.67c0,22.81-20.91,41.37-46.61,41.37s-46.61-18.56-46.61-41.37a38.71,38.71,0,0,1,10.76-26.44,2.15,2.15,0,0,0-3.14-2.94Z"/><path class="cls-3" d="M539.19,26.81c7.2,20.43,25.78,31.44,52.24,31.09h1.3c25.8,0,43.87-11,50.94-31.1A66.3,66.3,0,0,0,646.77,0H642.4c.72,9.35-.18,18-2.77,25.38-6.44,18.28-22.34,28-46,28.22V42.32c4.91-1.93,21.65-10,28.7-32.25a2.15,2.15,0,0,0-4.1-1.3,47.17,47.17,0,0,1-24.6,28.85V6.31A45.77,45.77,0,0,0,604.48,0h-7.82c-1.17.67-2.21,1.2-3.07,1.61V0h-4.3V21.9A46.46,46.46,0,0,1,567.54,0H562.8a49.85,49.85,0,0,0,26.49,26.6v27c-23.71-.25-39.6-9.94-46-28.22-2.6-7.37-3.49-16-2.77-25.38H536.1A66.3,66.3,0,0,0,539.19,26.81Z"/><path class="cls-3" d="M568.33,80.87a2.15,2.15,0,0,0-4.11-1.26c-.75,2.45-2,4.06-3.59,4.78-2.85,1.26-6.33-.33-6.4-.36a2.15,2.15,0,0,0-1.85,3.88,14.65,14.65,0,0,0,5.79,1.26,11.15,11.15,0,0,0,2.18-.22,35.41,35.41,0,0,0,32.58,20.78q1,0,2.08-.06c13.69-.74,24.55-8.67,28.69-20.77a11.61,11.61,0,0,0,1.38.09,14.66,14.66,0,0,0,5.79-1.26A2.15,2.15,0,0,0,629,83.86s-3.52,1.61-6.37.37c-1.64-.72-2.86-2.33-3.61-4.79a2.15,2.15,0,0,0-4.11,1.26,11.72,11.72,0,0,0,4.73,6.78c-3.56,10.43-13,17.26-24.87,17.91a31.26,31.26,0,0,1-30.51-18.19A12.17,12.17,0,0,0,568.33,80.87Z"/><path class="cls-3" d="M552.45,305a43,43,0,0,0-11.92,29.38c0,25.18,22.84,45.67,50.91,45.67s50.91-20.49,50.91-45.67a43,43,0,0,0-12-29.41,2.15,2.15,0,0,0-3.13,2.94A38.71,38.71,0,0,1,638,334.43c0,22.81-20.91,41.37-46.61,41.37s-46.61-18.56-46.61-41.37A38.71,38.71,0,0,1,555.59,308a2.15,2.15,0,0,0-3.14-2.94Z"/><path class="cls-3" d="M592.76,158l-1.32-1-1.32,1c-40.38,31.53-63.23,85.61-50.92,120.54C546.39,299,565,310,591.43,309.66h1.3c25.8,0,43.87-11,50.94-31.1C656,243.63,633.14,189.56,592.76,158Zm46.86,119.12c-6.44,18.28-22.34,28-46,28.22V294.08c4.91-1.93,21.65-10,28.7-32.25a2.15,2.15,0,0,0-4.1-1.3,47.17,47.17,0,0,1-24.6,28.85V258.07c4.91-1.93,21.65-10,28.7-32.25a2.15,2.15,0,0,0-4.1-1.3,47.17,47.17,0,0,1-24.6,28.85V199.64a2.15,2.15,0,1,0-4.3,0V238c-5.68-2.67-18.71-10.56-24.49-28.81a2.15,2.15,0,0,0-4.1,1.3c7,22.1,23.54,30.2,28.59,32.21v31c-5.68-2.67-18.71-10.56-24.49-28.81a2.15,2.15,0,0,0-4.1,1.3c7,22.1,23.54,30.2,28.59,32.21v27c-23.71-.25-39.6-9.94-46-28.22-5.46-15.51-3.47-36.68,5.46-58.09a145.49,145.49,0,0,1,42.73-56.59A145.5,145.5,0,0,1,634.16,219C643.1,240.45,645.09,261.63,639.62,277.14Z"/><path class="cls-3" d="M568.33,332.63a2.15,2.15,0,0,0-4.11-1.26c-.75,2.45-2,4.06-3.59,4.78-2.85,1.26-6.33-.33-6.4-.36a2.15,2.15,0,0,0-1.85,3.88,14.65,14.65,0,0,0,5.79,1.26,11.15,11.15,0,0,0,2.18-.22,35.41,35.41,0,0,0,32.58,20.78q1,0,2.08-.06c13.69-.74,24.55-8.67,28.69-20.77a11.61,11.61,0,0,0,1.38.09,14.66,14.66,0,0,0,5.79-1.26,2.15,2.15,0,1,0-1.86-3.88s-3.52,1.61-6.37.37c-1.64-.72-2.86-2.33-3.61-4.79a2.15,2.15,0,0,0-4.11,1.26,11.72,11.72,0,0,0,4.73,6.78c-3.56,10.43-13,17.26-24.87,17.91A31.26,31.26,0,0,1,564.27,339,12.17,12.17,0,0,0,568.33,332.63Z"/><path class="cls-3" d="M552.45,556.81a43,43,0,0,0-11.92,29.38c0,25.18,22.84,45.67,50.91,45.67s50.91-20.49,50.91-45.67a43,43,0,0,0-12-29.41,2.15,2.15,0,0,0-3.13,2.94A38.71,38.71,0,0,1,638,586.19c0,22.81-20.91,41.37-46.61,41.37S544.83,609,544.83,586.19a38.71,38.71,0,0,1,10.76-26.44,2.15,2.15,0,0,0-3.14-2.94Z"/><path class="cls-3" d="M592.76,409.78l-1.32-1-1.32,1c-40.38,31.53-63.23,85.61-50.92,120.54,7.2,20.43,25.78,31.44,52.24,31.09h1.3c25.8,0,43.87-11,50.94-31.1C656,495.39,633.14,441.32,592.76,409.78ZM639.62,528.9c-6.44,18.28-22.34,28-46,28.22V545.84c4.91-1.93,21.65-10,28.7-32.25a2.15,2.15,0,0,0-4.1-1.3,47.17,47.17,0,0,1-24.6,28.85V509.83c4.91-1.93,21.65-10,28.7-32.25a2.15,2.15,0,0,0-4.1-1.3,47.17,47.17,0,0,1-24.6,28.85V451.4a2.15,2.15,0,1,0-4.3,0v38.32c-5.68-2.67-18.71-10.56-24.49-28.81a2.15,2.15,0,0,0-4.1,1.3c7,22.1,23.54,30.2,28.59,32.21v31c-5.68-2.67-18.71-10.56-24.49-28.81a2.15,2.15,0,0,0-4.1,1.3c7,22.1,23.54,30.2,28.59,32.21v27c-23.71-.25-39.6-9.94-46-28.22-5.46-15.51-3.47-36.68,5.46-58.09a145.49,145.49,0,0,1,42.73-56.59,145.5,145.5,0,0,1,42.73,56.59C643.1,492.21,645.09,513.39,639.62,528.9Z"/><path class="cls-3" d="M568.33,584.38a2.15,2.15,0,0,0-4.11-1.26c-.75,2.45-2,4.06-3.59,4.78-2.85,1.26-6.33-.33-6.4-.36a2.15,2.15,0,0,0-1.85,3.88,14.65,14.65,0,0,0,5.79,1.26,11.15,11.15,0,0,0,2.18-.22,35.41,35.41,0,0,0,32.58,20.78q1,0,2.08-.06c13.69-.74,24.55-8.67,28.69-20.77a11.61,11.61,0,0,0,1.38.09,14.66,14.66,0,0,0,5.79-1.26,2.15,2.15,0,0,0-1.86-3.88s-3.52,1.61-6.37.37C621,587,619.77,585.41,619,583a2.15,2.15,0,0,0-4.11,1.26,11.72,11.72,0,0,0,4.73,6.78c-3.56,10.43-13,17.26-24.87,17.91a31.26,31.26,0,0,1-30.51-18.19A12.17,12.17,0,0,0,568.33,584.38Z"/><path class="cls-3" d="M753,0h-9.57a51.33,51.33,0,0,1-19.07,3.63A51.33,51.33,0,0,1,705.29,0h-9.57a54.76,54.76,0,0,0,28.64,7.93A54.76,54.76,0,0,0,753,0Z"/><path class="cls-3" d="M685.37,184.64A43,43,0,0,0,673.44,214c0,25.18,22.84,45.67,50.91,45.67S775.26,239.2,775.26,214a43,43,0,0,0-12-29.41,2.15,2.15,0,1,0-3.13,2.94A38.71,38.71,0,0,1,771,214c0,22.81-20.91,41.37-46.61,41.37S677.74,236.83,677.74,214a38.71,38.71,0,0,1,10.76-26.44,2.15,2.15,0,0,0-3.14-2.94Z"/><path class="cls-3" d="M725.67,37.62l-1.32-1-1.32,1c-40.38,31.53-63.23,85.61-50.92,120.54,7.2,20.43,25.78,31.44,52.24,31.09h1.3c25.8,0,43.87-11,50.94-31.1C788.9,123.23,766.06,69.15,725.67,37.62Zm46.86,119.12c-6.44,18.28-22.34,28-46,28.22V173.68c4.91-1.93,21.65-10,28.7-32.25a2.15,2.15,0,0,0-4.1-1.3A47.17,47.17,0,0,1,726.5,169V137.66c4.91-1.93,21.65-10,28.7-32.25a2.15,2.15,0,0,0-4.1-1.3A47.17,47.17,0,0,1,726.5,133V79.24a2.15,2.15,0,1,0-4.3,0v38.32c-5.68-2.67-18.71-10.56-24.49-28.81a2.15,2.15,0,0,0-4.1,1.3c7,22.1,23.54,30.2,28.59,32.21v31c-5.68-2.67-18.71-10.56-24.49-28.81a2.15,2.15,0,0,0-4.1,1.3c7,22.1,23.54,30.2,28.59,32.21v27c-23.71-.25-39.6-9.94-46-28.22-5.46-15.51-3.47-36.68,5.46-58.09a145.49,145.49,0,0,1,42.73-56.59,145.5,145.5,0,0,1,42.73,56.59C776,120,778,141.22,772.54,156.73Z"/><path class="cls-3" d="M701.25,212.22a2.15,2.15,0,0,0-4.11-1.26c-.75,2.45-2,4.06-3.59,4.78-2.85,1.26-6.33-.33-6.4-.36a2.15,2.15,0,0,0-1.85,3.88,14.65,14.65,0,0,0,5.79,1.26,11.15,11.15,0,0,0,2.18-.22,35.41,35.41,0,0,0,32.58,20.78q1,0,2.08-.06c13.69-.74,24.55-8.67,28.69-20.77a11.61,11.61,0,0,0,1.38.09,14.66,14.66,0,0,0,5.79-1.26,2.15,2.15,0,0,0-1.86-3.88s-3.52,1.61-6.37.37c-1.64-.72-2.86-2.33-3.61-4.79a2.15,2.15,0,0,0-4.11,1.26,11.72,11.72,0,0,0,4.73,6.78c-3.56,10.43-13,17.26-24.87,17.91a31.26,31.26,0,0,1-30.51-18.19A12.17,12.17,0,0,0,701.25,212.22Z"/><path class="cls-3" d="M685.37,436.4a43,43,0,0,0-11.92,29.38c0,25.18,22.84,45.67,50.91,45.67s50.91-20.49,50.91-45.67a43,43,0,0,0-12-29.41,2.15,2.15,0,0,0-3.13,2.94A38.71,38.71,0,0,1,771,465.78c0,22.81-20.91,41.37-46.61,41.37s-46.61-18.56-46.61-41.37a38.71,38.71,0,0,1,10.76-26.44,2.15,2.15,0,0,0-3.14-2.94Z"/><path class="cls-3" d="M725.67,289.37l-1.32-1-1.32,1C682.64,320.91,659.8,375,672.11,409.92c7.2,20.43,25.78,31.44,52.24,31.09h1.3c25.8,0,43.87-11,50.94-31.1C788.9,375,766.06,320.91,725.67,289.37Zm46.86,119.12c-6.44,18.28-22.34,28-46,28.22V425.43c4.91-1.93,21.65-10,28.7-32.25a2.15,2.15,0,0,0-4.1-1.3,47.17,47.17,0,0,1-24.6,28.85V389.42c4.91-1.93,21.65-10,28.7-32.25a2.15,2.15,0,0,0-4.1-1.3,47.17,47.17,0,0,1-24.6,28.85V331a2.15,2.15,0,1,0-4.3,0v38.32c-5.68-2.67-18.71-10.56-24.49-28.81a2.15,2.15,0,0,0-4.1,1.3c7,22.1,23.54,30.2,28.59,32.21v31c-5.68-2.67-18.71-10.56-24.49-28.81a2.15,2.15,0,0,0-4.1,1.3c7,22.1,23.54,30.2,28.59,32.21v27c-23.71-.25-39.6-9.94-46-28.22-5.46-15.51-3.47-36.68,5.46-58.09a145.49,145.49,0,0,1,42.73-56.59,145.5,145.5,0,0,1,42.73,56.59C776,371.81,778,393,772.54,408.49Z"/><path class="cls-3" d="M701.25,464a2.15,2.15,0,0,0-4.11-1.26c-.75,2.45-2,4.06-3.59,4.78-2.85,1.26-6.33-.33-6.4-.36a2.15,2.15,0,0,0-1.85,3.88,14.65,14.65,0,0,0,5.79,1.26,11.15,11.15,0,0,0,2.18-.22,35.41,35.41,0,0,0,32.58,20.78q1,0,2.08-.06c13.69-.74,24.55-8.67,28.69-20.77a11.61,11.61,0,0,0,1.38.09,14.66,14.66,0,0,0,5.79-1.26,2.15,2.15,0,1,0-1.86-3.88s-3.52,1.61-6.37.37c-1.64-.72-2.86-2.33-3.61-4.79a2.15,2.15,0,0,0-4.11,1.26,11.72,11.72,0,0,0,4.73,6.78c-3.56,10.43-13,17.26-24.87,17.91a31.26,31.26,0,0,1-30.51-18.19A12.17,12.17,0,0,0,701.25,464Z"/><path class="cls-3" d="M725.67,541.13l-1.32-1-1.32,1c-32.36,25.27-53.44,65-54.21,97.78h4.36c.3-11.41,3.14-24,8.44-36.75a145.49,145.49,0,0,1,42.73-56.59,145.5,145.5,0,0,1,42.73,56.59c5.31,12.71,8.14,25.34,8.44,36.75h4.36C779.11,606.14,758,566.4,725.67,541.13Z"/><path class="cls-3" d="M724.35,580.6a2.15,2.15,0,0,0-2.15,2.15v38.32c-5.68-2.67-18.71-10.56-24.49-28.81a2.15,2.15,0,0,0-4.1,1.3c7,22.1,23.54,30.2,28.59,32.21v13.13h9.07c7.08-3.92,18.44-12.64,23.93-30a2.15,2.15,0,0,0-4.1-1.3,47.17,47.17,0,0,1-24.6,28.85V582.75A2.15,2.15,0,0,0,724.35,580.6Z"/><path class="cls-3" d="M697.71,628a2.15,2.15,0,0,0-4.1,1.3,56.37,56.37,0,0,0,4.05,9.65h5A50.58,50.58,0,0,1,697.71,628Z"/><path class="cls-3" d="M811,53.29a43,43,0,0,0-11.92,29.38c0,25.18,22.84,45.67,50.91,45.67s50.91-20.49,50.91-45.67a43,43,0,0,0-12-29.41,2.15,2.15,0,0,0-3.13,2.94,38.71,38.71,0,0,1,10.79,26.47c0,22.81-20.91,41.37-46.61,41.37s-46.61-18.56-46.61-41.37a38.71,38.71,0,0,1,10.76-26.44A2.15,2.15,0,0,0,811,53.29Z"/><path class="cls-3" d="M797.79,26.81C805,47.23,823.57,58.25,850,57.9h1.3c25.8,0,43.87-11,50.94-31.1A66.3,66.3,0,0,0,905.37,0H901c.72,9.35-.18,18-2.77,25.38-6.44,18.28-22.34,28-46,28.22V42.32c4.91-1.93,21.65-10,28.7-32.25a2.15,2.15,0,0,0-4.1-1.3,47.17,47.17,0,0,1-24.6,28.85V6.31A45.77,45.77,0,0,0,863.08,0h-7.82c-1.17.67-2.21,1.2-3.07,1.61V0h-4.3V21.9A46.46,46.46,0,0,1,826.13,0h-4.74a49.85,49.85,0,0,0,26.49,26.6v27c-23.71-.25-39.6-9.94-46-28.22-2.6-7.37-3.49-16-2.77-25.38h-4.38A66.3,66.3,0,0,0,797.79,26.81Z"/><path class="cls-3" d="M826.93,80.87a2.15,2.15,0,0,0-4.11-1.26c-.75,2.45-2,4.06-3.59,4.78-2.85,1.26-6.33-.33-6.4-.36A2.15,2.15,0,0,0,811,87.91a14.65,14.65,0,0,0,5.79,1.26,11.15,11.15,0,0,0,2.18-.22,35.41,35.41,0,0,0,32.58,20.78q1,0,2.08-.06c13.69-.74,24.55-8.67,28.69-20.77a11.61,11.61,0,0,0,1.38.09,14.66,14.66,0,0,0,5.79-1.26,2.15,2.15,0,0,0-1.86-3.88s-3.52,1.61-6.37.37c-1.64-.72-2.86-2.33-3.61-4.79a2.15,2.15,0,0,0-4.11,1.26,11.72,11.72,0,0,0,4.73,6.78c-3.56,10.43-13,17.26-24.87,17.91a31.26,31.26,0,0,1-30.51-18.19A12.17,12.17,0,0,0,826.93,80.87Z"/><path class="cls-3" d="M811,305a43,43,0,0,0-11.92,29.38c0,25.18,22.84,45.67,50.91,45.67s50.91-20.49,50.91-45.67A43,43,0,0,0,889,305a2.15,2.15,0,0,0-3.13,2.94,38.71,38.71,0,0,1,10.79,26.47c0,22.81-20.91,41.37-46.61,41.37s-46.61-18.56-46.61-41.37A38.71,38.71,0,0,1,814.18,308,2.15,2.15,0,0,0,811,305Z"/><path class="cls-3" d="M851.35,158,850,157l-1.32,1c-40.38,31.53-63.23,85.61-50.92,120.54C805,299,823.57,310,850,309.66h1.3c25.8,0,43.87-11,50.94-31.1C914.58,243.63,891.74,189.56,851.35,158Zm46.86,119.12c-6.44,18.28-22.34,28-46,28.22V294.08c4.91-1.93,21.65-10,28.7-32.25a2.15,2.15,0,0,0-4.1-1.3,47.17,47.17,0,0,1-24.6,28.85V258.07c4.91-1.93,21.65-10,28.7-32.25a2.15,2.15,0,0,0-4.1-1.3,47.17,47.17,0,0,1-24.6,28.85V199.64a2.15,2.15,0,1,0-4.3,0V238c-5.68-2.67-18.71-10.56-24.49-28.81a2.15,2.15,0,0,0-4.1,1.3c7,22.1,23.54,30.2,28.59,32.21v31c-5.68-2.67-18.71-10.56-24.49-28.81a2.15,2.15,0,0,0-4.1,1.3c7,22.1,23.54,30.2,28.59,32.21v27c-23.71-.25-39.6-9.94-46-28.22-5.46-15.51-3.47-36.68,5.46-58.09A145.49,145.49,0,0,1,850,162.46,145.5,145.5,0,0,1,892.76,219C901.69,240.45,903.68,261.63,898.22,277.14Z"/><path class="cls-3" d="M826.93,332.63a2.15,2.15,0,0,0-4.11-1.26c-.75,2.45-2,4.06-3.59,4.78-2.85,1.26-6.33-.33-6.4-.36a2.15,2.15,0,0,0-1.85,3.88,14.65,14.65,0,0,0,5.79,1.26,11.15,11.15,0,0,0,2.18-.22,35.41,35.41,0,0,0,32.58,20.78q1,0,2.08-.06c13.69-.74,24.55-8.67,28.69-20.77a11.61,11.61,0,0,0,1.38.09,14.66,14.66,0,0,0,5.79-1.26,2.15,2.15,0,1,0-1.86-3.88s-3.52,1.61-6.37.37c-1.64-.72-2.86-2.33-3.61-4.79a2.15,2.15,0,0,0-4.11,1.26,11.72,11.72,0,0,0,4.73,6.78c-3.56,10.43-13,17.26-24.87,17.91A31.26,31.26,0,0,1,822.86,339,12.17,12.17,0,0,0,826.93,332.63Z"/><path class="cls-3" d="M811,556.81a43,43,0,0,0-11.92,29.38c0,25.18,22.84,45.67,50.91,45.67s50.91-20.49,50.91-45.67a43,43,0,0,0-12-29.41,2.15,2.15,0,0,0-3.13,2.94,38.71,38.71,0,0,1,10.79,26.47c0,22.81-20.91,41.37-46.61,41.37S803.42,609,803.42,586.19a38.71,38.71,0,0,1,10.76-26.44,2.15,2.15,0,0,0-3.14-2.94Z"/><path class="cls-3" d="M851.35,409.78l-1.32-1-1.32,1c-40.38,31.53-63.23,85.61-50.92,120.54,7.2,20.43,25.78,31.44,52.24,31.09h1.3c25.8,0,43.87-11,50.94-31.1C914.58,495.39,891.74,441.32,851.35,409.78ZM898.22,528.9c-6.44,18.28-22.34,28-46,28.22V545.84c4.91-1.93,21.65-10,28.7-32.25a2.15,2.15,0,0,0-4.1-1.3,47.17,47.17,0,0,1-24.6,28.85V509.83c4.91-1.93,21.65-10,28.7-32.25a2.15,2.15,0,0,0-4.1-1.3,47.17,47.17,0,0,1-24.6,28.85V451.4a2.15,2.15,0,1,0-4.3,0v38.32c-5.68-2.67-18.71-10.56-24.49-28.81a2.15,2.15,0,0,0-4.1,1.3c7,22.1,23.54,30.2,28.59,32.21v31c-5.68-2.67-18.71-10.56-24.49-28.81a2.15,2.15,0,0,0-4.1,1.3c7,22.1,23.54,30.2,28.59,32.21v27c-23.71-.25-39.6-9.94-46-28.22-5.46-15.51-3.47-36.68,5.46-58.09A145.49,145.49,0,0,1,850,414.22a145.5,145.5,0,0,1,42.73,56.59C901.69,492.21,903.68,513.39,898.22,528.9Z"/><path class="cls-3" d="M826.93,584.38a2.15,2.15,0,0,0-4.11-1.26c-.75,2.45-2,4.06-3.59,4.78-2.85,1.26-6.33-.33-6.4-.36a2.15,2.15,0,0,0-1.85,3.88,14.65,14.65,0,0,0,5.79,1.26,11.15,11.15,0,0,0,2.18-.22,35.41,35.41,0,0,0,32.58,20.78q1,0,2.08-.06c13.69-.74,24.55-8.67,28.69-20.77a11.61,11.61,0,0,0,1.38.09,14.66,14.66,0,0,0,5.79-1.26,2.15,2.15,0,0,0-1.86-3.88s-3.52,1.61-6.37.37c-1.64-.72-2.86-2.33-3.61-4.79a2.15,2.15,0,0,0-4.11,1.26,11.72,11.72,0,0,0,4.73,6.78c-3.56,10.43-13,17.26-24.87,17.91a31.26,31.26,0,0,1-30.51-18.19A12.17,12.17,0,0,0,826.93,584.38Z"/><path class="cls-3" d="M1011.59,0H1002a51.33,51.33,0,0,1-19.07,3.63A51.33,51.33,0,0,1,963.88,0h-9.57a54.76,54.76,0,0,0,28.64,7.93A54.76,54.76,0,0,0,1011.59,0Z"/><path class="cls-3" d="M944,184.64A43,43,0,0,0,932,214c0,25.18,22.84,45.67,50.91,45.67s50.91-20.49,50.91-45.67a43,43,0,0,0-12-29.41,2.15,2.15,0,0,0-3.13,2.94A38.71,38.71,0,0,1,1029.56,214c0,22.81-20.91,41.37-46.61,41.37S936.34,236.83,936.34,214a38.71,38.71,0,0,1,10.76-26.44,2.15,2.15,0,0,0-3.14-2.94Z"/><path class="cls-3" d="M984.27,37.62l-1.32-1-1.32,1c-40.38,31.53-63.23,85.61-50.92,120.54,7.2,20.43,25.78,31.44,52.24,31.09h1.3c25.8,0,43.87-11,50.94-31.1C1047.5,123.23,1024.66,69.15,984.27,37.62Zm46.86,119.12c-6.44,18.28-22.34,28-46,28.22V173.68c4.91-1.93,21.65-10,28.7-32.25a2.15,2.15,0,0,0-4.1-1.3A47.17,47.17,0,0,1,985.1,169V137.66c4.91-1.93,21.65-10,28.7-32.25a2.15,2.15,0,0,0-4.1-1.3A47.17,47.17,0,0,1,985.1,133V79.24a2.15,2.15,0,1,0-4.3,0v38.32c-5.68-2.67-18.71-10.56-24.49-28.81a2.15,2.15,0,0,0-4.1,1.3c7,22.1,23.54,30.2,28.59,32.21v31c-5.68-2.67-18.71-10.56-24.49-28.81a2.15,2.15,0,0,0-4.1,1.3c7,22.1,23.54,30.2,28.59,32.21v27c-23.71-.25-39.6-9.94-46-28.22-5.46-15.51-3.47-36.68,5.46-58.09a145.49,145.49,0,0,1,42.73-56.59,145.5,145.5,0,0,1,42.73,56.59C1034.61,120,1036.6,141.22,1031.14,156.73Z"/><path class="cls-3" d="M959.84,212.22a2.15,2.15,0,0,0-4.11-1.26c-.75,2.45-2,4.06-3.59,4.78-2.85,1.26-6.33-.33-6.4-.36a2.15,2.15,0,0,0-1.85,3.88,14.65,14.65,0,0,0,5.79,1.26,11.15,11.15,0,0,0,2.18-.22,35.41,35.41,0,0,0,32.58,20.78q1,0,2.08-.06c13.69-.74,24.55-8.67,28.69-20.77a11.61,11.61,0,0,0,1.38.09,14.66,14.66,0,0,0,5.79-1.26,2.15,2.15,0,0,0-1.86-3.88s-3.52,1.61-6.37.37c-1.64-.72-2.86-2.33-3.61-4.79a2.15,2.15,0,0,0-4.11,1.26,11.72,11.72,0,0,0,4.73,6.78c-3.56,10.43-13,17.26-24.87,17.91a31.26,31.26,0,0,1-30.51-18.19A12.17,12.17,0,0,0,959.84,212.22Z"/><path class="cls-3" d="M944,436.4A43,43,0,0,0,932,465.78c0,25.18,22.84,45.67,50.91,45.67s50.91-20.49,50.91-45.67a43,43,0,0,0-12-29.41,2.15,2.15,0,0,0-3.13,2.94,38.71,38.71,0,0,1,10.79,26.47c0,22.81-20.91,41.37-46.61,41.37s-46.61-18.56-46.61-41.37a38.71,38.71,0,0,1,10.76-26.44A2.15,2.15,0,0,0,944,436.4Z"/><path class="cls-3" d="M984.27,289.37l-1.32-1-1.32,1C941.24,320.91,918.4,375,930.7,409.92c7.2,20.43,25.78,31.44,52.24,31.09h1.3c25.8,0,43.87-11,50.94-31.1C1047.5,375,1024.66,320.91,984.27,289.37Zm46.86,119.12c-6.44,18.28-22.34,28-46,28.22V425.43c4.91-1.93,21.65-10,28.7-32.25a2.15,2.15,0,0,0-4.1-1.3,47.17,47.17,0,0,1-24.6,28.85V389.42c4.91-1.93,21.65-10,28.7-32.25a2.15,2.15,0,0,0-4.1-1.3,47.17,47.17,0,0,1-24.6,28.85V331a2.15,2.15,0,1,0-4.3,0v38.32c-5.68-2.67-18.71-10.56-24.49-28.81a2.15,2.15,0,0,0-4.1,1.3c7,22.1,23.54,30.2,28.59,32.21v31c-5.68-2.67-18.71-10.56-24.49-28.81a2.15,2.15,0,0,0-4.1,1.3c7,22.1,23.54,30.2,28.59,32.21v27c-23.71-.25-39.6-9.94-46-28.22-5.46-15.51-3.47-36.68,5.46-58.09a145.49,145.49,0,0,1,42.73-56.59,145.5,145.5,0,0,1,42.73,56.59C1034.61,371.81,1036.6,393,1031.14,408.49Z"/><path class="cls-3" d="M959.84,464a2.15,2.15,0,0,0-4.11-1.26c-.75,2.45-2,4.06-3.59,4.78-2.85,1.26-6.33-.33-6.4-.36a2.15,2.15,0,0,0-1.85,3.88,14.65,14.65,0,0,0,5.79,1.26,11.15,11.15,0,0,0,2.18-.22,35.41,35.41,0,0,0,32.58,20.78q1,0,2.08-.06c13.69-.74,24.55-8.67,28.69-20.77a11.61,11.61,0,0,0,1.38.09,14.66,14.66,0,0,0,5.79-1.26,2.15,2.15,0,0,0-1.86-3.88s-3.52,1.61-6.37.37c-1.64-.72-2.86-2.33-3.61-4.79a2.15,2.15,0,0,0-4.11,1.26,11.72,11.72,0,0,0,4.73,6.78c-3.56,10.43-13,17.26-24.87,17.91a31.26,31.26,0,0,1-30.51-18.19A12.17,12.17,0,0,0,959.84,464Z"/><path class="cls-3" d="M984.27,541.13l-1.32-1-1.32,1c-32.36,25.27-53.44,65-54.21,97.78h4.36c.3-11.41,3.14-24,8.44-36.75a145.49,145.49,0,0,1,42.73-56.59,145.5,145.5,0,0,1,42.73,56.59c5.31,12.71,8.14,25.34,8.44,36.75h4.36C1037.71,606.14,1016.63,566.4,984.27,541.13Z"/><path class="cls-3" d="M982.95,580.6a2.15,2.15,0,0,0-2.15,2.15v38.32c-5.68-2.67-18.71-10.56-24.49-28.81a2.15,2.15,0,0,0-4.1,1.3c7,22.1,23.54,30.2,28.59,32.21v13.13h9.07c7.08-3.92,18.44-12.64,23.93-30a2.15,2.15,0,0,0-4.1-1.3,47.17,47.17,0,0,1-24.6,28.85V582.75A2.15,2.15,0,0,0,982.95,580.6Z"/><path class="cls-3" d="M956.31,628a2.15,2.15,0,0,0-4.1,1.3,56.37,56.37,0,0,0,4.05,9.65h5A50.58,50.58,0,0,1,956.31,628Z"/><path class="cls-3" d="M1069.64,53.29a43,43,0,0,0-11.92,29.38c0,25.18,22.84,45.67,50.91,45.67s50.91-20.49,50.91-45.67a43,43,0,0,0-12-29.41,2.15,2.15,0,1,0-3.13,2.94,38.71,38.71,0,0,1,10.79,26.47c0,22.81-20.91,41.37-46.61,41.37S1062,105.48,1062,82.67a38.71,38.71,0,0,1,10.76-26.44,2.15,2.15,0,0,0-3.14-2.94Z"/><path class="cls-3" d="M1056.38,26.81c7.2,20.43,25.78,31.44,52.24,31.09h1.3c25.8,0,43.87-11,50.94-31.1A66.3,66.3,0,0,0,1164,0h-4.38c.72,9.35-.18,18-2.77,25.38-6.44,18.28-22.34,28-46,28.22V42.32c4.91-1.93,21.65-10,28.7-32.25a2.15,2.15,0,0,0-4.1-1.3,47.17,47.17,0,0,1-24.6,28.85V6.31A45.77,45.77,0,0,0,1121.67,0h-7.82c-1.17.67-2.21,1.2-3.07,1.61V0h-4.3V21.9A46.46,46.46,0,0,1,1084.73,0H1080a49.85,49.85,0,0,0,26.49,26.6v27c-23.71-.25-39.6-9.94-46-28.22-2.6-7.37-3.49-16-2.77-25.38h-4.38A66.3,66.3,0,0,0,1056.38,26.81Z"/><path class="cls-3" d="M1085.52,80.87a2.15,2.15,0,0,0-4.11-1.26c-.75,2.45-2,4.06-3.59,4.78-2.85,1.26-6.33-.33-6.4-.36a2.15,2.15,0,0,0-1.85,3.88,14.65,14.65,0,0,0,5.79,1.26,11.15,11.15,0,0,0,2.18-.22,35.41,35.41,0,0,0,32.58,20.78q1,0,2.08-.06c13.69-.74,24.55-8.67,28.69-20.77a11.61,11.61,0,0,0,1.38.09,14.66,14.66,0,0,0,5.79-1.26,2.15,2.15,0,0,0-1.86-3.88s-3.52,1.61-6.37.37c-1.64-.72-2.86-2.33-3.61-4.79a2.15,2.15,0,0,0-4.11,1.26,11.72,11.72,0,0,0,4.73,6.78c-3.56,10.43-13,17.26-24.87,17.91a31.26,31.26,0,0,1-30.51-18.19A12.17,12.17,0,0,0,1085.52,80.87Z"/><path class="cls-3" d="M1069.64,305a43,43,0,0,0-11.92,29.38c0,25.18,22.84,45.67,50.91,45.67s50.91-20.49,50.91-45.67a43,43,0,0,0-12-29.41,2.15,2.15,0,1,0-3.13,2.94,38.71,38.71,0,0,1,10.79,26.47c0,22.81-20.91,41.37-46.61,41.37S1062,357.24,1062,334.43A38.71,38.71,0,0,1,1072.78,308a2.15,2.15,0,0,0-3.14-2.94Z"/><path class="cls-3" d="M1110,158l-1.32-1-1.32,1c-40.38,31.53-63.23,85.61-50.92,120.54,7.2,20.43,25.78,31.44,52.24,31.09h1.3c25.8,0,43.87-11,50.94-31.1C1173.18,243.63,1150.34,189.56,1110,158Zm46.86,119.12c-6.44,18.28-22.34,28-46,28.22V294.08c4.91-1.93,21.65-10,28.7-32.25a2.15,2.15,0,0,0-4.1-1.3,47.17,47.17,0,0,1-24.6,28.85V258.07c4.91-1.93,21.65-10,28.7-32.25a2.15,2.15,0,0,0-4.1-1.3,47.17,47.17,0,0,1-24.6,28.85V199.64a2.15,2.15,0,1,0-4.3,0V238c-5.68-2.67-18.71-10.56-24.49-28.81a2.15,2.15,0,0,0-4.1,1.3c7,22.1,23.54,30.2,28.59,32.21v31c-5.68-2.67-18.71-10.56-24.49-28.81a2.15,2.15,0,0,0-4.1,1.3c7,22.1,23.54,30.2,28.59,32.21v27c-23.71-.25-39.6-9.94-46-28.22-5.46-15.51-3.47-36.68,5.46-58.09a145.49,145.49,0,0,1,42.73-56.59A145.5,145.5,0,0,1,1151.36,219C1160.29,240.45,1162.28,261.63,1156.82,277.14Z"/><path class="cls-3" d="M1085.52,332.63a2.15,2.15,0,0,0-4.11-1.26c-.75,2.45-2,4.06-3.59,4.78-2.85,1.26-6.33-.33-6.4-.36a2.15,2.15,0,0,0-1.85,3.88,14.65,14.65,0,0,0,5.79,1.26,11.15,11.15,0,0,0,2.18-.22,35.41,35.41,0,0,0,32.58,20.78q1,0,2.08-.06c13.69-.74,24.55-8.67,28.69-20.77a11.61,11.61,0,0,0,1.38.09,14.66,14.66,0,0,0,5.79-1.26,2.15,2.15,0,0,0-1.86-3.88s-3.52,1.61-6.37.37c-1.64-.72-2.86-2.33-3.61-4.79a2.15,2.15,0,0,0-4.11,1.26,11.72,11.72,0,0,0,4.73,6.78c-3.56,10.43-13,17.26-24.87,17.91A31.26,31.26,0,0,1,1081.46,339,12.17,12.17,0,0,0,1085.52,332.63Z"/><path class="cls-3" d="M1069.64,556.81a43,43,0,0,0-11.92,29.38c0,25.18,22.84,45.67,50.91,45.67s50.91-20.49,50.91-45.67a43,43,0,0,0-12-29.41,2.15,2.15,0,1,0-3.13,2.94,38.71,38.71,0,0,1,10.79,26.47c0,22.81-20.91,41.37-46.61,41.37S1062,609,1062,586.19a38.71,38.71,0,0,1,10.76-26.44,2.15,2.15,0,0,0-3.14-2.94Z"/><path class="cls-3" d="M1110,409.78l-1.32-1-1.32,1c-40.38,31.53-63.23,85.61-50.92,120.54,7.2,20.43,25.78,31.44,52.24,31.09h1.3c25.8,0,43.87-11,50.94-31.1C1173.18,495.39,1150.34,441.32,1110,409.78Zm46.86,119.12c-6.44,18.28-22.34,28-46,28.22V545.84c4.91-1.93,21.65-10,28.7-32.25a2.15,2.15,0,0,0-4.1-1.3,47.17,47.17,0,0,1-24.6,28.85V509.83c4.91-1.93,21.65-10,28.7-32.25a2.15,2.15,0,0,0-4.1-1.3,47.17,47.17,0,0,1-24.6,28.85V451.4a2.15,2.15,0,1,0-4.3,0v38.32c-5.68-2.67-18.71-10.56-24.49-28.81a2.15,2.15,0,0,0-4.1,1.3c7,22.1,23.54,30.2,28.59,32.21v31c-5.68-2.67-18.71-10.56-24.49-28.81a2.15,2.15,0,0,0-4.1,1.3c7,22.1,23.54,30.2,28.59,32.21v27c-23.71-.25-39.6-9.94-46-28.22-5.46-15.51-3.47-36.68,5.46-58.09a145.49,145.49,0,0,1,42.73-56.59,145.5,145.5,0,0,1,42.73,56.59C1160.29,492.21,1162.28,513.39,1156.82,528.9Z"/><path class="cls-3" d="M1085.52,584.38a2.15,2.15,0,0,0-4.11-1.26c-.75,2.45-2,4.06-3.59,4.78-2.85,1.26-6.33-.33-6.4-.36a2.15,2.15,0,0,0-1.85,3.88,14.65,14.65,0,0,0,5.79,1.26,11.15,11.15,0,0,0,2.18-.22,35.41,35.41,0,0,0,32.58,20.78q1,0,2.08-.06c13.69-.74,24.55-8.67,28.69-20.77a11.61,11.61,0,0,0,1.38.09,14.66,14.66,0,0,0,5.79-1.26,2.15,2.15,0,0,0-1.86-3.88s-3.52,1.61-6.37.37c-1.64-.72-2.86-2.33-3.61-4.79a2.15,2.15,0,0,0-4.11,1.26,11.72,11.72,0,0,0,4.73,6.78c-3.56,10.43-13,17.26-24.87,17.91a31.26,31.26,0,0,1-30.51-18.19A12.17,12.17,0,0,0,1085.52,584.38Z"/><path class="cls-3" d="M1270.18,0h-9.57a51.33,51.33,0,0,1-19.07,3.63A51.33,51.33,0,0,1,1222.48,0h-9.57a54.76,54.76,0,0,0,28.64,7.93A54.76,54.76,0,0,0,1270.18,0Z"/><path class="cls-3" d="M1202.56,184.64A43,43,0,0,0,1190.63,214c0,25.18,22.84,45.67,50.91,45.67s50.91-20.49,50.91-45.67a43,43,0,0,0-12-29.41,2.15,2.15,0,1,0-3.13,2.94A38.71,38.71,0,0,1,1288.15,214c0,22.81-20.91,41.37-46.61,41.37s-46.61-18.56-46.61-41.37a38.71,38.71,0,0,1,10.76-26.44,2.15,2.15,0,0,0-3.14-2.94Z"/><path class="cls-3" d="M1242.87,37.62l-1.32-1-1.32,1c-40.38,31.53-63.23,85.61-50.92,120.54,7.2,20.43,25.78,31.44,52.24,31.09h1.3c25.8,0,43.87-11,50.94-31.1C1306.09,123.23,1283.25,69.15,1242.87,37.62Zm46.86,119.12c-6.44,18.28-22.34,28-46,28.22V173.68c4.91-1.93,21.65-10,28.7-32.25a2.15,2.15,0,0,0-4.1-1.3,47.17,47.17,0,0,1-24.6,28.85V137.66c4.91-1.93,21.65-10,28.7-32.25a2.15,2.15,0,0,0-4.1-1.3,47.17,47.17,0,0,1-24.6,28.85V79.24a2.15,2.15,0,1,0-4.3,0v38.32c-5.68-2.67-18.71-10.56-24.49-28.81a2.15,2.15,0,0,0-4.1,1.3c7,22.1,23.54,30.2,28.59,32.21v31c-5.68-2.67-18.71-10.56-24.49-28.81a2.15,2.15,0,0,0-4.1,1.3c7,22.1,23.54,30.2,28.59,32.21v27c-23.71-.25-39.6-9.94-46-28.22-5.46-15.51-3.47-36.68,5.46-58.09a145.49,145.49,0,0,1,42.73-56.59,145.5,145.5,0,0,1,42.73,56.59C1293.21,120,1295.2,141.22,1289.73,156.73Z"/><path class="cls-3" d="M1218.44,212.22a2.15,2.15,0,0,0-4.11-1.26c-.75,2.45-2,4.06-3.59,4.78-2.85,1.26-6.33-.33-6.4-.36a2.15,2.15,0,0,0-1.85,3.88,14.65,14.65,0,0,0,5.79,1.26,11.15,11.15,0,0,0,2.18-.22A35.41,35.41,0,0,0,1243,241.09q1,0,2.08-.06c13.69-.74,24.55-8.67,28.69-20.77a11.61,11.61,0,0,0,1.38.09,14.66,14.66,0,0,0,5.79-1.26,2.15,2.15,0,1,0-1.86-3.88s-3.52,1.61-6.37.37c-1.64-.72-2.86-2.33-3.61-4.79A2.15,2.15,0,0,0,1265,212a11.72,11.72,0,0,0,4.73,6.78c-3.56,10.43-13,17.26-24.87,17.91a31.26,31.26,0,0,1-30.51-18.19A12.17,12.17,0,0,0,1218.44,212.22Z"/><path class="cls-3" d="M1202.56,436.4a43,43,0,0,0-11.92,29.38c0,25.18,22.84,45.67,50.91,45.67s50.91-20.49,50.91-45.67a43,43,0,0,0-12-29.41,2.15,2.15,0,1,0-3.13,2.94,38.71,38.71,0,0,1,10.79,26.47c0,22.81-20.91,41.37-46.61,41.37s-46.61-18.56-46.61-41.37a38.71,38.71,0,0,1,10.76-26.44,2.15,2.15,0,0,0-3.14-2.94Z"/><path class="cls-3" d="M1242.87,289.37l-1.32-1-1.32,1C1199.84,320.91,1177,375,1189.3,409.92c7.2,20.43,25.78,31.44,52.24,31.09h1.3c25.8,0,43.87-11,50.94-31.1C1306.09,375,1283.25,320.91,1242.87,289.37Zm46.86,119.12c-6.44,18.28-22.34,28-46,28.22V425.43c4.91-1.93,21.65-10,28.7-32.25a2.15,2.15,0,0,0-4.1-1.3,47.17,47.17,0,0,1-24.6,28.85V389.42c4.91-1.93,21.65-10,28.7-32.25a2.15,2.15,0,0,0-4.1-1.3,47.17,47.17,0,0,1-24.6,28.85V331a2.15,2.15,0,1,0-4.3,0v38.32c-5.68-2.67-18.71-10.56-24.49-28.81a2.15,2.15,0,0,0-4.1,1.3c7,22.1,23.54,30.2,28.59,32.21v31c-5.68-2.67-18.71-10.56-24.49-28.81a2.15,2.15,0,0,0-4.1,1.3c7,22.1,23.54,30.2,28.59,32.21v27c-23.71-.25-39.6-9.94-46-28.22-5.46-15.51-3.47-36.68,5.46-58.09a145.49,145.49,0,0,1,42.73-56.59,145.5,145.5,0,0,1,42.73,56.59C1293.21,371.81,1295.2,393,1289.73,408.49Z"/><path class="cls-3" d="M1218.44,464a2.15,2.15,0,0,0-4.11-1.26c-.75,2.45-2,4.06-3.59,4.78-2.85,1.26-6.33-.33-6.4-.36a2.15,2.15,0,0,0-1.85,3.88,14.65,14.65,0,0,0,5.79,1.26,11.15,11.15,0,0,0,2.18-.22A35.41,35.41,0,0,0,1243,492.85q1,0,2.08-.06c13.69-.74,24.55-8.67,28.69-20.77a11.61,11.61,0,0,0,1.38.09,14.66,14.66,0,0,0,5.79-1.26,2.15,2.15,0,1,0-1.86-3.88s-3.52,1.61-6.37.37c-1.64-.72-2.86-2.33-3.61-4.79a2.15,2.15,0,0,0-4.11,1.26,11.72,11.72,0,0,0,4.73,6.78c-3.56,10.43-13,17.26-24.87,17.91a31.26,31.26,0,0,1-30.51-18.19A12.17,12.17,0,0,0,1218.44,464Z"/><path class="cls-3" d="M1214.91,628a2.15,2.15,0,0,0-4.1,1.3,56.36,56.36,0,0,0,4.05,9.65h5A50.57,50.57,0,0,1,1214.91,628Z"/><path class="cls-3" d="M1242.87,541.13l-1.32-1-1.32,1c-32.36,25.27-53.44,65-54.21,97.78h4.36c.3-11.41,3.14-24,8.44-36.75a145.49,145.49,0,0,1,42.73-56.59,145.5,145.5,0,0,1,42.73,56.59c5.31,12.71,8.14,25.34,8.44,36.75h4.36C1296.31,606.14,1275.23,566.4,1242.87,541.13Z"/><path class="cls-3" d="M1241.54,580.6a2.15,2.15,0,0,0-2.15,2.15v38.32c-5.68-2.67-18.71-10.56-24.49-28.81a2.15,2.15,0,0,0-4.1,1.3c7,22.1,23.54,30.2,28.59,32.21v13.13h9.07c7.08-3.92,18.44-12.64,23.93-30a2.15,2.15,0,0,0-4.1-1.3,47.17,47.17,0,0,1-24.6,28.85V582.75A2.15,2.15,0,0,0,1241.54,580.6Z"/><path class="cls-3" d="M1328.24,53.29a43,43,0,0,0-11.92,29.38c0,25.18,22.84,45.67,50.91,45.67s50.91-20.49,50.91-45.67a43,43,0,0,0-12-29.41A2.15,2.15,0,1,0,1403,56.2a38.71,38.71,0,0,1,10.79,26.47c0,22.81-20.91,41.37-46.61,41.37s-46.61-18.56-46.61-41.37a38.71,38.71,0,0,1,10.76-26.44,2.15,2.15,0,0,0-3.14-2.94Z"/><path class="cls-3" d="M1415.41,25.38c-6.44,18.28-22.34,28-46,28.22V42.32c4.91-1.93,21.65-10,28.7-32.25a2.15,2.15,0,0,0-4.1-1.3,47.17,47.17,0,0,1-24.6,28.85V6.31A45.77,45.77,0,0,0,1380.27,0h-7.82c-1.17.67-2.21,1.2-3.07,1.61V0h-4.3V21.9A46.46,46.46,0,0,1,1343.33,0h-4.74a49.85,49.85,0,0,0,26.49,26.6v27c-23.71-.25-39.6-9.94-46-28.22-2.6-7.37-3.49-16-2.77-25.38h-4.38A66.3,66.3,0,0,0,1315,26.81c7.2,20.43,25.78,31.44,52.24,31.09h1.3c25.8,0,43.87-11,50.94-31.1A66.3,66.3,0,0,0,1422.56,0h-4.38C1418.9,9.35,1418,18,1415.41,25.38Z"/><path class="cls-3" d="M1344.12,80.87a2.15,2.15,0,0,0-4.11-1.26c-.75,2.45-2,4.06-3.59,4.78-2.85,1.26-6.33-.33-6.4-.36a2.15,2.15,0,0,0-1.85,3.88,14.65,14.65,0,0,0,5.79,1.26,11.15,11.15,0,0,0,2.18-.22,35.41,35.41,0,0,0,32.58,20.78q1,0,2.08-.06c13.69-.74,24.55-8.67,28.69-20.77a11.61,11.61,0,0,0,1.38.09,14.66,14.66,0,0,0,5.79-1.26,2.15,2.15,0,1,0-1.86-3.88s-3.52,1.61-6.37.37c-1.64-.72-2.86-2.33-3.61-4.79a2.15,2.15,0,0,0-4.11,1.26,11.72,11.72,0,0,0,4.73,6.78c-3.56,10.43-13,17.26-24.87,17.91a31.26,31.26,0,0,1-30.51-18.19A12.17,12.17,0,0,0,1344.12,80.87Z"/><path class="cls-3" d="M1328.24,305a43,43,0,0,0-11.92,29.38c0,25.18,22.84,45.67,50.91,45.67s50.91-20.49,50.91-45.67a43,43,0,0,0-12-29.41A2.15,2.15,0,1,0,1403,308a38.71,38.71,0,0,1,10.79,26.47c0,22.81-20.91,41.37-46.61,41.37s-46.61-18.56-46.61-41.37A38.71,38.71,0,0,1,1331.38,308a2.15,2.15,0,0,0-3.14-2.94Z"/><path class="cls-3" d="M1315,278.57c7.2,20.43,25.78,31.44,52.24,31.09h1.3c25.8,0,43.87-11,50.94-31.1,12.31-34.93-10.54-89-50.92-120.54l-1.32-1-1.32,1C1325.52,189.56,1302.67,243.63,1315,278.57ZM1324.5,219a145.49,145.49,0,0,1,42.73-56.59A145.5,145.5,0,0,1,1410,219c8.93,21.4,10.92,42.58,5.46,58.09-6.44,18.28-22.34,28-46,28.22V294.08c4.91-1.93,21.65-10,28.7-32.25a2.15,2.15,0,0,0-4.1-1.3,47.17,47.17,0,0,1-24.6,28.85V258.07c4.91-1.93,21.65-10,28.7-32.25a2.15,2.15,0,0,0-4.1-1.3,47.17,47.17,0,0,1-24.6,28.85V199.64a2.15,2.15,0,1,0-4.3,0V238c-5.68-2.67-18.71-10.56-24.49-28.81a2.15,2.15,0,0,0-4.1,1.3c7,22.1,23.54,30.2,28.59,32.21v31c-5.68-2.67-18.71-10.56-24.49-28.81a2.15,2.15,0,0,0-4.1,1.3c7,22.1,23.54,30.2,28.59,32.21v27c-23.71-.25-39.6-9.94-46-28.22C1313.57,261.63,1315.56,240.45,1324.5,219Z"/><path class="cls-3" d="M1344.12,332.63a2.15,2.15,0,0,0-4.11-1.26c-.75,2.45-2,4.06-3.59,4.78-2.85,1.26-6.33-.33-6.4-.36a2.15,2.15,0,0,0-1.85,3.88,14.65,14.65,0,0,0,5.79,1.26,11.15,11.15,0,0,0,2.18-.22,35.41,35.41,0,0,0,32.58,20.78q1,0,2.08-.06c13.69-.74,24.55-8.67,28.69-20.77a11.61,11.61,0,0,0,1.38.09,14.66,14.66,0,0,0,5.79-1.26,2.15,2.15,0,1,0-1.86-3.88s-3.52,1.61-6.37.37c-1.64-.72-2.86-2.33-3.61-4.79a2.15,2.15,0,0,0-4.11,1.26,11.72,11.72,0,0,0,4.73,6.78c-3.56,10.43-13,17.26-24.87,17.91A31.26,31.26,0,0,1,1340.06,339,12.17,12.17,0,0,0,1344.12,332.63Z"/><path class="cls-3" d="M1328.24,556.81a43,43,0,0,0-11.92,29.38c0,25.18,22.84,45.67,50.91,45.67s50.91-20.49,50.91-45.67a43,43,0,0,0-12-29.41,2.15,2.15,0,1,0-3.13,2.94,38.71,38.71,0,0,1,10.79,26.47c0,22.81-20.91,41.37-46.61,41.37s-46.61-18.56-46.61-41.37a38.71,38.71,0,0,1,10.76-26.44,2.15,2.15,0,0,0-3.14-2.94Z"/><path class="cls-3" d="M1368.55,409.78l-1.32-1-1.32,1c-40.38,31.53-63.23,85.61-50.92,120.54,7.2,20.43,25.78,31.44,52.24,31.09h1.3c25.8,0,43.87-11,50.94-31.1C1431.77,495.39,1408.93,441.32,1368.55,409.78Zm46.86,119.12c-6.44,18.28-22.34,28-46,28.22V545.84c4.91-1.93,21.65-10,28.7-32.25a2.15,2.15,0,0,0-4.1-1.3,47.17,47.17,0,0,1-24.6,28.85V509.83c4.91-1.93,21.65-10,28.7-32.25a2.15,2.15,0,0,0-4.1-1.3,47.17,47.17,0,0,1-24.6,28.85V451.4a2.15,2.15,0,1,0-4.3,0v38.32c-5.68-2.67-18.71-10.56-24.49-28.81a2.15,2.15,0,0,0-4.1,1.3c7,22.1,23.54,30.2,28.59,32.21v31c-5.68-2.67-18.71-10.56-24.49-28.81a2.15,2.15,0,0,0-4.1,1.3c7,22.1,23.54,30.2,28.59,32.21v27c-23.71-.25-39.6-9.94-46-28.22-5.46-15.51-3.47-36.68,5.46-58.09a145.49,145.49,0,0,1,42.73-56.59A145.5,145.5,0,0,1,1410,470.81C1418.89,492.21,1420.88,513.39,1415.41,528.9Z"/><path class="cls-3" d="M1344.12,584.38a2.15,2.15,0,0,0-4.11-1.26c-.75,2.45-2,4.06-3.59,4.78-2.85,1.26-6.33-.33-6.4-.36a2.15,2.15,0,0,0-1.85,3.88,14.65,14.65,0,0,0,5.79,1.26,11.15,11.15,0,0,0,2.18-.22,35.41,35.41,0,0,0,32.58,20.78q1,0,2.08-.06c13.69-.74,24.55-8.67,28.69-20.77a11.61,11.61,0,0,0,1.38.09,14.66,14.66,0,0,0,5.79-1.26,2.15,2.15,0,1,0-1.86-3.88s-3.52,1.61-6.37.37c-1.64-.72-2.86-2.33-3.61-4.79a2.15,2.15,0,0,0-4.11,1.26,11.72,11.72,0,0,0,4.73,6.78c-3.56,10.43-13,17.26-24.87,17.91a31.26,31.26,0,0,1-30.51-18.19A12.17,12.17,0,0,0,1344.12,584.38Z"/></g></g></svg>