<svg xmlns="http://www.w3.org/2000/svg" viewBox="0 0 321.67 319.98"><defs><style>.cls-1{fill:#43452b;}</style></defs><title>logo</title><g id="Layer_2" data-name="Layer 2"><g id="content"><path class="cls-1" d="M5.72,265.62c0-3.84,3.21-5.45,6.91-5.45a13.16,13.16,0,0,1,7.54,2.23c1,.56,1.81.49,2.37-.49l.49-.77a1.51,1.51,0,0,0-.49-2.3A16.2,16.2,0,0,0,12.92,256C6.49,256,1,259.34,1,265.83c0,11.59,18.78,9.22,18.78,17.11,0,3.7-3.21,5.66-7.12,5.66a15.19,15.19,0,0,1-9.29-3.21c-1-.63-1.75-.56-2.37.28l-.56.7a1.56,1.56,0,0,0,.28,2.37,18.34,18.34,0,0,0,11.87,4c7,0,11.87-4.12,11.87-9.92C24.44,271.14,5.72,273.72,5.72,265.62Z"/><path class="cls-1" d="M57.88,256.82H56.56a1.58,1.58,0,0,0-1.75,1.75v15.08c0,7.61-5,14.66-13,14.66-6.77,0-7.61-4.89-7.61-10.4V258.57a1.58,1.58,0,0,0-1.75-1.75H31.14a1.53,1.53,0,0,0-1.68,1.75v20.6c0,9.15,3.42,13.62,11.73,13.62A15.22,15.22,0,0,0,55,283.64h.14a15.22,15.22,0,0,0-.21,2.51v4a1.53,1.53,0,0,0,1.68,1.75h1.26a1.53,1.53,0,0,0,1.68-1.75V258.57A1.53,1.53,0,0,0,57.88,256.82Z"/><path class="cls-1" d="M70.73,265.62c0-3.84,3.21-5.45,6.91-5.45a13.16,13.16,0,0,1,7.54,2.23c1,.56,1.82.49,2.38-.49l.49-.77a1.51,1.51,0,0,0-.49-2.3A16.21,16.21,0,0,0,77.92,256C71.5,256,66,259.34,66,265.83c0,11.59,18.78,9.22,18.78,17.11,0,3.7-3.21,5.66-7.12,5.66a15.19,15.19,0,0,1-9.29-3.21c-1-.63-1.75-.56-2.37.28l-.56.7a1.56,1.56,0,0,0,.28,2.37,18.35,18.35,0,0,0,11.87,4c7,0,11.87-4.12,11.87-9.92C89.44,271.14,70.73,273.72,70.73,265.62Z"/><path class="cls-1" d="M108.71,287.89c-2.72-.14-7.68-1.12-7.68-9.22v-17.6h7.12a1.53,1.53,0,0,0,1.75-1.68v-.56a1.58,1.58,0,0,0-1.75-1.75H101v-8.24a1.53,1.53,0,0,0-1.68-1.75H98.1a1.58,1.58,0,0,0-1.75,1.75v8.24h-3a1.53,1.53,0,0,0-1.68,1.75v.56a1.48,1.48,0,0,0,1.68,1.68h2.93v18.22c0,8.24,4.68,12.92,12.36,12.92,1.4,0,2-.56,2-1.68v-.91C110.6,288.45,110.11,288,108.71,287.89Z"/><path class="cls-1" d="M129.17,256c-9.5,0-17.32,6.91-17.32,18.43,0,10.82,7.89,18.36,18.36,18.36a20,20,0,0,0,11.73-3.91,1.63,1.63,0,0,0,.49-2.3l-.56-.84a1.45,1.45,0,0,0-2.3-.42,15.07,15.07,0,0,1-9.22,3.21c-7.26,0-13.41-5.1-13.62-14H142a1.75,1.75,0,0,0,1.82-1.75C143.83,262.76,138.53,256,129.17,256ZM117,270.93c1.12-7.12,6.21-11,12.08-11,5.24,0,9.71,3.63,10,11Z"/><path class="cls-1" d="M168.06,256a15.52,15.52,0,0,0-14.17,9.15h-.14a11.52,11.52,0,0,0,.28-2.51v-4a1.56,1.56,0,0,0-1.68-1.75h-1.26a1.58,1.58,0,0,0-1.75,1.75V290.2a1.58,1.58,0,0,0,1.75,1.75h1.33a1.53,1.53,0,0,0,1.68-1.75V274.77c0-8.17,5.87-14.31,13.34-14.31,6.77,0,7.68,4.89,7.68,10.4V290.2a1.53,1.53,0,0,0,1.68,1.75h1.33a1.58,1.58,0,0,0,1.75-1.75V269.6C179.86,260.94,176.79,256,168.06,256Z"/><path class="cls-1" d="M199.48,256a21.4,21.4,0,0,0-11.17,3.07,1.58,1.58,0,0,0-.49,2.37l.42.7a1.65,1.65,0,0,0,2.37.56,16.47,16.47,0,0,1,8.52-2.44c5,0,8.66,2.3,8.66,9.08v1.12h-2c-6.77,0-21.44.63-21.44,12.08,0,6.77,5.94,10.26,11.87,10.26,8.73,0,11.94-8,11.87-8h.14a14.87,14.87,0,0,0-.21,2.65v2.79a1.55,1.55,0,0,0,1.75,1.75h1.12a1.53,1.53,0,0,0,1.68-1.75V269.46C212.54,260.66,207.86,256,199.48,256Zm8.31,19.69c0,6.14-4,13.13-10.75,13.13-5.24,0-7.82-3.42-7.82-6.7,0-7.89,11.1-8.1,16.62-8.1h2Z"/><path class="cls-1" d="M238.72,256a15.52,15.52,0,0,0-14.17,9.15h-.14a11.52,11.52,0,0,0,.28-2.51v-4a1.56,1.56,0,0,0-1.68-1.75h-1.26a1.58,1.58,0,0,0-1.75,1.75V290.2a1.58,1.58,0,0,0,1.75,1.75h1.33a1.53,1.53,0,0,0,1.68-1.75V274.77c0-8.17,5.87-14.31,13.34-14.31,6.77,0,7.68,4.89,7.68,10.4V290.2a1.53,1.53,0,0,0,1.68,1.75h1.33a1.58,1.58,0,0,0,1.75-1.75V269.6C250.52,260.94,247.45,256,238.72,256Z"/><path class="cls-1" d="M286.48,285.24a1.4,1.4,0,0,0-2.3-.42,15.35,15.35,0,0,1-9.92,3.7c-7.75,0-13.75-5.79-13.75-14.1s6-14.17,13.69-14.17a14.49,14.49,0,0,1,8.87,3.21c1,.63,1.75.63,2.37-.35l.49-.77a1.51,1.51,0,0,0-.21-2.37,18.42,18.42,0,0,0-11.66-4c-10.4,0-18.43,7.61-18.43,18.43s8,18.36,18.43,18.36a19.51,19.51,0,0,0,12.5-4.47,1.69,1.69,0,0,0,.42-2.37Z"/><path class="cls-1" d="M321.67,272.74c0-10-5.31-16.76-14.66-16.76s-17.32,6.91-17.32,18.43c0,10.82,7.89,18.36,18.36,18.36a20,20,0,0,0,11.73-3.91,1.63,1.63,0,0,0,.49-2.3l-.56-.84a1.45,1.45,0,0,0-2.3-.42,15.07,15.07,0,0,1-9.22,3.21c-7.26,0-13.41-5.1-13.62-14h25.28A1.75,1.75,0,0,0,321.67,272.74Zm-26.88-1.82c1.12-7.12,6.21-11,12.08-11,5.24,0,9.71,3.63,10,11Z"/><path class="cls-1" d="M69.06,309.13H65.89a.44.44,0,0,0-.48.5v.3a.44.44,0,0,0,.48.5h2.19v6.28c0,1.39-.82,1.89-1.68,1.89-1.13,0-1.6-.83-1.66-1.89,0-.38-.15-.51-.48-.51h-.51a.45.45,0,0,0-.5.5A3,3,0,0,0,66.42,320a3,3,0,0,0,3.14-3.25v-7.1A.44.44,0,0,0,69.06,309.13Z"/><path class="cls-1" d="M83.84,309.13h-.5a.45.45,0,0,0-.5.5V316a2.71,2.71,0,0,1-5.41,0v-6.37a.44.44,0,0,0-.48-.5h-.5a.45.45,0,0,0-.5.5V316a4.2,4.2,0,0,0,8.38,0v-6.39A.45.45,0,0,0,83.84,309.13Z"/><rect class="cls-1" x="90.86" y="309.13" width="1.48" height="10.67" rx="0.5" ry="0.5"/><path class="cls-1" d="M107.42,317.62a.44.44,0,0,0-.7-.06,4.78,4.78,0,0,1-2.9,1,4,4,0,0,1-4-4.21,3.82,3.82,0,0,1,3.94-4.06,4.81,4.81,0,0,1,2.67.85.44.44,0,0,0,.69-.12l.2-.3a.47.47,0,0,0-.09-.69,5.84,5.84,0,0,0-3.54-1.1,5.51,5.51,0,0,0,0,11,5.9,5.9,0,0,0,3.79-1.36.46.46,0,0,0,.08-.69Z"/><path class="cls-1" d="M119.56,318.5h-4.47v-3.43h3.34a.45.45,0,0,0,.5-.5v-.3a.45.45,0,0,0-.5-.5h-3.34v-3.34h4.21a.45.45,0,0,0,.5-.5v-.3a.44.44,0,0,0-.5-.5h-5.2a.44.44,0,0,0-.5.5v9.67a.44.44,0,0,0,.5.5h5.45a.44.44,0,0,0,.5-.5V319A.44.44,0,0,0,119.56,318.5Z"/><path class="cls-1" d="M139.13,314.18v0a2.49,2.49,0,0,0,1.31-2.3c0-1.72-1.28-2.72-3.08-2.72h-3.23a.44.44,0,0,0-.5.5v9.67a.44.44,0,0,0,.5.5h3.31c1.89,0,3.44-1,3.44-3A2.57,2.57,0,0,0,139.13,314.18Zm-4-3.75h2.22a1.48,1.48,0,0,1,1.6,1.57,1.51,1.51,0,0,1-1.57,1.62h-2.25Zm2.4,8.07h-2.4v-3.64h2.4a1.73,1.73,0,0,1,1.84,1.83A1.71,1.71,0,0,1,137.51,318.5Z"/><path class="cls-1" d="M151.14,309.54a.53.53,0,0,0-.56-.41h-.72a.53.53,0,0,0-.56.41l-3.5,9.68c-.12.35,0,.57.41.57h.51a.52.52,0,0,0,.54-.41l.94-2.66h4l1,2.66a.54.54,0,0,0,.56.41h.51a.39.39,0,0,0,.41-.57Zm-2.55,6,1.19-3.38c.18-.54.42-1.51.42-1.51h0s.23,1,.41,1.51l1.18,3.38Z"/><path class="cls-1" d="M165.65,315.66a2.72,2.72,0,0,0-.32-.48v0a3,3,0,0,0,1.9-2.93,2.9,2.9,0,0,0-1.68-2.79,4.67,4.67,0,0,0-2-.29H160.7a.44.44,0,0,0-.5.5v9.67a.44.44,0,0,0,.5.5h.48a.44.44,0,0,0,.5-.5v-3.75H164l2.08,3.9a.59.59,0,0,0,.59.35h.6c.38,0,.53-.24.33-.59Zm-1.83-1.41h-2.15v-3.82h1.78a3,3,0,0,1,1.27.18,1.68,1.68,0,0,1,1,1.66A1.82,1.82,0,0,1,163.82,314.25Z"/><path class="cls-1" d="M188.79,313.53h-.92v-1c0-.29-.17-.42-.5-.42h-.47a.45.45,0,0,0-.5.5v1h-2c-1.63,0-2-1-2-1.68a1.66,1.66,0,0,1,1.84-1.63h.62a.45.45,0,0,0,.5-.5v-.27a.45.45,0,0,0-.5-.5h-.7c-1.89,0-3.28,1-3.28,2.75a2.36,2.36,0,0,0,1.42,2.34v0a2.85,2.85,0,0,0-1.89,2.73c0,1.8,1.48,3.17,3.7,3.17a3.4,3.4,0,0,0,3.69-3.73v-1.42h.92a.45.45,0,0,0,.5-.5V314A.45.45,0,0,0,188.79,313.53Zm-2.39,2.66c0,1.68-.86,2.42-2.22,2.42a2,2,0,0,1-2.18-1.87c0-1.19.85-1.9,2.36-1.9h2Z"/><path class="cls-1" d="M211,317.62a.44.44,0,0,0-.7-.06,4.78,4.78,0,0,1-2.9,1,4,4,0,0,1-4-4.21,3.82,3.82,0,0,1,3.94-4.06,4.81,4.81,0,0,1,2.67.85.44.44,0,0,0,.69-.12l.2-.3a.47.47,0,0,0-.09-.69,5.84,5.84,0,0,0-3.54-1.1,5.51,5.51,0,0,0,0,11,5.9,5.9,0,0,0,3.79-1.36.46.46,0,0,0,.08-.69Z"/><path class="cls-1" d="M221.4,309.54a.53.53,0,0,0-.56-.41h-.72a.53.53,0,0,0-.56.41l-3.5,9.68c-.12.35,0,.57.41.57H217a.52.52,0,0,0,.54-.41l.94-2.66h4l1,2.66a.54.54,0,0,0,.56.41h.51a.39.39,0,0,0,.41-.57Zm-2.55,6,1.19-3.38c.18-.54.42-1.51.42-1.51h0s.23,1,.41,1.51l1.18,3.38Z"/><path class="cls-1" d="M235.84,309.13H231a.44.44,0,0,0-.5.5v9.67a.44.44,0,0,0,.5.5h.48a.44.44,0,0,0,.5-.5v-4.06h3.23a.44.44,0,0,0,.5-.5v-.3a.45.45,0,0,0-.5-.5h-3.23v-3.5h3.9a.45.45,0,0,0,.5-.5v-.3A.45.45,0,0,0,235.84,309.13Z"/><path class="cls-1" d="M248,318.5H243.5v-3.43h3.34a.45.45,0,0,0,.5-.5v-.3a.45.45,0,0,0-.5-.5H243.5v-3.34h4.21a.45.45,0,0,0,.5-.5v-.3a.44.44,0,0,0-.5-.5h-5.2a.44.44,0,0,0-.5.5v9.67a.44.44,0,0,0,.5.5H248a.44.44,0,0,0,.5-.5V319A.44.44,0,0,0,248,318.5Z"/><path class="cls-1" d="M120.52,148.06a43,43,0,0,0-11.92,29.38c0,25.18,22.84,45.67,50.91,45.67s50.91-20.49,50.91-45.67a43,43,0,0,0-12-29.41,2.15,2.15,0,1,0-3.13,2.94,38.71,38.71,0,0,1,10.79,26.47c0,22.81-20.91,41.37-46.61,41.37s-46.61-18.56-46.61-41.37A38.71,38.71,0,0,1,123.66,151a2.15,2.15,0,0,0-3.14-2.94Z"/><path class="cls-1" d="M160.83,1l-1.32-1-1.32,1C117.8,32.57,95,86.64,107.27,121.58c7.08,20.09,25.14,31.1,50.94,31.1h2.6c25.8,0,43.87-11,50.94-31.1C224.06,86.64,201.22,32.57,160.83,1ZM207.7,120.15c-6.44,18.28-22.34,28-46,28.22V137.09c4.91-1.93,21.65-10,28.7-32.25a2.15,2.15,0,0,0-4.1-1.3,47.17,47.17,0,0,1-24.6,28.85V101.08c4.91-1.93,21.65-10,28.7-32.25a2.15,2.15,0,0,0-4.1-1.3,47.17,47.17,0,0,1-24.6,28.85V42.65a2.15,2.15,0,1,0-4.3,0V81c-5.68-2.67-18.71-10.56-24.49-28.81a2.15,2.15,0,0,0-4.1,1.3c7,22.1,23.54,30.2,28.59,32.21v31c-5.68-2.67-18.71-10.56-24.49-28.81a2.15,2.15,0,0,0-4.1,1.3c7,22.1,23.54,30.2,28.59,32.21v27c-23.7-.25-39.6-9.94-46-28.22-5.46-15.51-3.47-36.68,5.46-58.09A145.49,145.49,0,0,1,159.51,5.47a145.49,145.49,0,0,1,42.73,56.59C211.17,83.47,213.16,104.64,207.7,120.15Z"/><path class="cls-1" d="M136.41,175.64a2.15,2.15,0,0,0-4.11-1.26c-.75,2.45-2,4.06-3.59,4.78-2.85,1.26-6.33-.33-6.4-.36a2.15,2.15,0,0,0-1.85,3.88,14.65,14.65,0,0,0,5.79,1.26,11.14,11.14,0,0,0,2.18-.22A35.41,35.41,0,0,0,161,204.5q1,0,2.08-.06c13.69-.74,24.55-8.67,28.69-20.77a11.58,11.58,0,0,0,1.38.09,14.65,14.65,0,0,0,5.79-1.26,2.15,2.15,0,1,0-1.86-3.88s-3.52,1.62-6.37.37c-1.64-.72-2.86-2.33-3.61-4.79a2.15,2.15,0,0,0-4.11,1.26,11.72,11.72,0,0,0,4.73,6.78c-3.56,10.43-13,17.26-24.87,17.91A31.26,31.26,0,0,1,132.34,182,12.17,12.17,0,0,0,136.41,175.64Z"/></g></g></svg>