<svg id="Layer_4" data-name="Layer 4" xmlns="http://www.w3.org/2000/svg" viewBox="0 0 219.89 33.85"><defs><style>.cls-1{fill:#41484e;}</style></defs><title>logo</title><path class="cls-1" d="M37.5,23.51a5.74,5.74,0,0,1-5.06-2.85v2.58H29.81V3.4h3v8.32a6.55,6.55,0,0,1,2.11-2.15,5.89,5.89,0,0,1,5.56-.18,6.33,6.33,0,0,1,2,1.63,7.42,7.42,0,0,1,1.28,2.36,8.83,8.83,0,0,1,.45,2.81,7.83,7.83,0,0,1-.52,2.85,7.43,7.43,0,0,1-1.41,2.32,6.57,6.57,0,0,1-2.12,1.56A6.15,6.15,0,0,1,37.5,23.51ZM36.72,21a4.07,4.07,0,0,0,1.79-.39,4.47,4.47,0,0,0,1.4-1A4.82,4.82,0,0,0,40.82,18a5,5,0,0,0,.33-1.81,5.45,5.45,0,0,0-.31-1.83A5,5,0,0,0,40,12.81a4.38,4.38,0,0,0-1.33-1.07,3.6,3.6,0,0,0-1.7-.41,3.51,3.51,0,0,0-1.32.24,4.55,4.55,0,0,0-1.14.67,5.43,5.43,0,0,0-1,1,6.82,6.82,0,0,0-.72,1.18v3.75a3,3,0,0,0,.57,1.13,4.45,4.45,0,0,0,1,.88,4.62,4.62,0,0,0,1.18.58A3.86,3.86,0,0,0,36.72,21Z" transform="translate(0 -2.2)"/><path class="cls-1" d="M45.79,3.4h3V19.05a1.77,1.77,0,0,0,.41,1.24,1.47,1.47,0,0,0,1.14.45,3.12,3.12,0,0,0,.71-0.1,3.92,3.92,0,0,0,.76-0.26l0.43,2.42a6.93,6.93,0,0,1-1.55.48,8.45,8.45,0,0,1-1.6.18,3.33,3.33,0,0,1-2.42-.84,3.17,3.17,0,0,1-.87-2.39V3.4Z" transform="translate(0 -2.2)"/><path class="cls-1" d="M57.7,23.51a4,4,0,0,1-3.34-1.45,6.94,6.94,0,0,1-1.14-4.33V9h3v8.1Q56.2,21,58.89,21a4.22,4.22,0,0,0,2.45-.79,5,5,0,0,0,1.77-2.28V9h3V19.7a1.12,1.12,0,0,0,.19.73,1,1,0,0,0,.68.24v2.55q-0.49.08-.84,0.11l-0.62,0a1.8,1.8,0,0,1-1.9-1.55l-0.05-1.47a6.34,6.34,0,0,1-2.47,2.35A7.12,7.12,0,0,1,57.7,23.51Z" transform="translate(0 -2.2)"/><path class="cls-1" d="M75.91,23.51a7.56,7.56,0,0,1-3-.58,7,7,0,0,1-2.32-1.59A7.16,7.16,0,0,1,69.07,19a7.58,7.58,0,0,1-.53-2.83,7.69,7.69,0,0,1,.53-2.84A7.29,7.29,0,0,1,70.56,11a6.91,6.91,0,0,1,2.32-1.6,7.63,7.63,0,0,1,3-.58,7.32,7.32,0,0,1,3,.6A7.18,7.18,0,0,1,81.23,11a6.8,6.8,0,0,1,1.45,2.31,7.68,7.68,0,0,1,.5,2.76q0,0.33,0,.61c0,0.19,0,.35-0.05.48H71.72a4.87,4.87,0,0,0,.45,1.71,4.51,4.51,0,0,0,1,1.32A4.18,4.18,0,0,0,76,21.31a4.76,4.76,0,0,0,1.18-.15,4.13,4.13,0,0,0,1.07-.43A3.81,3.81,0,0,0,79.14,20a3.23,3.23,0,0,0,.6-0.9l2.55,0.73a5.93,5.93,0,0,1-2.43,2.62A7.53,7.53,0,0,1,75.91,23.51Zm4.32-8.45a4.78,4.78,0,0,0-.45-1.66,4.28,4.28,0,0,0-.94-1.29,4.18,4.18,0,0,0-1.33-.83,4.35,4.35,0,0,0-1.6-.3A4.25,4.25,0,0,0,73,12.11a4.09,4.09,0,0,0-.92,1.29,5,5,0,0,0-.44,1.66h8.59Z" transform="translate(0 -2.2)"/><path class="cls-1" d="M91.15,6.69V3.4h3V6.69h-3Zm0,16.55V9h3V23.24h-3Z" transform="translate(0 -2.2)"/><path class="cls-1" d="M102.43,23.51a11.48,11.48,0,0,1-1.75-.14A12.77,12.77,0,0,1,98.94,23a11.69,11.69,0,0,1-1.63-.62,7.44,7.44,0,0,1-1.37-.83l1.25-2a9,9,0,0,0,5.19,1.82,3.88,3.88,0,0,0,2.15-.52,1.65,1.65,0,0,0,.79-1.47,1.39,1.39,0,0,0-.88-1.32,15.43,15.43,0,0,0-2.81-.88,23,23,0,0,1-2.28-.67,6.43,6.43,0,0,1-1.55-.76,2.53,2.53,0,0,1-.87-1,3.29,3.29,0,0,1-.27-1.4,4.15,4.15,0,0,1,.44-1.93A4.29,4.29,0,0,1,98.26,10,5.23,5.23,0,0,1,100,9.08a7.74,7.74,0,0,1,2.19-.3,9.23,9.23,0,0,1,3,.49,9.42,9.42,0,0,1,2.58,1.33l-1.28,1.82a7.14,7.14,0,0,0-4.35-1.52,3.68,3.68,0,0,0-1.93.48,1.63,1.63,0,0,0-.79,1.51,1.51,1.51,0,0,0,.16.73,1.38,1.38,0,0,0,.53.52,4.31,4.31,0,0,0,1,.39q0.6,0.18,1.47.39,1.47,0.35,2.53.71a7,7,0,0,1,1.75.83,3,3,0,0,1,1,1.11,3.34,3.34,0,0,1,.33,1.54,4,4,0,0,1-.41,1.82,4,4,0,0,1-1.16,1.39,5.51,5.51,0,0,1-1.82.88A8.5,8.5,0,0,1,102.43,23.51Z" transform="translate(0 -2.2)"/><path class="cls-1" d="M138,23.24h-3v-8a5,5,0,0,0-.67-2.91,2.19,2.19,0,0,0-1.89-.92,3.45,3.45,0,0,0-2.34.94,5.23,5.23,0,0,0-1.52,2.43v8.42h-3v-8a5.2,5.2,0,0,0-.64-2.92,2.16,2.16,0,0,0-1.89-.91,3.5,3.5,0,0,0-2.32.92,5.09,5.09,0,0,0-1.54,2.42v8.45h-3V9H119v2.85a6,6,0,0,1,2.22-2.3,6.11,6.11,0,0,1,3.14-.8,4,4,0,0,1,2.8.92A4.13,4.13,0,0,1,128.41,12a6.51,6.51,0,0,1,2.26-2.4,5.78,5.78,0,0,1,3.07-.83,4.13,4.13,0,0,1,2.08.48,3.68,3.68,0,0,1,1.32,1.26,5.4,5.4,0,0,1,.69,1.83,11.55,11.55,0,0,1,.2,2.21v8.67Z" transform="translate(0 -2.2)"/><path class="cls-1" d="M140.72,26.61a5.45,5.45,0,0,0,.71.11l0.6,0a2.21,2.21,0,0,0,.63-0.08,1.11,1.11,0,0,0,.53-0.42,5.48,5.48,0,0,0,.57-1q0.31-.71.75-2L138.68,9h3.07l4.4,11.58L150.07,9h2.83l-6.5,17.5a4.25,4.25,0,0,1-1.63,2.17,4.54,4.54,0,0,1-2.53.71,5.34,5.34,0,0,1-1.52-.22V26.61Z" transform="translate(0 -2.2)"/><path class="cls-1" d="M159.09,16.12a7.75,7.75,0,0,1,.52-2.83,6.92,6.92,0,0,1,3.8-3.93,7.63,7.63,0,0,1,3-.58,7.17,7.17,0,0,1,3.79,1,6.12,6.12,0,0,1,2.38,2.57l-2.91.92a3.74,3.74,0,0,0-1.39-1.4,3.78,3.78,0,0,0-1.93-.5,4,4,0,0,0-1.67.35,4,4,0,0,0-1.35,1,4.73,4.73,0,0,0-.9,1.51,5.45,5.45,0,0,0-.33,1.93,5.29,5.29,0,0,0,.34,1.92,4.92,4.92,0,0,0,.92,1.54,4.26,4.26,0,0,0,1.36,1,3.8,3.8,0,0,0,1.64.37,4.05,4.05,0,0,0,1.09-.15,3.88,3.88,0,0,0,1.78-1,2.36,2.36,0,0,0,.5-0.76l2.94,0.87a5.81,5.81,0,0,1-2.36,2.62,7.32,7.32,0,0,1-3.91,1,7.41,7.41,0,0,1-3-.6,7.07,7.07,0,0,1-2.32-1.62,7.32,7.32,0,0,1-1.5-2.35A7.58,7.58,0,0,1,159.09,16.12Z" transform="translate(0 -2.2)"/><path class="cls-1" d="M180.35,23.51a7.38,7.38,0,0,1-3-.6,7,7,0,0,1-3.76-4,7.92,7.92,0,0,1,0-5.63A7,7,0,0,1,175,11a7.23,7.23,0,0,1,2.31-1.6,7.84,7.84,0,0,1,6,0,7.23,7.23,0,0,1,2.31,1.6,7,7,0,0,1,1.48,2.35,7.92,7.92,0,0,1,0,5.63,7,7,0,0,1-1.48,2.35,7.22,7.22,0,0,1-2.31,1.6A7.32,7.32,0,0,1,180.35,23.51Zm-4.24-7.34a5.37,5.37,0,0,0,.33,1.9,4.72,4.72,0,0,0,.9,1.51,4.21,4.21,0,0,0,1.35,1,4,4,0,0,0,3.34,0,4.12,4.12,0,0,0,1.35-1,4.9,4.9,0,0,0,.9-1.52,5.67,5.67,0,0,0,0-3.79,4.88,4.88,0,0,0-.9-1.54,4.12,4.12,0,0,0-1.35-1,3.86,3.86,0,0,0-1.67-.37,3.69,3.69,0,0,0-1.64.38,4.29,4.29,0,0,0-1.35,1,5.08,5.08,0,0,0-.91,1.54A5.22,5.22,0,0,0,176.11,16.17Z" transform="translate(0 -2.2)"/><path class="cls-1" d="M189.18,3.4h3V19.05a1.77,1.77,0,0,0,.41,1.24,1.47,1.47,0,0,0,1.14.45,3.12,3.12,0,0,0,.71-0.1,3.92,3.92,0,0,0,.76-0.26l0.43,2.42a6.93,6.93,0,0,1-1.55.48,8.45,8.45,0,0,1-1.6.18,3.33,3.33,0,0,1-2.42-.84,3.17,3.17,0,0,1-.87-2.39V3.4Z" transform="translate(0 -2.2)"/><path class="cls-1" d="M202.55,23.51a7.38,7.38,0,0,1-3-.6,7,7,0,0,1-3.76-4,7.92,7.92,0,0,1,0-5.63A7,7,0,0,1,197.24,11a7.23,7.23,0,0,1,2.31-1.6,7.84,7.84,0,0,1,6,0,7.23,7.23,0,0,1,2.31,1.6,7,7,0,0,1,1.48,2.35,7.92,7.92,0,0,1,0,5.63,7,7,0,0,1-1.48,2.35,7.22,7.22,0,0,1-2.31,1.6A7.32,7.32,0,0,1,202.55,23.51Zm-4.24-7.34a5.37,5.37,0,0,0,.33,1.9,4.72,4.72,0,0,0,.9,1.51,4.21,4.21,0,0,0,1.35,1,4,4,0,0,0,3.34,0,4.12,4.12,0,0,0,1.35-1,4.9,4.9,0,0,0,.9-1.52,5.67,5.67,0,0,0,0-3.79,4.88,4.88,0,0,0-.9-1.54,4.12,4.12,0,0,0-1.35-1,3.86,3.86,0,0,0-1.67-.37,3.69,3.69,0,0,0-1.64.38,4.29,4.29,0,0,0-1.35,1,5.08,5.08,0,0,0-.91,1.54A5.22,5.22,0,0,0,198.31,16.17Z" transform="translate(0 -2.2)"/><path class="cls-1" d="M219.89,11.6a6.6,6.6,0,0,0-3.07.8,4.37,4.37,0,0,0-1.93,2.13v8.7h-3V9h2.77V12.2a7.16,7.16,0,0,1,1.94-2.39,4,4,0,0,1,2.51-.92h0.45a1.65,1.65,0,0,1,.31,0V11.6Z" transform="translate(0 -2.2)"/><path class="cls-1" d="M0,13a10.76,10.76,0,0,0,3.77,8.19C3,9.32,15.53,9,14.33,2.8a10.36,10.36,0,0,0-3.55-.6A10.78,10.78,0,0,0,0,13Z" transform="translate(0 -2.2)"/><path class="cls-1" d="M16.94,4.26c1.49,6.49-1.16,16.68-9.87,19a18.15,18.15,0,0,0,3.71.64A10.78,10.78,0,0,0,16.94,4.26Z" transform="translate(0 -2.2)"/><path class="cls-1" d="M13,8.79C12.35,14.12-2.77,22,5.08,36,0.42,24.08,13.88,15.81,13,8.79Z" transform="translate(0 -2.2)"/></svg>