<?xml version="1.0" encoding="utf-8"?>
<!-- Generator: Adobe Illustrator 22.1.0, SVG Export Plug-In . SVG Version: 6.00 Build 0)  -->
<svg version="1.1" id="Layer_1" xmlns="http://www.w3.org/2000/svg" xmlns:xlink="http://www.w3.org/1999/xlink" x="0px" y="0px"
	 viewBox="0 0 114.7 221.9" style="enable-background:new 0 0 114.7 221.9;" xml:space="preserve">
<style type="text/css">
	.st0{fill:#3E5259;stroke:#E6EEEC;stroke-width:4;stroke-miterlimit:10;}
	.st1{fill:#E6EEEC;}
	.st2{fill:none;stroke:#E6EEEC;stroke-width:1.0076;stroke-miterlimit:10;}
	.st3{fill:#94A596;}
	.st4{fill:none;stroke:#E6EEEC;stroke-width:0.9645;stroke-miterlimit:10;}
</style>
<path class="st0" d="M93.3,215H21.2c-7.9,0-14.4-6.4-14.4-14.4v-179c0-7.9,6.4-14.4,14.4-14.4h72.1c7.9,0,14.4,6.4,14.4,14.4v179
	C107.7,208.6,101.3,215,93.3,215z"/>
<path class="st1" d="M100.3,191.6H14c-1.3,0-2.4-1.1-2.4-2.4V33c0-1.3,1.1-2.4,2.4-2.4h86.3c1.3,0,2.4,1.1,2.4,2.4v156.1
	C102.8,190.5,101.7,191.6,100.3,191.6z"/>
<circle class="st2" cx="41" cy="18.6" r="1.9"/>
<circle class="st3" cx="57.6" cy="12" r="1.1"/>
<path class="st3" d="M64.8,19.3h-15c-0.3,0-0.6-0.3-0.6-0.6v-0.3c0-0.3,0.3-0.6,0.6-0.6h14.9c0.3,0,0.6,0.3,0.6,0.6v0.3
	C65.4,19,65.1,19.3,64.8,19.3z"/>
<circle class="st3" cx="57" cy="202.3" r="8.1"/>
<path class="st4" d="M58.4,204.9h-2.5c-0.7,0-1.3-0.6-1.3-1.3v-2.5c0-0.7,0.6-1.3,1.3-1.3h2.5c0.7,0,1.3,0.6,1.3,1.3v2.5
	C59.6,204.3,59.1,204.9,58.4,204.9z"/>
</svg>
