<svg xmlns="http://www.w3.org/2000/svg" viewBox="0 0 1438.73 638.78"><defs><style>.cls-1{fill:#d0b83a;}.cls-2{fill:#767068;}.cls-3{fill:#4a4a4a;}.cls-4{fill:#e0d7b3;}</style></defs><title>banner</title><g id="Layer_2" data-name="Layer 2"><g id="Layer_3" data-name="Layer 3"><rect class="cls-1" width="1438.73" height="638.78"/></g><g id="content"><g id="bowl_inside" data-name="bowl inside"><ellipse class="cls-2" cx="719.81" cy="298.86" rx="194.27" ry="54.22"/></g><g id="spoons"><path class="cls-3" d="M554.75,159.7a100.53,100.53,0,0,0,3.16,9.94c.6,1.51,1.2,3.31,2,5.12s1.51,3.92,2.41,6c1.81,4.22,3.77,8.89,6.17,14s5.12,10.54,8.13,16.11c3,5.72,6,11.75,9.19,17.92s6.48,12.65,9.94,19.13,6.93,13.1,10.39,19.73,6.93,13.25,10.39,19.58c3.46,6.48,6.93,12.8,10.24,19,6.78,12.2,13,23.64,18.37,33.43,2.71,4.82,5.27,9.34,7.38,13.25,2.26,3.92,4.22,7.38,5.87,10.24,3.31,5.57,5.12,8.89,5.12,8.89a6.17,6.17,0,1,1-10.69,6.17h0s-1.81-3.16-5.12-8.89c-1.66-2.86-3.61-6.17-5.87-10.09s-5-8.28-7.83-13.1c-5.72-9.64-12.5-20.78-19.73-32.68-3.61-5.87-7.53-12-11.3-18.37s-7.83-12.65-11.75-18.83c-3.92-6.33-8-12.65-11.9-18.83s-7.83-12.35-11.6-18.22-7.38-11.6-10.84-17-6.78-10.54-9.94-15.06c-3.16-4.67-6.17-8.73-9-12.35-1.36-1.81-2.71-3.46-3.92-5s-2.41-3-3.46-4.22a94.85,94.85,0,0,0-7.08-7.83,18.74,18.74,0,0,1,26.36-26.66A19.83,19.83,0,0,1,554.75,159.7Z"/><ellipse class="cls-3" cx="658.2" cy="375.18" rx="41.27" ry="61.75" transform="translate(-99.41 379) rotate(-29.97)"/><ellipse class="cls-2" cx="658.2" cy="375.18" rx="31.33" ry="46.84" transform="translate(-99.41 379) rotate(-29.97)"/><path class="cls-3" d="M915.29,177.77s-2.71,2.71-7.08,7.83c-1.05,1.2-2.26,2.71-3.46,4.22s-2.56,3.16-3.92,5c-2.71,3.61-5.87,7.83-9,12.35-3.16,4.67-6.48,9.64-9.94,15.06s-7.08,11.14-10.84,17-7.68,11.9-11.6,18.22c-3.92,6.17-7.83,12.5-11.9,18.83-3.92,6.33-8,12.65-11.75,18.83-3.92,6.17-7.68,12.35-11.3,18.37-7.23,11.9-14,23-19.73,32.68-2.86,4.82-5.42,9.19-7.83,13.1-2.26,3.92-4.22,7.38-5.87,10.09-3.31,5.72-5.12,8.89-5.12,8.89A6.17,6.17,0,1,1,775.23,372h0s1.81-3.16,5.12-8.89c1.66-2.86,3.61-6.33,5.87-10.24s4.67-8.43,7.38-13.25c5.42-9.79,11.75-21.23,18.37-33.43,3.31-6.17,6.78-12.5,10.24-19s6.93-13.1,10.39-19.58c3.46-6.63,6.93-13.25,10.39-19.73s6.78-13,9.94-19.13,6.33-12.2,9.19-17.92c3-5.72,5.72-11.14,8.13-16.11,2.41-5.12,4.52-9.79,6.17-14,.9-2.11,1.66-4.07,2.41-6,.75-1.81,1.36-3.61,2-5.12A100.53,100.53,0,0,0,884,159.7a18.76,18.76,0,0,1,36.29,9.49A19.59,19.59,0,0,1,915.29,177.77Z"/><ellipse class="cls-3" cx="780.55" cy="375.29" rx="61.75" ry="41.27" transform="translate(65.5 863.97) rotate(-60.03)"/><ellipse class="cls-2" cx="780.55" cy="375.29" rx="46.84" ry="31.33" transform="translate(65.5 863.97) rotate(-60.03)"/></g><g id="bowl_outside" data-name="bowl outside"><path class="cls-4" d="M719.81,353.07c-107.23,0-194.27-24.25-194.27-54.22,0,107.23,87,194.27,194.27,194.27s194.27-87,194.27-194.27C914.09,328.82,827,353.07,719.81,353.07Z"/></g></g></g></svg>