<svg xmlns="http://www.w3.org/2000/svg" viewBox="0 0 489.36 74.62"><defs><style>.cls-1{fill:#d57e00;}</style></defs><title>logo</title><g id="Layer_2" data-name="Layer 2"><g id="Layer_1-2" data-name="Layer 1"><path class="cls-1" d="M348.52,16.34l-6.37,3.78a11,11,0,0,0-3.4-4A7.92,7.92,0,0,0,334.4,15,8,8,0,0,0,329,16.85a5.75,5.75,0,0,0-2.16,4.58q0,3.81,5.66,6.13l5.19,2.12q6.34,2.56,9.27,6.25a14.09,14.09,0,0,1,2.93,9,15.9,15.9,0,0,1-4.78,11.86,16.43,16.43,0,0,1-12,4.72,16,16,0,0,1-11.19-4q-4.34-4-5.43-11.29l8-1.75q.54,4.59,1.89,6.34a9,9,0,0,0,13.17.91A8.51,8.51,0,0,0,342,45.52a8.75,8.75,0,0,0-.42-2.78,7,7,0,0,0-1.31-2.32,10.54,10.54,0,0,0-2.31-2,22.51,22.51,0,0,0-3.37-1.77l-5-2.09q-10.68-4.51-10.68-13.21a12.53,12.53,0,0,1,4.48-9.8,16.18,16.18,0,0,1,11.15-4Q343.47,7.58,348.52,16.34Z"/><path class="cls-1" d="M364.89,28.94h22.44V8.59h7.85v52h-7.85V36.32H364.89V60.62H357v-52h7.85Z"/><path class="cls-1" d="M451.68,16H433.55v12.5H451v7.38H433.55V60.62H425.7v-52h26Z"/><path class="cls-1" d="M477.43,16V60.62h-7.85V16h-12V8.59h31.74V16Z"/><path class="cls-1" d="M410.17,74.62l-4.63-14V0h9l0,60.79Zm-3.48-14.09,3.45,10.36,3.25-10.35V1.15h-6.7Z"/><polygon class="cls-1" points="406.13 5.75 413.61 5.75 413.89 58.08 412.6 61.39 411.31 58.08 409.97 61.25 408.72 58.08 407.47 61.25 406.13 58.08 406.13 5.75"/><polygon class="cls-1" points="409 67.57 411.31 67.57 410.15 72.75 409 67.57"/><path class="cls-1" d="M32.17,15.23,25.77,19A11,11,0,0,0,22.35,15,8,8,0,0,0,18,13.88a8.08,8.08,0,0,0-5.45,1.86,5.78,5.78,0,0,0-2.17,4.61q0,3.83,5.69,6.16l5.22,2.13q6.36,2.57,9.31,6.28A14.16,14.16,0,0,1,33.52,44a16,16,0,0,1-4.81,11.92,16.5,16.5,0,0,1-12,4.74,16.07,16.07,0,0,1-11.24-4Q1.08,52.61,0,45.3l8-1.76q.54,4.61,1.9,6.37A8.21,8.21,0,0,0,17,53.29a8.25,8.25,0,0,0,6.13-2.47,8.55,8.55,0,0,0,2.44-6.26,8.81,8.81,0,0,0-.42-2.79,7.09,7.09,0,0,0-1.32-2.34,10.56,10.56,0,0,0-2.32-2,22.31,22.31,0,0,0-3.38-1.78l-5-2.1Q2.34,29,2.34,20.28a12.6,12.6,0,0,1,4.5-9.85A16.27,16.27,0,0,1,18,6.43Q27.09,6.43,32.17,15.23Z"/><path class="cls-1" d="M71.88,14.86h-21V27.42H71.28v7.42H50.93V52.31h21v7.42H43V7.45H71.88Z"/><path class="cls-1" d="M120.88,10.26V19.6q-6.84-5.72-14.16-5.72a18,18,0,0,0-13.58,5.79A19.52,19.52,0,0,0,87.6,33.76a19.05,19.05,0,0,0,5.55,13.88,18.34,18.34,0,0,0,13.61,5.65,16.67,16.67,0,0,0,7.08-1.36,20.13,20.13,0,0,0,3.37-1.83,39.38,39.38,0,0,0,3.68-2.78v9.51a28.48,28.48,0,0,1-14.22,3.83,26.25,26.25,0,0,1-19.13-7.82,25.93,25.93,0,0,1-7.89-19A26.86,26.86,0,0,1,86.24,16a26.3,26.3,0,0,1,21-9.58A26.7,26.7,0,0,1,120.88,10.26Z"/><path class="cls-1" d="M192.46,59.73V3.89l38.13,39.89V7.45h7.89V62.91L200.35,23.12v36.6Z"/><path class="cls-1" d="M251,59.73V7.45h11A39.9,39.9,0,0,1,274.44,9a23.31,23.31,0,0,1,8.9,5.18q8.09,7.38,8.09,19.4T283,53.09a24.63,24.63,0,0,1-8.87,5.18q-4.33,1.46-12.29,1.46Zm7.89-7.42h3.56a29.67,29.67,0,0,0,8.84-1.12,17.94,17.94,0,0,0,12.19-17.61,18.16,18.16,0,0,0-5.76-14q-5.18-4.78-15.27-4.77H258.9Z"/><rect class="cls-1" x="154.2" y="19.23" width="2.3" height="18.98"/><rect class="cls-1" x="158.76" y="33.52" width="2.3" height="10.71" transform="translate(70.64 177.13) rotate(-70.81)"/><path class="cls-1" d="M128,33.31a25.61,25.61,0,0,1,8.09-19,26.64,26.64,0,0,1,19.37-7.92,26.14,26.14,0,0,1,19.16,8,26.12,26.12,0,0,1,8,19.2,25.7,25.7,0,0,1-8.06,19.13,27.63,27.63,0,0,1-37.72.88Q128,45.87,128,33.31Zm8,.1a18.9,18.9,0,0,0,5.82,14.26,19.29,19.29,0,0,0,27.26-.1,19.25,19.25,0,0,0,5.66-14,19.16,19.16,0,0,0-5.59-14,19.5,19.5,0,0,0-27.53,0A18.86,18.86,0,0,0,136,33.41Z"/></g></g></svg>