<svg xmlns="http://www.w3.org/2000/svg" viewBox="0 0 1439.85 639.07"><defs><style>.cls-1{fill:#fbf7ed;}.cls-2{fill:#5a1f17;}.cls-3{fill:#dc4637;}.cls-4{fill:#dc4537;}.cls-5{fill:#b4c035;}</style></defs><title>banner</title><g id="Layer_2" data-name="Layer 2"><g id="content"><path class="cls-1" d="M67,625.18c1.42-4,2.85-7.92,4.23-11.36a33.75,33.75,0,0,0-7.87,1.77c-7,2.88-31.26-.09-36.88-10.4a54.29,54.29,0,0,1-3-5.94C17.93,588,11.3,574.74,0,566.85v14c7.35,8.12,12.25,19.49,17.34,29.09C25.94,626.14,56.38,629.23,67,625.18Z"/><path class="cls-1" d="M320.37,95a5.92,5.92,0,1,0,3.25,11.38c83.73-23.93,141.58-96.73,144-99.81A5.92,5.92,0,0,0,468.13,0H457.66C451.2,7.91,395.83,73.39,320.37,95Z"/><path class="cls-1" d="M431.09,366.76c-11.75-16.22-31.62-22.6-46.45-14-16,9.32-19.93,32.44-8.76,51.62,9,15.49,25.08,23.51,39.37,21.2a28.18,28.18,0,0,0,9.83-3.33c16-9.3,19.9-32.4,8.75-51.61A45.41,45.41,0,0,0,431.09,366.76Z"/><path class="cls-1" d="M778,9.67c-21.42,30.57-45.7,65.21-51.12,88.24a96.4,96.4,0,0,0,187.66,44.18c5.42-23-.85-64.86-6.39-101.77l-.8-5.38c-1.29-8.66-2-16.78-2.74-24.63-.32-3.58-.64-7-1-10.31h-5.35c.42,4.33.67,8.86.92,13.5.42,7.82.86,15.9,2.07,24.59,1,7.36,2.22,15,3.43,22.6,4.48,28.38,9.11,57.73,4.84,75.86-11.73,49.82-60.69,81-109.14,69.64h0c-48.44-11.41-78.32-61.2-66.59-111C738.12,77,755.36,52.83,772,29.43c4.48-6.29,8.95-12.57,13.15-18.68C787.67,7.11,789.91,3.53,792,0h-7.31Q783,2.58,781.16,5.21Z"/><path class="cls-1" d="M431.65,311.21c10.05-4,15.9-13,13.06-20.15s-13.31-9.63-23.35-5.63-15.89,13.05-13.07,20.15S421.59,315.21,431.65,311.21Z"/><path class="cls-1" d="M556.57,332c8.5-8.24,6.49-24.15-4.52-35.51s-26.86-13.87-35.36-5.61-6.49,24.15,4.54,35.52S548.07,340.3,556.57,332Z"/><path class="cls-1" d="M712.11,558a62.39,62.39,0,0,0-70.5-8.76,7.33,7.33,0,0,0-2.89,10.23,12.44,12.44,0,0,0,7.55,5.63,12.27,12.27,0,0,0,9.31-1.38,62.23,62.23,0,0,1,60.31-2C714.66,560.44,713.45,559.18,712.11,558Z"/><path class="cls-1" d="M1429.32,27.22a8.71,8.71,0,0,0,7.29-9.88A49,49,0,0,1,1437.06,0H1411.9a50.09,50.09,0,0,1,7.54,19.93A8.71,8.71,0,0,0,1429.32,27.22Z"/><path class="cls-1" d="M1222.92,396.42c-5,26,19.93,19.3,20.65,2.74h.1c-.79-19.66,17.29-56.75,44.93-71.31C1243.54,336.53,1225.85,377.22,1222.92,396.42Z"/><path class="cls-1" d="M1396.09,98.08c-1.62-10.73,2-21.81,9.84-30.9l-6.55-5.6a45.65,45.65,0,0,0-11.87,37.79c2,13.31,10.38,25.22,22.47,32.62l4.12-7.64C1404.41,118.35,1397.7,108.82,1396.09,98.08Z"/><path class="cls-1" d="M1366,102.61c-2.46-16.31,6.38-33.45,23.42-45.67l-5-7.15c-19.79,14.39-29.89,34.79-27,54.11s18.57,35.84,41.71,43.77l2.7-8.31C1382,132.7,1368.49,118.92,1366,102.61Z"/><path class="cls-1" d="M778,33.66C761.7,56.5,744.89,80.11,741,96.84c-10.81,45.9,16.63,91.76,61.16,102.24s89.54-18.31,100.35-64.22c3.94-16.73-.57-45.37-4.94-73-1.21-7.68-2.42-15.34-3.45-22.74-1.25-9-1.72-17.6-2.12-25.2-.27-5-.52-9.64-.93-13.87H800.47c-2.78,4.78-5.83,9.83-9.28,14.87C787,21,782.48,27.33,778,33.66Zm56.39,28.46c22.52,5.3,31.06,50.89,25.76,73.41a41.9,41.9,0,1,1-81.57-19.2C783.86,93.81,811.84,56.82,834.36,62.13Z"/><path class="cls-1" d="M1371,548.56c-97.4,11.66-162.71-38.77-171.19-109.58-9.43-78.74,27.63-126.8,104.37-129.36-8.39-15.08-18.21-27.3-34.11-38.76,24.48,6.19,58.4,32.53,58.4,32.53l3.25-.39c3.69-11.28.22-26.68-4-37.82,13.11,3.59,26.72,35.1,26.72,35.1l3.25-.39s26.31-38.72,49.78-51.77c-13.75,16.78-20.07,32.49-24.31,51.64a3.75,3.75,0,0,0,.85,0c20.75-4.33,39.47-4.18,55.82.2V178.55c-14.75.35-26.33-3.06-28.61-9-41.61-5.15-74.57-28.73-79.55-61.79-5.11-33.91,21-67.27,62-84a33.08,33.08,0,0,0,13.92,22.49l5.11-6.92a24.51,24.51,0,0,1-10.44-16.87,35.39,35.39,0,0,0-13-22.19l-.44-.32H1091.89l1.65,7.4-17.21,3.85L1073.84.08a26,26,0,0,1-15.68,10.47A26.49,26.49,0,0,1,1030.77,0H911.21c.32,3.13.62,6.35.91,9.64.7,7.74,1.42,15.73,2.68,24.19l.8,5.38c5.63,37.58,12,80.17,6.28,104.61a104,104,0,0,1-124.95,77.33h0a104,104,0,0,1-77.33-125c5.75-24.44,30.47-59.7,52.27-90.83L775,.89,775.6,0H563.87c.53,19.72-12.45,34.4-12.45,34.4S531,20,532.74,0h-1.17c-3.54,6.17-13,16.5-37.83,21.19A52.57,52.57,0,0,1,491.32,0h-6.44a59,59,0,0,0,2.78,23.18,6.38,6.38,0,0,0,7.26,4.28C511,24.42,521.34,19,528,13.6c3.18,9.78,9.91,17.36,14.63,21.77-12.83,37.57-32.08,98.05-71.26,134.26C427.21,210.46,379,213.11,379,213.11s-47,8.9-79.18-23.93c0,0-58.12-66.85,12.31-106.17C371.85,55.48,370.32,55.74,392,41.92,415.73,26.76,425.14,16.52,441.34,0H0V197.24a192.8,192.8,0,0,1,23.94-5.86,37.23,37.23,0,0,1,7.27-20A17.6,17.6,0,0,1,44,164a58.78,58.78,0,0,1,16.65.35,107.74,107.74,0,0,0-2.46,19.36,44.93,44.93,0,0,0-11.78-.48c-4.21,5.41-5.1,17.74,3,24-14.43,1.81-23.44,7.82-27.65,13.24,5.41,4.21,10.82,8.41,25.25,6.6-4.21,5.41,1.81,14.43,7.22,18.63,14.43-1.81,28.25-8.43,27-18,1.21,9.62,16.24,12.62,30.66,10.81,4.21-5.41,7.81-15.63,2.4-19.84,14.43-1.81,18.63-7.22,22.84-12.63-5.41-4.21-15.63-7.81-30.06-6,6.31-8.12,2.4-19.84-3-24a34.83,34.83,0,0,0-16.71,7,122.74,122.74,0,0,0,1.09,24.29l-19.24,2.41c-5.07-40.4,3.82-66.91,31.82-96.8l13.89,13.4C104.66,137.79,97.15,148,92.64,158.83a59.39,59.39,0,0,1,9-2.11,19,19,0,0,1,14.13,3.6c6.43,4.57,10.83,12.32,12.87,20.86,7.58,2,14.79,5,20.2,9.19a19.31,19.31,0,0,1,3.44,27.41c-3.73,5.35-8.41,10.82-16.71,14.8a50.61,50.61,0,0,1-8.53,17.68,17.6,17.6,0,0,1-12.74,7.46c-11.06,1.39-21.4.73-29.58-2.15l1.33,10.58a89.09,89.09,0,0,0,29.46,1.19,30.58,30.58,0,0,0,19.65-10.77,45.46,45.46,0,0,0,9.07-17.26,68.68,68.68,0,0,0,16.17-15.22c9.61-12.93,7.32-31.2-5.13-40.88a48.94,48.94,0,0,0-8.48-5.29h0c46,1.07,87,19.87,94.29,78.06,9.65,76.95-41.37,137.57-137.55,149.63-40.84,5.12-75.94-.26-103.56-14V508.84c12.5-10.28,16.46-16.56,6.35-33.33,5.59-4.56,10.66-4,15.73-3.53s29.93,8.16,38,29.48-10.21,50.22,4,61.91a27,27,0,0,0,11.26,5.24c.36-3.55,1.23-7,1.53-10.09a15.06,15.06,0,0,1-6.34-3.21c-3.34-2.39-1.91-11.47-.48-20.55,1.69-11.62,4-24.71-.86-37a63.09,63.09,0,0,0-9.73-15.34c15.89-5.06,32.64-8.48,54-6.33a132.93,132.93,0,0,1,60.36,21.49c-8.18,9.94-7.28,21.3-6.53,29.07.34,6.7.19,8.22-.93,9.13-2.29,2.33-5.79,1.47-14.66-2a43.67,43.67,0,0,0-13.44-3.93c-14.21-1.44-34.11,7.82-41.8,28.06a79.05,79.05,0,0,0-1.59,10.6,68.64,68.64,0,0,1,14.41-.59c13.19,1.34,21.55,9.87,22.74,28.45a15.76,15.76,0,0,0-5.13,0c-12.43,1.3-23.91,8.34-32.2,19.29-1.32,2.94-2.64,5.88-4,9.33,8.73,2.1,17.55,6.49,23,14.06h11.54c-4.31-8.41-11.23-14.74-20.72-19.32,10.52-12.77,25.14-15.39,35-11.32a76.16,76.16,0,0,0,2-10c-.26-32.83-21.67-39.1-31.31-40.08l-2-.21c7-13.64,21.84-18.29,29.45-17.52,10.15,1,24.34,12.72,35.51,3.6s-2.5-25.88,9.19-40.08,21.84-13.17,37.06-11.62c-7.13,19.78-5.88,32.73,5.52,46.69,15.1,17.93,19.85,31.74,20,50.21a68.74,68.74,0,0,0-14.51-3.52c-17.76-1.8-28,8.44-36.56,16.8-4,4.2-8,7.9-12.85,10.49-9.19,4.71-16.14,2.46-21.41-1.15a59.75,59.75,0,0,1-3.06,9.94c8.26,4.42,18.41,5.45,29.23-.11,16.25-8.61,23.38-28.38,43.67-26.33s33.87,19.83,31.92,34c-6.11-.62-11.11,2.59-15.47,9.58H588.75c-.43-7.23-.92-13.67-1.45-17.91-3.19-25.61,1.37-52.57,19.89-73.28A84.92,84.92,0,0,1,723,537.79c15.74-39.64-26.36-102.81-28.37-111.6a32.47,32.47,0,0,1,63.34-14.35A77.55,77.55,0,0,1,759.61,425a25.83,25.83,0,0,1,25.87-3.08c12.89,5.52,17,20.21,14,33.88-6.9,31.14-53,74.83-53,74.83,8.13-4.35,37-22.64,41.55-23.63,10.29-2.21,19.68,5.18,21.9,15.47a19.09,19.09,0,0,1-14.67,22.65,38.19,38.19,0,0,1-4.24.55c9,3,18.08,7.71,22.08,10.91,8.2,6.61,9.82,18.21,3.28,26.45s-18.28,9.14-26.49,2.54c-3.67-3-8.84-10.59-13.54-18-14.29-23.9-30.9-21.24-40.28-16.93a85,85,0,0,1,12.11,88.48h691.68V528.35C1420.46,538.35,1397.42,545.4,1371,548.56ZM520.16,514.14c-1.5,14.06-24.67,36.24-65.82,31.85S395.21,515,396.71,501c.41-3.84,3.24-15.89,7.13-31.35a223.67,223.67,0,0,0,56.85,14.61l.92.1A221.33,221.33,0,0,0,519.8,482C520.34,497.92,520.57,510.3,520.16,514.14Zm-.76-42.49a196.12,196.12,0,0,1-113-12.06c-34.8-14.7-70.45-43.78-55.77-100.41C377.15,256.86,454.16,254.67,485,258s105.68,21.67,110,127.28C597.5,443.71,556.5,464.62,519.4,471.65ZM1129,507.3c-1.14,8.52-5.68,15.89-10.79,22.7-23.27,32.35-64.14,55.62-101.6,43.14-15.33-5.11-28.38-15.33-40.87-25.54-41.43-34.06-82.87-72.65-103.3-123.17-7.38-19.3-12.49-40.3-9.08-60.73s15.32-40.3,33.49-48.82c23.27-10.22,49.95-1.13,72.65,9.65,69.25,32.92,135.09,86.84,156.66,162.9C1127.84,494.24,1129.54,501.06,1129,507.3Zm12.3-423.53a79.59,79.59,0,0,0-27.88,12l27.83-6.22-.27,28.43a78.92,78.92,0,0,0-26.8,11.71l26.75-6-.59,69.07c-.15,15.19-20.68,19.78-27.25,6.09l-23.34-48.51,25.52-5.7a73.15,73.15,0,0,0-28,.54l-11.05-23L1104,116a74,74,0,0,0-30.28,1.05l-12.3-25.58,26.47-5.92a74.06,74.06,0,0,0-29,.75L1050,67.82a33.3,33.3,0,0,1,22.74-46.95h0l28.2-6.3a33.3,33.3,0,0,1,40.56,32.8Z"/><path class="cls-1" d="M1010.34,431.81a30.53,30.53,0,0,0-2.84-15.89A6,6,0,1,0,996.72,421c1.7,2.84,2.27,6.81,2.27,10.22,0,2.84,2.84,5.68,5.67,6.24A5.69,5.69,0,0,0,1010.34,431.81Z"/><path class="cls-1" d="M906.47,368.24c-2.84-3.41-3.41-9.08-1.14-12.49a5.75,5.75,0,0,0-9.65-6.24c-5.11,7.95-4,19.3,2.27,26.68a6.44,6.44,0,0,0,4.54,1.7,5.15,5.15,0,0,0,4-1.7C909.31,373.91,909.31,370.51,906.47,368.24Z"/><path class="cls-1" d="M948.47,410.81a6.25,6.25,0,0,0,5.68,3.4,3.42,3.42,0,0,0,2.27-.57c2.84-1.14,4-4.54,2.84-7.95l-6.81-15.33a6,6,0,0,0-10.79,5.11Z"/><path class="cls-1" d="M1067.67,433.51a5.86,5.86,0,0,0-6.81,5.11l-2.27,14.76a5.86,5.86,0,0,0,5.11,6.81h.57a6,6,0,0,0,5.68-5.11l2.84-14.76A5.86,5.86,0,0,0,1067.67,433.51Z"/><path class="cls-1" d="M954.15,472.68a14.29,14.29,0,0,1-11.35-5.11c-2.27-2.27-6.24-2.84-8.52-.57s-2.84,6.24-.57,8.52A25.09,25.09,0,0,0,953,484.6h1.14c2.84,0,5.67-2.84,6.24-6.24C960.39,474.95,957,472.68,954.15,472.68Z"/><path class="cls-1" d="M1000.12,390.37v-19.3a5.68,5.68,0,0,0-11.35,0v19.3a5.68,5.68,0,1,0,11.35,0Z"/><path class="cls-1" d="M514.61,371.91a50.81,50.81,0,0,0-7.59,2.3c-24,9.64-36.61,34.46-28.18,55.45,6.23,15.52,22.24,24.54,39.85,24.32a52.66,52.66,0,0,0,18.85-3.75c24-9.65,36.61-34.46,28.17-55.44C558.18,376,536.32,366.77,514.61,371.91Z"/><path class="cls-1" d="M1020,525.46a5.69,5.69,0,0,0-8.52,1.13c-3.4-1.13-6.24,1.14-7.38,4s.57,6.24,4,7.38a7.19,7.19,0,0,0,3.4.57,12.15,12.15,0,0,0,10.22-5.11C1024,531.14,1023.4,527.73,1020,525.46Z"/><path class="cls-1" d="M497.13,323.62c-3.92-11.88-18.65-17.71-32.89-13s-22.64,18.12-18.72,30,18.65,17.69,32.88,13S501,335.5,497.13,323.62Z"/><path class="cls-2" d="M969.47,324.53c-22.7-10.79-49.38-19.87-72.65-9.65-18.16,8.52-30.08,28.38-33.49,48.82s1.7,41.43,9.08,60.73c20.43,50.52,61.87,89.11,103.3,123.17,12.49,10.22,25.54,20.43,40.87,25.54,37.46,12.49,78.33-10.79,101.6-43.14,5.11-6.81,9.65-14.19,10.79-22.7.57-6.24-1.14-13.06-2.84-19.87C1104.56,411.38,1038.72,357.45,969.47,324.53Zm-63,51.65a5.15,5.15,0,0,1-4,1.7,6.44,6.44,0,0,1-4.54-1.7c-6.24-7.38-7.38-18.73-2.27-26.68a5.75,5.75,0,0,1,9.65,6.24c-2.27,3.41-1.7,9.08,1.14,12.49C909.31,370.51,909.31,373.91,906.47,376.18Zm38,11.35a6.53,6.53,0,0,1,7.94,2.84l6.81,15.33c1.13,3.41,0,6.81-2.84,7.95a3.42,3.42,0,0,1-2.27.57,6.25,6.25,0,0,1-5.68-3.4l-6.81-15.33A6.53,6.53,0,0,1,944.5,387.53Zm9.65,97.06H953a25.09,25.09,0,0,1-19.3-9.08c-2.27-2.27-1.7-6.24.57-8.52s6.24-1.7,8.52.57a14.29,14.29,0,0,0,11.35,5.11c2.84,0,6.24,2.27,6.24,5.67C959.82,481.76,957,484.6,954.15,484.6Zm34.62-94.22v-19.3a5.68,5.68,0,0,1,11.35,0v19.3a5.68,5.68,0,1,1-11.35,0ZM999,431.24c0-3.4-.57-7.38-2.27-10.22a6,6,0,1,1,10.79-5.11,30.53,30.53,0,0,1,2.84,15.89,5.69,5.69,0,0,1-5.67,5.67C1001.83,436.92,999,434.08,999,431.24Zm22.7,102.17a12.15,12.15,0,0,1-10.22,5.11,7.19,7.19,0,0,1-3.4-.57c-3.41-1.14-5.11-4.54-4-7.38s4-5.11,7.38-4a5.69,5.69,0,0,1,8.52-1.13C1023.4,527.73,1024,531.14,1021.7,533.41Zm51.08-93.09-2.84,14.76a6,6,0,0,1-5.68,5.11h-.57a5.86,5.86,0,0,1-5.11-6.81l2.27-14.76a6,6,0,0,1,11.92,1.7Z"/><path class="cls-3" d="M736.06,550.6c9.38-4.31,26-7,40.28,16.93,4.7,7.44,9.86,15.07,13.54,18,8.21,6.6,19.87,5.67,26.49-2.54s4.91-19.84-3.28-26.45c-4-3.21-13.07-7.89-22.08-10.91a38.19,38.19,0,0,0,4.24-.55,19.09,19.09,0,0,0,14.67-22.65C807.7,512.18,798.31,504.78,788,507c-4.59,1-33.43,19.28-41.55,23.63,0,0,46.06-43.68,53-74.83,3-13.67-1.07-28.36-14-33.88A25.83,25.83,0,0,0,759.61,425a77.55,77.55,0,0,0-1.67-13.16,32.47,32.47,0,0,0-63.34,14.35c2,8.79,44.11,72,28.37,111.6A84.92,84.92,0,0,0,607.2,547.88c-18.52,20.71-23.08,47.67-19.89,73.28.53,4.25,1,10.68,1.45,17.91H748.17A85,85,0,0,0,736.06,550.6Zm-80.49,13.11a12.27,12.27,0,0,1-9.31,1.38,12.44,12.44,0,0,1-7.55-5.63,7.33,7.33,0,0,1,2.89-10.23,62.39,62.39,0,0,1,70.5,8.76c1.34,1.2,2.55,2.46,3.78,3.72A62.23,62.23,0,0,0,655.57,563.71Z"/><path class="cls-4" d="M1058.16,10.54A26,26,0,0,0,1073.84.08l2.5,11.17,17.21-3.85L1091.89,0h-61.12A26.49,26.49,0,0,0,1058.16,10.54Z"/><path class="cls-4" d="M1101,14.57l-28.2,6.3h0A33.3,33.3,0,0,0,1050,67.82l8.85,18.48a74.06,74.06,0,0,1,29-.75l-26.47,5.92,12.3,25.58A74,74,0,0,1,1104,116l-27.78,6.21,11.05,23a73.15,73.15,0,0,1,28-.54l-25.52,5.7L1113,198.87c6.57,13.69,27.11,9.1,27.25-6.09l.59-69.07-26.75,6a78.92,78.92,0,0,1,26.8-11.71l.27-28.43-27.83,6.22a79.59,79.59,0,0,1,27.88-12l.31-36.4A33.3,33.3,0,0,0,1101,14.57Z"/><path class="cls-3" d="M1384,299.73a3.75,3.75,0,0,1-.85,0c4.24-19.15,10.56-34.86,24.31-51.64-23.48,13.05-49.78,51.77-49.78,51.77l-3.25.39s-13.62-31.51-26.72-35.1c4.21,11.14,7.69,26.54,4,37.82l-3.25.39s-33.92-26.33-58.4-32.53c15.9,11.46,25.72,23.68,34.11,38.76-76.74,2.57-113.8,50.62-104.37,129.36,8.48,70.81,73.79,121.24,171.19,109.58,26.42-3.16,49.46-10.21,68.85-20.21V299.93C1423.5,295.55,1404.78,295.4,1384,299.73Zm-140.35,99.42h-.1c-.73,16.55-25.67,23.29-20.65-2.74,2.93-19.2,20.62-59.89,65.68-68.58C1261,342.4,1242.88,379.49,1243.67,399.15Z"/><path class="cls-2" d="M493.75,21.19C518.56,16.5,528,6.17,531.58,0H491.32A52.57,52.57,0,0,0,493.75,21.19Z"/><path class="cls-2" d="M392,41.92C370.32,55.74,371.85,55.48,312.16,83c-70.43,39.32-12.31,106.17-12.31,106.17C332,222,379,213.11,379,213.11s48.18-2.65,92.35-43.48c39.18-36.21,58.43-96.69,71.26-134.26C537.92,31,531.19,23.38,528,13.6c-6.67,5.44-17,10.82-33.09,13.86a6.38,6.38,0,0,1-7.26-4.28A59,59,0,0,1,484.89,0H468.13a5.92,5.92,0,0,1-.51,6.53c-2.42,3.08-60.27,75.88-144,99.81a6,6,0,0,1-1.63.23A5.92,5.92,0,0,1,320.37,95c75.46-21.57,130.83-87,137.29-95H441.34C425.14,16.52,415.73,26.76,392,41.92Z"/><path class="cls-2" d="M551.42,34.4s13-14.68,12.45-34.4H532.74C531,20,551.42,34.4,551.42,34.4Z"/><path class="cls-2" d="M1402.27,22.51a24.51,24.51,0,0,0,10.44,16.87l-5.11,6.92a33.08,33.08,0,0,1-13.92-22.49c-41,16.7-67.1,50.06-62,84,5,33.06,37.94,56.63,79.55,61.79,2.28,5.92,13.86,9.34,28.61,9V0h-2.8a49,49,0,0,0-.44,17.34,8.68,8.68,0,0,1-17.17,2.59A50.09,50.09,0,0,0,1411.9,0h-23.07l.44.32A35.39,35.39,0,0,1,1402.27,22.51Zm-3.11,125.16c-23.15-7.93-38.8-24.45-41.71-43.77s7.19-39.72,27-54.11l5,7.15c-17,12.22-25.87,29.36-23.42,45.67s15.94,30.09,35.83,36.76Zm14.93-23.32h0L1410,132c-12.09-7.4-20.47-19.31-22.47-32.62a45.65,45.65,0,0,1,11.87-37.79l6.55,5.6c-7.85,9.08-11.45,20.16-9.84,30.9s8.32,20.26,18,26.26h0Z"/><polygon class="cls-2" points="1414.09 124.35 1414.09 124.35 1414.09 124.35 1414.09 124.35"/><path class="cls-3" d="M103.56,405.61c96.18-12.06,147.2-72.68,137.55-149.63-7.3-58.19-48.24-77-94.29-78.06h0a48.94,48.94,0,0,1,8.48,5.29c12.45,9.67,14.74,27.95,5.13,40.88a68.68,68.68,0,0,1-16.17,15.22,45.46,45.46,0,0,1-9.07,17.26,30.58,30.58,0,0,1-19.65,10.77,89.09,89.09,0,0,1-29.46-1.19l-1.33-10.58c8.18,2.88,18.52,3.54,29.58,2.15a17.6,17.6,0,0,0,12.74-7.46,50.61,50.61,0,0,0,8.53-17.68c8.29-4,13-9.44,16.71-14.8a19.31,19.31,0,0,0-3.44-27.41c-5.41-4.21-12.63-7.21-20.2-9.19-2-8.54-6.44-16.29-12.87-20.86a19,19,0,0,0-14.13-3.6,59.39,59.39,0,0,0-9,2.11c4.5-10.82,12-21,22.29-32.59L101,112.84c-28,29.89-36.89,56.4-31.82,96.8l19.24-2.41a122.74,122.74,0,0,1-1.09-24.29,34.83,34.83,0,0,1,16.71-7c5.41,4.21,9.32,15.93,3,24,14.43-1.81,24.65,1.79,30.06,6-4.21,5.41-8.41,10.82-22.84,12.63,5.41,4.21,1.81,14.43-2.4,19.84-14.43,1.81-29.46-1.19-30.66-10.81,1.21,9.62-12.62,16.24-27,18-5.41-4.21-11.43-13.22-7.22-18.63-14.43,1.81-19.84-2.4-25.25-6.6,4.21-5.41,13.22-11.43,27.65-13.24-8.12-6.31-7.22-18.63-3-24a44.93,44.93,0,0,1,11.78.48,107.74,107.74,0,0,1,2.46-19.36A58.78,58.78,0,0,0,44,164a17.6,17.6,0,0,0-12.74,7.46,37.23,37.23,0,0,0-7.27,20A192.8,192.8,0,0,0,0,197.24V391.59C27.62,405.36,62.72,410.73,103.56,405.61Z"/><path class="cls-5" d="M90.64,625c1.38-3.45,2.7-6.39,4-9.33,8.29-10.95,19.76-18,32.2-19.29a15.76,15.76,0,0,1,5.13,0c-1.19-18.57-9.55-27.11-22.74-28.45a68.64,68.64,0,0,0-14.41.59,79.05,79.05,0,0,1,1.59-10.6c7.69-20.24,27.59-29.5,41.8-28.06a43.67,43.67,0,0,1,13.44,3.93c8.88,3.46,12.38,4.33,14.66,2,1.12-.91,1.27-2.43.93-9.13-.75-7.77-1.65-19.13,6.53-29.07a132.93,132.93,0,0,0-60.36-21.49c-21.31-2.16-38.06,1.27-54,6.33a63.09,63.09,0,0,1,9.73,15.34c4.91,12.28,2.55,25.37.86,37-1.43,9.08-2.86,18.16.48,20.55a15.06,15.06,0,0,0,6.34,3.21c-.31,3-1.17,6.54-1.53,10.09a27,27,0,0,1-11.26-5.24c-14.19-11.69,4.11-40.59-4-61.91s-32.94-29-38-29.48-10.14-1-15.73,3.53C16.46,492.28,12.5,498.56,0,508.84v58c11.3,7.9,17.93,21.18,23.54,32.4a54.29,54.29,0,0,0,3,5.94c5.62,10.31,29.92,13.28,36.88,10.4a33.75,33.75,0,0,1,7.87-1.77c-1.38,3.45-2.8,7.41-4.23,11.36-10.66,4-41.1,1-49.71-15.29-5.08-9.6-10-21-17.34-29.09v58.27H113.68C108.19,631.5,99.37,627.11,90.64,625Z"/><path class="cls-5" d="M261.39,629.5c1.95-14.15-11.63-31.93-31.92-34S202,613.23,185.79,621.84c-10.82,5.57-21,4.54-29.23.11a59.75,59.75,0,0,0,3.06-9.94c5.27,3.61,12.22,5.85,21.41,1.15,4.88-2.58,8.84-6.28,12.85-10.49,8.54-8.36,18.8-18.6,36.56-16.8a68.74,68.74,0,0,1,14.51,3.52c-.18-18.47-4.93-32.28-20-50.21-11.4-14-12.65-26.91-5.52-46.69-15.22-1.54-25.37-2.57-37.06,11.62s2,31-9.19,40.08-25.37-2.57-35.51-3.6c-7.61-.77-22.43,3.88-29.45,17.52l2,.21c9.64,1,31,7.25,31.31,40.08a76.16,76.16,0,0,1-2,10c-9.84-4.07-24.46-1.45-35,11.32,9.5,4.59,16.41,10.91,20.72,19.32h120.7C250.27,632.09,255.28,628.88,261.39,629.5Z"/><path class="cls-5" d="M461.61,484.35l-.92-.1a223.67,223.67,0,0,1-56.85-14.61c-3.89,15.45-6.72,27.51-7.13,31.35-1.5,14.06,16.49,40.63,57.63,45s64.32-17.79,65.82-31.85c.41-3.84.18-16.22-.36-32.15A221.33,221.33,0,0,1,461.61,484.35Z"/><path class="cls-5" d="M485,258c-30.86-3.29-107.87-1.09-134.4,101.22-14.68,56.63,21,85.71,55.77,100.41a196.12,196.12,0,0,0,113,12.06c37.1-7,78.1-27.94,75.67-86.41C590.7,279.63,515.89,261.25,485,258Zm31.66,33c8.5-8.26,24.36-5.76,35.36,5.61s13,27.27,4.52,35.51-24.35,5.76-35.35-5.61S508.17,299.18,516.69,290.92Zm-95.33-5.48c10-4,20.5-1.5,23.35,5.63s-3,16.13-13.06,20.15-20.51,1.5-23.36-5.63S411.31,289.46,421.36,285.44Zm3.74,136.85a28.18,28.18,0,0,1-9.83,3.33c-14.29,2.31-30.36-5.71-39.37-21.2-11.17-19.19-7.26-42.31,8.76-51.62,14.83-8.63,34.7-2.25,46.45,14a45.41,45.41,0,0,1,2.75,3.92C445,389.89,441.09,413,425.1,422.29Zm20.42-81.67c-3.92-11.88,4.47-25.32,18.72-30s29,1.12,32.89,13-4.47,25.32-18.73,30S449.42,352.5,445.52,340.62Zm92,109.62A52.66,52.66,0,0,1,518.68,454c-17.61.22-33.62-8.8-39.85-24.32-8.42-21,4.2-45.82,28.18-55.45a50.81,50.81,0,0,1,7.59-2.3c21.71-5.15,43.57,4.09,51.09,22.89C574.14,415.78,561.52,440.59,537.53,450.24Z"/><path class="cls-5" d="M771.86,5.35c-21.81,31.13-46.52,66.39-52.27,90.83a104,104,0,0,0,77.33,125h0a104,104,0,0,0,124.95-77.33c5.75-24.44-.64-67-6.28-104.61l-.8-5.38c-1.25-8.45-2-16.45-2.68-24.19-.3-3.29-.59-6.5-.91-9.64h-7.53c.34,3.29.66,6.72,1,10.31.72,7.85,1.44,16,2.74,24.63l.8,5.38C913.73,77.22,920,119,914.58,142.08A96.4,96.4,0,0,1,726.92,97.9c5.42-23,29.7-57.67,51.12-88.24l3.12-4.46Q783,2.58,784.71,0H775.6L775,.89Z"/><path class="cls-5" d="M809.74,166.72a41.89,41.89,0,0,0,50.39-31.18c5.3-22.52-3.24-68.11-25.76-73.41s-50.5,31.68-55.81,54.2A41.89,41.89,0,0,0,809.74,166.72Z"/><path class="cls-5" d="M772,29.43C755.36,52.83,738.12,77,733.85,95.17c-11.73,49.82,18.15,99.61,66.59,111h0c48.45,11.41,97.41-19.82,109.14-69.64,4.27-18.13-.36-47.48-4.84-75.86-1.21-7.63-2.4-15.24-3.43-22.6-1.21-8.69-1.65-16.77-2.07-24.59-.25-4.64-.5-9.17-.92-13.5H891c.41,4.24.66,8.86.93,13.87.4,7.6.87,16.21,2.12,25.2,1,7.41,2.24,15.07,3.45,22.74,4.37,27.68,8.88,56.31,4.94,73-10.81,45.9-55.82,74.7-100.35,64.22s-72-56.34-61.16-102.24c3.94-16.73,20.75-40.35,37-63.18,4.51-6.33,9-12.63,13.22-18.79,3.45-5,6.5-10.09,9.28-14.87H792c-2.11,3.53-4.36,7.11-6.85,10.75C781,16.86,776.51,23.14,772,29.43Z"/></g></g></svg>