<svg xmlns="http://www.w3.org/2000/svg" xmlns:xlink="http://www.w3.org/1999/xlink" viewBox="0 0 1440 639"><defs><style>.cls-1{fill:none;}.cls-2{fill:#e0a326;}.cls-3{fill:#353249;}.cls-4{fill:url(#mixed);}</style><pattern id="mixed" data-name="mixed" width="800" height="800" patternUnits="userSpaceOnUse" viewBox="0 0 800 800"><rect class="cls-1" width="800" height="800"/><path class="cls-2" d="M787.65,783.25c-3.76,3.09.85,9.49-1.08,14-1.09,2.52-4,3.68-6.55,4.59l-12.36,4.36.19,3.63c7.73,5.17,20.43,3.24,24.53,11.58,1.25,2.55,1.29,5.5,1.75,8.3s1.6,5.8,4.13,7.1,6.45-.49,6.11-3.31a17.13,17.13,0,0,1,8-16.29,29.5,29.5,0,0,0,20,4.26c.39-3.58-2.42-6.75-5.48-8.66s-6.59-3.13-9.21-5.6-4-6.9-1.67-9.65a17,17,0,0,0,3.33-15.25c-5.68-1.77-9.16,7.93-15.11,8-3.22,0-5.6-2.79-7.93-5s-6.09-4-8.57-2"/><path class="cls-2" d="M290.87,781.81c-4.44.12-8.48-2.93-10.81-6.71s-3.26-8.24-4.15-12.59c-3.72-.35-6.12,3.8-7.22,7.38s-2.51,7.86-6.15,8.72c-2.73.65-5.42-1-8.18-1.52s-6.48,1.72-5.35,4.28a5,5,0,0,0,2.44,2.09l11.89,6.28c4.55,2.4,3.87,9.24,1.4,13.75s-6.18,8.94-5.65,14.05c7.59-.24,12.63-7.7,16.36-14.32,1.14-2,4.35-1.75,6-.12s2.21,4,2.92,6.22c1.66,5.16,6.8,10.71,11.61,8.21,1.76-7.55-5.57-15.25-3.21-22.63,1.89-5.93,8.88-8.27,14.92-9.77,1.06-3.32-3.22-6.07-6.69-5.73s-6.66,2.31-10.14,2.4"/><path class="cls-2" d="M86.57,794.45c-3.79-2.56-9-2.43-13.07-.31a20,20,0,0,0-8.78,10.19c-.49,1.17-.89,2.54-.29,3.66,3.82,7.13,13.67,10.77,20.67,6.73s8.18-15.74,1.47-20.26m-9.23,10.66c.27-2.19,3.63-2.94,5.12-1.3s.91,4.49-.85,5.83a6.58,6.58,0,0,1-6.31.56A5.19,5.19,0,0,1,76.93,805Z"/><path class="cls-2" d="M167.12,813.25c8.32,0,17-4.15,20.65-11.61s1-17.92-6.56-21.41c-5.29-2.44-11.64-1.23-16.8,1.48-5.33,2.8-10,7.37-11.67,13.16s.17,12.76,5.22,16a16.92,16.92,0,0,0,9.16,2.35m14-17.41A12.13,12.13,0,0,1,161.28,805a34.66,34.66,0,0,1,13.4-11.65c2-1,4.94-1.52,6.06.41a4,4,0,0,1,.41,2.1m-5.45-12.47c1.9.7,3,3.48,1.49,4.83l-13.84,5c-.71-1.9.61-3.93,2.06-5.35a22,22,0,0,1,4.51-3.42C171.68,783.44,173.8,782.67,175.7,783.37Z"/><path class="cls-2" d="M735.57,766.48a15.28,15.28,0,0,0-7-3.51c-4.48-.85-9.06.89-13,3.2-7.25,4.27-13.45,11.12-14.87,19.41a15.53,15.53,0,0,0,2,11.2A16.15,16.15,0,0,0,708.9,802c9.65,4.94,22.7,2.41,29.34-6.16s5.58-22.3-2.67-29.33M727,781.12c1.76-1.79,4.16-3.72,6.5-2.81,2.86,1.11,2.71,5.25,1.5,8.07a24.58,24.58,0,0,1-9.11,10.85,9.8,9.8,0,0,1-6.24,2c-2.21-.24-4.35-2.11-4.22-4.32.09-1.58,1.22-2.88,2.3-4q4.57-4.92,9.28-9.71m-13.35,5c-1.86,1.78-5.34,3.37-6.52,1.07a52.79,52.79,0,0,1,13-15.66,7.24,7.24,0,0,1,4.35-2.05c1.64,0,3.33,1.56,2.84,3.12a4,4,0,0,1-1.19,1.6Z"/><path class="cls-2" d="M-12.35,783.25c-3.76,3.09.85,9.49-1.08,14-1.09,2.52-4,3.68-6.55,4.59l-12.36,4.36.19,3.63c7.73,5.17,20.43,3.24,24.53,11.58,1.25,2.55,1.29,5.5,1.75,8.3s1.6,5.8,4.13,7.1,6.45-.49,6.11-3.31a17.13,17.13,0,0,1,8-16.29,29.5,29.5,0,0,0,20,4.26c.39-3.58-2.42-6.75-5.48-8.66s-6.59-3.13-9.21-5.6-4-6.9-1.67-9.65a17,17,0,0,0,3.33-15.25c-5.68-1.77-9.16,7.93-15.11,8-3.22,0-5.6-2.79-7.93-5s-6.09-4-8.57-2"/><path class="cls-2" d="M833,424.9c1-2.57,3.59-4.08,6-5.37l21.23-11.31c2-1.09,1.61-4.42-.23-5.82s-4.34-1.42-6.65-1.38L837,401.3c-5,.08-8.32-5.12-9.47-9.93s-1.25-10.12-4.15-14.14-10.32-5-12.17-.44c-3,7.4-8,16.16-16,15.53l-20.72-1.64c-2.12-.17-4.63-.17-5.91,1.53-2.13,2.83,1.32,6.46,4.35,8.3l13.49,8.18c2.81,1.7,6,4,6,7.25a9.73,9.73,0,0,1-.62,3l-10.07,31.5c-.91,2.84,2.56,5.51,5.51,5.06s5.2-2.78,7.22-5l19-20.71,18.63,22.48c2.86,3.45,7.6,7.22,11.24,4.61L834.07,433c-1-2.6-2-5.5-1-8.11"/><path class="cls-2" d="M856.78,153.47a4.83,4.83,0,0,0,2.68-.86c1.64-1.37,1-4-.16-5.84-3.17-4.93-8.74-7.65-13.32-11.3s-8.51-9.63-6.41-15.1a52.69,52.69,0,0,0,2.84-27.1c-5.47.07-9.33,5.16-12.46,9.64s-7.47,9.36-12.9,8.73c-3.4-.39-6.12-2.9-8.55-5.31s-5.07-5-8.44-5.53-7.43,2.08-6.88,5.46l2.78,16.9c.33,2,.3,4.71-1.63,5.4a86.42,86.42,0,0,0-17.5,8.57c-1.19,2.69,2.9,4.46,5.83,4.57l12.23.45c5.39.2,11.14.52,15.46,3.75,6.89,5.15,7.22,15.13,10.57,23.05.66,1.56,1.61,3.2,3.24,3.67,2.84.83,5.22-2.48,5.62-5.41.51-3.82-.58-7.75.16-11.54s4.72-7.47,8.16-5.73a34.16,34.16,0,0,0,18.68,3.52"/><path class="cls-2" d="M812.93,749.67c-2.27,5.33,4.73,11.19,10.18,9.23,3-2.56,1.33-7.32,1.48-11.24.29-7.62,7.92-12.64,14.9-15.73,2-.89,4.21-1.89,5.14-3.87s-.56-5-2.7-4.56c-3.93.87-8,1.75-12,1s-7.84-3.49-8.59-7.45c-.42-2.23.17-4.5.43-6.75s.11-4.78-1.45-6.41-4.92-1.47-5.6.69c-1.06,3.37-2.17,6.83-4.41,9.56s-5.94,4.57-9.34,3.6c-2.42-.68-4.25-2.61-6.12-4.28s-4.18-3.25-6.68-3-4.61,3.41-3.06,5.39l7.29,9.33c2.14,2.74,4.35,5.61,5.09,9s-.44,7.49-3.59,9c-2.25,1.06-1.35,4.9,1,5.81s4.92-.17,7.07-1.42,4.36-2.75,6.85-2.73,5.08,2.51,4.11,4.8"/><path class="cls-2" d="M127.81,297c-3.23,3.51-10.5-3.37-13.29.49-1.31,1.81-4.38.75-5.53-1.16s-1.2-4.29-2-6.36c-.66-1.62-1.81-3.08-2-4.82s1.52-3.75,3.1-3c2,1,4.35-.94,5.33-3s1.4-4.45,3-6,5.16-1.19,5.29,1.07a8.48,8.48,0,0,0,8.35,7.71c2.07,0,3,2.85,2.14,4.74s-2.7,3.11-4,4.72S126.28,295.66,127.81,297Z"/><path class="cls-2" d="M33,424.9c1-2.57,3.59-4.08,6-5.37l21.23-11.31c2-1.09,1.61-4.42-.23-5.82S55.72,401,53.41,401L37,401.3c-5,.08-8.32-5.12-9.47-9.93s-1.25-10.12-4.15-14.14-10.32-5-12.17-.44c-3,7.4-8,16.16-16,15.53l-20.72-1.64c-2.12-.17-4.63-.17-5.91,1.53-2.13,2.83,1.32,6.46,4.35,8.3l13.49,8.18c2.81,1.7,6,4,6,7.25a9.73,9.73,0,0,1-.62,3l-10.07,31.5c-.91,2.84,2.56,5.51,5.51,5.06s5.2-2.78,7.22-5l19-20.71,18.63,22.48c2.86,3.45,7.6,7.22,11.24,4.61L34.07,433c-1-2.6-2-5.5-1-8.11"/><path class="cls-2" d="M174.7,732.06c2.63,4,8,5.09,12.75,5.18s9.8-.43,14.12,1.61c5.06,2.39,7.94,7.7,10.5,12.68l7.19,14c2.09,4.08,5.63,8.85,10.06,7.67,7.24-6.39-2-19.82,3.72-27.63,3-4.13,9-4.74,14-3.9s10,2.73,15.08,2.21a3.11,3.11,0,0,0,2.17-.89c.86-1.05.19-2.64-.65-3.7-3.16-4-8.25-5.85-12.43-8.77s-7.72-8.31-5.53-12.91a93.59,93.59,0,0,0,7.84-25,4.71,4.71,0,0,0,0-2.12c-.75-2.49-4.46-2.11-6.69-.77-4,2.43-7.06,6.18-10.62,9.27s-8.15,5.61-12.78,4.77c-4.23-.77-7.45-4.13-10.36-7.3s-6.17-6.5-10.42-7.18-9.3,3-8.23,7.13c1.26,4.92,2.53,9.94,2.21,15s-2.5,10.29-6.78,13c-4.84,3.08-11.9,2.86-15.14,7.59"/><path class="cls-2" d="M566.43,390.62a14.31,14.31,0,0,0-12.57,6.75c-1.67,2.77-6,.47-7.77-2.22s-4.24-6.21-7.3-5.17c-1.54.52-2.45-2-1.59-3.37s2.49-2.13,3.35-3.52c1.52-2.45,0-5.57-.17-8.45s3.12-6.33,5-4.19a14.58,14.58,0,0,0,16.75,3.3A22.84,22.84,0,0,0,566.43,390.62Z"/><path class="cls-2" d="M56.78,153.47a4.83,4.83,0,0,0,2.68-.86c1.64-1.37,1-4-.16-5.84-3.17-4.93-8.74-7.65-13.32-11.3s-8.51-9.63-6.41-15.1a52.69,52.69,0,0,0,2.84-27.1C37,93.33,33.09,98.41,30,102.9s-7.47,9.36-12.9,8.73c-3.4-.39-6.12-2.9-8.55-5.31s-5.07-5-8.44-5.53-7.43,2.08-6.88,5.46L-4,123.15c.33,2,.3,4.71-1.63,5.4a86.42,86.42,0,0,0-17.5,8.57c-1.19,2.69,2.9,4.46,5.83,4.57l12.23.45c5.39.2,11.14.52,15.46,3.75C17.25,151,17.59,161,20.93,168.94c.66,1.56,1.61,3.2,3.24,3.67,2.84.83,5.22-2.48,5.62-5.41.51-3.82-.58-7.75.16-11.54s4.72-7.47,8.16-5.73a34.16,34.16,0,0,0,18.68,3.52"/><path class="cls-2" d="M735.75,486.5c1.92-2.14,4.26-5,7-4.08A11,11,0,0,0,756.18,489c1.63,1.09,1.06,3.74-.34,5.12s-3.35,2.1-4.69,3.52c-3,3.14-1.93,8.15-.71,12.29-1.28,1.4-3.63.88-5.25-.12s-3.13-2.41-5-2.54c-1.71-.12-3.29.85-5,1.19s-3.92-.46-3.93-2.17a18.16,18.16,0,0,0-6.48-13.68A19.53,19.53,0,0,0,735.75,486.5Z"/><path class="cls-2" d="M15.42,305.55l-13.6,15c-1.11,1.23-.2,3.37,1.3,4.05s3.26.34,4.86-.08a59.68,59.68,0,0,0,13.16-5.19c1.9-1,3.85-2.19,6-2.27s4.56,1.39,4.62,3.55a42.38,42.38,0,0,0,4.4,17.79c1.51,3,5.08,6.3,7.81,4.27,1.39-1,1.68-3,1.86-4.69L47,326.2c.34-3.35.74-6.86,2.62-9.65,3.22-4.78,9.7-6,15.46-6s11.84.57,17-2c-2.19-5.47-9-7-14.68-8.55S55.19,294.45,56,288.61l2.86-21.11c.19-1.42.29-3.11-.79-4s-2.49-.65-3.71-.21C45.25,266.5,41,279.61,31.39,279.76c-4.46.07-8.31-2.84-12.32-4.78s-9.55-2.66-12.32.83l9.55,18c1.25,2.36,2.54,5,1.85,7.59a10.73,10.73,0,0,1-2.73,4.17"/><path class="cls-2" d="M176.78,378.89c-.05,3.65-3.6,6.08-6.39,8.44s-5.17,6.68-2.73,9.4l-14.18-2.09a4.3,4.3,0,0,1-4.17-3.5l-5.06-12a10.93,10.93,0,0,0,11.43-4.65c1.07-1.69,1.72-3.73,3.3-4.95s4.6-.71,4.69,1.29C164,376.45,171.17,378.44,176.78,378.89Z"/><path class="cls-2" d="M695.79,594.6c1.85,1.9,3.82,4.06,3.91,6.71.08,2.41-1.42,4.55-2.85,6.48l-13.28,18c.85,2.33,4.23,2,6.55,1.15a60.58,60.58,0,0,0,20.22-12.76,22.16,22.16,0,0,1,7.15,11.48c.65,2.62.83,5.38,1.86,7.87s3.25,4.79,6,4.78c4.24,0,6.41-5.32,6-9.54s-2.3-8.4-1.43-12.55c1.26-6,7.65-9.4,13.51-11.27s12.41-3.42,16.13-8.33c-6.9-7.61-22.85-.5-28.15-9.3a16.08,16.08,0,0,1-1.73-6L727,564.14c-4.2,0-7.3,3.88-9.2,7.62s-3.47,8-7,10.24c-4.39,2.78-10.23,1.44-14.86-.92-2.3-1.17-4.71-2.62-7.27-2.27s-4.68,3.71-2.88,5.56l10,10.23"/><path class="cls-2" d="M372.28,630.83c1.36-1.74,2.51-3.82,4.5-4.79s5.1.15,4.95,2.36c-.3,4.47,4.81,8.37,9,6.89,2.61-.91,4.56,3.07,3.34,5.54s-3.92,3.79-6,5.62-3.53,5.19-1.67,7.24c-1.2,2.4-4.87,1-6.9-.75s-5.4-3.52-7-1.35c-1,1.37-3.26,1.18-4.55.06a9.38,9.38,0,0,1-2.37-4.46l-3.14-10A18.3,18.3,0,0,0,372.28,630.83Z"/><path class="cls-2" d="M189.91,614.29c2.46-3.69,6.92-5.4,11.09-6.91L215.83,602c1.55-.56,1.69-2.9.63-4.17s-2.78-1.72-4.38-2.1l-16-3.82c-3.92-.94-6.49-5-7-9s.58-8,1.66-11.89c.81-2.9-3.17-5.22-6-4.22s-4.58,3.79-6.3,6.27-4,5.05-7,5.18-5.46-2.19-7.33-4.52-3.67-5-6.48-6-6.77.88-6.4,3.84c.61,5,4.06,9.08,6.53,13.46s3.86,10.29.62,14.14l-12.83,15.23c-1.66,2-3.43,4.28-3.09,6.84a23.38,23.38,0,0,0,14.95-3.65c4.49-2.92,9.88-7.58,14.3-4.56,2.77,1.89,3.1,5.8,3.08,9.16,0,3.66-.11,7.45,1.34,10.81s4.93,6.17,8.54,5.55c5.3-6.6.56-17.34,5.26-24.38"/><path class="cls-2" d="M724.27,132.6l12.26,10.85c3,2.63,7.24,5.4,10.55,3.21.74-5.64-2.27-11-4.6-16.17s-4-11.57-.8-16.29c2.53-3.76,7.26-5.19,11.34-7.16s8.24-5.71,7.52-10.19c-5.39-2.44-11.54.26-17.25,1.8s-13.46.82-15.32-4.8c-.72-2.16-.31-4.51-.17-6.79s-.11-4.81-1.75-6.38-5-1.2-5.53,1l-3,13.8c-.52,2.42-1.16,5-3.1,6.57-3.09,2.47-7.56.95-11.44.22a25.19,25.19,0,0,0-14.06,1.44c4.43,8,19.52,5.93,22,14.74,1.26,4.42-1.73,8.79-4,12.76a49.83,49.83,0,0,0-6.26,18.28c5,.56,9.43-3,12.7-6.83s6.29-8.16,10.9-10.12"/><path class="cls-2" d="M397.11,752.43c-3.14-1.74-7,.63-9.52,3.15s-5.44,5.54-9,5.2a12,12,0,0,0-12.25-8.42c-2.23-2,1.36-5,2.57-7.74.87-2,.36-4.21-.17-6.29s-1.06-4.32-.22-6.29,3.69-3.15,5.17-1.61c4.49,4.64,13.21,3.94,16.91-1.35,1.89,3.34.61,7.48.5,11.31s2.46,8.62,6.2,7.78Z"/><path class="cls-2" d="M306.16,597.9v-3.73a12.49,12.49,0,0,0,9.72-7.57c.74-1.85,1.08-4,2.5-5.37s4.47-1.24,4.79.73c.51,3.18,3.51,5.49,6.65,6.22s6.41.19,9.59-.34c1.33.93,1.12,3.06.13,4.35s-2.49,2.06-3.71,3.13c-4.12,3.6-4.12,10.88,0,14.49-.62,1.92-3.21,2.35-5.16,1.83s-3.78-1.66-5.8-1.62-4,1.41-6.12,1.86-4.93-.82-4.58-2.94A10,10,0,0,0,306.16,597.9Z"/><path class="cls-2" d="M552.61,523.43l14.2-9c1.83-1.16,3.75-2.41,4.77-4.33s.75-4.71-1.14-5.77c-1.56-.87-3.5-.29-5.18.3L555.78,508c-2.4.85-4.91,1.72-7.45,1.44-5.84-.64-9.29-6.78-11.16-12.34-1.17-3.47-3-7.71-6.6-7.86-3.87-.16-6,4.52-6.23,8.39s.12,8.28-2.63,11c-4.49,4.44-12.53.18-18.26,2.86-1.1.51-2.2,1.63-1.81,2.78a2.81,2.81,0,0,0,1,1.22c3.58,2.8,7.87,4.51,11.71,7s7.39,6,8.08,10.45c1.09,7.14-5.28,13.29-6.34,20.44a4.1,4.1,0,0,0,.25,2.55c1.4,2.59,5.34.67,7.38-1.46q8.45-8.79,16.35-18.08L551.78,546c1.95,1.61,4,3.27,6.39,4s5.39.19,6.85-1.88l-11.89-17.55c-1.5-2.21-2.78-5.69-.53-7.12"/><path class="cls-2" d="M657.66,270.84c-4.8,6.9-.17,18.42-6.78,23.61-2.36,1.85-5.5,2.23-8.44,2.78s-6.1,1.53-7.74,4-.46,6.8,2.53,7c6.08.39,12.25,2.83,16,7.63s4.45,12.14.7,16.94c-2.11,2.7,2.09,6.6,5.36,5.56s5-4.51,6.39-7.65l4.23-9.57c1.37-3.11,6-3.16,8.85-1.33s4.75,4.85,7.44,6.92,7,2.87,9.18.24A38.65,38.65,0,0,0,683.7,307c-1.3-1.18.06-3.26,1.38-4.41l11.27-9.86c2.94-2.57,6-7,3.36-9.86-2.17-2.29-6-1-8.76.53l-9.66,5.12c-3.24,1.72-7.33-.5-9.44-3.5s-3.06-6.69-5-9.78-5.71-5.67-9.17-4.44"/><path class="cls-2" d="M266.19,324.71c-2.06,1.74-5-.63-6.79-2.63s-5.59-3.54-6.72-1.09c-.94,2-4.24,1.47-5.47-.38s-1.12-4.24-1.31-6.46-1-4.73-3-5.56-.43-4.46,1.89-4.88,4.85.51,7-.47c2.29-1.06,3.13-3.81,4.3-6s3.82-4.39,6-3.1c2.44,1.45,1.37,5.32,2.81,7.77s4.43,2.68,7,3.54,5.11,3.64,3.65,5.88A14.66,14.66,0,0,0,266.19,324.71Z"/><path class="cls-2" d="M273.09,418.3c.27-2.13,3.54-2.48,5.11-1s1.92,3.77,2.47,5.84,1.66,4.34,3.75,4.83c3.19.74,7.11-3,9.35-.62,1.24,1.33.59,3.59-.69,4.87s-3,2-4.41,3.19a8.77,8.77,0,0,0-.23,12.59c-1.57,2.55-5.46,1.39-8.09,0s-6.56-2.51-8.06.08c-1.28,2.23-4.87-.16-5.14-2.72s.74-5.39-.61-7.58c-1.74-2.84-7-4.08-6-7.25A14.44,14.44,0,0,0,273.09,418.3Z"/><path class="cls-2" d="M440.94,255.18c-1.77,2.61,1.71,6.21,4.81,5.64s5.15-3.52,6.46-6.38,2.34-6,4.72-8.09a80.8,80.8,0,0,0,10.31,12.12c1.4,1.35,3.07,2.73,5,2.62,3.45-.2,4.77-4.81,3.92-8.16s-2.9-6.51-2.61-10c.44-5.16,5.68-8.25,9.85-11.33s7.95-8.93,4.8-13c-4.53-1.1-9.24.17-13.86.74s-9.92.2-13-3.28c-2.12-2.38-2.74-5.7-3.51-8.8s-2-6.4-4.73-8-7.25-.25-7.4,2.94c-.27,5.54-2.24,11.13-6.18,15s-10,5.84-15.27,4.16c-2.72-.86-5.32,2.54-4.63,5.31s3.45,4.55,6.18,5.37,5.65,1,8.33,2c8,3,11.57,14.09,6.79,21.15"/><path class="cls-2" d="M691.45,184.78c-2.31-2.14-6.4.75-6.31,3.9s2.69,5.63,5.32,7.36,5.61,3.23,7.28,5.9a80.8,80.8,0,0,0-13.55,8.35c-1.55,1.18-3.17,2.62-3.35,4.56-.32,3.44,4,5.44,7.47,5.12s6.87-1.88,10.23-1.06c5,1.22,7.29,6.87,9.7,11.45s7.62,9.21,12.16,6.73c1.78-4.31,1.24-9.16,1.37-13.81s1.31-9.83,5.22-12.36c2.68-1.74,6.05-1.84,9.23-2.14s6.63-1,8.66-3.45,1.35-7.12-1.78-7.76c-5.43-1.11-10.66-3.91-13.92-8.39s-4.25-10.75-1.79-15.72c1.27-2.56-1.7-5.65-4.54-5.38s-5,2.71-6.25,5.29-1.83,5.44-3.21,7.94c-4.13,7.46-15.69,9.3-21.93,3.5"/><path class="cls-2" d="M421.74,602c.08-2.13,2.44-3.41,4.55-3.75s4.41-.23,6.16-1.45,2.51-3.6,3.08-5.74,1.28-4.47,3.13-5.71,5.08-.32,5.11,1.9c.09,6.23,8.61,10.42,13.6,6.68,1.64-1.23,4.08.83,4,2.87s-1.71,3.65-3.23,5-3.16,2.9-3.42,4.93c-.29,2.28,1.28,4.41,1.39,6.71s-3.24,4.56-4.24,2.49c-1.46-3-5.93-2.53-8.91-1s-6.28,3.62-9.39,2.4C434.42,610.18,428.82,602.9,421.74,602Z"/><path class="cls-2" d="M674,471c4,1.34,8-1.72,10.79-4.89s5.52-6.94,9.66-7.64c3.68,8.11,9.25,17.51,18.16,17.45a24.29,24.29,0,0,0-3.89-16c-2.65-4-.89-9.66,2.62-12.9s8.29-4.63,12.89-5.93c2.69-.76,2.9-4.92.87-6.84s-5.13-2.07-7.91-1.8-5.65.83-8.3,0c-3.81-1.23-6.19-5.15-7-9.06-.76-3.57-.61-7.54-2.79-10.48s-8.06-3-8.49.67c-1.42,12.15-13.61,22-25.78,20.79-2.58-.25-4.16,3.29-3,5.62s3.77,3.48,6.28,4.15,5.18,1.1,7.22,2.69c3.12,2.43,3.83,7,2.76,10.84s-3.59,7-6,10.12l2,3.2"/><path class="cls-2" d="M93.29,170.45c.09,4.25,5.79,7.17,9.29,4.75a14.39,14.39,0,0,1,9.78-16.32c1.87-.53,1.35-3.61-.36-4.52s-3.79-.54-5.72-.77a9.62,9.62,0,0,1-8-10.89c.42-2.21-2.71-3.68-4.74-2.7s-3,3.23-3.93,5.3-2,4.3-4.07,5.15c-1.74.71-3.74.27-5.55.78s-3.27,3-1.79,4.18a11.4,11.4,0,0,1,2.43,14.67c-1.5,2.31,2.64,4.43,5.17,3.34s4.81-3.48,7.52-3"/><path class="cls-2" d="M650.83,513.66c.39,3.42-3.36,5.93-6.77,6.38s-7-.25-10.26.84-5.89,5.3-3.7,8c5.12.6,10.42,1.26,14.85,3.9s7.78,7.83,6.62,12.86c-.9,3.92-4,8.79-.77,11.19s7-1.9,8.51-5.55c1.27-3.14,2.46-6.43,4.83-8.85s6.34-3.66,9.2-1.85a20.62,20.62,0,0,0,15.48,2.61c1.11-2.37-.92-5-3.06-6.53s-4.74-2.89-5.44-5.41c-.93-3.34,2.05-6.47,5.06-8.19s6.56-3.11,8.11-6.21-1.39-8-4.49-6.48c-5.35,2.67-11.91,5.31-17,2.16-3.91-2.42-5.28-7.32-7.25-11.48s-6.06-8.36-10.48-7.09a35.81,35.81,0,0,0-3.45,19.74"/><path class="cls-2" d="M466.11,678.77a15.14,15.14,0,0,0-8.73-16.36c6.5-2.12,14.34-6.12,13.84-12.94-.17-2.34,3.08-3.66,5.19-2.63s3.22,3.35,4.16,5.51,2,4.47,4.15,5.51c1.75.86,3.8.65,5.75.56s4.09,0,5.52,1.37,1.32,4.24-.55,4.79c-6.83,2-9.74,11.86-5.11,17.27a12.91,12.91,0,0,1-13.26-6.69A11.52,11.52,0,0,1,466.11,678.77Z"/><path class="cls-2" d="M100.23,513.7c-2.59.36-5.08-1-7.45-2.09s-5.17-2.05-7.54-.93-3,5.25-.53,6.14c3.71,1.33,7.5,2.71,10.54,5.22s5.22,6.42,4.6,10.32c-.95,5.93-7.92,10.4-6.71,16.28a15.15,15.15,0,0,0,14.73-6.41c1.52-2.29,5.26-.6,6.67,1.77,1.52,2.57,2,5.61,3,8.42s2.84,5.66,5.73,6.41,6.49-1.95,5.56-4.78c-1.45-4.42-2.92-8.95-2.85-13.6s2-9.55,5.9-12,9.37-2.16,13.18-5c.59-2.14-1.49-4.21-3.66-4.69s-4.42,0-6.64.06c-9.08,0-16.43-10.54-13.22-19,1.4-3.71-4.45-6.62-7.85-4.56s-4.59,6.3-5.89,10.05-3.62,7.86-7.55,8.41"/><path class="cls-2" d="M787.65-16.75c-3.76,3.09.85,9.49-1.08,14-1.09,2.52-4,3.68-6.55,4.59L767.66,6.15l.19,3.63c7.73,5.17,20.43,3.24,24.53,11.58,1.25,2.55,1.29,5.5,1.75,8.3s1.6,5.8,4.13,7.1,6.45-.49,6.11-3.31a17.13,17.13,0,0,1,8-16.29,29.5,29.5,0,0,0,20,4.26c.39-3.58-2.42-6.75-5.48-8.66s-6.59-3.13-9.21-5.6-4-6.9-1.67-9.65a17,17,0,0,0,3.33-15.25c-5.68-1.77-9.16,7.93-15.11,8-3.22,0-5.6-2.79-7.93-5s-6.09-4-8.57-2"/><path class="cls-2" d="M376.82,147.87c-3.06,1.59-6.22,3.25-8.41,5.92s-3.19,6.63-1.46,9.62c1.59,2.74-2.71,5.79-5.59,4.47s-4.1-4.68-5-7.71c-2.27-.37-4.43,1-6.32,2.29s-4,2.71-6.28,2.45-4.18-3.25-2.6-4.92c3.51-3.73,1.84-10.86-3-12.64-2.41-.9-.39-4.82,2.15-5.21s5.39.58,7.56-.79c3.74-2.37,2.16-9.57,6.29-11.15,3-1.16,5.93,2.07,7.06,5.11s1.91,6.68,4.79,8.17c1.85,1,4.07.7,6.14.94S376.59,145.79,376.82,147.87Z"/><path class="cls-2" d="M802,246.53c2,.36,3.66,1.86,5.29,3.14s3.64,2.46,5.67,2,3.35-3.38,1.72-4.67c-2.52-2-2.25-6.15-.3-8.71s5.06-3.92,8-5.17c2.52-1.07.51-5.27-2.2-5.63s-5.37,1.1-8.1,1c-5.62-.3-8.52-6.7-10.19-12.07-2.5-1.26-5.26,1.3-6.46,3.83s-2.14,5.62-4.75,6.65c-2.27.9-4.83-.22-7.27,0s-4.75,3.54-2.7,4.87a15.26,15.26,0,0,1,5.21,18.9c4.9,3,10.37-5.1,16-4.1"/><path class="cls-2" d="M455.54,142.5c-1.14-2.73-.16-5.83.81-8.63s1.9-5.93.68-8.63-5.68-3.77-7-1.14c-1.7,3.3-3.5,6.73-6.52,8.88s-7.64,2.55-10.2-.14a64.64,64.64,0,0,0-11.69-9.71c-2.16-1.4-5.28.4-6,2.87s.31,5.12,1.69,7.29,3.13,4.13,4.12,6.51c1.87,4.49.64,9.79-2,13.88S413,160.92,409.19,164c-1.91,1.55,1.18,4.2,3.63,4.39a27.38,27.38,0,0,0,17.76-4.85c2.72-1.91,5.94,1.86,6.65,5.11s1.56,7.46,4.85,8,5.45-3.55,5.51-6.88-.81-6.94.87-9.83c2.35-4,8.09-4.14,12.72-3.46s10.1,1.34,13.3-2.08c-2.34-7.41-15.93-4.65-18.92-11.82"/><path class="cls-2" d="M305.4,544.39c4,1.33,7.44-3.26,8.14-7.37s.27-8.75,2.9-12c4.72-5.82,14.35-2.18,21.3-5,2.48-1,4.73-4.16,2.94-6.15a4.29,4.29,0,0,0-1.75-1.06c-5.88-2.19-14.29-.91-16.8-6.66-1.53-3.5.39-7.43,1.91-10.93s2.46-8.13-.37-10.69c-7.17-2.31-13,11.27-19.75,8-3.14-1.5-4.42-6.18-7.88-6.45s-5.31,4.49-4.32,7.88,3.5,6.23,4.17,9.69c.77,4-1.11,8.11-3.92,11s-6.46,4.88-10,6.78A9.44,9.44,0,0,0,299,518c1.89-.29,3.6,1.45,4.05,3.31s0,3.81-.23,5.71a31.7,31.7,0,0,0,2.59,17.32"/><path class="cls-2" d="M141.24,439.68c1.79-2.46,5.68-.2,8.69-.68s4.6-3.47,6.24-5.94,4.57-4.93,7.26-3.68c.6,3.84,1.26,7.83,3.52,11s6.61,5.19,10.12,3.54c1.82-.85,3.77,1.66,3.14,3.56s-2.7,2.93-4.65,3.42-4,.66-5.74,1.74c-4.75,3-3.26,10.21-1.21,15.45-3.84,2.25-9.54-.09-10.69-4.4-.78-2.93-5.23-2-7.68-.23s-6.19,3.73-8.06,1.34c-2.24-2.85,2.06-6.14,3.82-9.32a7.08,7.08,0,0,0-.49-7.45C143.5,445.27,139.23,442.44,141.24,439.68Z"/><path class="cls-2" d="M74.71,673.5c-1.13,1.43-3.68.44-4.3-1.28s.05-3.6.73-5.29,1.38-3.55.84-5.28c-.61-2-2.6-3.11-4.07-4.56s-2.42-4.08-.85-5.42c1.9-1.63,4.67.62,7.17.71,3.85.15,5.72-4.54,6.66-8.27s3.43-8.32,7.19-7.49c1.62,3.08.71,6.8.28,10.26s.06,7.66,3.15,9.27c2.4,1.25,5.33.35,8,.67s5.47,3.49,3.61,5.46c-8.07-.09-15.08,8.38-13.47,16.29-1.45,2.78-5.66.4-7.47-2.16S76.65,671,74.71,673.5Z"/><path class="cls-2" d="M12.93,749.67c-2.27,5.33,4.73,11.19,10.18,9.23,3-2.56,1.33-7.32,1.48-11.24.29-7.62,7.92-12.64,14.9-15.73,2-.89,4.21-1.89,5.14-3.87s-.56-5-2.7-4.56c-3.93.87-8,1.75-12,1s-7.84-3.49-8.59-7.45c-.42-2.23.17-4.5.43-6.75s.11-4.78-1.45-6.41-4.92-1.47-5.6.69c-1.06,3.37-2.17,6.83-4.41,9.56s-5.94,4.57-9.34,3.6c-2.42-.68-4.25-2.61-6.12-4.28s-4.18-3.25-6.68-3-4.61,3.41-3.06,5.39l7.29,9.33c2.14,2.74,4.35,5.61,5.09,9s-.44,7.49-3.59,9c-2.25,1.06-1.35,4.9,1,5.81s4.92-.17,7.07-1.42,4.36-2.75,6.85-2.73,5.08,2.51,4.11,4.8"/><path class="cls-2" d="M450.29,724.64c1.42-2.32,5.06-.7,7.68-1.44,3.17-.9,4-4.9,4.43-8.17s1.79-7.28,5.08-7.55c4.91-.41,5.75,7.39,9.92,10,3.72,2.34,8.49-.24,12.09-2.75,2-1.41,4.89,1.11,4.68,3.55s-2.26,4.29-4.31,5.65-4.33,2.6-5.52,4.75c-2.53,4.53,1.08,9.92,4.49,13.83,1.81,2.08-1.58,5.22-4.25,4.53s-4.42-3.17-6.61-4.85-6-2.27-7.26.16a10.88,10.88,0,0,1-11.31,5.38c2.12-5.56,3.58-13.22-1.53-16.27-1.67-1-3.72-1.19-5.45-2.08S449.27,726.3,450.29,724.64Z"/><path class="cls-2" d="M226.27,182c-.89,6.38-3.13,14.23-9.49,15.26-2.37.38-4.75-.36-7.11-.77s-5-.39-6.84,1.2-1.67,5.19.62,5.87c8.73,2.62,12.5,15.14,6.66,22.15-1.92,2.3,1.39,5.67,4.38,5.64,6.4-.07,11.82-7.37,17.94-5.49,2.58.79,4.38,3.06,6.13,5.12s3.84,4.17,6.53,4.44,5.63-2.52,4.46-5l-6.35-13.27c-1.52-3.17,1.79-6.7,5.16-7.67s7.13-.64,10.25-2.25,4.78-6.67,1.75-8.46c-6.7-4-17.18,3.38-22.38-2.42-1.89-2.11-2.11-5.19-2.3-8s-.58-5.93-2.67-7.85-6.36-1.33-6.75,1.47"/><path class="cls-2" d="M779.06,537.51c-2.53,1.31-5.57.13-8.42.17s-6.13,3-4.38,5.27a11.32,11.32,0,0,1,11.58,16.53c-1.1,2.06,2,4.15,4.25,3.41s3.64-2.85,5.5-4.26,5.07-1.8,6.13.28c2,3.94,8.08,5,11.25,1.88-3.78-2.48-4.28-8.19-2.12-12.16s6.26-6.5,10.37-8.38c2.38-1.09,1.12-5.15-1.4-5.87s-5.1.6-7.46,1.72-5.23,2.08-7.48.74c-4.07-2.43-3-10.48-7.68-11.22-2.75-.43-4.87,2.38-5.86,5s-1.81,5.64-4.28,6.92"/><path class="cls-2" d="M524.22,169.82c-2.53,1.31-5.57.13-8.42.17s-6.13,3-4.38,5.27A11.32,11.32,0,0,1,523,191.79c-1.1,2.06,2,4.15,4.25,3.41s3.64-2.85,5.5-4.26,5.07-1.8,6.13.28c2,3.94,8.08,5,11.25,1.88-3.78-2.48-4.28-8.19-2.12-12.16s6.26-6.5,10.37-8.38c2.38-1.09,1.12-5.15-1.4-5.87s-5.1.6-7.46,1.72-5.23,2.08-7.48.74c-4.07-2.43-3-10.48-7.68-11.22-2.75-.43-4.87,2.38-5.86,5s-1.81,5.64-4.28,6.92"/><path class="cls-2" d="M290.87-18.19c-4.44.12-8.48-2.93-10.81-6.71s-3.26-8.24-4.15-12.59c-3.72-.35-6.12,3.8-7.22,7.38s-2.51,7.86-6.15,8.72c-2.73.65-5.42-1-8.18-1.52s-6.48,1.72-5.35,4.28a5,5,0,0,0,2.44,2.09l11.89,6.28c4.55,2.4,3.87,9.24,1.4,13.75s-6.18,8.94-5.65,14.05c7.59-.24,12.63-7.7,16.36-14.32,1.14-2,4.35-1.75,6-.12s2.21,4,2.92,6.22C286,14.49,291.19,20,296,17.54c1.76-7.55-5.57-15.25-3.21-22.63,1.89-5.93,8.88-8.27,14.92-9.77,1.06-3.32-3.22-6.07-6.69-5.73s-6.66,2.31-10.14,2.4"/><path class="cls-2" d="M537.39,802.9c1.87-8.35,14-12.08,20.26-6.2,2.39,2.26,6.58-.94,6.44-4.23s-2.69-5.89-5-8.27-4.55-5.39-4-8.63c.65-3.64,4.46-5.61,7.53-7.67s6-6,4-9.15c-2.87-4.53-9.57-.07-14.87.75-6.28,1-11.9-4.19-15-9.74-1.48-2.65-2.73-5.58-5.13-7.43s-6.47-2-8,.62a7.16,7.16,0,0,0-.77,3.13c-.46,6,.36,12.1-1.15,17.89s-6.42,11.42-12.39,10.94c-2.45-.2-3.74,3.37-2.4,5.43s4,2.76,6.46,3,5,.28,7.14,1.56c3.05,1.87,4.07,5.78,4.61,9.32s1,7.41,3.53,9.94,7.93,2.21,8.71-1.28"/><path class="cls-2" d="M658.79,784.83c3.79-3.93-2.89-10.09-2-15.48.52-3.11,3.46-5.15,6.23-6.66s5.84-3.07,7.08-6-1-7.2-4.09-6.39c-5.41,1.44-12,2.57-15.89-1.51-3.58-3.8-2.72-10.3-6.18-14.2-2-2.29-6.11-1-7.81,1.52s-1.85,5.78-2.37,8.8-1.76,6.3-4.56,7.54c-2.2,1-4.74.39-7.11,0s-5.07-.62-6.93.92-1.53,5.34.86,5.62c8.3,1,14.47,10.41,12,18.4-1.05,3.46-3.14,7.89-.27,10.1s6.85-1.17,8.35-4.49,3-7.55,6.67-8c3,1.79,4.51,5.3,6.8,8s6.72,4.43,9.16,1.89"/><path class="cls-2" d="M579.73,458.91a12.57,12.57,0,0,1,4.74,15.34c1.84,1.58,4.59.08,6.67-1.15s5.51-1.74,6.3.55c1.67,4.85,8.14,7.32,12.62,4.81-1.58-4.41-2-9.42-.15-13.74s6.17-7.72,10.85-7.56c2.37.08,2.93-3.8,1.09-5.29s-4.5-1.23-6.84-.88-5,.61-6.84-.89c-2.19-1.8-2.07-5.09-2.29-7.92s-1.83-6.26-4.65-6.05-3.84,3.5-4.74,6.08c-1.38,3.91-3.89,7.58-7.54,9.54s-8.53,1.9-11.68-.8c-1.78-1.53-4.24,1.8-3.15,3.88s3.6,2.86,5.61,4.09"/><path class="cls-2" d="M535.39,684.49c-4.93,2.56-12.67-1.14-15.63,3.56,3.77,7.43,18.68,2.19,21.47,10,1.05,3-.5,6.14-1.53,9.11s-1.23,6.94,1.44,8.6,5.93-.14,7.73-2.51,2.7-5.34,4.58-7.65,5.46-3.78,7.81-2a20,20,0,0,0,14.57,4A18.85,18.85,0,0,0,566,694.39c-2-1-.79-4.14.68-5.9l10.38-12.42c1.53-1.83-.47-4.85-2.85-5.11s-4.56,1.22-6.44,2.7-3.86,3.12-6.25,3.26c-3.6.22-6.45-3-8.15-6.19s-3-6.84-6.05-8.83-8.31-.68-8.37,2.93.88,7,.87,10.58-1.28,7.44-4.43,9.08"/><path class="cls-2" d="M501.06,82.77c-2.29.26-4.44-1-6.64-1.64s-5.1-.52-6.16,1.53c1.84,4.13,5,7.62,6.5,11.87s.72,10-3.4,11.83c-2.14,1-1.44,4.56.68,5.55s4.62.19,6.77-.75,4.4-2.07,6.71-1.69c2.85.47,4.81,3,6.48,5.39s3.7,4.89,6.56,5.25,5.86-3.27,3.9-5.4c-4.07-4.41-2.25-12.7,3.3-15,2.47-1,5.31-1,7.73-2.1s4.23-4.46,2.46-6.46c-4.06-1.21-8.47-1-12.46-2.4s-7.63-5.61-6.21-9.6c.81-2.28-2-4.52-4.36-4.19s-4.25,2.19-5.92,3.94-3.55,3.6-5.95,3.88"/><path class="cls-2" d="M626.61,239.81c3.56-4.28-4.7-9.86-3.76-15.35.33-1.94,1.79-3.47,3.26-4.77a43.16,43.16,0,0,1,15.07-8.61c-.27-4.06-6-4.95-9.87-3.71s-8.29,3.32-11.69,1.09c-2.9-1.89-3.32-5.86-4-9.25s-2.91-7.31-6.36-7c-2.54.21-4.28,2.7-5,5.12s-1,5.07-2.26,7.26c-3.17,5.39-10.82,5.41-17,4.76-2.86-.3-4.24,4-2.65,6.37s4.6,3.31,7.29,4.34,5.59,2.71,6.11,5.54c.66,3.56-2.63,7.9-.07,10.46,1.71,2,5,1.19,7-.49s3.41-4.06,5.66-5.39,5.93-.84,6.49,1.71a10.67,10.67,0,0,0,11.84,7.92M600.74,216.1"/><path class="cls-2" d="M99.63,354c-3.39-.22-6.21-2.92-7.58-6s-1.57-6.58-1.74-10c-3.55-.84-6.75,2.27-8.8,5.28s-4.21,6.55-7.79,7.23c-2,.38-4.09-.27-6.15-.39s-4.49.61-5.16,2.56c-.79,2.29,1.32,4.53,3.44,5.7s4.64,2.11,5.66,4.3c2.43,5.26-6.2,10.28-4.93,15.94a12.76,12.76,0,0,0,12.29-4.88c1.51-2.05,4.88-1.63,6.81,0s2.92,4.14,4.28,6.3,3.49,4.21,6,4.09,4.53-3.73,2.56-5.35c-4.06-3.34-3.3-10.18.17-14.13s8.72-5.74,13.72-7.38c.9-2.51-2.28-4.73-4.94-4.61s-5.2,1.45-7.86,1.28"/><path class="cls-2" d="M291.87,363.25c4.67,4.09-1.82,13.14,2.46,17.64a9.58,9.58,0,0,0,11.26-7c.59-2.67,4.21-3.55,6.75-2.52s4.36,3.25,6.49,5,5.14,3,7.56,1.7c2-4.66-4.6-8.84-4.79-13.92-.16-4.3,4.16-7.18,7.66-9.7s6.93-7.11,4.59-10.72c-7.14-2.88-16.32,6.51-22.09,1.41-2.31-2-2.6-5.44-3.27-8.44s-2.56-6.37-5.64-6.41c-3.37,0-5.28,3.94-5.47,7.31s.42,7-1.36,9.88c-3,4.77-10.49,4.18-14.45,8.18-1.47,2,.87,4.75,3.26,5.42s5.17.53,7,2.16"/><path class="cls-2" d="M493,333.64c-.26-2.89-4.69-3.55-6.84-1.61s-2.63,5.08-3.18,7.94-1.56,6-4.17,7.28c-1.9.93-4.14.6-6.24.35s-4.43-.31-6.09,1-1.77,4.49.22,5.2c3.83,1.35,7.22,4.45,8.07,8.42s-1.47,8.62-5.41,9.61c-2.32.59-1.63,4.54.63,5.32s4.67-.44,6.75-1.62l10.14-5.78c1.51,2,2.36,4.51,3.72,6.67s3.51,4.1,6.06,4.09,4.94-2.95,3.66-5.15c-4.61-7.92,1.43-19.71,10.56-20.58,2.7-.26,1.76-4.92-.83-5.74s-5.4.32-8.09-.07c-6.35-.92-8.37-9-8.94-15.35"/><path class="cls-2" d="M86.57-5.55c-3.79-2.56-9-2.43-13.07-.31A20,20,0,0,0,64.72,4.33c-.49,1.17-.89,2.54-.29,3.66,3.82,7.13,13.67,10.77,20.67,6.73S93.28-1,86.57-5.55M77.34,5.11c.27-2.19,3.63-2.94,5.12-1.3s.91,4.49-.85,5.83a6.58,6.58,0,0,1-6.31.56A5.19,5.19,0,0,1,76.93,5Z"/><path class="cls-2" d="M742,279c-6.54,5.1-11.85,12.3-12.94,20.52s2.84,17.36,10.41,20.75c3.66,1.65,7.8,1.88,11.81,1.8,9.63-.19,19.54-2.18,27.34-7.83s13-15.52,11.16-25-10.82-16.86-20.47-18.37S749.67,273,742,279m38,12.22c2.81,2.75,1.7,7.53-.29,10.92a30.11,30.11,0,0,1-30.57,14c-1.37-.25-2.94-.79-3.37-2.11s.41-2.53,1.2-3.57a71.21,71.21,0,0,1,21.36-18.54c3.65-2.06,8.66-3.63,11.65-.71m-13.31-4.69a42.81,42.81,0,0,0-26.43,19.61c-.9,1.52-3.46,1-4.36-.51s-.59-3.44-.14-5.14a35.08,35.08,0,0,1,23.17-24c6.54-2,14.8-1.45,18.73,4.15C775.89,284.58,770.84,285.47,766.65,286.49Z"/><path class="cls-2" d="M765.77,355.51c0-7.49-7.4-14.46-14.75-13a17.17,17.17,0,0,0-6.88,3.39c-3.38,2.56-6.43,6.11-6.71,10.34a11.53,11.53,0,0,0,1.7,6.55,14.32,14.32,0,0,0,26.65-7.28m-14.46,3.58a5.86,5.86,0,0,1,6-2c1.28,3.64-3.33,7.7-6.78,6L751,359m-.88-4.31-3-.69a10.93,10.93,0,0,1,5.46-6.16c2.49,1.63.63,6.46-2.31,6Z"/><path class="cls-2" d="M567.75,109c-6.27,2.33-12.32,6.41-14.85,12.6-2.77,6.77-.67,14.83,3.85,20.58s11.09,9.54,17.82,12.4c5.8,2.47,12,4.38,18.28,4.17s12.76-2.8,16.46-7.9c4.73-6.52,4-15.89-.08-22.85s-10.86-11.89-17.89-15.83c-4.88-2.74-10.23-5.16-15.83-4.92a25.5,25.5,0,0,0-7.76,1.75m-6.42,20.07c2.35-2.66,6.66-1.66,9.92-.29a104.87,104.87,0,0,1,26.3,15.94c2.75,2.28,1.2,7.23-2,8.81s-7.06.77-10.44-.41a55.44,55.44,0,0,1-21-13.18c-2.92-2.93-5.55-7.78-2.81-10.88m3.51-12.18c5.89-4.66,14.58-4.28,21.32-1s11.92,9.05,16.78,14.78c1.73,2,3.54,4.4,3.28,7.06s-4,4.72-5.68,2.64a51.12,51.12,0,0,0-36-18.64C562.41,121.62,563.18,118.2,564.84,116.89Z"/><path class="cls-2" d="M419.31,96c7.19-16.3,4-37.91-10.52-48.22a21,21,0,0,0-7.68-3.58c-7.65-1.62-15.69,2.94-19.81,9.59s-4.86,14.91-3.95,22.67c1.07,9.16,4.6,18.47,11.73,24.32s18.36,7.21,25.52,1.39A16.64,16.64,0,0,0,419.31,96M401.58,53.36c3.05-1.82,6.74,1.16,8.68,4.14a38.75,38.75,0,0,1,3.44,34.91c-.59,1.48-1.61,3.16-3.21,3.16s-2.48-1.42-3.18-2.71A67.07,67.07,0,0,1,399,60c0-2.47.42-5.33,2.54-6.6M388,56.31c1-1.81,3.54-3.65,4.76-2a57.13,57.13,0,0,0,5.78,37.28c1.59,3,3.36,6.9,1,9.33C385.27,91.87,379.9,71.17,388,56.31Z"/><path class="cls-2" d="M293.25,263.38c.3-8.25-6.2-17.09-14.43-16.54-6,.4-10.69,5.34-13.39,10.67-2.56,5.05-3.28,12.34,1.5,15.38a13.88,13.88,0,0,0,5,1.61c6.46,1.2,14.25,2,18.53-3a13.08,13.08,0,0,0,2.78-8.1m-7.51,0a4.63,4.63,0,0,1-8.59,3.48,10.35,10.35,0,0,1,8.81-7.39l0,3.83m-11.76-4c-.49.55-1.54-.38-1.06-.93S274.73,258.8,274.24,259.35Z"/><path class="cls-2" d="M673.55,29.08a13,13,0,0,0-6.22-4.28c-4-1.2-8.49.08-12,2.39a18.33,18.33,0,0,0-8.15,11.6,13.58,13.58,0,0,0,4.6,13.06,16.32,16.32,0,0,0,21.07-1.62,16.5,16.5,0,0,0,.7-21.17M662.68,49.31c-1.36,2.07-5.06.14-5-2.34s2.28-4.34,4.54-5.38c1.9-.87,4.44-1.29,5.83.26,2.37,2.62-1.36,6.32-4.55,7.84m-5.24-13.47c.58-2.34,1.57-4.8,3.65-6s5.43-.31,5.77,2.08c.26,1.8-1.31,3.46-3.06,4A11.49,11.49,0,0,1,659.2,36Z"/><path class="cls-2" d="M598.1,618.5c4,4.3,10.45,5,16.31,5.1a144.34,144.34,0,0,0,15.35-.6c5.55-.51,11.19-1.39,16.16-3.92s9.23-7,10.32-12.44a18.41,18.41,0,0,0-.79-9.29c-3.72-11.28-15.73-18.83-27.61-18.58s-23,7.57-29.22,17.71c-4.11,6.73-5.89,16.22-.54,22m50.15-10.17c-1.35,3.93-5.69,5.9-9.68,7.06a68.85,68.85,0,0,1-28.43,2.1c-2.21-.3-4.94-1.29-5-3.52a4.78,4.78,0,0,1,1.66-3.19,48.36,48.36,0,0,1,22.45-13.51c4.36-1.19,9.17-1.72,13.3.11s7.18,6.68,5.71,11m-33.88-10.88c-3.23,2-7.62,4.56-10.37,1.92,4.28-4.88,8.9-9.65,14.66-12.64s12.91-4,18.73-1.11c1.52.75,3,1.88,3.44,3.52s-.9,3.7-2.58,3.43A34.94,34.94,0,0,0,614.37,597.45Z"/><path class="cls-2" d="M529.31,294.67c7.73,4.53,17.5,2.37,26.1-.16,8.28-2.43,17.53-6.05,20.48-14.16,1.5-4.12,1-8.7-.11-12.93-1.39-5.23-3.82-10.31-7.74-14.05s-9.46-6-14.81-5.14c-11.27,1.78-22.77,6.67-29,16.25s-4.79,24.43,5.05,30.19m36-13.35c-4.63,4.93-11.44,7.06-18,8.86-2.52.69-5.14,1.37-7.72.94s-5.11-2.28-5.47-4.87A42.54,42.54,0,0,1,556,266.43c2.9-1.15,6.27-1.95,9.06-.55,5.35,2.67,4.27,11.08.17,15.44m-38.56-5.41a36.12,36.12,0,0,1,25-22.75c2.36-.58,5-.89,7.1.3s3.17,4.41,1.44,6.11a6.64,6.64,0,0,1-3.73,1.37,41,41,0,0,0-26.6,16.76Z"/><path class="cls-2" d="M65,68.18a4,4,0,0,0-1.1,2.14,3.77,3.77,0,0,0,1.44,2.78c6.16,6,17.29,5.77,23-.58s4.74-17.67-2.22-22.69c-7.61-5.49-20.1-1.38-23,7.56A4.45,4.45,0,0,0,63,58.9c.09,2.39,3.45,3.41,5.57,2.28s3.26-3.43,4.47-5.5,2.9-4.2,5.28-4.49,4.84,2.68,3.29,4.51A44.25,44.25,0,0,0,65,68.18m14.18,5c-1.8.52-4.07-.24-4.65-2-1.22-3.75,5-5.39,6.69-9a4.09,4.09,0,0,1,3.8,4.55,7,7,0,0,1-1.53,3A8.9,8.9,0,0,1,79.22,73.14Z"/><path class="cls-2" d="M169,43.47c-6.07-.29-11.85,2.48-17.07,5.59-5.76,3.44-11.35,7.54-14.86,13.25S132.52,75.66,136,81.4c4.86,8.06,16.14,9.39,25.38,7.58,8-1.57,16-5.07,21-11.54a22.59,22.59,0,0,0,3.53-21.23c-2.61-7-9.48-12.39-17-12.75M146.11,75.58a57.76,57.76,0,0,1,23.5-15.87c2.7-1,5.88-1.68,8.29-.13,4.07,2.62,2.48,9-.48,12.85a31.13,31.13,0,0,1-24.87,11.86c-4-.09-9.22-2.88-7.83-6.66a6.7,6.7,0,0,1,1.39-2.06m18.28-26c2-.66,4.19-1.17,6.08-.29s2.86,3.74,1.28,5.09A50.12,50.12,0,0,0,148.1,65.23c-1.56,1.3-4.59,2.26-5,.27a2.82,2.82,0,0,1,.93-2.21,45.94,45.94,0,0,1,20.34-13.73Z"/><path class="cls-2" d="M440.45,302.18a15.06,15.06,0,0,0-2.83,8.26c-.05,6.18,4.9,11.62,10.75,13.6a18.24,18.24,0,0,0,16.88-2.68,15.83,15.83,0,0,0,5.62-15.88c-1.59-6.21-7.56-10.89-13.95-11.43a18.65,18.65,0,0,0-16.46,8.13m15.69,12c-.39-2.63,3.85-4.09,5.57-2.05s.47,5.51-2,6.62-5.37.26-7.45-1.4l3-3.06m-9.65-5a30.29,30.29,0,0,1,8.52-7.19c1.29-.08,2.16,1.51,1.87,2.77a6.31,6.31,0,0,1-2.29,3.05C451.44,310,447.42,311.87,445.69,309.28Z"/><path class="cls-2" d="M318.63,37.17c-1.28,2.55-2.17,5.45-1.58,8.24,1.06,5,6.44,7.89,11.48,8.77,5.63,1,11.71.24,16.46-2.95s7.84-9,6.92-14.67c-1.18-7.25-8.91-12.33-16.24-11.78s-13.74,5.82-17,12.39M342.14,45a12.27,12.27,0,0,1-7.53,3.95c-2.89.21-6-1.37-6.93-4.12a16.2,16.2,0,0,1,12.62-8.93,5.14,5.14,0,0,1,2.21.14C345.9,37.16,344.67,42.42,342.14,45Z"/><path class="cls-2" d="M233.8,645.86c1.1,6.5,6.66,11.57,12.87,13.78s13,2,19.57,1.39c4.08-.39,8.23-1,11.95-2.7a20.4,20.4,0,0,0,.36-36.81c-7.68-3.77-16.91-2.36-25,.52-5.29,1.89-10.48,4.46-14.38,8.51s-6.35,9.78-5.41,15.32m46-7.74c2.79,1.68,3.28,5.8,1.76,8.68s-4.49,4.7-7.48,6a37.54,37.54,0,0,1-23.91,1.83c-3.12-.8-6.83-3.45-5.54-6.41a43.36,43.36,0,0,1,30.89-11.09,9.09,9.09,0,0,1,4.29,1m-28.48-.57c-2.54,1.29-5.92,2.7-7.91.66,6.84-11,22.41-15.55,34.1-9.95l-.32,4.35A47.71,47.71,0,0,0,251.35,637.55Z"/><path class="cls-2" d="M33.58,500.85A16,16,0,0,0,25,511.19a13.31,13.31,0,0,0,3.67,12.7c4.23,3.88,10.55,4.24,16.28,3.92,5.53-.31,12.28-2.11,13.44-7.52a17.53,17.53,0,0,0-24.83-19.44M42.81,512c2.39,0,4.92.4,6.75,2s2.59,4.51,1.12,6.39c-2,2.59-6.05,1.46-9.32,1.7-1.8.13-3.68.74-5.34,0-2.62-1.12-2.86-5.12-1-7.28S40,512,42.81,512m-2.23-6.6a2.19,2.19,0,1,1-2.71,2.66l2.74-2.81Z"/><path class="cls-2" d="M336.67,672a30.27,30.27,0,0,0-10.22,2.71c-7.11,3.14-13.56,8.41-16.62,15.55s-2.07,16.25,3.55,21.61c4.87,4.64,12.07,5.78,18.79,5.94,4.87.11,9.86-.19,14.39-2,9.94-4,16.1-15.68,13.74-26.12S347.35,671.32,336.67,672m14.66,18.86c4.29,3.38,1.77,10.5-2.26,14.18a26.83,26.83,0,0,1-31.32,2.89,40.34,40.34,0,0,1,24.9-18c2.93-.69,6.31-.95,8.68.92m-8.91-13.35c3,1.1,5.29,4.59,4.11,7.57a34.84,34.84,0,0,0-29.3,11.11,2.13,2.13,0,0,1-1.9-1.83,3.94,3.94,0,0,1,.86-2.46,35.2,35.2,0,0,1,16.87-13.63C336,677.12,339.42,676.41,342.42,677.51Z"/><path class="cls-2" d="M215.48,471.93c-4.54,2.49-8.36,6.59-9.7,11.59s.16,10.86,4.27,14a15.42,15.42,0,0,0,9.2,2.81c7.21.1,14.64-3.64,17.87-10.09s1.28-15.37-4.94-19c-5-3-11.59-2.1-16.7.71m9.6,21.31a5.09,5.09,0,0,1-7.38-1.89A28.65,28.65,0,0,1,228.29,483c2.25.49,3,3.62,1.88,5.65s-3.28,3.17-5.34,4.19m.61-16.65a7.85,7.85,0,0,1-10,5.43,11.72,11.72,0,0,1,9.46-6.66Z"/><path class="cls-2" d="M496.23,600.22c-1.59,3.92-2.25,8.59-.1,12.23,1.42,2.4,3.86,4,6.32,5.33a51.48,51.48,0,0,0,35.8,4.65c5.42-1.29,11.44-4.49,12-10s-5-10.55-4.54-16.22c.33-3.84-2.66-7.17-5.86-9.32a29.39,29.39,0,0,0-43.6,13.37m44.26,5.88c2.46,2.58,1.46,7.13-1.22,9.47s-6.45,2.94-10,3.07A50.82,50.82,0,0,1,513,616.58c-3.75-1.11-8.07-3.79-7.51-7.66a7.6,7.6,0,0,1,2.89-4.37c9-7.73,24-7,32.12,1.56m-16.82-20a17.47,17.47,0,0,1,15.65,10.51c-5,1.55-9.86-3.25-15.11-3.38-5.65-.14-11,5.15-16.31,3.21A17.47,17.47,0,0,1,523.68,586.13Z"/><path class="cls-2" d="M771.59,688.78a24.73,24.73,0,0,0,1.44-18c-2-5.86-6.87-10.83-12.9-12.17-6.95-1.54-14.08,1.69-19.92,5.76-6.87,4.79-13.1,11.29-15,19.45s2,18,9.9,20.65c13.72,4.61,30.34-2.53,36.46-15.65m-8.24-16.31c4.26,2.65,3.79,9.09,1.62,13.62a30.11,30.11,0,0,1-14.61,14.3c-2.12,1-4.56,1.67-6.75.88s-3.69-3.66-2.35-5.56a112.56,112.56,0,0,1,22.08-23.25m-32.44,16c-.26-1.94.94-3.75,2.14-5.3a79,79,0,0,1,22.34-19.61,2.64,2.64,0,0,1,1.71,4.24l-21.94,22.71C733.81,692,731.18,690.45,730.92,688.51Z"/><path class="cls-2" d="M263.32,541.08c-2.08-7.73-10.73-12.64-18.67-11.64s-14.7,7.07-17.82,14.44c-.7,1.65-1.22,3.6-.38,5.17,4.37,8.12,13.76,13.76,22.85,12.22s16.41-11.28,14-20.19m-17.44,6.71c1.26-2.81,6.17-2,7.07,1s-1.59,6.14-4.59,6.82-6.15-.59-8.6-2.45a9,9,0,0,1,5.22-5.59m4.52-5.84a60.59,60.59,0,0,1-12.29.23c2.2-3.85,5.82-7.35,10.24-7.6a5.81,5.81,0,0,1,4.88,1.82c1.14,1.4,1.11,3.76-.36,4.81A5.27,5.27,0,0,1,249.51,541.68Z"/><path class="cls-2" d="M679,701.76c2.44-9.71-4.34-20.76-14.1-23s-20.65,4.81-22.64,14.63a26.11,26.11,0,0,0,23,18c3.22.17,6.61-.33,9.21-2.23a13,13,0,0,0,4.58-7.38m-24.7-9.24c2.35-1.5,5.42-.3,7.93.91,2.1,1,4.28,2.1,5.71,3.95s1.83,4.71.27,6.45c-1.79,2-5,1.56-7.53.77-2.75-.85-5.57-2.06-7.23-4.41s-1.58-6.12.85-7.66m14.64-4.79-.64,2.69a5.73,5.73,0,0,1-6.53-4.9l3.07-1.73,3.92,3.9Z"/><path class="cls-2" d="M492.89,461.85A21.68,21.68,0,0,0,486,427.51c-7.87-3.62-17.65-2-24.53,3.22S450.55,444.55,450,453.2a20.12,20.12,0,0,0,1.15,8.84c2.24,5.52,8,9.13,13.85,10s11.92-.67,17.37-3.08a31.18,31.18,0,0,0,10.51-7.09m-2.49-11a28.46,28.46,0,0,1-18.33,15.8c-3.51,1-7.92.9-10-2.09-2.92-4.23,1.31-9.64,5.21-13l9.21-7.93c3.72-3.2,9.29-6.48,13.06-3.33,2.9,2.43,2.36,7.07.84,10.54m-13.76-20.67c2.17.21,4.26,2.27,3.74,4.38a44.45,44.45,0,0,0-17.75,12.79,7,7,0,0,1-2.88,2.45c-1.21.41-2.86-.25-3-1.52a3,3,0,0,1,.5-1.6,40.6,40.6,0,0,1,13.29-14.43C472.39,431.08,474.46,430,476.63,430.21Z"/><path class="cls-2" d="M85.74,743.47c-3,8.2,3.58,17.09,11.34,21.08,5,2.55,10.8,3.89,16.18,2.39s10-6.32,10.11-11.9c.07-4.42-2.55-8.44-5.58-11.65-4.4-4.66-10.16-8.39-16.55-8.87s-13.29,2.94-15.49,9m28,4.78c1.84,2.84,3.56,6.93,1.08,9.24a36.61,36.61,0,0,0-18-14.17c1.16-3.51,6-4.55,9.35-3s5.53,4.82,7.54,7.92m-16.9,8.37c-3.71-.58-4.64-6.75-1.26-8.4a25.09,25.09,0,0,1,11.33,8.95c1.46,2.1-1.37,5-3.9,4.62s-4.31-2.62-5.84-4.68Z"/><path class="cls-2" d="M411,501.08c-4.59.69-8.67,3.25-12.33,6.1-5.48,4.28-10.5,9.62-12.53,16.26s-.41,14.77,5.26,18.8a19.51,19.51,0,0,0,10.31,3.11c8.45.46,17.23-2.32,23.19-8.34s8.64-15.38,5.86-23.37S419.39,499.83,411,501.08m-3.58,37.83c-3.32.75-8.11-.62-7.69-4a6,6,0,0,1,1.63-2.95,120.23,120.23,0,0,1,14.14-14.14c2.35-2,6.27-3.73,8.06-1.23a5.11,5.11,0,0,1,.58,3.54,22.19,22.19,0,0,1-16.73,18.77m5.39-33.27c2.81.31,4.5,4.85,1.88,5.92a41.09,41.09,0,0,0-20.58,18.65c-2.19-.11-3.49-2.78-3-4.92s2.11-3.8,3.68-5.33l10.78-10.53C407.6,507.46,410,505.34,412.83,505.64Z"/><path class="cls-2" d="M443.73,784.31a21.32,21.32,0,0,0-7.43-8.6c-6.92-4.23-16.1-2.14-23,2.13-6.19,3.82-11.51,9.55-13.36,16.58s.42,15.37,6.49,19.37c4.73,3.13,10.85,3.25,16.46,2.41,10.91-1.65,22.64-8.49,23.73-19.47a22.55,22.55,0,0,0-2.88-12.42M414.17,809.8c-1.23-2.31.35-5.07,2-7.12a79.66,79.66,0,0,1,18.51-17c5.07,2.8,5.65,10.38,2.59,15.29s-8.57,7.69-13.94,9.86c-3.13,1.27-7.56,2-9.14-1m14.52-27.11a51.12,51.12,0,0,0-19.15,17.39c-.74,1.13-2.71.52-3.2-.74a5,5,0,0,1,.59-3.89,32.47,32.47,0,0,1,19.59-16.92Z"/><path class="cls-2" d="M27.54,602.57c-5.18,4.92-8,13.14-4.51,19.36,3.82,6.75,12.9,8.15,20.65,7.73,3.54-.19,7.16-.63,10.3-2.28,6.16-3.24,9.25-11.1,7.48-17.83s-7.91-11.92-14.76-13.13a22.7,22.7,0,0,0-19.16,6.14M41.23,615c2.26-1,4.76-1.92,7.21-1.48s4.76,2.59,4.54,5.07a6.16,6.16,0,0,1-2.75,4.13,14,14,0,0,1-15.89.31A2.78,2.78,0,0,1,33,621.36c-.16-1.08.81-2,1.71-2.58A43.6,43.6,0,0,1,41.23,615m-7-3.65c-1.46.45-3.39.75-4.22-.53a16.59,16.59,0,0,1,16.19-9.55c2.58.23,5.7,2.91,3.93,4.8a3.93,3.93,0,0,1-1.78.91Z"/><path class="cls-2" d="M161.37,173c-4.61-4.5-10.39-8.14-16.8-8.85s-13.43,2-16.56,7.66c-4.2,7.58-.26,17.19,5.3,23.83,6.9,8.24,18.28,14.58,28.23,10.5a14.88,14.88,0,0,0,7.35-6.33,15.88,15.88,0,0,0,1.86-8.28c-.23-7.09-4.31-13.57-9.39-18.53m-27.64,11.59a5.68,5.68,0,0,1-.72-3.64c.87-3.56,6.24-2.64,9.27-.59a50,50,0,0,1,13,12.91,11.25,11.25,0,0,1,2.37,5.61c.11,2.05-1.09,4.31-3.1,4.74a6.27,6.27,0,0,1-4.26-1.1,40.25,40.25,0,0,1-16.58-17.92m9.83-10.44c-1.35-1.22-2.81-3.17-1.75-4.65s3.26-.79,4.82,0c9,4.81,18.15,13,17.49,23.19Z"/><path class="cls-2" d="M189.23,266.34A16,16,0,0,0,181.3,273c-3.71,6.67-.22,15.65,6.07,20s14.47,4.87,22.05,3.93c3.32-.41,7-1.3,8.81-4.08a10,10,0,0,0,1.42-5.09,22,22,0,0,0-30.43-21.39m17,18.05a6.21,6.21,0,0,1,2.62,3.27c.53,2.2-1.32,4.43-3.5,5s-4.51,0-6.61-.87a30.69,30.69,0,0,1-6.21-3.41c-2.75-2-5.23-6.11-2.7-8.35,1.27-1.12,3.18-1,4.84-.72a28.17,28.17,0,0,1,11.55,5m-4.7-7.45L195,274.18c0-3.74,5.12-5.63,8.49-4s5.21,5.24,6.83,8.61a9.68,9.68,0,0,1-8.69-1.91Z"/><path class="cls-2" d="M167.12,13.25c8.32,0,17-4.15,20.65-11.61s1-17.92-6.56-21.41c-5.29-2.44-11.64-1.23-16.8,1.48-5.33,2.8-10,7.37-11.67,13.16s.17,12.76,5.22,16a16.92,16.92,0,0,0,9.16,2.35m14-17.41a12.41,12.41,0,0,1-7.06,10.82A12.41,12.41,0,0,1,161.28,5a34.66,34.66,0,0,1,13.4-11.65c2-1,4.94-1.52,6.06.41a4,4,0,0,1,.41,2.1M175.7-16.63c1.9.7,3,3.48,1.49,4.83l-13.84,5c-.71-1.9.61-3.93,2.06-5.35a22,22,0,0,1,4.51-3.42C171.68-16.56,173.8-17.33,175.7-16.63Z"/><path class="cls-2" d="M397.46,289.07c-.62-10.19-11.81-17.66-21.92-16.21s-18.21,10-21.37,19.72a17.82,17.82,0,0,0-1,8.47,15.43,15.43,0,0,0,5,8.45c6.94,6.44,18.08,7.64,26.42,3.16s13.47-14.14,12.89-23.59m-16.05,3.78c1.67-.61,3.81-1,5,.3a3.67,3.67,0,0,1,.76,2.43c.06,6.21-6.47,10.19-12.25,12.45-3,1.19-7.22,1.92-8.93-.86s1.12-6.46,3.94-8.39a52.14,52.14,0,0,1,11.5-5.93m1.27-6.77-21.08,8.61a21.52,21.52,0,0,1,16.1-15.95c2-.43,4.27-.53,6,.56s2.66,3.71,1.35,5.31A5.75,5.75,0,0,1,382.69,286.08Z"/><path class="cls-2" d="M101.73,238.26c3.38-10-2-23.16-12.38-25-6.28-1.12-12.61,1.92-17.56,5.94s-9.3,10-8,16.27c1.08,5.31,6.07,9.11,11.32,10.44s10.77.65,16.14,0c2.51-.32,5.15-.7,7.14-2.25a11.07,11.07,0,0,0,3.37-5.34m-25-4.11c2.68-2.32,5.52-4.73,9-5.45s7.71.94,8.57,4.38c.7,2.81-1.13,5.78-3.63,7.24S85.1,242,82.21,242c-3.65,0-8.65-2.16-7.39-5.59a6,6,0,0,1,1.89-2.3m6.39-15.76a4.7,4.7,0,0,1,5.55,3.86,20.57,20.57,0,0,1-12.58,4.93,11.21,11.21,0,0,1,7.16-8.27Z"/><path class="cls-2" d="M660.37,396.29a21.27,21.27,0,0,0-38.84-1.7c-2.6,5.23-.09,11.91,4.44,15.6s10.56,4.95,16.38,5.43,12.31,0,16.21-4.29c3.58-3.94,3.76-10.09,1.81-15m-8.7,8.62c-.22,3.75-4.84,5.56-8.59,5.34a19.37,19.37,0,0,1-12.39-5.55,5,5,0,0,1-1.66-2.79c-.29-2.51,2.65-4.11,5.14-4.55a22.92,22.92,0,0,1,11.58,1c3,1.06,6.1,3.4,5.92,6.56m-4.22-14.25a3,3,0,0,1,1.17,4.43,70.67,70.67,0,0,1-12.17-2.39c1.36-4.34,8.09-5.63,11-2.1Z"/><path class="cls-2" d="M407.37,394.12a26,26,0,0,0,21.46-6.8c5.53-5.46,8-14,5.6-21.42s-9.83-13-17.6-12.72a23.82,23.82,0,0,0-7.3,1.63c-6.79,2.52-13.08,7.09-16.27,13.6s-2.67,15,2.34,20.26a19.83,19.83,0,0,0,11.77,5.46m10-23.16c2.56-1.42,5.9-2.53,8.26-.79,2.71,2,2.09,6.3.38,9.21a19.42,19.42,0,0,1-16.34,9.42c-3,0-6.68-1.63-6.38-4.58a5.8,5.8,0,0,1,1.58-3A44.58,44.58,0,0,1,417.34,371M405,373.25c-1.63,1.22-4.28,1.58-5.48-.06a37.71,37.71,0,0,1,17-15.21c2.07-.92,4.32,1.73,3.81,3.94s-2.65,3.64-4.76,4.46-4.41,1.29-6.23,2.64C407.76,370.21,406.66,372,405,373.25Z"/><path class="cls-2" d="M485.29,9.69a19.37,19.37,0,0,0-14.77,8.69c-3.1,5-3.18,12,.32,16.75a19.24,19.24,0,0,0,7.64,5.81,32.66,32.66,0,0,0,22,1.84,12.85,12.85,0,0,0,4.67-2.12c2.72-2.15,3.76-5.84,3.79-9.3.1-12-11.65-22.71-23.63-21.67m9.27,19.65c1.63.94,3.41,2.09,3.81,3.92.46,2.1-1.22,4.18-3.23,4.94s-4.23.53-6.36.29c-4.42-.5-10.05-2.23-10.19-6.68C478.49,28.5,482,26,485.34,26s6.36,1.68,9.22,3.34m-3-14.25c4.47,1.66,7.38,6.16,8.52,10.79L480,20.28C481.14,15.65,487.07,13.42,491.54,15.09Z"/><path class="cls-2" d="M142.48,701.22c10.79-1.16,22.81-6.84,24.76-17.52,1.52-8.32-4.35-16.94-12.3-19.86s-17.18-.72-24,4.34c-4.78,3.57-8.62,8.69-9.67,14.56s1.07,12.45,6,15.85c4.32,3,10,3.19,15.19,2.63m11.26-22.66a4.25,4.25,0,0,1,3.29-.88c1.45.44,2,2.23,2,3.75,0,4.7-3.08,9-7,11.52s-8.72,3.49-13.39,4c-1.49.16-2.6-1.61-2.36-3.1a7,7,0,0,1,2.44-3.69,88.09,88.09,0,0,1,15.07-11.58m-19.57,5.58c-2,1.44-4.43,2.95-6.66,2a31.22,31.22,0,0,1,16-17.66,7.64,7.64,0,0,1,4.78-.93c1.62.36,3,2,2.55,3.61a4.69,4.69,0,0,1-1.94,2.19Z"/><path class="cls-2" d="M735.57-33.52a15.28,15.28,0,0,0-7-3.51c-4.48-.85-9.06.89-13,3.2-7.25,4.27-13.45,11.12-14.87,19.41a15.53,15.53,0,0,0,2,11.2A16.15,16.15,0,0,0,708.9,2c9.65,4.94,22.7,2.41,29.34-6.16s5.58-22.3-2.67-29.33M727-18.88c1.76-1.79,4.16-3.72,6.5-2.81,2.86,1.11,2.71,5.25,1.5,8.07a24.58,24.58,0,0,1-9.11,10.85,9.8,9.8,0,0,1-6.24,2c-2.21-.24-4.35-2.11-4.22-4.32.09-1.58,1.22-2.88,2.3-4q4.57-4.92,9.28-9.71m-13.35,5c-1.86,1.78-5.34,3.37-6.52,1.07a52.79,52.79,0,0,1,13-15.66,7.24,7.24,0,0,1,4.35-2.05c1.64,0,3.33,1.56,2.84,3.12a4,4,0,0,1-1.19,1.6Z"/><path class="cls-2" d="M630.69,105.52c-2.48,2.57-4.55,5.74-5,9.3-.53,4.52,1.77,9.07,5.26,12a23.46,23.46,0,0,0,12.54,4.86c9.15,1,19.75-2.65,23.07-11.24s-2.51-18.74-11.06-21.78S637,99,630.69,105.52m8.62,13.2a19.57,19.57,0,0,1,13.06-4.7,6.89,6.89,0,0,1,2.67.48c3.54,1.57,2.94,7.32-.2,9.59s-7.37,2.06-11.22,1.69c-2.83-.27-6.55-1.66-6.09-4.46a4.67,4.67,0,0,1,1.78-2.6M637,111c2.33-6.58,10.61-10.32,17.09-7.72,2.48,1,4.75,4.31,2.73,6.06a4.66,4.66,0,0,1-2.88.8Z"/><path class="cls-2" d="M235.44,74.23c4.22,1.85,9.07,2.77,13.43,1.27,6.58-2.27,10.35-9.75,10-16.7s-4.12-13.31-8.69-18.57a23.78,23.78,0,0,0-6.55-5.62c-6.4-3.4-15-1.36-19.73,4.1s-5.8,13.66-3.29,20.46,8.22,12.16,14.87,15.07M226.7,55.45c-1.06-3-1.2-7.14,1.6-8.74,3.2-1.84,7,1.28,9,4.35a45.24,45.24,0,0,1,5.9,12.81,7.68,7.68,0,0,1,.21,4.75c-.57,1.51-2.42,2.63-3.85,1.87a27.41,27.41,0,0,1-12.88-15m12.76-16.6a22.16,22.16,0,0,1,12.47,24.36L240.33,45.76C238.92,43.64,237.6,40.58,239.46,38.85Z"/><path class="cls-2" d="M573.85,13.49c-2.61,3-4.63,6.8-4.5,10.78.16,4.75,3.46,9,7.61,11.32s9,2.95,13.79,2.92c5.68,0,11.72-1.1,15.89-5,5.12-4.73,6.11-13.09,2.79-19.22s-10.38-9.82-17.35-9.75-13.68,3.63-18.24,8.9M596.61,32a22.4,22.4,0,0,1-14.8-.63c-1.61-.65-3.36-1.8-3.43-3.54a4.59,4.59,0,0,1,1.64-3.2,20.75,20.75,0,0,1,15.89-6.08c3.15.2,6.68,1.55,7.62,4.56,1.25,4-2.92,7.67-6.92,8.9m-.68-18.78A7.41,7.41,0,0,1,586.6,15a4.83,4.83,0,0,1,9.33-2.26Z"/><path class="cls-2" d="M354.22,224c4.54-7,2.42-17.51-4.49-22.23-4.78-3.27-11.16-3.74-16.66-1.93a28.55,28.55,0,0,0-13.62,10.35c-2.92,3.93-5.12,9-3.72,13.65,2,6.65,10,9.33,17,9.44,8.16.13,17.1-2.42,21.52-9.29m-4.13-8.22c.57,1.95-.42,4-1.66,5.62-5.46,7.08-16.72,8.79-24,3.63,2.58-5.38,8.4-8.26,13.82-10.76a16,16,0,0,1,6.5-1.93c2.28,0,4.73,1.25,5.37,3.44m-10.68-6.49a34.83,34.83,0,0,1-9.88,4c1.52-3.48,3.28-7.23,6.68-8.94s8.67.3,8.5,4.1l-5.14,1.05Z"/><path class="cls-2" d="M272.62,116.51a13.84,13.84,0,0,0-1.31,9.14,16.34,16.34,0,0,0,3.77,6.61C281,139.11,290,143.77,299,142.6s17.07-9.28,16.51-18.31c-.3-4.81-2.87-9.28-6.34-12.62a24.77,24.77,0,0,0-19.61-6.88,21.7,21.7,0,0,0-16.9,11.73m22.53,7.74c3.3,3,6.75,7.19,5.36,11.43-8,3.86-18.95-1.59-20.69-10.31-.67-3.35,3.12-6.24,6.53-6s6.27,2.57,8.8,4.87m4.42-11.89A18.94,18.94,0,0,1,308.4,127a57.74,57.74,0,0,1-14-10.25,4.45,4.45,0,0,1-1.67-3C292.72,110.95,297.13,110.87,299.57,112.36Z"/><path class="cls-2" d="M202.21,380.25a15.66,15.66,0,0,0,.3,9c2.55,6.67,10.68,9.39,17.82,9.28,7.33-.11,15.13-2.71,19.24-8.78,4.29-6.34,3.32-15.57-1.85-21.22s-13.89-7.51-21.1-5a23.28,23.28,0,0,0-14.41,16.64m22.38,11.34c-2.71,1-5.63,1.94-8.46,1.33s-5.41-3.33-4.83-6.16c.38-1.84,1.9-3.19,3.4-4.31a43.28,43.28,0,0,1,8.67-5c3-1.28,6.74-2.12,9.24,0s2.28,6.35.28,9-5.21,4-8.31,5.19m-.28-23.11a2.3,2.3,0,0,1,.52,3.64,30.71,30.71,0,0,1-9.74,2.37,7.36,7.36,0,0,1,9.3-6.22Z"/><path class="cls-2" d="M214.76,123.81a19.82,19.82,0,0,0-15.4,4.83c-4,3.79-6,9.86-4.38,15.15,1.52,4.86,5.7,8.44,10.15,10.91a41.71,41.71,0,0,0,20.53,5.22c2.29,0,4.76-.3,6.5-1.79a9.06,9.06,0,0,0,2.49-4.31,23.24,23.24,0,0,0-19.9-30m-12.45,18.42c-.22-3.41,3.82-5.81,7.19-5.27s6.07,3,8.54,5.35l5.85,5.54c1.08,1,2.24,2.22,2.25,3.71,0,2.84-3.85,3.82-6.67,3.4a24.53,24.53,0,0,1-15.27-8.76,7.34,7.34,0,0,1-1.89-4m23.5-3.09L210,131.69c-.53-1.54.7-3.27,2.25-3.77a6.72,6.72,0,0,1,4.74.61A16,16,0,0,1,225.81,139.14Z"/><path class="cls-2" d="M604.23,326.71a17.88,17.88,0,0,0-8-9.59c-5-2.71-11.44-2.21-16.46.54s-8.74,7.51-11.06,12.74c-2.19,4.94-3.21,10.69-1.29,15.74,3,7.81,12.57,11.72,20.73,10,12.37-2.68,20.49-17.53,16.05-29.39M582.43,344.5l8.22-12.1c1.38-2,3.79-4.34,5.91-3.08,1.15.69,1.54,2.16,1.66,3.5a17.26,17.26,0,0,1-11.15,17.31c-2.14.75-5.18.64-5.89-1.52-.46-1.42.41-2.89,1.25-4.12m7.69-22-14.36,18.89c-1.4.11-2.5-1.38-2.53-2.78a7.83,7.83,0,0,1,1.39-3.92C578.11,328.6,583.18,321.69,590.12,322.46Z"/><path class="cls-2" d="M383.32,445.44c6-5.68,5.28-16.28-.29-22.39s-14.62-8.12-22.81-7c-6.15.87-12.53,3.77-15.24,9.35-3,6.12-.49,13.91,4.59,18.44s12.15,6.21,19,6.24c5.3,0,10.95-1,14.8-4.67m-14.75-12.86a14.84,14.84,0,0,1,5.85,3.41c1.54,1.68,2.2,4.39.91,6.27s-3.66,2.21-5.82,2.2a25.23,25.23,0,0,1-9.6-1.94c-2.56-1.07-5.22-3-5.42-5.75-.22-2.94,2.6-5.39,5.51-5.84s5.82.59,8.57,1.65m1.5-12.43a12.26,12.26,0,0,1,9,11.25,51,51,0,0,0-22.21-5.7A12.26,12.26,0,0,1,370.06,420.15Z"/><path class="cls-2" d="M-12.35-16.75c-3.76,3.09.85,9.49-1.08,14C-14.52-.28-17.39.88-20,1.8L-32.34,6.15l.19,3.63C-24.41,14.95-11.72,13-7.62,21.36c1.25,2.55,1.29,5.5,1.75,8.3s1.6,5.8,4.13,7.1,6.45-.49,6.11-3.31a17.13,17.13,0,0,1,8-16.29,29.5,29.5,0,0,0,20,4.26c.39-3.58-2.42-6.75-5.48-8.66s-6.59-3.13-9.21-5.6-4-6.9-1.67-9.65a17,17,0,0,0,3.33-15.25c-5.68-1.77-9.16,7.93-15.11,8-3.22,0-5.6-2.79-7.93-5s-6.09-4-8.57-2"/><path class="cls-2" d="M2,246.53c2,.36,3.66,1.86,5.29,3.14s3.64,2.46,5.67,2,3.35-3.38,1.72-4.67c-2.52-2-2.25-6.15-.3-8.71s5.06-3.92,8-5.17c2.52-1.07.51-5.27-2.2-5.63s-5.37,1.1-8.1,1c-5.62-.3-8.52-6.7-10.19-12.07-2.5-1.26-5.26,1.3-6.46,3.83s-2.14,5.62-4.75,6.65c-2.27.9-4.83-.22-7.27,0s-4.75,3.54-2.7,4.87a15.26,15.26,0,0,1,5.21,18.9c4.9,3,10.37-5.1,16-4.1"/><path class="cls-2" d="M-20.94,537.51c-2.53,1.31-5.57.13-8.42.17s-6.13,3-4.38,5.27a11.57,11.57,0,0,1,10.86,4.71,11.57,11.57,0,0,1,.72,11.81c-1.1,2.06,2,4.15,4.25,3.41s3.64-2.85,5.5-4.26,5.07-1.8,6.13.28c2,3.94,8.08,5,11.25,1.88-3.78-2.48-4.28-8.19-2.12-12.16s6.26-6.5,10.37-8.38c2.38-1.09,1.12-5.15-1.4-5.87s-5.1.6-7.46,1.72-5.23,2.08-7.48.74c-4.07-2.43-3-10.48-7.68-11.22-2.75-.43-4.87,2.38-5.86,5s-1.81,5.64-4.28,6.92"/><path class="cls-2" d="M537.39,2.9c1.87-8.35,14-12.08,20.26-6.2,2.39,2.26,6.58-.94,6.44-4.23s-2.69-5.89-5-8.27-4.55-5.39-4-8.63c.65-3.64,4.46-5.61,7.53-7.67s6-6,4-9.15c-2.87-4.53-9.57-.07-14.87.75-6.28,1-11.9-4.19-15-9.74-1.48-2.65-2.73-5.58-5.13-7.43s-6.47-2-8,.62a7.16,7.16,0,0,0-.77,3.13c-.46,6,.36,12.1-1.15,17.89s-6.42,11.42-12.39,10.94c-2.45-.2-3.74,3.37-2.4,5.43s4,2.76,6.46,3,5,.28,7.14,1.56c3.05,1.87,4.07,5.78,4.61,9.32s1,7.41,3.53,9.94,7.93,2.21,8.71-1.28"/><path class="cls-2" d="M443.73-15.69a21.32,21.32,0,0,0-7.43-8.6c-6.92-4.23-16.1-2.14-23,2.13-6.19,3.82-11.51,9.55-13.36,16.58s.42,15.37,6.49,19.37c4.73,3.13,10.85,3.25,16.46,2.41,10.91-1.65,22.64-8.49,23.73-19.47a22.55,22.55,0,0,0-2.88-12.42M414.17,9.8c-1.23-2.31.35-5.07,2-7.12a79.66,79.66,0,0,1,18.51-17C439.72-11.56,440.3-4,437.24.94s-8.57,7.69-13.94,9.86c-3.13,1.27-7.56,2-9.14-1m14.52-27.11A51.12,51.12,0,0,0,409.54.07c-.74,1.13-2.71.52-3.2-.74a5,5,0,0,1,.59-3.89,32.47,32.47,0,0,1,19.59-16.92Z"/></pattern></defs><title>banner</title><g id="Layer_2" data-name="Layer 2"><g id="Layer_2-2" data-name="Layer 2"><rect class="cls-3" width="1440" height="639"/><rect class="cls-4" width="1440" height="639"/></g></g></svg>