<svg xmlns="http://www.w3.org/2000/svg" xmlns:xlink="http://www.w3.org/1999/xlink" viewBox="0 0 453.62 198.55"><defs><style>.cls-1{fill:#b5c024;}.cls-2{fill:#619338;}.cls-3{fill:#dcd891;}.cls-4{clip-path:url(#clip-path);}</style><clipPath id="clip-path"><path class="cls-1" d="M440.67,7.85A2.36,2.36,0,0,0,437.52,5c-19.79,8.4-44.29,4.2-64.35,12.8a50.59,50.59,0,0,0-24.31,21.85,47.2,47.2,0,0,0-5.4,28.68,6.54,6.54,0,0,0,2.78,4.53c15.59,10.7,37.35,12.25,54.33,3.57,16.63-8.5,27.2-25.15,32.57-42.4C435.81,25.45,438.09,16.52,440.67,7.85Z"/></clipPath></defs><title>logo</title><g id="Layer_2" data-name="Layer 2"><g id="render"><path class="cls-2" d="M338.59,75.78c1,3.29,2.84,6.4,4.36,9.47,1.68,3.39,2.69,7.28,6,9.53a22.85,22.85,0,0,0,6.69,2.84c18.49,5.38,38.05,5,55.51-3.63a64.21,64.21,0,0,0,23.3-19.51q1.86-2.53,3.48-5.23,1.21-2,2.31-4.12a117.61,117.61,0,0,0,10.18-29.6c1.11-5.14,2-10.33,2.78-15.54.75-5,1.08-8.61-2.86-12.37L449.66,7c-.33-.3-5.46-4.34-5.7-4C415.55,40.51,383.29,61.07,338.59,75.78Z"/><path class="cls-3" d="M446.56,12A9.59,9.59,0,0,0,434.88.3c-20.37,5.08-43.37,2.91-62.78,11.63A58.82,58.82,0,0,0,338,73.56a6.86,6.86,0,0,0,2.74,4.61c18,13.18,43.27,15.16,63,4.6C422.83,72.5,435,52.37,441.19,31.54,443.09,25.14,444.82,18.58,446.56,12Z"/><path class="cls-1" d="M440.67,7.85A2.36,2.36,0,0,0,437.52,5c-19.79,8.4-44.29,4.2-64.35,12.8a50.59,50.59,0,0,0-24.31,21.85,47.2,47.2,0,0,0-5.4,28.68,6.54,6.54,0,0,0,2.78,4.53c15.59,10.7,37.35,12.25,54.33,3.57,16.63-8.5,27.2-25.15,32.57-42.4C435.81,25.45,438.09,16.52,440.67,7.85Z"/><g class="cls-4"><path class="cls-2" d="M334.26,71.33a.72.72,0,0,1-.31-1,51.45,51.45,0,0,1,4.12-5.88,55.9,55.9,0,0,1,5.28-5.56,67.31,67.31,0,0,1,11.83-8.55c8.26-4.76,16.88-7.73,25.27-10.35s16.7-4.85,24.66-7.95a88.24,88.24,0,0,0,13.13-6.26,1,1,0,0,1,1.12,1.6,91.13,91.13,0,0,1-12.26,8.7c-7.59,4.58-15.61,8.32-23.26,12.25s-15,8.06-21,13.14C357,66.31,352.31,72.07,350,78.07a.7.7,0,0,1-1,.39Z"/></g><path class="cls-2" d="M0,128.45V38.75c0-3.74,2.08-6,5.82-6h6.1c3.74,0,6,2.22,6,6v4.58c5.82-8.6,14.42-12.06,23.85-12.06C62.11,31.26,76,47.48,76,68s-13.86,36.74-34.24,36.74c-9.43,0-18-3.47-23.85-12.06v35.77c0,3.74-2.22,5.82-6,5.82H5.82C2.08,134.27,0,132.19,0,128.45ZM58.09,68c0-11.92-7.21-21.91-19.83-21.91-12.34,0-20.66,9.29-20.8,21.91.14,12.62,8.46,21.91,20.8,21.91C50.88,89.91,58.09,80.06,58.09,68Z"/><path class="cls-2" d="M82.35,97.39V8.8C82.35,5.06,84.43,3,88.18,3h6.24c3.74,0,5.82,2.08,5.82,5.82V97.39c0,3.74-2.08,5.82-5.82,5.82H88.18C84.43,103.22,82.35,101.14,82.35,97.39Z"/><path class="cls-2" d="M106.61,68c0-20.52,14-36.74,34.38-36.74,9.29,0,17.88,3.47,23.85,12.06V38.75c0-3.74,2.08-6,5.82-6h6.1c3.74,0,6,2.22,6,6V97.39c0,3.74-2.22,5.82-6,5.82h-6.1c-3.74,0-5.82-2.08-5.82-5.82V92.68c-6,8.6-14.56,12.06-23.85,12.06C120.62,104.74,106.61,88.52,106.61,68Zm58.51,0C165,55.38,156.8,46.1,144.46,46.1c-12.62,0-20,10-20,21.91s7.35,21.91,20,21.91C156.8,89.91,165,80.62,165.12,68Z"/><path class="cls-2" d="M193.4,97.39V38.75c0-3.74,2.08-6,5.82-6h6.1c3.74,0,6,2.22,6,6v6.52c3.19-8.87,11.51-14,22.32-14C250.8,31.26,260,43.74,260,63V97.39c0,3.74-2.22,5.82-6,5.82h-6.1c-3.74,0-5.82-2.08-5.82-5.82V63.84c0-12.06-5.27-17.61-12.62-17.61s-18.16,5.41-18.16,22.6V97.39c0,3.74-2.22,5.82-6,5.82h-6.1C195.48,103.22,193.4,101.14,193.4,97.39Z"/><path class="cls-2" d="M273,80.34v-34h-7.76A2.86,2.86,0,0,1,262,43.18V36a2.92,2.92,0,0,1,3.19-3.19h8.6l2.5-15.11a4.5,4.5,0,0,1,4.85-4.16H286c2.91,0,4.58,1.66,4.58,4.58v14.7h17.47A2.92,2.92,0,0,1,311.25,36v7.21a2.86,2.86,0,0,1-3.19,3.19H290.59V81c0,6.38,3.19,8.87,6.93,8.87A6.73,6.73,0,0,0,304.59,83a16.81,16.81,0,0,0-.14-2.5c-.28-2.22.42-3.47,2.63-3.47h7.35c1.8,0,3.19.69,3.6,2.5a28,28,0,0,1,.69,5.27c0,13-9.15,20-22.32,20C284.77,104.74,273,99.2,273,80.34Z"/><path class="cls-2" d="M43.09,191.2V132.56c0-3.74,2.08-6,5.82-6H55c3.74,0,6,2.22,6,6v6.52c2.77-9,11.09-14,20.52-14,7.49,0,16.36,2.91,21.21,13.45,6.38-11.37,15.11-13.45,23.29-13.45,17.47,0,26.34,12.62,26.34,31.89V191.2c0,3.74-2.08,5.82-5.82,5.82h-6.1c-3.74,0-6-2.08-6-5.82V157.37c0-11.92-5-17.33-11.92-17.33-6.24,0-15.39,4.58-15.81,21.21V191.2c0,3.74-2.22,5.82-6,5.82h-6.1c-3.74,0-5.82-2.08-5.82-5.82V157.37c0-11.92-5.13-17.33-12.06-17.33-6.65,0-15.8,5.13-15.8,22.32V191.2c0,3.74-2.22,5.82-6,5.82h-6.1C45.17,197,43.09,194.95,43.09,191.2Z"/><path class="cls-2" d="M157.33,162.09c0-20.1,15.39-37,38.26-37,18.86,0,35.21,11.37,36.6,33.83.28,3.6-2.08,5.54-5.82,5.54H174.66c-.28,10.68,9.15,19.41,23.71,19.41a31.77,31.77,0,0,0,17.33-5.13c3-1.8,5.82-1.52,8.18,1.11l1.25,1.52c2.5,2.77,2.36,6.24-1.11,8.87-8,6.24-17.61,8.32-26.48,8.32C172.58,198.55,157.33,182.19,157.33,162.09ZM215,153.21c-2.77-11.09-11.65-13.86-19.13-13.86-7.76,0-17.05,3.19-20.38,13.86Z"/><path class="cls-2" d="M236.21,161.81c0-20.52,14-36.74,34.38-36.74,9.29,0,17.88,3.47,23.85,12.06v-4.57c0-3.74,2.08-6,5.82-6h6.1c3.74,0,6,2.22,6,6V191.2c0,3.74-2.22,5.82-6,5.82h-6.1c-3.74,0-5.82-2.08-5.82-5.82v-4.71c-6,8.6-14.56,12.06-23.85,12.06C250.21,198.55,236.21,182.33,236.21,161.81Zm58.51,0c-.14-12.62-8.32-21.91-20.66-21.91-12.62,0-20,10-20,21.91s7.35,21.91,20,21.91C286.4,183.72,294.58,174.43,294.72,161.81Z"/><path class="cls-2" d="M327,174.15v-34h-7.76a2.86,2.86,0,0,1-3.19-3.19v-7.21a2.92,2.92,0,0,1,3.19-3.19h8.6l2.5-15.11a4.5,4.5,0,0,1,4.85-4.16h4.85c2.91,0,4.58,1.66,4.58,4.58v14.7H362.1a2.92,2.92,0,0,1,3.19,3.19V137a2.86,2.86,0,0,1-3.19,3.19H344.63v34.66c0,6.38,3.19,8.87,6.93,8.87a6.73,6.73,0,0,0,7.07-6.93,16.83,16.83,0,0,0-.14-2.5c-.28-2.22.42-3.47,2.63-3.47h7.35c1.8,0,3.19.69,3.61,2.5a27.92,27.92,0,0,1,.69,5.27c0,13-9.15,20-22.32,20C338.81,198.55,327,193,327,174.15Z"/></g></g></svg>