<svg xmlns="http://www.w3.org/2000/svg" viewBox="0 0 1441.96 640.68"><defs><style>.cls-1{fill:#e90e8b;}.cls-2{fill:#f07baf;}.cls-3{fill:#00aeef;}</style></defs><title>banner</title><g id="Layer_2" data-name="Layer 2"><g id="Layer_2-2" data-name="Layer 2"><rect class="cls-1" x="0.96" y="0.9" width="1439.95" height="639.06"/><path class="cls-2" d="M34.73,34.73H0V0H34.73ZM2,32.73H32.73V2H2Z"/><path class="cls-2" d="M67.45,34.73H32.73V0H67.45Zm-32.73-2H65.45V2H34.73Z"/><path class="cls-2" d="M100.18,34.73H65.45V0h34.73Zm-32.73-2H98.18V2H67.45Z"/><path class="cls-2" d="M132.9,34.73H98.18V0H132.9Zm-32.73-2H130.9V2H100.18Z"/><path class="cls-2" d="M165.63,34.73H130.9V0h34.73Zm-32.73-2h30.73V2H132.9Z"/><path class="cls-2" d="M198.36,34.73H163.63V0h34.73Zm-32.73-2h30.73V2H165.63Z"/><path class="cls-2" d="M231.08,34.73H196.36V0h34.73Zm-32.73-2h30.73V2H198.36Z"/><path class="cls-2" d="M263.81,34.73H229.08V0h34.73Zm-32.73-2h30.73V2H231.08Z"/><path class="cls-2" d="M296.54,34.73H261.81V0h34.73Zm-32.73-2h30.73V2H263.81Z"/><path class="cls-2" d="M329.26,34.73H294.54V0h34.73Zm-32.73-2h30.73V2H296.54Z"/><path class="cls-2" d="M362,34.73H327.26V0H362Zm-32.73-2H360V2H329.26Z"/><path class="cls-2" d="M394.72,34.73H360V0h34.73Zm-32.73-2h30.73V2H362Z"/><path class="cls-2" d="M427.44,34.73H392.72V0h34.73Zm-32.73-2h30.73V2H394.72Z"/><path class="cls-2" d="M460.17,34.73H425.44V0h34.73Zm-32.73-2h30.73V2H427.44Z"/><path class="cls-2" d="M492.89,34.73H458.17V0h34.73Zm-32.73-2h30.73V2H460.17Z"/><path class="cls-2" d="M525.62,34.73H490.89V0h34.73Zm-32.73-2h30.73V2H492.89Z"/><path class="cls-2" d="M558.35,34.73H523.62V0h34.73Zm-32.73-2h30.73V2H525.62Z"/><path class="cls-2" d="M591.07,34.73H556.35V0h34.73Zm-32.73-2h30.73V2H558.35Z"/><path class="cls-2" d="M623.8,34.73H589.07V0H623.8Zm-32.73-2H621.8V2H591.07Z"/><path class="cls-2" d="M656.53,34.73H621.8V0h34.73Zm-32.73-2h30.73V2H623.8Z"/><path class="cls-2" d="M689.25,34.73H654.53V0h34.73Zm-32.73-2h30.73V2H656.53Z"/><path class="cls-2" d="M722,34.73H687.25V0H722Zm-32.73-2H720V2H689.25Z"/><path class="cls-2" d="M754.7,34.73H720V0H754.7Zm-32.73-2H752.7V2H722Z"/><path class="cls-2" d="M787.43,34.73H752.7V0h34.73Zm-32.73-2h30.73V2H754.7Z"/><path class="cls-2" d="M820.16,34.73H785.43V0h34.73Zm-32.73-2h30.73V2H787.43Z"/><path class="cls-2" d="M852.88,34.73H818.16V0h34.73Zm-32.73-2h30.73V2H820.16Z"/><path class="cls-2" d="M885.61,34.73H850.88V0h34.73Zm-32.73-2h30.73V2H852.88Z"/><path class="cls-2" d="M918.34,34.73H883.61V0h34.73Zm-32.73-2h30.73V2H885.61Z"/><path class="cls-2" d="M951.06,34.73H916.34V0h34.73Zm-32.73-2h30.73V2H918.34Z"/><path class="cls-2" d="M983.79,34.73H949.06V0h34.73Zm-32.73-2h30.73V2H951.06Z"/><path class="cls-2" d="M1016.52,34.73H981.79V0h34.73Zm-32.73-2h30.73V2H983.79Z"/><path class="cls-2" d="M1049.24,34.73h-34.73V0h34.73Zm-32.73-2h30.73V2h-30.73Z"/><path class="cls-2" d="M1082,34.73h-34.73V0H1082Zm-32.73-2H1080V2h-30.73Z"/><path class="cls-2" d="M1114.69,34.73H1080V0h34.73Zm-32.73-2h30.73V2H1082Z"/><path class="cls-2" d="M1147.42,34.73h-34.73V0h34.73Zm-32.73-2h30.73V2h-30.73Z"/><path class="cls-2" d="M1180.15,34.73h-34.73V0h34.73Zm-32.73-2h30.73V2h-30.73Z"/><path class="cls-2" d="M1212.87,34.73h-34.73V0h34.73Zm-32.73-2h30.73V2h-30.73Z"/><path class="cls-2" d="M1245.6,34.73h-34.73V0h34.73Zm-32.73-2h30.73V2h-30.73Z"/><path class="cls-2" d="M1278.32,34.73H1243.6V0h34.73Zm-32.73-2h30.73V2H1245.6Z"/><path class="cls-2" d="M1311.05,34.73h-34.73V0h34.73Zm-32.73-2h30.73V2h-30.73Z"/><path class="cls-2" d="M1343.78,34.73h-34.73V0h34.73Zm-32.73-2h30.73V2h-30.73Z"/><path class="cls-2" d="M1376.5,34.73h-34.73V0h34.73Zm-32.73-2h30.73V2h-30.73Z"/><path class="cls-2" d="M1409.23,34.73H1374.5V0h34.73Zm-32.73-2h30.73V2H1376.5Z"/><path class="cls-2" d="M1442,34.73h-34.73V0H1442Zm-32.73-2H1440V2h-30.73Z"/><path class="cls-2" d="M34.73,67.45H0V32.73H34.73ZM2,65.45H32.73V34.73H2Z"/><path class="cls-2" d="M67.45,67.45H32.73V32.73H67.45Zm-32.73-2H65.45V34.73H34.73Z"/><path class="cls-2" d="M100.18,67.45H65.45V32.73h34.73Zm-32.73-2H98.18V34.73H67.45Z"/><path class="cls-2" d="M132.9,67.45H98.18V32.73H132.9Zm-32.73-2H130.9V34.73H100.18Z"/><path class="cls-2" d="M165.63,67.45H130.9V32.73h34.73Zm-32.73-2h30.73V34.73H132.9Z"/><path class="cls-2" d="M198.36,67.45H163.63V32.73h34.73Zm-32.73-2h30.73V34.73H165.63Z"/><path class="cls-2" d="M231.08,67.45H196.36V32.73h34.73Zm-32.73-2h30.73V34.73H198.36Z"/><path class="cls-2" d="M263.81,67.45H229.08V32.73h34.73Zm-32.73-2h30.73V34.73H231.08Z"/><path class="cls-2" d="M296.54,67.45H261.81V32.73h34.73Zm-32.73-2h30.73V34.73H263.81Z"/><path class="cls-2" d="M329.26,67.45H294.54V32.73h34.73Zm-32.73-2h30.73V34.73H296.54Z"/><path class="cls-2" d="M362,67.45H327.26V32.73H362Zm-32.73-2H360V34.73H329.26Z"/><path class="cls-2" d="M394.72,67.45H360V32.73h34.73Zm-32.73-2h30.73V34.73H362Z"/><path class="cls-2" d="M427.44,67.45H392.72V32.73h34.73Zm-32.73-2h30.73V34.73H394.72Z"/><path class="cls-2" d="M460.17,67.45H425.44V32.73h34.73Zm-32.73-2h30.73V34.73H427.44Z"/><path class="cls-2" d="M492.89,67.45H458.17V32.73h34.73Zm-32.73-2h30.73V34.73H460.17Z"/><path class="cls-2" d="M525.62,67.45H490.89V32.73h34.73Zm-32.73-2h30.73V34.73H492.89Z"/><path class="cls-2" d="M558.35,67.45H523.62V32.73h34.73Zm-32.73-2h30.73V34.73H525.62Z"/><path class="cls-2" d="M591.07,67.45H556.35V32.73h34.73Zm-32.73-2h30.73V34.73H558.35Z"/><path class="cls-2" d="M623.8,67.45H589.07V32.73H623.8Zm-32.73-2H621.8V34.73H591.07Z"/><path class="cls-2" d="M656.53,67.45H621.8V32.73h34.73Zm-32.73-2h30.73V34.73H623.8Z"/><path class="cls-2" d="M689.25,67.45H654.53V32.73h34.73Zm-32.73-2h30.73V34.73H656.53Z"/><path class="cls-2" d="M722,67.45H687.25V32.73H722Zm-32.73-2H720V34.73H689.25Z"/><path class="cls-2" d="M754.7,67.45H720V32.73H754.7Zm-32.73-2H752.7V34.73H722Z"/><path class="cls-2" d="M787.43,67.45H752.7V32.73h34.73Zm-32.73-2h30.73V34.73H754.7Z"/><path class="cls-2" d="M820.16,67.45H785.43V32.73h34.73Zm-32.73-2h30.73V34.73H787.43Z"/><path class="cls-2" d="M852.88,67.45H818.16V32.73h34.73Zm-32.73-2h30.73V34.73H820.16Z"/><path class="cls-2" d="M885.61,67.45H850.88V32.73h34.73Zm-32.73-2h30.73V34.73H852.88Z"/><path class="cls-2" d="M918.34,67.45H883.61V32.73h34.73Zm-32.73-2h30.73V34.73H885.61Z"/><path class="cls-2" d="M951.06,67.45H916.34V32.73h34.73Zm-32.73-2h30.73V34.73H918.34Z"/><path class="cls-2" d="M983.79,67.45H949.06V32.73h34.73Zm-32.73-2h30.73V34.73H951.06Z"/><path class="cls-2" d="M1016.52,67.45H981.79V32.73h34.73Zm-32.73-2h30.73V34.73H983.79Z"/><path class="cls-2" d="M1049.24,67.45h-34.73V32.73h34.73Zm-32.73-2h30.73V34.73h-30.73Z"/><path class="cls-2" d="M1082,67.45h-34.73V32.73H1082Zm-32.73-2H1080V34.73h-30.73Z"/><path class="cls-2" d="M1114.69,67.45H1080V32.73h34.73Zm-32.73-2h30.73V34.73H1082Z"/><path class="cls-2" d="M1147.42,67.45h-34.73V32.73h34.73Zm-32.73-2h30.73V34.73h-30.73Z"/><path class="cls-2" d="M1180.15,67.45h-34.73V32.73h34.73Zm-32.73-2h30.73V34.73h-30.73Z"/><path class="cls-2" d="M1212.87,67.45h-34.73V32.73h34.73Zm-32.73-2h30.73V34.73h-30.73Z"/><path class="cls-2" d="M1245.6,67.45h-34.73V32.73h34.73Zm-32.73-2h30.73V34.73h-30.73Z"/><path class="cls-2" d="M1278.32,67.45H1243.6V32.73h34.73Zm-32.73-2h30.73V34.73H1245.6Z"/><path class="cls-2" d="M1311.05,67.45h-34.73V32.73h34.73Zm-32.73-2h30.73V34.73h-30.73Z"/><path class="cls-2" d="M1343.78,67.45h-34.73V32.73h34.73Zm-32.73-2h30.73V34.73h-30.73Z"/><path class="cls-2" d="M1376.5,67.45h-34.73V32.73h34.73Zm-32.73-2h30.73V34.73h-30.73Z"/><path class="cls-2" d="M1409.23,67.45H1374.5V32.73h34.73Zm-32.73-2h30.73V34.73H1376.5Z"/><path class="cls-2" d="M1442,67.45h-34.73V32.73H1442Zm-32.73-2H1440V34.73h-30.73Z"/><path class="cls-2" d="M34.73,100.18H0V65.45H34.73ZM2,98.18H32.73V67.45H2Z"/><path class="cls-2" d="M67.45,100.18H32.73V65.45H67.45Zm-32.73-2H65.45V67.45H34.73Z"/><path class="cls-2" d="M100.18,100.18H65.45V65.45h34.73Zm-32.73-2H98.18V67.45H67.45Z"/><path class="cls-2" d="M132.9,100.18H98.18V65.45H132.9Zm-32.73-2H130.9V67.45H100.18Z"/><path class="cls-2" d="M165.63,100.18H130.9V65.45h34.73Zm-32.73-2h30.73V67.45H132.9Z"/><path class="cls-2" d="M198.36,100.18H163.63V65.45h34.73Zm-32.73-2h30.73V67.45H165.63Z"/><path class="cls-2" d="M231.08,100.18H196.36V65.45h34.73Zm-32.73-2h30.73V67.45H198.36Z"/><path class="cls-2" d="M263.81,100.18H229.08V65.45h34.73Zm-32.73-2h30.73V67.45H231.08Z"/><path class="cls-2" d="M296.54,100.18H261.81V65.45h34.73Zm-32.73-2h30.73V67.45H263.81Z"/><path class="cls-2" d="M329.26,100.18H294.54V65.45h34.73Zm-32.73-2h30.73V67.45H296.54Z"/><path class="cls-2" d="M362,100.18H327.26V65.45H362Zm-32.73-2H360V67.45H329.26Z"/><path class="cls-2" d="M394.72,100.18H360V65.45h34.73Zm-32.73-2h30.73V67.45H362Z"/><path class="cls-2" d="M427.44,100.18H392.72V65.45h34.73Zm-32.73-2h30.73V67.45H394.72Z"/><path class="cls-2" d="M460.17,100.18H425.44V65.45h34.73Zm-32.73-2h30.73V67.45H427.44Z"/><path class="cls-2" d="M492.89,100.18H458.17V65.45h34.73Zm-32.73-2h30.73V67.45H460.17Z"/><path class="cls-2" d="M525.62,100.18H490.89V65.45h34.73Zm-32.73-2h30.73V67.45H492.89Z"/><path class="cls-2" d="M558.35,100.18H523.62V65.45h34.73Zm-32.73-2h30.73V67.45H525.62Z"/><path class="cls-2" d="M591.07,100.18H556.35V65.45h34.73Zm-32.73-2h30.73V67.45H558.35Z"/><path class="cls-2" d="M623.8,100.18H589.07V65.45H623.8Zm-32.73-2H621.8V67.45H591.07Z"/><path class="cls-2" d="M656.53,100.18H621.8V65.45h34.73Zm-32.73-2h30.73V67.45H623.8Z"/><path class="cls-2" d="M689.25,100.18H654.53V65.45h34.73Zm-32.73-2h30.73V67.45H656.53Z"/><path class="cls-2" d="M722,100.18H687.25V65.45H722Zm-32.73-2H720V67.45H689.25Z"/><path class="cls-2" d="M754.7,100.18H720V65.45H754.7Zm-32.73-2H752.7V67.45H722Z"/><path class="cls-2" d="M787.43,100.18H752.7V65.45h34.73Zm-32.73-2h30.73V67.45H754.7Z"/><path class="cls-2" d="M820.16,100.18H785.43V65.45h34.73Zm-32.73-2h30.73V67.45H787.43Z"/><path class="cls-2" d="M852.88,100.18H818.16V65.45h34.73Zm-32.73-2h30.73V67.45H820.16Z"/><path class="cls-2" d="M885.61,100.18H850.88V65.45h34.73Zm-32.73-2h30.73V67.45H852.88Z"/><path class="cls-2" d="M918.34,100.18H883.61V65.45h34.73Zm-32.73-2h30.73V67.45H885.61Z"/><path class="cls-2" d="M951.06,100.18H916.34V65.45h34.73Zm-32.73-2h30.73V67.45H918.34Z"/><path class="cls-2" d="M983.79,100.18H949.06V65.45h34.73Zm-32.73-2h30.73V67.45H951.06Z"/><path class="cls-2" d="M1016.52,100.18H981.79V65.45h34.73Zm-32.73-2h30.73V67.45H983.79Z"/><path class="cls-2" d="M1049.24,100.18h-34.73V65.45h34.73Zm-32.73-2h30.73V67.45h-30.73Z"/><path class="cls-2" d="M1082,100.18h-34.73V65.45H1082Zm-32.73-2H1080V67.45h-30.73Z"/><path class="cls-2" d="M1114.69,100.18H1080V65.45h34.73Zm-32.73-2h30.73V67.45H1082Z"/><path class="cls-2" d="M1147.42,100.18h-34.73V65.45h34.73Zm-32.73-2h30.73V67.45h-30.73Z"/><path class="cls-2" d="M1180.15,100.18h-34.73V65.45h34.73Zm-32.73-2h30.73V67.45h-30.73Z"/><path class="cls-2" d="M1212.87,100.18h-34.73V65.45h34.73Zm-32.73-2h30.73V67.45h-30.73Z"/><path class="cls-2" d="M1245.6,100.18h-34.73V65.45h34.73Zm-32.73-2h30.73V67.45h-30.73Z"/><path class="cls-2" d="M1278.32,100.18H1243.6V65.45h34.73Zm-32.73-2h30.73V67.45H1245.6Z"/><path class="cls-2" d="M1311.05,100.18h-34.73V65.45h34.73Zm-32.73-2h30.73V67.45h-30.73Z"/><path class="cls-2" d="M1343.78,100.18h-34.73V65.45h34.73Zm-32.73-2h30.73V67.45h-30.73Z"/><path class="cls-2" d="M1376.5,100.18h-34.73V65.45h34.73Zm-32.73-2h30.73V67.45h-30.73Z"/><path class="cls-2" d="M1409.23,100.18H1374.5V65.45h34.73Zm-32.73-2h30.73V67.45H1376.5Z"/><path class="cls-2" d="M1442,100.18h-34.73V65.45H1442Zm-32.73-2H1440V67.45h-30.73Z"/><path class="cls-2" d="M34.73,132.91H0V98.18H34.73ZM2,130.91H32.73V100.18H2Z"/><path class="cls-2" d="M67.45,132.91H32.73V98.18H67.45Zm-32.73-2H65.45V100.18H34.73Z"/><path class="cls-2" d="M100.18,132.91H65.45V98.18h34.73Zm-32.73-2H98.18V100.18H67.45Z"/><path class="cls-2" d="M132.9,132.91H98.18V98.18H132.9Zm-32.73-2H130.9V100.18H100.18Z"/><path class="cls-2" d="M165.63,132.91H130.9V98.18h34.73Zm-32.73-2h30.73V100.18H132.9Z"/><path class="cls-2" d="M198.36,132.91H163.63V98.18h34.73Zm-32.73-2h30.73V100.18H165.63Z"/><path class="cls-2" d="M231.08,132.91H196.36V98.18h34.73Zm-32.73-2h30.73V100.18H198.36Z"/><path class="cls-2" d="M263.81,132.91H229.08V98.18h34.73Zm-32.73-2h30.73V100.18H231.08Z"/><path class="cls-2" d="M296.54,132.91H261.81V98.18h34.73Zm-32.73-2h30.73V100.18H263.81Z"/><path class="cls-2" d="M329.26,132.91H294.54V98.18h34.73Zm-32.73-2h30.73V100.18H296.54Z"/><path class="cls-2" d="M362,132.91H327.26V98.18H362Zm-32.73-2H360V100.18H329.26Z"/><path class="cls-2" d="M394.72,132.91H360V98.18h34.73Zm-32.73-2h30.73V100.18H362Z"/><path class="cls-2" d="M427.44,132.91H392.72V98.18h34.73Zm-32.73-2h30.73V100.18H394.72Z"/><path class="cls-2" d="M460.17,132.91H425.44V98.18h34.73Zm-32.73-2h30.73V100.18H427.44Z"/><path class="cls-2" d="M492.89,132.91H458.17V98.18h34.73Zm-32.73-2h30.73V100.18H460.17Z"/><path class="cls-2" d="M525.62,132.91H490.89V98.18h34.73Zm-32.73-2h30.73V100.18H492.89Z"/><path class="cls-2" d="M558.35,132.91H523.62V98.18h34.73Zm-32.73-2h30.73V100.18H525.62Z"/><path class="cls-2" d="M591.07,132.91H556.35V98.18h34.73Zm-32.73-2h30.73V100.18H558.35Z"/><path class="cls-2" d="M623.8,132.91H589.07V98.18H623.8Zm-32.73-2H621.8V100.18H591.07Z"/><path class="cls-2" d="M656.53,132.91H621.8V98.18h34.73Zm-32.73-2h30.73V100.18H623.8Z"/><path class="cls-2" d="M689.25,132.91H654.53V98.18h34.73Zm-32.73-2h30.73V100.18H656.53Z"/><path class="cls-2" d="M722,132.91H687.25V98.18H722Zm-32.73-2H720V100.18H689.25Z"/><path class="cls-2" d="M754.7,132.91H720V98.18H754.7Zm-32.73-2H752.7V100.18H722Z"/><path class="cls-2" d="M787.43,132.91H752.7V98.18h34.73Zm-32.73-2h30.73V100.18H754.7Z"/><path class="cls-2" d="M820.16,132.91H785.43V98.18h34.73Zm-32.73-2h30.73V100.18H787.43Z"/><path class="cls-2" d="M852.88,132.91H818.16V98.18h34.73Zm-32.73-2h30.73V100.18H820.16Z"/><path class="cls-2" d="M885.61,132.91H850.88V98.18h34.73Zm-32.73-2h30.73V100.18H852.88Z"/><path class="cls-2" d="M918.34,132.91H883.61V98.18h34.73Zm-32.73-2h30.73V100.18H885.61Z"/><path class="cls-2" d="M951.06,132.91H916.34V98.18h34.73Zm-32.73-2h30.73V100.18H918.34Z"/><path class="cls-2" d="M983.79,132.91H949.06V98.18h34.73Zm-32.73-2h30.73V100.18H951.06Z"/><path class="cls-2" d="M1016.52,132.91H981.79V98.18h34.73Zm-32.73-2h30.73V100.18H983.79Z"/><path class="cls-2" d="M1049.24,132.91h-34.73V98.18h34.73Zm-32.73-2h30.73V100.18h-30.73Z"/><path class="cls-2" d="M1082,132.91h-34.73V98.18H1082Zm-32.73-2H1080V100.18h-30.73Z"/><path class="cls-2" d="M1114.69,132.91H1080V98.18h34.73Zm-32.73-2h30.73V100.18H1082Z"/><path class="cls-2" d="M1147.42,132.91h-34.73V98.18h34.73Zm-32.73-2h30.73V100.18h-30.73Z"/><path class="cls-2" d="M1180.15,132.91h-34.73V98.18h34.73Zm-32.73-2h30.73V100.18h-30.73Z"/><path class="cls-2" d="M1212.87,132.91h-34.73V98.18h34.73Zm-32.73-2h30.73V100.18h-30.73Z"/><path class="cls-2" d="M1245.6,132.91h-34.73V98.18h34.73Zm-32.73-2h30.73V100.18h-30.73Z"/><path class="cls-2" d="M1278.32,132.91H1243.6V98.18h34.73Zm-32.73-2h30.73V100.18H1245.6Z"/><path class="cls-2" d="M1311.05,132.91h-34.73V98.18h34.73Zm-32.73-2h30.73V100.18h-30.73Z"/><path class="cls-2" d="M1343.78,132.91h-34.73V98.18h34.73Zm-32.73-2h30.73V100.18h-30.73Z"/><path class="cls-2" d="M1376.5,132.91h-34.73V98.18h34.73Zm-32.73-2h30.73V100.18h-30.73Z"/><path class="cls-2" d="M1409.23,132.91H1374.5V98.18h34.73Zm-32.73-2h30.73V100.18H1376.5Z"/><path class="cls-2" d="M1442,132.91h-34.73V98.18H1442Zm-32.73-2H1440V100.18h-30.73Z"/><path class="cls-2" d="M34.73,165.63H0V130.91H34.73ZM2,163.63H32.73V132.91H2Z"/><path class="cls-2" d="M67.45,165.63H32.73V130.91H67.45Zm-32.73-2H65.45V132.91H34.73Z"/><path class="cls-2" d="M100.18,165.63H65.45V130.91h34.73Zm-32.73-2H98.18V132.91H67.45Z"/><path class="cls-2" d="M132.9,165.63H98.18V130.91H132.9Zm-32.73-2H130.9V132.91H100.18Z"/><path class="cls-2" d="M165.63,165.63H130.9V130.91h34.73Zm-32.73-2h30.73V132.91H132.9Z"/><path class="cls-2" d="M198.36,165.63H163.63V130.91h34.73Zm-32.73-2h30.73V132.91H165.63Z"/><path class="cls-2" d="M231.08,165.63H196.36V130.91h34.73Zm-32.73-2h30.73V132.91H198.36Z"/><path class="cls-2" d="M263.81,165.63H229.08V130.91h34.73Zm-32.73-2h30.73V132.91H231.08Z"/><path class="cls-2" d="M296.54,165.63H261.81V130.91h34.73Zm-32.73-2h30.73V132.91H263.81Z"/><path class="cls-2" d="M329.26,165.63H294.54V130.91h34.73Zm-32.73-2h30.73V132.91H296.54Z"/><path class="cls-2" d="M362,165.63H327.26V130.91H362Zm-32.73-2H360V132.91H329.26Z"/><path class="cls-2" d="M394.72,165.63H360V130.91h34.73Zm-32.73-2h30.73V132.91H362Z"/><path class="cls-2" d="M427.44,165.63H392.72V130.91h34.73Zm-32.73-2h30.73V132.91H394.72Z"/><path class="cls-2" d="M460.17,165.63H425.44V130.91h34.73Zm-32.73-2h30.73V132.91H427.44Z"/><path class="cls-2" d="M492.89,165.63H458.17V130.91h34.73Zm-32.73-2h30.73V132.91H460.17Z"/><path class="cls-2" d="M525.62,165.63H490.89V130.91h34.73Zm-32.73-2h30.73V132.91H492.89Z"/><path class="cls-2" d="M558.35,165.63H523.62V130.91h34.73Zm-32.73-2h30.73V132.91H525.62Z"/><path class="cls-2" d="M591.07,165.63H556.35V130.91h34.73Zm-32.73-2h30.73V132.91H558.35Z"/><path class="cls-2" d="M623.8,165.63H589.07V130.91H623.8Zm-32.73-2H621.8V132.91H591.07Z"/><path class="cls-2" d="M656.53,165.63H621.8V130.91h34.73Zm-32.73-2h30.73V132.91H623.8Z"/><path class="cls-2" d="M689.25,165.63H654.53V130.91h34.73Zm-32.73-2h30.73V132.91H656.53Z"/><path class="cls-2" d="M722,165.63H687.25V130.91H722Zm-32.73-2H720V132.91H689.25Z"/><path class="cls-2" d="M754.7,165.63H720V130.91H754.7Zm-32.73-2H752.7V132.91H722Z"/><path class="cls-2" d="M787.43,165.63H752.7V130.91h34.73Zm-32.73-2h30.73V132.91H754.7Z"/><path class="cls-2" d="M820.16,165.63H785.43V130.91h34.73Zm-32.73-2h30.73V132.91H787.43Z"/><path class="cls-2" d="M852.88,165.63H818.16V130.91h34.73Zm-32.73-2h30.73V132.91H820.16Z"/><path class="cls-2" d="M885.61,165.63H850.88V130.91h34.73Zm-32.73-2h30.73V132.91H852.88Z"/><path class="cls-2" d="M918.34,165.63H883.61V130.91h34.73Zm-32.73-2h30.73V132.91H885.61Z"/><path class="cls-2" d="M951.06,165.63H916.34V130.91h34.73Zm-32.73-2h30.73V132.91H918.34Z"/><path class="cls-2" d="M983.79,165.63H949.06V130.91h34.73Zm-32.73-2h30.73V132.91H951.06Z"/><path class="cls-2" d="M1016.52,165.63H981.79V130.91h34.73Zm-32.73-2h30.73V132.91H983.79Z"/><path class="cls-2" d="M1049.24,165.63h-34.73V130.91h34.73Zm-32.73-2h30.73V132.91h-30.73Z"/><path class="cls-2" d="M1082,165.63h-34.73V130.91H1082Zm-32.73-2H1080V132.91h-30.73Z"/><path class="cls-2" d="M1114.69,165.63H1080V130.91h34.73Zm-32.73-2h30.73V132.91H1082Z"/><path class="cls-2" d="M1147.42,165.63h-34.73V130.91h34.73Zm-32.73-2h30.73V132.91h-30.73Z"/><path class="cls-2" d="M1180.15,165.63h-34.73V130.91h34.73Zm-32.73-2h30.73V132.91h-30.73Z"/><path class="cls-2" d="M1212.87,165.63h-34.73V130.91h34.73Zm-32.73-2h30.73V132.91h-30.73Z"/><path class="cls-2" d="M1245.6,165.63h-34.73V130.91h34.73Zm-32.73-2h30.73V132.91h-30.73Z"/><path class="cls-2" d="M1278.32,165.63H1243.6V130.91h34.73Zm-32.73-2h30.73V132.91H1245.6Z"/><path class="cls-2" d="M1311.05,165.63h-34.73V130.91h34.73Zm-32.73-2h30.73V132.91h-30.73Z"/><path class="cls-2" d="M1343.78,165.63h-34.73V130.91h34.73Zm-32.73-2h30.73V132.91h-30.73Z"/><path class="cls-2" d="M1376.5,165.63h-34.73V130.91h34.73Zm-32.73-2h30.73V132.91h-30.73Z"/><path class="cls-2" d="M1409.23,165.63H1374.5V130.91h34.73Zm-32.73-2h30.73V132.91H1376.5Z"/><path class="cls-2" d="M1442,165.63h-34.73V130.91H1442Zm-32.73-2H1440V132.91h-30.73Z"/><path class="cls-2" d="M34.73,198.36H0V163.63H34.73ZM2,196.36H32.73V165.63H2Z"/><path class="cls-2" d="M67.45,198.36H32.73V163.63H67.45Zm-32.73-2H65.45V165.63H34.73Z"/><path class="cls-2" d="M100.18,198.36H65.45V163.63h34.73Zm-32.73-2H98.18V165.63H67.45Z"/><path class="cls-2" d="M132.9,198.36H98.18V163.63H132.9Zm-32.73-2H130.9V165.63H100.18Z"/><path class="cls-2" d="M165.63,198.36H130.9V163.63h34.73Zm-32.73-2h30.73V165.63H132.9Z"/><path class="cls-2" d="M198.36,198.36H163.63V163.63h34.73Zm-32.73-2h30.73V165.63H165.63Z"/><path class="cls-2" d="M231.08,198.36H196.36V163.63h34.73Zm-32.73-2h30.73V165.63H198.36Z"/><path class="cls-2" d="M263.81,198.36H229.08V163.63h34.73Zm-32.73-2h30.73V165.63H231.08Z"/><path class="cls-2" d="M296.54,198.36H261.81V163.63h34.73Zm-32.73-2h30.73V165.63H263.81Z"/><path class="cls-2" d="M329.26,198.36H294.54V163.63h34.73Zm-32.73-2h30.73V165.63H296.54Z"/><path class="cls-2" d="M362,198.36H327.26V163.63H362Zm-32.73-2H360V165.63H329.26Z"/><path class="cls-2" d="M394.72,198.36H360V163.63h34.73Zm-32.73-2h30.73V165.63H362Z"/><path class="cls-2" d="M427.44,198.36H392.72V163.63h34.73Zm-32.73-2h30.73V165.63H394.72Z"/><path class="cls-2" d="M460.17,198.36H425.44V163.63h34.73Zm-32.73-2h30.73V165.63H427.44Z"/><path class="cls-2" d="M492.89,198.36H458.17V163.63h34.73Zm-32.73-2h30.73V165.63H460.17Z"/><path class="cls-2" d="M525.62,198.36H490.89V163.63h34.73Zm-32.73-2h30.73V165.63H492.89Z"/><path class="cls-2" d="M558.35,198.36H523.62V163.63h34.73Zm-32.73-2h30.73V165.63H525.62Z"/><path class="cls-2" d="M591.07,198.36H556.35V163.63h34.73Zm-32.73-2h30.73V165.63H558.35Z"/><path class="cls-2" d="M623.8,198.36H589.07V163.63H623.8Zm-32.73-2H621.8V165.63H591.07Z"/><path class="cls-2" d="M656.53,198.36H621.8V163.63h34.73Zm-32.73-2h30.73V165.63H623.8Z"/><path class="cls-2" d="M689.25,198.36H654.53V163.63h34.73Zm-32.73-2h30.73V165.63H656.53Z"/><path class="cls-2" d="M722,198.36H687.25V163.63H722Zm-32.73-2H720V165.63H689.25Z"/><path class="cls-2" d="M754.7,198.36H720V163.63H754.7Zm-32.73-2H752.7V165.63H722Z"/><path class="cls-2" d="M787.43,198.36H752.7V163.63h34.73Zm-32.73-2h30.73V165.63H754.7Z"/><path class="cls-2" d="M820.16,198.36H785.43V163.63h34.73Zm-32.73-2h30.73V165.63H787.43Z"/><path class="cls-2" d="M852.88,198.36H818.16V163.63h34.73Zm-32.73-2h30.73V165.63H820.16Z"/><path class="cls-2" d="M885.61,198.36H850.88V163.63h34.73Zm-32.73-2h30.73V165.63H852.88Z"/><path class="cls-2" d="M918.34,198.36H883.61V163.63h34.73Zm-32.73-2h30.73V165.63H885.61Z"/><path class="cls-2" d="M951.06,198.36H916.34V163.63h34.73Zm-32.73-2h30.73V165.63H918.34Z"/><path class="cls-2" d="M983.79,198.36H949.06V163.63h34.73Zm-32.73-2h30.73V165.63H951.06Z"/><path class="cls-2" d="M1016.52,198.36H981.79V163.63h34.73Zm-32.73-2h30.73V165.63H983.79Z"/><path class="cls-2" d="M1049.24,198.36h-34.73V163.63h34.73Zm-32.73-2h30.73V165.63h-30.73Z"/><path class="cls-2" d="M1082,198.36h-34.73V163.63H1082Zm-32.73-2H1080V165.63h-30.73Z"/><path class="cls-2" d="M1114.69,198.36H1080V163.63h34.73Zm-32.73-2h30.73V165.63H1082Z"/><path class="cls-2" d="M1147.42,198.36h-34.73V163.63h34.73Zm-32.73-2h30.73V165.63h-30.73Z"/><path class="cls-2" d="M1180.15,198.36h-34.73V163.63h34.73Zm-32.73-2h30.73V165.63h-30.73Z"/><path class="cls-2" d="M1212.87,198.36h-34.73V163.63h34.73Zm-32.73-2h30.73V165.63h-30.73Z"/><path class="cls-2" d="M1245.6,198.36h-34.73V163.63h34.73Zm-32.73-2h30.73V165.63h-30.73Z"/><path class="cls-2" d="M1278.32,198.36H1243.6V163.63h34.73Zm-32.73-2h30.73V165.63H1245.6Z"/><path class="cls-2" d="M1311.05,198.36h-34.73V163.63h34.73Zm-32.73-2h30.73V165.63h-30.73Z"/><path class="cls-2" d="M1343.78,198.36h-34.73V163.63h34.73Zm-32.73-2h30.73V165.63h-30.73Z"/><path class="cls-2" d="M1376.5,198.36h-34.73V163.63h34.73Zm-32.73-2h30.73V165.63h-30.73Z"/><path class="cls-2" d="M1409.23,198.36H1374.5V163.63h34.73Zm-32.73-2h30.73V165.63H1376.5Z"/><path class="cls-2" d="M1442,198.36h-34.73V163.63H1442Zm-32.73-2H1440V165.63h-30.73Z"/><path class="cls-2" d="M34.73,231.08H0V196.36H34.73ZM2,229.08H32.73V198.36H2Z"/><path class="cls-2" d="M67.45,231.08H32.73V196.36H67.45Zm-32.73-2H65.45V198.36H34.73Z"/><path class="cls-2" d="M100.18,231.08H65.45V196.36h34.73Zm-32.73-2H98.18V198.36H67.45Z"/><path class="cls-2" d="M132.9,231.08H98.18V196.36H132.9Zm-32.73-2H130.9V198.36H100.18Z"/><path class="cls-2" d="M165.63,231.08H130.9V196.36h34.73Zm-32.73-2h30.73V198.36H132.9Z"/><path class="cls-2" d="M198.36,231.08H163.63V196.36h34.73Zm-32.73-2h30.73V198.36H165.63Z"/><path class="cls-2" d="M231.08,231.08H196.36V196.36h34.73Zm-32.73-2h30.73V198.36H198.36Z"/><path class="cls-2" d="M263.81,231.08H229.08V196.36h34.73Zm-32.73-2h30.73V198.36H231.08Z"/><path class="cls-2" d="M296.54,231.08H261.81V196.36h34.73Zm-32.73-2h30.73V198.36H263.81Z"/><path class="cls-2" d="M329.26,231.08H294.54V196.36h34.73Zm-32.73-2h30.73V198.36H296.54Z"/><path class="cls-2" d="M362,231.08H327.26V196.36H362Zm-32.73-2H360V198.36H329.26Z"/><path class="cls-2" d="M394.72,231.08H360V196.36h34.73Zm-32.73-2h30.73V198.36H362Z"/><path class="cls-2" d="M427.44,231.08H392.72V196.36h34.73Zm-32.73-2h30.73V198.36H394.72Z"/><path class="cls-2" d="M460.17,231.08H425.44V196.36h34.73Zm-32.73-2h30.73V198.36H427.44Z"/><path class="cls-2" d="M492.89,231.08H458.17V196.36h34.73Zm-32.73-2h30.73V198.36H460.17Z"/><path class="cls-2" d="M525.62,231.08H490.89V196.36h34.73Zm-32.73-2h30.73V198.36H492.89Z"/><path class="cls-2" d="M558.35,231.08H523.62V196.36h34.73Zm-32.73-2h30.73V198.36H525.62Z"/><path class="cls-2" d="M591.07,231.08H556.35V196.36h34.73Zm-32.73-2h30.73V198.36H558.35Z"/><path class="cls-2" d="M623.8,231.08H589.07V196.36H623.8Zm-32.73-2H621.8V198.36H591.07Z"/><path class="cls-2" d="M656.53,231.08H621.8V196.36h34.73Zm-32.73-2h30.73V198.36H623.8Z"/><path class="cls-2" d="M689.25,231.08H654.53V196.36h34.73Zm-32.73-2h30.73V198.36H656.53Z"/><path class="cls-2" d="M722,231.08H687.25V196.36H722Zm-32.73-2H720V198.36H689.25Z"/><path class="cls-2" d="M754.7,231.08H720V196.36H754.7Zm-32.73-2H752.7V198.36H722Z"/><path class="cls-2" d="M787.43,231.08H752.7V196.36h34.73Zm-32.73-2h30.73V198.36H754.7Z"/><path class="cls-2" d="M820.16,231.08H785.43V196.36h34.73Zm-32.73-2h30.73V198.36H787.43Z"/><path class="cls-2" d="M852.88,231.08H818.16V196.36h34.73Zm-32.73-2h30.73V198.36H820.16Z"/><path class="cls-2" d="M885.61,231.08H850.88V196.36h34.73Zm-32.73-2h30.73V198.36H852.88Z"/><path class="cls-2" d="M918.34,231.08H883.61V196.36h34.73Zm-32.73-2h30.73V198.36H885.61Z"/><path class="cls-2" d="M951.06,231.08H916.34V196.36h34.73Zm-32.73-2h30.73V198.36H918.34Z"/><path class="cls-2" d="M983.79,231.08H949.06V196.36h34.73Zm-32.73-2h30.73V198.36H951.06Z"/><path class="cls-2" d="M1016.52,231.08H981.79V196.36h34.73Zm-32.73-2h30.73V198.36H983.79Z"/><path class="cls-2" d="M1049.24,231.08h-34.73V196.36h34.73Zm-32.73-2h30.73V198.36h-30.73Z"/><path class="cls-2" d="M1082,231.08h-34.73V196.36H1082Zm-32.73-2H1080V198.36h-30.73Z"/><path class="cls-2" d="M1114.69,231.08H1080V196.36h34.73Zm-32.73-2h30.73V198.36H1082Z"/><path class="cls-2" d="M1147.42,231.08h-34.73V196.36h34.73Zm-32.73-2h30.73V198.36h-30.73Z"/><path class="cls-2" d="M1180.15,231.08h-34.73V196.36h34.73Zm-32.73-2h30.73V198.36h-30.73Z"/><path class="cls-2" d="M1212.87,231.08h-34.73V196.36h34.73Zm-32.73-2h30.73V198.36h-30.73Z"/><path class="cls-2" d="M1245.6,231.08h-34.73V196.36h34.73Zm-32.73-2h30.73V198.36h-30.73Z"/><path class="cls-2" d="M1278.32,231.08H1243.6V196.36h34.73Zm-32.73-2h30.73V198.36H1245.6Z"/><path class="cls-2" d="M1311.05,231.08h-34.73V196.36h34.73Zm-32.73-2h30.73V198.36h-30.73Z"/><path class="cls-2" d="M1343.78,231.08h-34.73V196.36h34.73Zm-32.73-2h30.73V198.36h-30.73Z"/><path class="cls-2" d="M1376.5,231.08h-34.73V196.36h34.73Zm-32.73-2h30.73V198.36h-30.73Z"/><path class="cls-2" d="M1409.23,231.08H1374.5V196.36h34.73Zm-32.73-2h30.73V198.36H1376.5Z"/><path class="cls-2" d="M1442,231.08h-34.73V196.36H1442Zm-32.73-2H1440V198.36h-30.73Z"/><path class="cls-2" d="M34.73,263.81H0V229.08H34.73ZM2,261.81H32.73V231.08H2Z"/><path class="cls-2" d="M67.45,263.81H32.73V229.08H67.45Zm-32.73-2H65.45V231.08H34.73Z"/><path class="cls-2" d="M100.18,263.81H65.45V229.08h34.73Zm-32.73-2H98.18V231.08H67.45Z"/><path class="cls-2" d="M132.9,263.81H98.18V229.08H132.9Zm-32.73-2H130.9V231.08H100.18Z"/><path class="cls-2" d="M165.63,263.81H130.9V229.08h34.73Zm-32.73-2h30.73V231.08H132.9Z"/><path class="cls-2" d="M198.36,263.81H163.63V229.08h34.73Zm-32.73-2h30.73V231.08H165.63Z"/><path class="cls-2" d="M231.08,263.81H196.36V229.08h34.73Zm-32.73-2h30.73V231.08H198.36Z"/><path class="cls-2" d="M263.81,263.81H229.08V229.08h34.73Zm-32.73-2h30.73V231.08H231.08Z"/><path class="cls-2" d="M296.54,263.81H261.81V229.08h34.73Zm-32.73-2h30.73V231.08H263.81Z"/><path class="cls-2" d="M329.26,263.81H294.54V229.08h34.73Zm-32.73-2h30.73V231.08H296.54Z"/><path class="cls-2" d="M362,263.81H327.26V229.08H362Zm-32.73-2H360V231.08H329.26Z"/><path class="cls-2" d="M394.72,263.81H360V229.08h34.73Zm-32.73-2h30.73V231.08H362Z"/><path class="cls-2" d="M427.44,263.81H392.72V229.08h34.73Zm-32.73-2h30.73V231.08H394.72Z"/><path class="cls-2" d="M460.17,263.81H425.44V229.08h34.73Zm-32.73-2h30.73V231.08H427.44Z"/><path class="cls-2" d="M492.89,263.81H458.17V229.08h34.73Zm-32.73-2h30.73V231.08H460.17Z"/><path class="cls-2" d="M525.62,263.81H490.89V229.08h34.73Zm-32.73-2h30.73V231.08H492.89Z"/><path class="cls-2" d="M558.35,263.81H523.62V229.08h34.73Zm-32.73-2h30.73V231.08H525.62Z"/><path class="cls-2" d="M591.07,263.81H556.35V229.08h34.73Zm-32.73-2h30.73V231.08H558.35Z"/><path class="cls-2" d="M623.8,263.81H589.07V229.08H623.8Zm-32.73-2H621.8V231.08H591.07Z"/><path class="cls-2" d="M656.53,263.81H621.8V229.08h34.73Zm-32.73-2h30.73V231.08H623.8Z"/><path class="cls-2" d="M689.25,263.81H654.53V229.08h34.73Zm-32.73-2h30.73V231.08H656.53Z"/><path class="cls-2" d="M722,263.81H687.25V229.08H722Zm-32.73-2H720V231.08H689.25Z"/><path class="cls-2" d="M754.7,263.81H720V229.08H754.7Zm-32.73-2H752.7V231.08H722Z"/><path class="cls-2" d="M787.43,263.81H752.7V229.08h34.73Zm-32.73-2h30.73V231.08H754.7Z"/><path class="cls-2" d="M820.16,263.81H785.43V229.08h34.73Zm-32.73-2h30.73V231.08H787.43Z"/><path class="cls-2" d="M852.88,263.81H818.16V229.08h34.73Zm-32.73-2h30.73V231.08H820.16Z"/><path class="cls-2" d="M885.61,263.81H850.88V229.08h34.73Zm-32.73-2h30.73V231.08H852.88Z"/><path class="cls-2" d="M918.34,263.81H883.61V229.08h34.73Zm-32.73-2h30.73V231.08H885.61Z"/><path class="cls-2" d="M951.06,263.81H916.34V229.08h34.73Zm-32.73-2h30.73V231.08H918.34Z"/><path class="cls-2" d="M983.79,263.81H949.06V229.08h34.73Zm-32.73-2h30.73V231.08H951.06Z"/><path class="cls-2" d="M1016.52,263.81H981.79V229.08h34.73Zm-32.73-2h30.73V231.08H983.79Z"/><path class="cls-2" d="M1049.24,263.81h-34.73V229.08h34.73Zm-32.73-2h30.73V231.08h-30.73Z"/><path class="cls-2" d="M1082,263.81h-34.73V229.08H1082Zm-32.73-2H1080V231.08h-30.73Z"/><path class="cls-2" d="M1114.69,263.81H1080V229.08h34.73Zm-32.73-2h30.73V231.08H1082Z"/><path class="cls-2" d="M1147.42,263.81h-34.73V229.08h34.73Zm-32.73-2h30.73V231.08h-30.73Z"/><path class="cls-2" d="M1180.15,263.81h-34.73V229.08h34.73Zm-32.73-2h30.73V231.08h-30.73Z"/><path class="cls-2" d="M1212.87,263.81h-34.73V229.08h34.73Zm-32.73-2h30.73V231.08h-30.73Z"/><path class="cls-2" d="M1245.6,263.81h-34.73V229.08h34.73Zm-32.73-2h30.73V231.08h-30.73Z"/><path class="cls-2" d="M1278.32,263.81H1243.6V229.08h34.73Zm-32.73-2h30.73V231.08H1245.6Z"/><path class="cls-2" d="M1311.05,263.81h-34.73V229.08h34.73Zm-32.73-2h30.73V231.08h-30.73Z"/><path class="cls-2" d="M1343.78,263.81h-34.73V229.08h34.73Zm-32.73-2h30.73V231.08h-30.73Z"/><path class="cls-2" d="M1376.5,263.81h-34.73V229.08h34.73Zm-32.73-2h30.73V231.08h-30.73Z"/><path class="cls-2" d="M1409.23,263.81H1374.5V229.08h34.73Zm-32.73-2h30.73V231.08H1376.5Z"/><path class="cls-2" d="M1442,263.81h-34.73V229.08H1442Zm-32.73-2H1440V231.08h-30.73Z"/><path class="cls-2" d="M34.73,296.54H0V261.81H34.73ZM2,294.54H32.73V263.81H2Z"/><path class="cls-2" d="M67.45,296.54H32.73V261.81H67.45Zm-32.73-2H65.45V263.81H34.73Z"/><path class="cls-2" d="M100.18,296.54H65.45V261.81h34.73Zm-32.73-2H98.18V263.81H67.45Z"/><path class="cls-2" d="M132.9,296.54H98.18V261.81H132.9Zm-32.73-2H130.9V263.81H100.18Z"/><path class="cls-2" d="M165.63,296.54H130.9V261.81h34.73Zm-32.73-2h30.73V263.81H132.9Z"/><path class="cls-2" d="M198.36,296.54H163.63V261.81h34.73Zm-32.73-2h30.73V263.81H165.63Z"/><path class="cls-2" d="M231.08,296.54H196.36V261.81h34.73Zm-32.73-2h30.73V263.81H198.36Z"/><path class="cls-2" d="M263.81,296.54H229.08V261.81h34.73Zm-32.73-2h30.73V263.81H231.08Z"/><path class="cls-2" d="M296.54,296.54H261.81V261.81h34.73Zm-32.73-2h30.73V263.81H263.81Z"/><path class="cls-2" d="M329.26,296.54H294.54V261.81h34.73Zm-32.73-2h30.73V263.81H296.54Z"/><path class="cls-2" d="M362,296.54H327.26V261.81H362Zm-32.73-2H360V263.81H329.26Z"/><path class="cls-2" d="M394.72,296.54H360V261.81h34.73Zm-32.73-2h30.73V263.81H362Z"/><path class="cls-2" d="M427.44,296.54H392.72V261.81h34.73Zm-32.73-2h30.73V263.81H394.72Z"/><path class="cls-2" d="M460.17,296.54H425.44V261.81h34.73Zm-32.73-2h30.73V263.81H427.44Z"/><path class="cls-2" d="M492.89,296.54H458.17V261.81h34.73Zm-32.73-2h30.73V263.81H460.17Z"/><path class="cls-2" d="M525.62,296.54H490.89V261.81h34.73Zm-32.73-2h30.73V263.81H492.89Z"/><path class="cls-2" d="M558.35,296.54H523.62V261.81h34.73Zm-32.73-2h30.73V263.81H525.62Z"/><path class="cls-2" d="M591.07,296.54H556.35V261.81h34.73Zm-32.73-2h30.73V263.81H558.35Z"/><path class="cls-2" d="M623.8,296.54H589.07V261.81H623.8Zm-32.73-2H621.8V263.81H591.07Z"/><path class="cls-2" d="M656.53,296.54H621.8V261.81h34.73Zm-32.73-2h30.73V263.81H623.8Z"/><path class="cls-2" d="M689.25,296.54H654.53V261.81h34.73Zm-32.73-2h30.73V263.81H656.53Z"/><path class="cls-2" d="M722,296.54H687.25V261.81H722Zm-32.73-2H720V263.81H689.25Z"/><path class="cls-2" d="M754.7,296.54H720V261.81H754.7Zm-32.73-2H752.7V263.81H722Z"/><path class="cls-2" d="M787.43,296.54H752.7V261.81h34.73Zm-32.73-2h30.73V263.81H754.7Z"/><path class="cls-2" d="M820.16,296.54H785.43V261.81h34.73Zm-32.73-2h30.73V263.81H787.43Z"/><path class="cls-2" d="M852.88,296.54H818.16V261.81h34.73Zm-32.73-2h30.73V263.81H820.16Z"/><path class="cls-2" d="M885.61,296.54H850.88V261.81h34.73Zm-32.73-2h30.73V263.81H852.88Z"/><path class="cls-2" d="M918.34,296.54H883.61V261.81h34.73Zm-32.73-2h30.73V263.81H885.61Z"/><path class="cls-2" d="M951.06,296.54H916.34V261.81h34.73Zm-32.73-2h30.73V263.81H918.34Z"/><path class="cls-2" d="M983.79,296.54H949.06V261.81h34.73Zm-32.73-2h30.73V263.81H951.06Z"/><path class="cls-2" d="M1016.52,296.54H981.79V261.81h34.73Zm-32.73-2h30.73V263.81H983.79Z"/><path class="cls-2" d="M1049.24,296.54h-34.73V261.81h34.73Zm-32.73-2h30.73V263.81h-30.73Z"/><path class="cls-2" d="M1082,296.54h-34.73V261.81H1082Zm-32.73-2H1080V263.81h-30.73Z"/><path class="cls-2" d="M1114.69,296.54H1080V261.81h34.73Zm-32.73-2h30.73V263.81H1082Z"/><path class="cls-2" d="M1147.42,296.54h-34.73V261.81h34.73Zm-32.73-2h30.73V263.81h-30.73Z"/><path class="cls-2" d="M1180.15,296.54h-34.73V261.81h34.73Zm-32.73-2h30.73V263.81h-30.73Z"/><path class="cls-2" d="M1212.87,296.54h-34.73V261.81h34.73Zm-32.73-2h30.73V263.81h-30.73Z"/><path class="cls-2" d="M1245.6,296.54h-34.73V261.81h34.73Zm-32.73-2h30.73V263.81h-30.73Z"/><path class="cls-2" d="M1278.32,296.54H1243.6V261.81h34.73Zm-32.73-2h30.73V263.81H1245.6Z"/><path class="cls-2" d="M1311.05,296.54h-34.73V261.81h34.73Zm-32.73-2h30.73V263.81h-30.73Z"/><path class="cls-2" d="M1343.78,296.54h-34.73V261.81h34.73Zm-32.73-2h30.73V263.81h-30.73Z"/><path class="cls-2" d="M1376.5,296.54h-34.73V261.81h34.73Zm-32.73-2h30.73V263.81h-30.73Z"/><path class="cls-2" d="M1409.23,296.54H1374.5V261.81h34.73Zm-32.73-2h30.73V263.81H1376.5Z"/><path class="cls-2" d="M1442,296.54h-34.73V261.81H1442Zm-32.73-2H1440V263.81h-30.73Z"/><path class="cls-2" d="M34.73,329.26H0V294.54H34.73ZM2,327.26H32.73V296.54H2Z"/><path class="cls-2" d="M67.45,329.26H32.73V294.54H67.45Zm-32.73-2H65.45V296.54H34.73Z"/><path class="cls-2" d="M100.18,329.26H65.45V294.54h34.73Zm-32.73-2H98.18V296.54H67.45Z"/><path class="cls-2" d="M132.9,329.26H98.18V294.54H132.9Zm-32.73-2H130.9V296.54H100.18Z"/><path class="cls-2" d="M165.63,329.26H130.9V294.54h34.73Zm-32.73-2h30.73V296.54H132.9Z"/><path class="cls-2" d="M198.36,329.26H163.63V294.54h34.73Zm-32.73-2h30.73V296.54H165.63Z"/><path class="cls-2" d="M231.08,329.26H196.36V294.54h34.73Zm-32.73-2h30.73V296.54H198.36Z"/><path class="cls-2" d="M263.81,329.26H229.08V294.54h34.73Zm-32.73-2h30.73V296.54H231.08Z"/><path class="cls-2" d="M296.54,329.26H261.81V294.54h34.73Zm-32.73-2h30.73V296.54H263.81Z"/><path class="cls-2" d="M329.26,329.26H294.54V294.54h34.73Zm-32.73-2h30.73V296.54H296.54Z"/><path class="cls-2" d="M362,329.26H327.26V294.54H362Zm-32.73-2H360V296.54H329.26Z"/><path class="cls-2" d="M394.72,329.26H360V294.54h34.73Zm-32.73-2h30.73V296.54H362Z"/><path class="cls-2" d="M427.44,329.26H392.72V294.54h34.73Zm-32.73-2h30.73V296.54H394.72Z"/><path class="cls-2" d="M460.17,329.26H425.44V294.54h34.73Zm-32.73-2h30.73V296.54H427.44Z"/><path class="cls-2" d="M492.89,329.26H458.17V294.54h34.73Zm-32.73-2h30.73V296.54H460.17Z"/><path class="cls-2" d="M525.62,329.26H490.89V294.54h34.73Zm-32.73-2h30.73V296.54H492.89Z"/><path class="cls-2" d="M558.35,329.26H523.62V294.54h34.73Zm-32.73-2h30.73V296.54H525.62Z"/><path class="cls-2" d="M591.07,329.26H556.35V294.54h34.73Zm-32.73-2h30.73V296.54H558.35Z"/><path class="cls-2" d="M623.8,329.26H589.07V294.54H623.8Zm-32.73-2H621.8V296.54H591.07Z"/><path class="cls-2" d="M656.53,329.26H621.8V294.54h34.73Zm-32.73-2h30.73V296.54H623.8Z"/><path class="cls-2" d="M689.25,329.26H654.53V294.54h34.73Zm-32.73-2h30.73V296.54H656.53Z"/><path class="cls-2" d="M722,329.26H687.25V294.54H722Zm-32.73-2H720V296.54H689.25Z"/><path class="cls-2" d="M754.7,329.26H720V294.54H754.7Zm-32.73-2H752.7V296.54H722Z"/><path class="cls-2" d="M787.43,329.26H752.7V294.54h34.73Zm-32.73-2h30.73V296.54H754.7Z"/><path class="cls-2" d="M820.16,329.26H785.43V294.54h34.73Zm-32.73-2h30.73V296.54H787.43Z"/><path class="cls-2" d="M852.88,329.26H818.16V294.54h34.73Zm-32.73-2h30.73V296.54H820.16Z"/><path class="cls-2" d="M885.61,329.26H850.88V294.54h34.73Zm-32.73-2h30.73V296.54H852.88Z"/><path class="cls-2" d="M918.34,329.26H883.61V294.54h34.73Zm-32.73-2h30.73V296.54H885.61Z"/><path class="cls-2" d="M951.06,329.26H916.34V294.54h34.73Zm-32.73-2h30.73V296.54H918.34Z"/><path class="cls-2" d="M983.79,329.26H949.06V294.54h34.73Zm-32.73-2h30.73V296.54H951.06Z"/><path class="cls-2" d="M1016.52,329.26H981.79V294.54h34.73Zm-32.73-2h30.73V296.54H983.79Z"/><path class="cls-2" d="M1049.24,329.26h-34.73V294.54h34.73Zm-32.73-2h30.73V296.54h-30.73Z"/><path class="cls-2" d="M1082,329.26h-34.73V294.54H1082Zm-32.73-2H1080V296.54h-30.73Z"/><path class="cls-2" d="M1114.69,329.26H1080V294.54h34.73Zm-32.73-2h30.73V296.54H1082Z"/><path class="cls-2" d="M1147.42,329.26h-34.73V294.54h34.73Zm-32.73-2h30.73V296.54h-30.73Z"/><path class="cls-2" d="M1180.15,329.26h-34.73V294.54h34.73Zm-32.73-2h30.73V296.54h-30.73Z"/><path class="cls-2" d="M1212.87,329.26h-34.73V294.54h34.73Zm-32.73-2h30.73V296.54h-30.73Z"/><path class="cls-2" d="M1245.6,329.26h-34.73V294.54h34.73Zm-32.73-2h30.73V296.54h-30.73Z"/><path class="cls-2" d="M1278.32,329.26H1243.6V294.54h34.73Zm-32.73-2h30.73V296.54H1245.6Z"/><path class="cls-2" d="M1311.05,329.26h-34.73V294.54h34.73Zm-32.73-2h30.73V296.54h-30.73Z"/><path class="cls-2" d="M1343.78,329.26h-34.73V294.54h34.73Zm-32.73-2h30.73V296.54h-30.73Z"/><path class="cls-2" d="M1376.5,329.26h-34.73V294.54h34.73Zm-32.73-2h30.73V296.54h-30.73Z"/><path class="cls-2" d="M1409.23,329.26H1374.5V294.54h34.73Zm-32.73-2h30.73V296.54H1376.5Z"/><path class="cls-2" d="M1442,329.26h-34.73V294.54H1442Zm-32.73-2H1440V296.54h-30.73Z"/><path class="cls-2" d="M34.73,362H0V327.26H34.73ZM2,360H32.73V329.26H2Z"/><path class="cls-2" d="M67.45,362H32.73V327.26H67.45Zm-32.73-2H65.45V329.26H34.73Z"/><path class="cls-2" d="M100.18,362H65.45V327.26h34.73Zm-32.73-2H98.18V329.26H67.45Z"/><path class="cls-2" d="M132.9,362H98.18V327.26H132.9Zm-32.73-2H130.9V329.26H100.18Z"/><path class="cls-2" d="M165.63,362H130.9V327.26h34.73Zm-32.73-2h30.73V329.26H132.9Z"/><path class="cls-2" d="M198.36,362H163.63V327.26h34.73Zm-32.73-2h30.73V329.26H165.63Z"/><path class="cls-2" d="M231.08,362H196.36V327.26h34.73Zm-32.73-2h30.73V329.26H198.36Z"/><path class="cls-2" d="M263.81,362H229.08V327.26h34.73Zm-32.73-2h30.73V329.26H231.08Z"/><path class="cls-2" d="M296.54,362H261.81V327.26h34.73Zm-32.73-2h30.73V329.26H263.81Z"/><path class="cls-2" d="M329.26,362H294.54V327.26h34.73Zm-32.73-2h30.73V329.26H296.54Z"/><path class="cls-2" d="M362,362H327.26V327.26H362Zm-32.73-2H360V329.26H329.26Z"/><path class="cls-2" d="M394.72,362H360V327.26h34.73ZM362,360h30.73V329.26H362Z"/><path class="cls-2" d="M427.44,362H392.72V327.26h34.73Zm-32.73-2h30.73V329.26H394.72Z"/><path class="cls-2" d="M460.17,362H425.44V327.26h34.73Zm-32.73-2h30.73V329.26H427.44Z"/><path class="cls-2" d="M492.89,362H458.17V327.26h34.73Zm-32.73-2h30.73V329.26H460.17Z"/><path class="cls-2" d="M525.62,362H490.89V327.26h34.73Zm-32.73-2h30.73V329.26H492.89Z"/><path class="cls-2" d="M558.35,362H523.62V327.26h34.73Zm-32.73-2h30.73V329.26H525.62Z"/><path class="cls-2" d="M591.07,362H556.35V327.26h34.73Zm-32.73-2h30.73V329.26H558.35Z"/><path class="cls-2" d="M623.8,362H589.07V327.26H623.8Zm-32.73-2H621.8V329.26H591.07Z"/><path class="cls-2" d="M656.53,362H621.8V327.26h34.73Zm-32.73-2h30.73V329.26H623.8Z"/><path class="cls-2" d="M689.25,362H654.53V327.26h34.73Zm-32.73-2h30.73V329.26H656.53Z"/><path class="cls-2" d="M722,362H687.25V327.26H722Zm-32.73-2H720V329.26H689.25Z"/><path class="cls-2" d="M754.7,362H720V327.26H754.7ZM722,360H752.7V329.26H722Z"/><path class="cls-2" d="M787.43,362H752.7V327.26h34.73Zm-32.73-2h30.73V329.26H754.7Z"/><path class="cls-2" d="M820.16,362H785.43V327.26h34.73Zm-32.73-2h30.73V329.26H787.43Z"/><path class="cls-2" d="M852.88,362H818.16V327.26h34.73Zm-32.73-2h30.73V329.26H820.16Z"/><path class="cls-2" d="M885.61,362H850.88V327.26h34.73Zm-32.73-2h30.73V329.26H852.88Z"/><path class="cls-2" d="M918.34,362H883.61V327.26h34.73Zm-32.73-2h30.73V329.26H885.61Z"/><path class="cls-2" d="M951.06,362H916.34V327.26h34.73Zm-32.73-2h30.73V329.26H918.34Z"/><path class="cls-2" d="M983.79,362H949.06V327.26h34.73Zm-32.73-2h30.73V329.26H951.06Z"/><path class="cls-2" d="M1016.52,362H981.79V327.26h34.73Zm-32.73-2h30.73V329.26H983.79Z"/><path class="cls-2" d="M1049.24,362h-34.73V327.26h34.73Zm-32.73-2h30.73V329.26h-30.73Z"/><path class="cls-2" d="M1082,362h-34.73V327.26H1082Zm-32.73-2H1080V329.26h-30.73Z"/><path class="cls-2" d="M1114.69,362H1080V327.26h34.73ZM1082,360h30.73V329.26H1082Z"/><path class="cls-2" d="M1147.42,362h-34.73V327.26h34.73Zm-32.73-2h30.73V329.26h-30.73Z"/><path class="cls-2" d="M1180.15,362h-34.73V327.26h34.73Zm-32.73-2h30.73V329.26h-30.73Z"/><path class="cls-2" d="M1212.87,362h-34.73V327.26h34.73Zm-32.73-2h30.73V329.26h-30.73Z"/><path class="cls-2" d="M1245.6,362h-34.73V327.26h34.73Zm-32.73-2h30.73V329.26h-30.73Z"/><path class="cls-2" d="M1278.32,362H1243.6V327.26h34.73Zm-32.73-2h30.73V329.26H1245.6Z"/><path class="cls-2" d="M1311.05,362h-34.73V327.26h34.73Zm-32.73-2h30.73V329.26h-30.73Z"/><path class="cls-2" d="M1343.78,362h-34.73V327.26h34.73Zm-32.73-2h30.73V329.26h-30.73Z"/><path class="cls-2" d="M1376.5,362h-34.73V327.26h34.73Zm-32.73-2h30.73V329.26h-30.73Z"/><path class="cls-2" d="M1409.23,362H1374.5V327.26h34.73Zm-32.73-2h30.73V329.26H1376.5Z"/><path class="cls-2" d="M1442,362h-34.73V327.26H1442Zm-32.73-2H1440V329.26h-30.73Z"/><path class="cls-2" d="M34.73,394.72H0V360H34.73ZM2,392.72H32.73V362H2Z"/><path class="cls-2" d="M67.45,394.72H32.73V360H67.45Zm-32.73-2H65.45V362H34.73Z"/><path class="cls-2" d="M100.18,394.72H65.45V360h34.73Zm-32.73-2H98.18V362H67.45Z"/><path class="cls-2" d="M132.9,394.72H98.18V360H132.9Zm-32.73-2H130.9V362H100.18Z"/><path class="cls-2" d="M165.63,394.72H130.9V360h34.73Zm-32.73-2h30.73V362H132.9Z"/><path class="cls-2" d="M198.36,394.72H163.63V360h34.73Zm-32.73-2h30.73V362H165.63Z"/><path class="cls-2" d="M231.08,394.72H196.36V360h34.73Zm-32.73-2h30.73V362H198.36Z"/><path class="cls-2" d="M263.81,394.72H229.08V360h34.73Zm-32.73-2h30.73V362H231.08Z"/><path class="cls-2" d="M296.54,394.72H261.81V360h34.73Zm-32.73-2h30.73V362H263.81Z"/><path class="cls-2" d="M329.26,394.72H294.54V360h34.73Zm-32.73-2h30.73V362H296.54Z"/><path class="cls-2" d="M362,394.72H327.26V360H362Zm-32.73-2H360V362H329.26Z"/><path class="cls-2" d="M394.72,394.72H360V360h34.73Zm-32.73-2h30.73V362H362Z"/><path class="cls-2" d="M427.44,394.72H392.72V360h34.73Zm-32.73-2h30.73V362H394.72Z"/><path class="cls-2" d="M460.17,394.72H425.44V360h34.73Zm-32.73-2h30.73V362H427.44Z"/><path class="cls-2" d="M492.89,394.72H458.17V360h34.73Zm-32.73-2h30.73V362H460.17Z"/><path class="cls-2" d="M525.62,394.72H490.89V360h34.73Zm-32.73-2h30.73V362H492.89Z"/><path class="cls-2" d="M558.35,394.72H523.62V360h34.73Zm-32.73-2h30.73V362H525.62Z"/><path class="cls-2" d="M591.07,394.72H556.35V360h34.73Zm-32.73-2h30.73V362H558.35Z"/><path class="cls-2" d="M623.8,394.72H589.07V360H623.8Zm-32.73-2H621.8V362H591.07Z"/><path class="cls-2" d="M656.53,394.72H621.8V360h34.73Zm-32.73-2h30.73V362H623.8Z"/><path class="cls-2" d="M689.25,394.72H654.53V360h34.73Zm-32.73-2h30.73V362H656.53Z"/><path class="cls-2" d="M722,394.72H687.25V360H722Zm-32.73-2H720V362H689.25Z"/><path class="cls-2" d="M754.7,394.72H720V360H754.7Zm-32.73-2H752.7V362H722Z"/><path class="cls-2" d="M787.43,394.72H752.7V360h34.73Zm-32.73-2h30.73V362H754.7Z"/><path class="cls-2" d="M820.16,394.72H785.43V360h34.73Zm-32.73-2h30.73V362H787.43Z"/><path class="cls-2" d="M852.88,394.72H818.16V360h34.73Zm-32.73-2h30.73V362H820.16Z"/><path class="cls-2" d="M885.61,394.72H850.88V360h34.73Zm-32.73-2h30.73V362H852.88Z"/><path class="cls-2" d="M918.34,394.72H883.61V360h34.73Zm-32.73-2h30.73V362H885.61Z"/><path class="cls-2" d="M951.06,394.72H916.34V360h34.73Zm-32.73-2h30.73V362H918.34Z"/><path class="cls-2" d="M983.79,394.72H949.06V360h34.73Zm-32.73-2h30.73V362H951.06Z"/><path class="cls-2" d="M1016.52,394.72H981.79V360h34.73Zm-32.73-2h30.73V362H983.79Z"/><path class="cls-2" d="M1049.24,394.72h-34.73V360h34.73Zm-32.73-2h30.73V362h-30.73Z"/><path class="cls-2" d="M1082,394.72h-34.73V360H1082Zm-32.73-2H1080V362h-30.73Z"/><path class="cls-2" d="M1114.69,394.72H1080V360h34.73Zm-32.73-2h30.73V362H1082Z"/><path class="cls-2" d="M1147.42,394.72h-34.73V360h34.73Zm-32.73-2h30.73V362h-30.73Z"/><path class="cls-2" d="M1180.15,394.72h-34.73V360h34.73Zm-32.73-2h30.73V362h-30.73Z"/><path class="cls-2" d="M1212.87,394.72h-34.73V360h34.73Zm-32.73-2h30.73V362h-30.73Z"/><path class="cls-2" d="M1245.6,394.72h-34.73V360h34.73Zm-32.73-2h30.73V362h-30.73Z"/><path class="cls-2" d="M1278.32,394.72H1243.6V360h34.73Zm-32.73-2h30.73V362H1245.6Z"/><path class="cls-2" d="M1311.05,394.72h-34.73V360h34.73Zm-32.73-2h30.73V362h-30.73Z"/><path class="cls-2" d="M1343.78,394.72h-34.73V360h34.73Zm-32.73-2h30.73V362h-30.73Z"/><path class="cls-2" d="M1376.5,394.72h-34.73V360h34.73Zm-32.73-2h30.73V362h-30.73Z"/><path class="cls-2" d="M1409.23,394.72H1374.5V360h34.73Zm-32.73-2h30.73V362H1376.5Z"/><path class="cls-2" d="M1442,394.72h-34.73V360H1442Zm-32.73-2H1440V362h-30.73Z"/><path class="cls-2" d="M34.73,427.44H0V392.72H34.73ZM2,425.44H32.73V394.72H2Z"/><path class="cls-2" d="M67.45,427.44H32.73V392.72H67.45Zm-32.73-2H65.45V394.72H34.73Z"/><path class="cls-2" d="M100.18,427.44H65.45V392.72h34.73Zm-32.73-2H98.18V394.72H67.45Z"/><path class="cls-2" d="M132.9,427.44H98.18V392.72H132.9Zm-32.73-2H130.9V394.72H100.18Z"/><path class="cls-2" d="M165.63,427.44H130.9V392.72h34.73Zm-32.73-2h30.73V394.72H132.9Z"/><path class="cls-2" d="M198.36,427.44H163.63V392.72h34.73Zm-32.73-2h30.73V394.72H165.63Z"/><path class="cls-2" d="M231.08,427.44H196.36V392.72h34.73Zm-32.73-2h30.73V394.72H198.36Z"/><path class="cls-2" d="M263.81,427.44H229.08V392.72h34.73Zm-32.73-2h30.73V394.72H231.08Z"/><path class="cls-2" d="M296.54,427.44H261.81V392.72h34.73Zm-32.73-2h30.73V394.72H263.81Z"/><path class="cls-2" d="M329.26,427.44H294.54V392.72h34.73Zm-32.73-2h30.73V394.72H296.54Z"/><path class="cls-2" d="M362,427.44H327.26V392.72H362Zm-32.73-2H360V394.72H329.26Z"/><path class="cls-2" d="M394.72,427.44H360V392.72h34.73Zm-32.73-2h30.73V394.72H362Z"/><path class="cls-2" d="M427.44,427.44H392.72V392.72h34.73Zm-32.73-2h30.73V394.72H394.72Z"/><path class="cls-2" d="M460.17,427.44H425.44V392.72h34.73Zm-32.73-2h30.73V394.72H427.44Z"/><path class="cls-2" d="M492.89,427.44H458.17V392.72h34.73Zm-32.73-2h30.73V394.72H460.17Z"/><path class="cls-2" d="M525.62,427.44H490.89V392.72h34.73Zm-32.73-2h30.73V394.72H492.89Z"/><path class="cls-2" d="M558.35,427.44H523.62V392.72h34.73Zm-32.73-2h30.73V394.72H525.62Z"/><path class="cls-2" d="M591.07,427.44H556.35V392.72h34.73Zm-32.73-2h30.73V394.72H558.35Z"/><path class="cls-2" d="M623.8,427.44H589.07V392.72H623.8Zm-32.73-2H621.8V394.72H591.07Z"/><path class="cls-2" d="M656.53,427.44H621.8V392.72h34.73Zm-32.73-2h30.73V394.72H623.8Z"/><path class="cls-2" d="M689.25,427.44H654.53V392.72h34.73Zm-32.73-2h30.73V394.72H656.53Z"/><path class="cls-2" d="M722,427.44H687.25V392.72H722Zm-32.73-2H720V394.72H689.25Z"/><path class="cls-2" d="M754.7,427.44H720V392.72H754.7Zm-32.73-2H752.7V394.72H722Z"/><path class="cls-2" d="M787.43,427.44H752.7V392.72h34.73Zm-32.73-2h30.73V394.72H754.7Z"/><path class="cls-2" d="M820.16,427.44H785.43V392.72h34.73Zm-32.73-2h30.73V394.72H787.43Z"/><path class="cls-2" d="M852.88,427.44H818.16V392.72h34.73Zm-32.73-2h30.73V394.72H820.16Z"/><path class="cls-2" d="M885.61,427.44H850.88V392.72h34.73Zm-32.73-2h30.73V394.72H852.88Z"/><path class="cls-2" d="M918.34,427.44H883.61V392.72h34.73Zm-32.73-2h30.73V394.72H885.61Z"/><path class="cls-2" d="M951.06,427.44H916.34V392.72h34.73Zm-32.73-2h30.73V394.72H918.34Z"/><path class="cls-2" d="M983.79,427.44H949.06V392.72h34.73Zm-32.73-2h30.73V394.72H951.06Z"/><path class="cls-2" d="M1016.52,427.44H981.79V392.72h34.73Zm-32.73-2h30.73V394.72H983.79Z"/><path class="cls-2" d="M1049.24,427.44h-34.73V392.72h34.73Zm-32.73-2h30.73V394.72h-30.73Z"/><path class="cls-2" d="M1082,427.44h-34.73V392.72H1082Zm-32.73-2H1080V394.72h-30.73Z"/><path class="cls-2" d="M1114.69,427.44H1080V392.72h34.73Zm-32.73-2h30.73V394.72H1082Z"/><path class="cls-2" d="M1147.42,427.44h-34.73V392.72h34.73Zm-32.73-2h30.73V394.72h-30.73Z"/><path class="cls-2" d="M1180.15,427.44h-34.73V392.72h34.73Zm-32.73-2h30.73V394.72h-30.73Z"/><path class="cls-2" d="M1212.87,427.44h-34.73V392.72h34.73Zm-32.73-2h30.73V394.72h-30.73Z"/><path class="cls-2" d="M1245.6,427.44h-34.73V392.72h34.73Zm-32.73-2h30.73V394.72h-30.73Z"/><path class="cls-2" d="M1278.32,427.44H1243.6V392.72h34.73Zm-32.73-2h30.73V394.72H1245.6Z"/><path class="cls-2" d="M1311.05,427.44h-34.73V392.72h34.73Zm-32.73-2h30.73V394.72h-30.73Z"/><path class="cls-2" d="M1343.78,427.44h-34.73V392.72h34.73Zm-32.73-2h30.73V394.72h-30.73Z"/><path class="cls-2" d="M1376.5,427.44h-34.73V392.72h34.73Zm-32.73-2h30.73V394.72h-30.73Z"/><path class="cls-2" d="M1409.23,427.44H1374.5V392.72h34.73Zm-32.73-2h30.73V394.72H1376.5Z"/><path class="cls-2" d="M1442,427.44h-34.73V392.72H1442Zm-32.73-2H1440V394.72h-30.73Z"/><path class="cls-2" d="M34.73,460.17H0V425.44H34.73ZM2,458.17H32.73V427.44H2Z"/><path class="cls-2" d="M67.45,460.17H32.73V425.44H67.45Zm-32.73-2H65.45V427.44H34.73Z"/><path class="cls-2" d="M100.18,460.17H65.45V425.44h34.73Zm-32.73-2H98.18V427.44H67.45Z"/><path class="cls-2" d="M132.9,460.17H98.18V425.44H132.9Zm-32.73-2H130.9V427.44H100.18Z"/><path class="cls-2" d="M165.63,460.17H130.9V425.44h34.73Zm-32.73-2h30.73V427.44H132.9Z"/><path class="cls-2" d="M198.36,460.17H163.63V425.44h34.73Zm-32.73-2h30.73V427.44H165.63Z"/><path class="cls-2" d="M231.08,460.17H196.36V425.44h34.73Zm-32.73-2h30.73V427.44H198.36Z"/><path class="cls-2" d="M263.81,460.17H229.08V425.44h34.73Zm-32.73-2h30.73V427.44H231.08Z"/><path class="cls-2" d="M296.54,460.17H261.81V425.44h34.73Zm-32.73-2h30.73V427.44H263.81Z"/><path class="cls-2" d="M329.26,460.17H294.54V425.44h34.73Zm-32.73-2h30.73V427.44H296.54Z"/><path class="cls-2" d="M362,460.17H327.26V425.44H362Zm-32.73-2H360V427.44H329.26Z"/><path class="cls-2" d="M394.72,460.17H360V425.44h34.73Zm-32.73-2h30.73V427.44H362Z"/><path class="cls-2" d="M427.44,460.17H392.72V425.44h34.73Zm-32.73-2h30.73V427.44H394.72Z"/><path class="cls-2" d="M460.17,460.17H425.44V425.44h34.73Zm-32.73-2h30.73V427.44H427.44Z"/><path class="cls-2" d="M492.89,460.17H458.17V425.44h34.73Zm-32.73-2h30.73V427.44H460.17Z"/><path class="cls-2" d="M525.62,460.17H490.89V425.44h34.73Zm-32.73-2h30.73V427.44H492.89Z"/><path class="cls-2" d="M558.35,460.17H523.62V425.44h34.73Zm-32.73-2h30.73V427.44H525.62Z"/><path class="cls-2" d="M591.07,460.17H556.35V425.44h34.73Zm-32.73-2h30.73V427.44H558.35Z"/><path class="cls-2" d="M623.8,460.17H589.07V425.44H623.8Zm-32.73-2H621.8V427.44H591.07Z"/><path class="cls-2" d="M656.53,460.17H621.8V425.44h34.73Zm-32.73-2h30.73V427.44H623.8Z"/><path class="cls-2" d="M689.25,460.17H654.53V425.44h34.73Zm-32.73-2h30.73V427.44H656.53Z"/><path class="cls-2" d="M722,460.17H687.25V425.44H722Zm-32.73-2H720V427.44H689.25Z"/><path class="cls-2" d="M754.7,460.17H720V425.44H754.7Zm-32.73-2H752.7V427.44H722Z"/><path class="cls-2" d="M787.43,460.17H752.7V425.44h34.73Zm-32.73-2h30.73V427.44H754.7Z"/><path class="cls-2" d="M820.16,460.17H785.43V425.44h34.73Zm-32.73-2h30.73V427.44H787.43Z"/><path class="cls-2" d="M852.88,460.17H818.16V425.44h34.73Zm-32.73-2h30.73V427.44H820.16Z"/><path class="cls-2" d="M885.61,460.17H850.88V425.44h34.73Zm-32.73-2h30.73V427.44H852.88Z"/><path class="cls-2" d="M918.34,460.17H883.61V425.44h34.73Zm-32.73-2h30.73V427.44H885.61Z"/><path class="cls-2" d="M951.06,460.17H916.34V425.44h34.73Zm-32.73-2h30.73V427.44H918.34Z"/><path class="cls-2" d="M983.79,460.17H949.06V425.44h34.73Zm-32.73-2h30.73V427.44H951.06Z"/><path class="cls-2" d="M1016.52,460.17H981.79V425.44h34.73Zm-32.73-2h30.73V427.44H983.79Z"/><path class="cls-2" d="M1049.24,460.17h-34.73V425.44h34.73Zm-32.73-2h30.73V427.44h-30.73Z"/><path class="cls-2" d="M1082,460.17h-34.73V425.44H1082Zm-32.73-2H1080V427.44h-30.73Z"/><path class="cls-2" d="M1114.69,460.17H1080V425.44h34.73Zm-32.73-2h30.73V427.44H1082Z"/><path class="cls-2" d="M1147.42,460.17h-34.73V425.44h34.73Zm-32.73-2h30.73V427.44h-30.73Z"/><path class="cls-2" d="M1180.15,460.17h-34.73V425.44h34.73Zm-32.73-2h30.73V427.44h-30.73Z"/><path class="cls-2" d="M1212.87,460.17h-34.73V425.44h34.73Zm-32.73-2h30.73V427.44h-30.73Z"/><path class="cls-2" d="M1245.6,460.17h-34.73V425.44h34.73Zm-32.73-2h30.73V427.44h-30.73Z"/><path class="cls-2" d="M1278.32,460.17H1243.6V425.44h34.73Zm-32.73-2h30.73V427.44H1245.6Z"/><path class="cls-2" d="M1311.05,460.17h-34.73V425.44h34.73Zm-32.73-2h30.73V427.44h-30.73Z"/><path class="cls-2" d="M1343.78,460.17h-34.73V425.44h34.73Zm-32.73-2h30.73V427.44h-30.73Z"/><path class="cls-2" d="M1376.5,460.17h-34.73V425.44h34.73Zm-32.73-2h30.73V427.44h-30.73Z"/><path class="cls-2" d="M1409.23,460.17H1374.5V425.44h34.73Zm-32.73-2h30.73V427.44H1376.5Z"/><path class="cls-2" d="M1442,460.17h-34.73V425.44H1442Zm-32.73-2H1440V427.44h-30.73Z"/><path class="cls-2" d="M34.73,492.89H0V458.17H34.73ZM2,490.89H32.73V460.17H2Z"/><path class="cls-2" d="M67.45,492.89H32.73V458.17H67.45Zm-32.73-2H65.45V460.17H34.73Z"/><path class="cls-2" d="M100.18,492.89H65.45V458.17h34.73Zm-32.73-2H98.18V460.17H67.45Z"/><path class="cls-2" d="M132.9,492.89H98.18V458.17H132.9Zm-32.73-2H130.9V460.17H100.18Z"/><path class="cls-2" d="M165.63,492.89H130.9V458.17h34.73Zm-32.73-2h30.73V460.17H132.9Z"/><path class="cls-2" d="M198.36,492.89H163.63V458.17h34.73Zm-32.73-2h30.73V460.17H165.63Z"/><path class="cls-2" d="M231.08,492.89H196.36V458.17h34.73Zm-32.73-2h30.73V460.17H198.36Z"/><path class="cls-2" d="M263.81,492.89H229.08V458.17h34.73Zm-32.73-2h30.73V460.17H231.08Z"/><path class="cls-2" d="M296.54,492.89H261.81V458.17h34.73Zm-32.73-2h30.73V460.17H263.81Z"/><path class="cls-2" d="M329.26,492.89H294.54V458.17h34.73Zm-32.73-2h30.73V460.17H296.54Z"/><path class="cls-2" d="M362,492.89H327.26V458.17H362Zm-32.73-2H360V460.17H329.26Z"/><path class="cls-2" d="M394.72,492.89H360V458.17h34.73Zm-32.73-2h30.73V460.17H362Z"/><path class="cls-2" d="M427.44,492.89H392.72V458.17h34.73Zm-32.73-2h30.73V460.17H394.72Z"/><path class="cls-2" d="M460.17,492.89H425.44V458.17h34.73Zm-32.73-2h30.73V460.17H427.44Z"/><path class="cls-2" d="M492.89,492.89H458.17V458.17h34.73Zm-32.73-2h30.73V460.17H460.17Z"/><path class="cls-2" d="M525.62,492.89H490.89V458.17h34.73Zm-32.73-2h30.73V460.17H492.89Z"/><path class="cls-2" d="M558.35,492.89H523.62V458.17h34.73Zm-32.73-2h30.73V460.17H525.62Z"/><path class="cls-2" d="M591.07,492.89H556.35V458.17h34.73Zm-32.73-2h30.73V460.17H558.35Z"/><path class="cls-2" d="M623.8,492.89H589.07V458.17H623.8Zm-32.73-2H621.8V460.17H591.07Z"/><path class="cls-2" d="M656.53,492.89H621.8V458.17h34.73Zm-32.73-2h30.73V460.17H623.8Z"/><path class="cls-2" d="M689.25,492.89H654.53V458.17h34.73Zm-32.73-2h30.73V460.17H656.53Z"/><path class="cls-2" d="M722,492.89H687.25V458.17H722Zm-32.73-2H720V460.17H689.25Z"/><path class="cls-2" d="M754.7,492.89H720V458.17H754.7Zm-32.73-2H752.7V460.17H722Z"/><path class="cls-2" d="M787.43,492.89H752.7V458.17h34.73Zm-32.73-2h30.73V460.17H754.7Z"/><path class="cls-2" d="M820.16,492.89H785.43V458.17h34.73Zm-32.73-2h30.73V460.17H787.43Z"/><path class="cls-2" d="M852.88,492.89H818.16V458.17h34.73Zm-32.73-2h30.73V460.17H820.16Z"/><path class="cls-2" d="M885.61,492.89H850.88V458.17h34.73Zm-32.73-2h30.73V460.17H852.88Z"/><path class="cls-2" d="M918.34,492.89H883.61V458.17h34.73Zm-32.73-2h30.73V460.17H885.61Z"/><path class="cls-2" d="M951.06,492.89H916.34V458.17h34.73Zm-32.73-2h30.73V460.17H918.34Z"/><path class="cls-2" d="M983.79,492.89H949.06V458.17h34.73Zm-32.73-2h30.73V460.17H951.06Z"/><path class="cls-2" d="M1016.52,492.89H981.79V458.17h34.73Zm-32.73-2h30.73V460.17H983.79Z"/><path class="cls-2" d="M1049.24,492.89h-34.73V458.17h34.73Zm-32.73-2h30.73V460.17h-30.73Z"/><path class="cls-2" d="M1082,492.89h-34.73V458.17H1082Zm-32.73-2H1080V460.17h-30.73Z"/><path class="cls-2" d="M1114.69,492.89H1080V458.17h34.73Zm-32.73-2h30.73V460.17H1082Z"/><path class="cls-2" d="M1147.42,492.89h-34.73V458.17h34.73Zm-32.73-2h30.73V460.17h-30.73Z"/><path class="cls-2" d="M1180.15,492.89h-34.73V458.17h34.73Zm-32.73-2h30.73V460.17h-30.73Z"/><path class="cls-2" d="M1212.87,492.89h-34.73V458.17h34.73Zm-32.73-2h30.73V460.17h-30.73Z"/><path class="cls-2" d="M1245.6,492.89h-34.73V458.17h34.73Zm-32.73-2h30.73V460.17h-30.73Z"/><path class="cls-2" d="M1278.32,492.89H1243.6V458.17h34.73Zm-32.73-2h30.73V460.17H1245.6Z"/><path class="cls-2" d="M1311.05,492.89h-34.73V458.17h34.73Zm-32.73-2h30.73V460.17h-30.73Z"/><path class="cls-2" d="M1343.78,492.89h-34.73V458.17h34.73Zm-32.73-2h30.73V460.17h-30.73Z"/><path class="cls-2" d="M1376.5,492.89h-34.73V458.17h34.73Zm-32.73-2h30.73V460.17h-30.73Z"/><path class="cls-2" d="M1409.23,492.89H1374.5V458.17h34.73Zm-32.73-2h30.73V460.17H1376.5Z"/><path class="cls-2" d="M1442,492.89h-34.73V458.17H1442Zm-32.73-2H1440V460.17h-30.73Z"/><path class="cls-2" d="M34.73,525.62H0V490.89H34.73ZM2,523.62H32.73V492.89H2Z"/><path class="cls-2" d="M67.45,525.62H32.73V490.89H67.45Zm-32.73-2H65.45V492.89H34.73Z"/><path class="cls-2" d="M100.18,525.62H65.45V490.89h34.73Zm-32.73-2H98.18V492.89H67.45Z"/><path class="cls-2" d="M132.9,525.62H98.18V490.89H132.9Zm-32.73-2H130.9V492.89H100.18Z"/><path class="cls-2" d="M165.63,525.62H130.9V490.89h34.73Zm-32.73-2h30.73V492.89H132.9Z"/><path class="cls-2" d="M198.36,525.62H163.63V490.89h34.73Zm-32.73-2h30.73V492.89H165.63Z"/><path class="cls-2" d="M231.08,525.62H196.36V490.89h34.73Zm-32.73-2h30.73V492.89H198.36Z"/><path class="cls-2" d="M263.81,525.62H229.08V490.89h34.73Zm-32.73-2h30.73V492.89H231.08Z"/><path class="cls-2" d="M296.54,525.62H261.81V490.89h34.73Zm-32.73-2h30.73V492.89H263.81Z"/><path class="cls-2" d="M329.26,525.62H294.54V490.89h34.73Zm-32.73-2h30.73V492.89H296.54Z"/><path class="cls-2" d="M362,525.62H327.26V490.89H362Zm-32.73-2H360V492.89H329.26Z"/><path class="cls-2" d="M394.72,525.62H360V490.89h34.73Zm-32.73-2h30.73V492.89H362Z"/><path class="cls-2" d="M427.44,525.62H392.72V490.89h34.73Zm-32.73-2h30.73V492.89H394.72Z"/><path class="cls-2" d="M460.17,525.62H425.44V490.89h34.73Zm-32.73-2h30.73V492.89H427.44Z"/><path class="cls-2" d="M492.89,525.62H458.17V490.89h34.73Zm-32.73-2h30.73V492.89H460.17Z"/><path class="cls-2" d="M525.62,525.62H490.89V490.89h34.73Zm-32.73-2h30.73V492.89H492.89Z"/><path class="cls-2" d="M558.35,525.62H523.62V490.89h34.73Zm-32.73-2h30.73V492.89H525.62Z"/><path class="cls-2" d="M591.07,525.62H556.35V490.89h34.73Zm-32.73-2h30.73V492.89H558.35Z"/><path class="cls-2" d="M623.8,525.62H589.07V490.89H623.8Zm-32.73-2H621.8V492.89H591.07Z"/><path class="cls-2" d="M656.53,525.62H621.8V490.89h34.73Zm-32.73-2h30.73V492.89H623.8Z"/><path class="cls-2" d="M689.25,525.62H654.53V490.89h34.73Zm-32.73-2h30.73V492.89H656.53Z"/><path class="cls-2" d="M722,525.62H687.25V490.89H722Zm-32.73-2H720V492.89H689.25Z"/><path class="cls-2" d="M754.7,525.62H720V490.89H754.7Zm-32.73-2H752.7V492.89H722Z"/><path class="cls-2" d="M787.43,525.62H752.7V490.89h34.73Zm-32.73-2h30.73V492.89H754.7Z"/><path class="cls-2" d="M820.16,525.62H785.43V490.89h34.73Zm-32.73-2h30.73V492.89H787.43Z"/><path class="cls-2" d="M852.88,525.62H818.16V490.89h34.73Zm-32.73-2h30.73V492.89H820.16Z"/><path class="cls-2" d="M885.61,525.62H850.88V490.89h34.73Zm-32.73-2h30.73V492.89H852.88Z"/><path class="cls-2" d="M918.34,525.62H883.61V490.89h34.73Zm-32.73-2h30.73V492.89H885.61Z"/><path class="cls-2" d="M951.06,525.62H916.34V490.89h34.73Zm-32.73-2h30.73V492.89H918.34Z"/><path class="cls-2" d="M983.79,525.62H949.06V490.89h34.73Zm-32.73-2h30.73V492.89H951.06Z"/><path class="cls-2" d="M1016.52,525.62H981.79V490.89h34.73Zm-32.73-2h30.73V492.89H983.79Z"/><path class="cls-2" d="M1049.24,525.62h-34.73V490.89h34.73Zm-32.73-2h30.73V492.89h-30.73Z"/><path class="cls-2" d="M1082,525.62h-34.73V490.89H1082Zm-32.73-2H1080V492.89h-30.73Z"/><path class="cls-2" d="M1114.69,525.62H1080V490.89h34.73Zm-32.73-2h30.73V492.89H1082Z"/><path class="cls-2" d="M1147.42,525.62h-34.73V490.89h34.73Zm-32.73-2h30.73V492.89h-30.73Z"/><path class="cls-2" d="M1180.15,525.62h-34.73V490.89h34.73Zm-32.73-2h30.73V492.89h-30.73Z"/><path class="cls-2" d="M1212.87,525.62h-34.73V490.89h34.73Zm-32.73-2h30.73V492.89h-30.73Z"/><path class="cls-2" d="M1245.6,525.62h-34.73V490.89h34.73Zm-32.73-2h30.73V492.89h-30.73Z"/><path class="cls-2" d="M1278.32,525.62H1243.6V490.89h34.73Zm-32.73-2h30.73V492.89H1245.6Z"/><path class="cls-2" d="M1311.05,525.62h-34.73V490.89h34.73Zm-32.73-2h30.73V492.89h-30.73Z"/><path class="cls-2" d="M1343.78,525.62h-34.73V490.89h34.73Zm-32.73-2h30.73V492.89h-30.73Z"/><path class="cls-2" d="M1376.5,525.62h-34.73V490.89h34.73Zm-32.73-2h30.73V492.89h-30.73Z"/><path class="cls-2" d="M1409.23,525.62H1374.5V490.89h34.73Zm-32.73-2h30.73V492.89H1376.5Z"/><path class="cls-2" d="M1442,525.62h-34.73V490.89H1442Zm-32.73-2H1440V492.89h-30.73Z"/><path class="cls-2" d="M34.73,558.35H0V523.62H34.73ZM2,556.35H32.73V525.62H2Z"/><path class="cls-2" d="M67.45,558.35H32.73V523.62H67.45Zm-32.73-2H65.45V525.62H34.73Z"/><path class="cls-2" d="M100.18,558.35H65.45V523.62h34.73Zm-32.73-2H98.18V525.62H67.45Z"/><path class="cls-2" d="M132.9,558.35H98.18V523.62H132.9Zm-32.73-2H130.9V525.62H100.18Z"/><path class="cls-2" d="M165.63,558.35H130.9V523.62h34.73Zm-32.73-2h30.73V525.62H132.9Z"/><path class="cls-2" d="M198.36,558.35H163.63V523.62h34.73Zm-32.73-2h30.73V525.62H165.63Z"/><path class="cls-2" d="M231.08,558.35H196.36V523.62h34.73Zm-32.73-2h30.73V525.62H198.36Z"/><path class="cls-2" d="M263.81,558.35H229.08V523.62h34.73Zm-32.73-2h30.73V525.62H231.08Z"/><path class="cls-2" d="M296.54,558.35H261.81V523.62h34.73Zm-32.73-2h30.73V525.62H263.81Z"/><path class="cls-2" d="M329.26,558.35H294.54V523.62h34.73Zm-32.73-2h30.73V525.62H296.54Z"/><path class="cls-2" d="M362,558.35H327.26V523.62H362Zm-32.73-2H360V525.62H329.26Z"/><path class="cls-2" d="M394.72,558.35H360V523.62h34.73Zm-32.73-2h30.73V525.62H362Z"/><path class="cls-2" d="M427.44,558.35H392.72V523.62h34.73Zm-32.73-2h30.73V525.62H394.72Z"/><path class="cls-2" d="M460.17,558.35H425.44V523.62h34.73Zm-32.73-2h30.73V525.62H427.44Z"/><path class="cls-2" d="M492.89,558.35H458.17V523.62h34.73Zm-32.73-2h30.73V525.62H460.17Z"/><path class="cls-2" d="M525.62,558.35H490.89V523.62h34.73Zm-32.73-2h30.73V525.62H492.89Z"/><path class="cls-2" d="M558.35,558.35H523.62V523.62h34.73Zm-32.73-2h30.73V525.62H525.62Z"/><path class="cls-2" d="M591.07,558.35H556.35V523.62h34.73Zm-32.73-2h30.73V525.62H558.35Z"/><path class="cls-2" d="M623.8,558.35H589.07V523.62H623.8Zm-32.73-2H621.8V525.62H591.07Z"/><path class="cls-2" d="M656.53,558.35H621.8V523.62h34.73Zm-32.73-2h30.73V525.62H623.8Z"/><path class="cls-2" d="M689.25,558.35H654.53V523.62h34.73Zm-32.73-2h30.73V525.62H656.53Z"/><path class="cls-2" d="M722,558.35H687.25V523.62H722Zm-32.73-2H720V525.62H689.25Z"/><path class="cls-2" d="M754.7,558.35H720V523.62H754.7Zm-32.73-2H752.7V525.62H722Z"/><path class="cls-2" d="M787.43,558.35H752.7V523.62h34.73Zm-32.73-2h30.73V525.62H754.7Z"/><path class="cls-2" d="M820.16,558.35H785.43V523.62h34.73Zm-32.73-2h30.73V525.62H787.43Z"/><path class="cls-2" d="M852.88,558.35H818.16V523.62h34.73Zm-32.73-2h30.73V525.62H820.16Z"/><path class="cls-2" d="M885.61,558.35H850.88V523.62h34.73Zm-32.73-2h30.73V525.62H852.88Z"/><path class="cls-2" d="M918.34,558.35H883.61V523.62h34.73Zm-32.73-2h30.73V525.62H885.61Z"/><path class="cls-2" d="M951.06,558.35H916.34V523.62h34.73Zm-32.73-2h30.73V525.62H918.34Z"/><path class="cls-2" d="M983.79,558.35H949.06V523.62h34.73Zm-32.73-2h30.73V525.62H951.06Z"/><path class="cls-2" d="M1016.52,558.35H981.79V523.62h34.73Zm-32.73-2h30.73V525.62H983.79Z"/><path class="cls-2" d="M1049.24,558.35h-34.73V523.62h34.73Zm-32.73-2h30.73V525.62h-30.73Z"/><path class="cls-2" d="M1082,558.35h-34.73V523.62H1082Zm-32.73-2H1080V525.62h-30.73Z"/><path class="cls-2" d="M1114.69,558.35H1080V523.62h34.73Zm-32.73-2h30.73V525.62H1082Z"/><path class="cls-2" d="M1147.42,558.35h-34.73V523.62h34.73Zm-32.73-2h30.73V525.62h-30.73Z"/><path class="cls-2" d="M1180.15,558.35h-34.73V523.62h34.73Zm-32.73-2h30.73V525.62h-30.73Z"/><path class="cls-2" d="M1212.87,558.35h-34.73V523.62h34.73Zm-32.73-2h30.73V525.62h-30.73Z"/><path class="cls-2" d="M1245.6,558.35h-34.73V523.62h34.73Zm-32.73-2h30.73V525.62h-30.73Z"/><path class="cls-2" d="M1278.32,558.35H1243.6V523.62h34.73Zm-32.73-2h30.73V525.62H1245.6Z"/><path class="cls-2" d="M1311.05,558.35h-34.73V523.62h34.73Zm-32.73-2h30.73V525.62h-30.73Z"/><path class="cls-2" d="M1343.78,558.35h-34.73V523.62h34.73Zm-32.73-2h30.73V525.62h-30.73Z"/><path class="cls-2" d="M1376.5,558.35h-34.73V523.62h34.73Zm-32.73-2h30.73V525.62h-30.73Z"/><path class="cls-2" d="M1409.23,558.35H1374.5V523.62h34.73Zm-32.73-2h30.73V525.62H1376.5Z"/><path class="cls-2" d="M1442,558.35h-34.73V523.62H1442Zm-32.73-2H1440V525.62h-30.73Z"/><path class="cls-2" d="M34.73,591.07H0V556.35H34.73ZM2,589.07H32.73V558.35H2Z"/><path class="cls-2" d="M67.45,591.07H32.73V556.35H67.45Zm-32.73-2H65.45V558.35H34.73Z"/><path class="cls-2" d="M100.18,591.07H65.45V556.35h34.73Zm-32.73-2H98.18V558.35H67.45Z"/><path class="cls-2" d="M132.9,591.07H98.18V556.35H132.9Zm-32.73-2H130.9V558.35H100.18Z"/><path class="cls-2" d="M165.63,591.07H130.9V556.35h34.73Zm-32.73-2h30.73V558.35H132.9Z"/><path class="cls-2" d="M198.36,591.07H163.63V556.35h34.73Zm-32.73-2h30.73V558.35H165.63Z"/><path class="cls-2" d="M231.08,591.07H196.36V556.35h34.73Zm-32.73-2h30.73V558.35H198.36Z"/><path class="cls-2" d="M263.81,591.07H229.08V556.35h34.73Zm-32.73-2h30.73V558.35H231.08Z"/><path class="cls-2" d="M296.54,591.07H261.81V556.35h34.73Zm-32.73-2h30.73V558.35H263.81Z"/><path class="cls-2" d="M329.26,591.07H294.54V556.35h34.73Zm-32.73-2h30.73V558.35H296.54Z"/><path class="cls-2" d="M362,591.07H327.26V556.35H362Zm-32.73-2H360V558.35H329.26Z"/><path class="cls-2" d="M394.72,591.07H360V556.35h34.73Zm-32.73-2h30.73V558.35H362Z"/><path class="cls-2" d="M427.44,591.07H392.72V556.35h34.73Zm-32.73-2h30.73V558.35H394.72Z"/><path class="cls-2" d="M460.17,591.07H425.44V556.35h34.73Zm-32.73-2h30.73V558.35H427.44Z"/><path class="cls-2" d="M492.89,591.07H458.17V556.35h34.73Zm-32.73-2h30.73V558.35H460.17Z"/><path class="cls-2" d="M525.62,591.07H490.89V556.35h34.73Zm-32.73-2h30.73V558.35H492.89Z"/><path class="cls-2" d="M558.35,591.07H523.62V556.35h34.73Zm-32.73-2h30.73V558.35H525.62Z"/><path class="cls-2" d="M591.07,591.07H556.35V556.35h34.73Zm-32.73-2h30.73V558.35H558.35Z"/><path class="cls-2" d="M623.8,591.07H589.07V556.35H623.8Zm-32.73-2H621.8V558.35H591.07Z"/><path class="cls-2" d="M656.53,591.07H621.8V556.35h34.73Zm-32.73-2h30.73V558.35H623.8Z"/><path class="cls-2" d="M689.25,591.07H654.53V556.35h34.73Zm-32.73-2h30.73V558.35H656.53Z"/><path class="cls-2" d="M722,591.07H687.25V556.35H722Zm-32.73-2H720V558.35H689.25Z"/><path class="cls-2" d="M754.7,591.07H720V556.35H754.7Zm-32.73-2H752.7V558.35H722Z"/><path class="cls-2" d="M787.43,591.07H752.7V556.35h34.73Zm-32.73-2h30.73V558.35H754.7Z"/><path class="cls-2" d="M820.16,591.07H785.43V556.35h34.73Zm-32.73-2h30.73V558.35H787.43Z"/><path class="cls-2" d="M852.88,591.07H818.16V556.35h34.73Zm-32.73-2h30.73V558.35H820.16Z"/><path class="cls-2" d="M885.61,591.07H850.88V556.35h34.73Zm-32.73-2h30.73V558.35H852.88Z"/><path class="cls-2" d="M918.34,591.07H883.61V556.35h34.73Zm-32.73-2h30.73V558.35H885.61Z"/><path class="cls-2" d="M951.06,591.07H916.34V556.35h34.73Zm-32.73-2h30.73V558.35H918.34Z"/><path class="cls-2" d="M983.79,591.07H949.06V556.35h34.73Zm-32.73-2h30.73V558.35H951.06Z"/><path class="cls-2" d="M1016.52,591.07H981.79V556.35h34.73Zm-32.73-2h30.73V558.35H983.79Z"/><path class="cls-2" d="M1049.24,591.07h-34.73V556.35h34.73Zm-32.73-2h30.73V558.35h-30.73Z"/><path class="cls-2" d="M1082,591.07h-34.73V556.35H1082Zm-32.73-2H1080V558.35h-30.73Z"/><path class="cls-2" d="M1114.69,591.07H1080V556.35h34.73Zm-32.73-2h30.73V558.35H1082Z"/><path class="cls-2" d="M1147.42,591.07h-34.73V556.35h34.73Zm-32.73-2h30.73V558.35h-30.73Z"/><path class="cls-2" d="M1180.15,591.07h-34.73V556.35h34.73Zm-32.73-2h30.73V558.35h-30.73Z"/><path class="cls-2" d="M1212.87,591.07h-34.73V556.35h34.73Zm-32.73-2h30.73V558.35h-30.73Z"/><path class="cls-2" d="M1245.6,591.07h-34.73V556.35h34.73Zm-32.73-2h30.73V558.35h-30.73Z"/><path class="cls-2" d="M1278.32,591.07H1243.6V556.35h34.73Zm-32.73-2h30.73V558.35H1245.6Z"/><path class="cls-2" d="M1311.05,591.07h-34.73V556.35h34.73Zm-32.73-2h30.73V558.35h-30.73Z"/><path class="cls-2" d="M1343.78,591.07h-34.73V556.35h34.73Zm-32.73-2h30.73V558.35h-30.73Z"/><path class="cls-2" d="M1376.5,591.07h-34.73V556.35h34.73Zm-32.73-2h30.73V558.35h-30.73Z"/><path class="cls-2" d="M1409.23,591.07H1374.5V556.35h34.73Zm-32.73-2h30.73V558.35H1376.5Z"/><path class="cls-2" d="M1442,591.07h-34.73V556.35H1442Zm-32.73-2H1440V558.35h-30.73Z"/><path class="cls-2" d="M34.73,623.8H0V589.07H34.73ZM2,621.8H32.73V591.07H2Z"/><path class="cls-2" d="M67.45,623.8H32.73V589.07H67.45Zm-32.73-2H65.45V591.07H34.73Z"/><path class="cls-2" d="M100.18,623.8H65.45V589.07h34.73Zm-32.73-2H98.18V591.07H67.45Z"/><path class="cls-2" d="M132.9,623.8H98.18V589.07H132.9Zm-32.73-2H130.9V591.07H100.18Z"/><path class="cls-2" d="M165.63,623.8H130.9V589.07h34.73Zm-32.73-2h30.73V591.07H132.9Z"/><path class="cls-2" d="M198.36,623.8H163.63V589.07h34.73Zm-32.73-2h30.73V591.07H165.63Z"/><path class="cls-2" d="M231.08,623.8H196.36V589.07h34.73Zm-32.73-2h30.73V591.07H198.36Z"/><path class="cls-2" d="M263.81,623.8H229.08V589.07h34.73Zm-32.73-2h30.73V591.07H231.08Z"/><path class="cls-2" d="M296.54,623.8H261.81V589.07h34.73Zm-32.73-2h30.73V591.07H263.81Z"/><path class="cls-2" d="M329.26,623.8H294.54V589.07h34.73Zm-32.73-2h30.73V591.07H296.54Z"/><path class="cls-2" d="M362,623.8H327.26V589.07H362Zm-32.73-2H360V591.07H329.26Z"/><path class="cls-2" d="M394.72,623.8H360V589.07h34.73Zm-32.73-2h30.73V591.07H362Z"/><path class="cls-2" d="M427.44,623.8H392.72V589.07h34.73Zm-32.73-2h30.73V591.07H394.72Z"/><path class="cls-2" d="M460.17,623.8H425.44V589.07h34.73Zm-32.73-2h30.73V591.07H427.44Z"/><path class="cls-2" d="M492.89,623.8H458.17V589.07h34.73Zm-32.73-2h30.73V591.07H460.17Z"/><path class="cls-2" d="M525.62,623.8H490.89V589.07h34.73Zm-32.73-2h30.73V591.07H492.89Z"/><path class="cls-2" d="M558.35,623.8H523.62V589.07h34.73Zm-32.73-2h30.73V591.07H525.62Z"/><path class="cls-2" d="M591.07,623.8H556.35V589.07h34.73Zm-32.73-2h30.73V591.07H558.35Z"/><path class="cls-2" d="M623.8,623.8H589.07V589.07H623.8Zm-32.73-2H621.8V591.07H591.07Z"/><path class="cls-2" d="M656.53,623.8H621.8V589.07h34.73Zm-32.73-2h30.73V591.07H623.8Z"/><path class="cls-2" d="M689.25,623.8H654.53V589.07h34.73Zm-32.73-2h30.73V591.07H656.53Z"/><path class="cls-2" d="M722,623.8H687.25V589.07H722Zm-32.73-2H720V591.07H689.25Z"/><path class="cls-2" d="M754.7,623.8H720V589.07H754.7Zm-32.73-2H752.7V591.07H722Z"/><path class="cls-2" d="M787.43,623.8H752.7V589.07h34.73Zm-32.73-2h30.73V591.07H754.7Z"/><path class="cls-2" d="M820.16,623.8H785.43V589.07h34.73Zm-32.73-2h30.73V591.07H787.43Z"/><path class="cls-2" d="M852.88,623.8H818.16V589.07h34.73Zm-32.73-2h30.73V591.07H820.16Z"/><path class="cls-2" d="M885.61,623.8H850.88V589.07h34.73Zm-32.73-2h30.73V591.07H852.88Z"/><path class="cls-2" d="M918.34,623.8H883.61V589.07h34.73Zm-32.73-2h30.73V591.07H885.61Z"/><path class="cls-2" d="M951.06,623.8H916.34V589.07h34.73Zm-32.73-2h30.73V591.07H918.34Z"/><path class="cls-2" d="M983.79,623.8H949.06V589.07h34.73Zm-32.73-2h30.73V591.07H951.06Z"/><path class="cls-2" d="M1016.52,623.8H981.79V589.07h34.73Zm-32.73-2h30.73V591.07H983.79Z"/><path class="cls-2" d="M1049.24,623.8h-34.73V589.07h34.73Zm-32.73-2h30.73V591.07h-30.73Z"/><path class="cls-2" d="M1082,623.8h-34.73V589.07H1082Zm-32.73-2H1080V591.07h-30.73Z"/><path class="cls-2" d="M1114.69,623.8H1080V589.07h34.73Zm-32.73-2h30.73V591.07H1082Z"/><path class="cls-2" d="M1147.42,623.8h-34.73V589.07h34.73Zm-32.73-2h30.73V591.07h-30.73Z"/><path class="cls-2" d="M1180.15,623.8h-34.73V589.07h34.73Zm-32.73-2h30.73V591.07h-30.73Z"/><path class="cls-2" d="M1212.87,623.8h-34.73V589.07h34.73Zm-32.73-2h30.73V591.07h-30.73Z"/><path class="cls-2" d="M1245.6,623.8h-34.73V589.07h34.73Zm-32.73-2h30.73V591.07h-30.73Z"/><path class="cls-2" d="M1278.32,623.8H1243.6V589.07h34.73Zm-32.73-2h30.73V591.07H1245.6Z"/><path class="cls-2" d="M1311.05,623.8h-34.73V589.07h34.73Zm-32.73-2h30.73V591.07h-30.73Z"/><path class="cls-2" d="M1343.78,623.8h-34.73V589.07h34.73Zm-32.73-2h30.73V591.07h-30.73Z"/><path class="cls-2" d="M1376.5,623.8h-34.73V589.07h34.73Zm-32.73-2h30.73V591.07h-30.73Z"/><path class="cls-2" d="M1409.23,623.8H1374.5V589.07h34.73Zm-32.73-2h30.73V591.07H1376.5Z"/><path class="cls-2" d="M1442,623.8h-34.73V589.07H1442Zm-32.73-2H1440V591.07h-30.73Z"/><path class="cls-2" d="M34.45,640.68H.28v-18.6H34.45ZM1.72,639.23H33V623.52H1.72Z"/><path class="cls-2" d="M67.18,640.68H33v-18.6H67.18Zm-32.73-1.45H65.73V623.52H34.45Z"/><path class="cls-2" d="M99.9,640.68H65.73v-18.6H99.9Zm-32.73-1.45H98.45V623.52H67.18Z"/><path class="cls-2" d="M132.63,640.68H98.45v-18.6h34.17ZM99.9,639.23h31.28V623.52H99.9Z"/><path class="cls-2" d="M165.36,640.68H131.18v-18.6h34.17Zm-32.73-1.45h31.28V623.52H132.63Z"/><path class="cls-2" d="M198.08,640.68H163.91v-18.6h34.17Zm-32.73-1.45h31.28V623.52H165.36Z"/><path class="cls-2" d="M230.81,640.68H196.63v-18.6h34.17Zm-32.73-1.45h31.28V623.52H198.08Z"/><path class="cls-2" d="M263.53,640.68H229.36v-18.6h34.17Zm-32.73-1.45h31.28V623.52H230.81Z"/><path class="cls-2" d="M296.26,640.68H262.09v-18.6h34.17Zm-32.73-1.45h31.28V623.52H263.53Z"/><path class="cls-2" d="M329,640.68H294.81v-18.6H329Zm-32.73-1.45h31.28V623.52H296.26Z"/><path class="cls-2" d="M361.71,640.68H327.54v-18.6h34.17ZM329,639.23h31.28V623.52H329Z"/><path class="cls-2" d="M394.44,640.68H360.26v-18.6h34.17Zm-32.73-1.45H393V623.52H361.71Z"/><path class="cls-2" d="M427.17,640.68H393v-18.6h34.17Zm-32.73-1.45h31.28V623.52H394.44Z"/><path class="cls-2" d="M459.89,640.68H425.72v-18.6h34.17Zm-32.73-1.45h31.28V623.52H427.17Z"/><path class="cls-2" d="M492.62,640.68H458.44v-18.6h34.17Zm-32.73-1.45h31.28V623.52H459.89Z"/><path class="cls-2" d="M525.34,640.68H491.17v-18.6h34.17Zm-32.73-1.45H523.9V623.52H492.62Z"/><path class="cls-2" d="M558.07,640.68H523.9v-18.6h34.17Zm-32.73-1.45h31.28V623.52H525.34Z"/><path class="cls-2" d="M590.8,640.68H556.62v-18.6H590.8Zm-32.73-1.45h31.28V623.52H558.07Z"/><path class="cls-2" d="M623.52,640.68H589.35v-18.6h34.17Zm-32.73-1.45h31.28V623.52H590.8Z"/><path class="cls-2" d="M656.25,640.68H622.08v-18.6h34.17Zm-32.73-1.45H654.8V623.52H623.52Z"/><path class="cls-2" d="M689,640.68H654.8v-18.6H689Zm-32.73-1.45h31.28V623.52H656.25Z"/><path class="cls-2" d="M721.7,640.68H687.53v-18.6H721.7ZM689,639.23h31.28V623.52H689Z"/><path class="cls-2" d="M754.43,640.68H720.25v-18.6h34.17Zm-32.73-1.45H753V623.52H721.7Z"/><path class="cls-2" d="M787.15,640.68H753v-18.6h34.17Zm-32.73-1.45h31.28V623.52H754.43Z"/><path class="cls-2" d="M819.88,640.68H785.71v-18.6h34.17Zm-32.73-1.45h31.28V623.52H787.15Z"/><path class="cls-2" d="M852.61,640.68H818.43v-18.6h34.17Zm-32.73-1.45h31.28V623.52H819.88Z"/><path class="cls-2" d="M885.33,640.68H851.16v-18.6h34.17Zm-32.73-1.45h31.28V623.52H852.61Z"/><path class="cls-2" d="M918.06,640.68H883.89v-18.6h34.17Zm-32.73-1.45h31.28V623.52H885.33Z"/><path class="cls-2" d="M950.79,640.68H916.61v-18.6h34.17Zm-32.73-1.45h31.28V623.52H918.06Z"/><path class="cls-2" d="M983.51,640.68H949.34v-18.6h34.17Zm-32.73-1.45h31.28V623.52H950.79Z"/><path class="cls-2" d="M1016.24,640.68H982.06v-18.6h34.17Zm-32.73-1.45h31.28V623.52H983.51Z"/><path class="cls-2" d="M1049,640.68h-34.17v-18.6H1049Zm-32.73-1.45h31.28V623.52h-31.28Z"/><path class="cls-2" d="M1081.69,640.68h-34.17v-18.6h34.17ZM1049,639.23h31.28V623.52H1049Z"/><path class="cls-2" d="M1114.42,640.68h-34.17v-18.6h34.17Zm-32.73-1.45H1113V623.52h-31.28Z"/><path class="cls-2" d="M1147.14,640.68H1113v-18.6h34.17Zm-32.73-1.45h31.28V623.52h-31.28Z"/><path class="cls-2" d="M1179.87,640.68H1145.7v-18.6h34.17Zm-32.73-1.45h31.28V623.52h-31.28Z"/><path class="cls-2" d="M1212.6,640.68h-34.17v-18.6h34.17Zm-32.73-1.45h31.28V623.52h-31.28Z"/><path class="cls-2" d="M1245.32,640.68h-34.17v-18.6h34.17Zm-32.73-1.45h31.28V623.52H1212.6Z"/><path class="cls-2" d="M1278,640.68h-34.17v-18.6H1278Zm-32.73-1.45h31.28V623.52h-31.28Z"/><path class="cls-2" d="M1310.77,640.68H1276.6v-18.6h34.17ZM1278,639.23h31.28V623.52H1278Z"/><path class="cls-2" d="M1343.5,640.68h-34.17v-18.6h34.17Zm-32.73-1.45h31.28V623.52h-31.28Z"/><path class="cls-2" d="M1376.23,640.68h-34.17v-18.6h34.17Zm-32.73-1.45h31.28V623.52H1343.5Z"/><path class="cls-2" d="M1409,640.68h-34.17v-18.6H1409Zm-32.73-1.45h31.28V623.52h-31.28Z"/><path class="cls-2" d="M1441.68,640.68h-34.17v-18.6h34.17ZM1409,639.23h31.28V623.52H1409Z"/></g><g id="Layer_3" data-name="Layer 3"><rect class="cls-3" x="450.82" y="0.99" width="16" height="638.97"/><rect class="cls-3" x="713.39" y="-521.5" width="16" height="1438.78" transform="translate(523.5 919.28) rotate(-90)"/></g></g></svg>