<svg xmlns="http://www.w3.org/2000/svg" viewBox="0 0 120.89 52.93"><defs><style>.cls-1{fill:#231f20;}.cls-2{fill:none;stroke:#231f20;stroke-miterlimit:10;stroke-width:0.75px;}</style></defs><title>logo</title><g id="Layer_2" data-name="Layer 2"><g id="Layer_1-2" data-name="Layer 1"><path class="cls-1" d="M15.48,17.59,10.8,24.43,0,3.35H8Zm13.36,0-4.68,6.84L13.36,3.35h8Zm3.56-7.36a20.26,20.26,0,0,0-1.32-2.52A22.4,22.4,0,0,0,29.4,5.49,11.37,11.37,0,0,0,27,3.39h10.2c-.69.85-1.33,1.69-1.9,2.52s-1.09,1.56-1.54,2.2S32.83,9.56,32.4,10.23Z"/><path class="cls-1" d="M49,24.35a10.47,10.47,0,0,1-3.5-.5,5.93,5.93,0,0,1-2.18-1.28,4.14,4.14,0,0,1-1.1-1.7,5.76,5.76,0,0,1-.3-1.8,5,5,0,0,1,.34-1.76,4.47,4.47,0,0,1,1.14-1.7,6.24,6.24,0,0,1,2.18-1.3A9.69,9.69,0,0,1,49,13.79h3.52a5.33,5.33,0,0,0-2.68,2,5.69,5.69,0,0,0,0,6.56,5.33,5.33,0,0,0,2.68,2H49ZM45,10.67a3.34,3.34,0,0,0,1.08.66,3.56,3.56,0,0,0,1.26.22,2.9,2.9,0,0,0,1.26-.28,3.35,3.35,0,0,0,1.08-.76,3.59,3.59,0,0,0,.68-1.08,3.16,3.16,0,0,0,.22-1.26,3.42,3.42,0,0,0-.3-1.26,3.27,3.27,0,0,1-.16-2.8,2.71,2.71,0,0,1,.68-1,9,9,0,0,0-1.68.16,9.64,9.64,0,0,0-1.66.54A7.11,7.11,0,0,0,45.64,5Q43.12,7.07,44.2,9.59A3,3,0,0,0,45,10.67ZM60,4.73a10.42,10.42,0,0,1,2.22,2.18,10.69,10.69,0,0,1,1.52,2.88,10.2,10.2,0,0,1,.55,3.36V24.43H57v-21l.36.08A8,8,0,0,1,60,4.73Z"/><path class="cls-1" d="M84.63,18l-3.88,6.4L69.39,3.31h7.68ZM86,.41a3.35,3.35,0,0,0-1.68,2A3.32,3.32,0,0,0,84.57,5a3.35,3.35,0,0,0,2,1.68,4,4,0,0,1,1.52.8,3.37,3.37,0,0,1,.76,1,2.51,2.51,0,0,1,.28,1.16,6.14,6.14,0,0,0,1-1.4,7.62,7.62,0,0,0,.7-1.64,8.29,8.29,0,0,0,.34-2.16Q91.28,1,88.59.15A3.32,3.32,0,0,0,86,.41Z"/><path class="cls-1" d="M115.25,22a10.28,10.28,0,0,0,2.52-.28A12.74,12.74,0,0,1,114,24.13a12.18,12.18,0,0,1-4.7.9,12.65,12.65,0,0,1-4.66-.86,12,12,0,0,1-3.8-2.36,11.19,11.19,0,0,1-2.56-3.52,10,10,0,0,1-.94-4.3,10.65,10.65,0,0,1,.8-4.12,10.9,10.9,0,0,1,5.44-5.74,10.55,10.55,0,0,1,4-1,10.51,10.51,0,0,0-2.16,3.76,15.15,15.15,0,0,0-.68,4.68,10.62,10.62,0,0,0,.82,4.24,9.94,9.94,0,0,0,2.26,3.3,10.31,10.31,0,0,0,3.36,2.14A11,11,0,0,0,115.25,22Zm-2-7.52c.08-.43.15-.85.2-1.28a11.41,11.41,0,0,0,.08-1.32A16.35,16.35,0,0,0,112.81,7a10.84,10.84,0,0,0-2.16-3.9,10.08,10.08,0,0,1,4,1.06,11.17,11.17,0,0,1,3.26,2.46,11.54,11.54,0,0,1,2.18,3.5,11.33,11.33,0,0,1,.8,4.26v.08Z"/><path class="cls-1" d="M30,52.93H24.63V47.36h1.09V52H30Z"/><path class="cls-1" d="M41,52.93h-1.2l-.64-1.2H35.41l-.64,1.2H33.58l3-5.57H38Zm-2.38-2.17-1.32-2.47L36,50.76Z"/><path class="cls-1" d="M51.65,52.93h-1.4l-2.66-2.82L46,51.25v1.68H44.92V47.36H46v2.73l3.79-2.73h1.61l-3,2.14Z"/><path class="cls-1" d="M61.51,52.93h-6V47.36h5.79v1h-4.7v1.2h3.27v1H56.61V52h4.9Z"/><path class="cls-1" d="M72.45,47.36l-3.07,5.57H68.13l-3.08-5.57h1.2L68.75,52l2.5-4.62Z"/><path class="cls-1" d="M77.43,52.93H76.35V47.36h1.08Z"/><path class="cls-1" d="M88.13,52.93h-6V47.36h5.78v1H83.23v1.2h3.26v1H83.23V52h4.9Z"/><path class="cls-1" d="M100.79,47.36,98.9,52.93H97.59l-1.33-4.66-1.33,4.66h-1.3l-1.89-5.57h1.2L94.28,52l1.33-4.63h1.31L98.25,52l1.34-4.63Z"/><line class="cls-2" x1="31.32" y1="36.51" x2="93.32" y2="36.51"/></g></g></svg>