<svg xmlns="http://www.w3.org/2000/svg" xmlns:xlink="http://www.w3.org/1999/xlink" viewBox="0 0 298.81 394.05"><defs><style>.cls-1{fill:none;}.cls-2{fill:#fff;}.cls-3{fill:#afdac8;}.cls-4{fill:url(#dots);}</style><pattern id="dots" data-name="dots" width="150.02" height="148.41" patternTransform="translate(-193.67 -85.1)" patternUnits="userSpaceOnUse" viewBox="0 0 150.02 148.41"><rect class="cls-1" width="150.02" height="148.41"/><path class="cls-2" d="M135,150.41a2.61,2.61,0,0,0,.13-1,2.93,2.93,0,0,0-2.21-2.54,3.59,3.59,0,0,0-3.3,1,2.53,2.53,0,0,0-.82,1.63,2.58,2.58,0,0,0,1.14,2.07,3.67,3.67,0,0,0,2.85.72A2.93,2.93,0,0,0,135,150.41Z"/><path class="cls-2" d="M54.55,150a2.61,2.61,0,0,0-.08-1,2.93,2.93,0,0,0-2.68-2,3.59,3.59,0,0,0-3,1.64,2.53,2.53,0,0,0-.47,1.77,2.58,2.58,0,0,0,1.55,1.79,3.67,3.67,0,0,0,2.93.11A2.93,2.93,0,0,0,54.55,150Z"/><path class="cls-2" d="M154.18,67.09a2.61,2.61,0,0,0-.08-1,2.93,2.93,0,0,0-2.68-2,3.59,3.59,0,0,0-3,1.64,2.53,2.53,0,0,0-.47,1.77,2.58,2.58,0,0,0,1.55,1.79,3.67,3.67,0,0,0,2.93.11A2.93,2.93,0,0,0,154.18,67.09Z"/><path class="cls-2" d="M92.84,23.43a2.61,2.61,0,0,0-.95-.34,2.93,2.93,0,0,0-3,1.61,3.59,3.59,0,0,0,.25,3.43,2.53,2.53,0,0,0,1.42,1.15,2.58,2.58,0,0,0,2.26-.67A3.67,3.67,0,0,0,94.17,26,2.93,2.93,0,0,0,92.84,23.43Z"/><path class="cls-2" d="M83.75,48.63a2.61,2.61,0,0,0,.52-.87,2.93,2.93,0,0,0-1-3.21,3.59,3.59,0,0,0-3.42-.42,2.53,2.53,0,0,0-1.4,1.17,2.58,2.58,0,0,0,.22,2.35A3.67,3.67,0,0,0,81,49.45,2.93,2.93,0,0,0,83.75,48.63Z"/><path class="cls-2" d="M119.17,94.08a2.61,2.61,0,0,0,.52-.87,2.93,2.93,0,0,0-1-3.21,3.59,3.59,0,0,0-3.42-.42,2.53,2.53,0,0,0-1.4,1.17,2.58,2.58,0,0,0,.22,2.35,3.67,3.67,0,0,0,2.33,1.79A2.93,2.93,0,0,0,119.17,94.08Z"/><path class="cls-2" d="M148.45,134.7a2.61,2.61,0,0,0,.52-.87,2.93,2.93,0,0,0-1-3.21,3.59,3.59,0,0,0-3.42-.42,2.53,2.53,0,0,0-1.4,1.17,2.58,2.58,0,0,0,.22,2.35,3.67,3.67,0,0,0,2.33,1.79A2.93,2.93,0,0,0,148.45,134.7Z"/><path class="cls-2" d="M80.23,12.18a2.61,2.61,0,0,0,.52-.87,2.93,2.93,0,0,0-1-3.21,3.59,3.59,0,0,0-3.42-.42,2.53,2.53,0,0,0-1.4,1.17,2.58,2.58,0,0,0,.22,2.35A3.67,3.67,0,0,0,77.46,13,2.93,2.93,0,0,0,80.23,12.18Z"/><path class="cls-2" d="M18.54,40.93a2.61,2.61,0,0,0,.52-.87,2.93,2.93,0,0,0-1-3.21,3.59,3.59,0,0,0-3.42-.42,2.53,2.53,0,0,0-1.4,1.17A2.58,2.58,0,0,0,13.45,40a3.67,3.67,0,0,0,2.33,1.79A2.93,2.93,0,0,0,18.54,40.93Z"/><path class="cls-2" d="M17.52,92.05a2.61,2.61,0,0,0,.52-.87A2.93,2.93,0,0,0,17,88a3.59,3.59,0,0,0-3.42-.42,2.53,2.53,0,0,0-1.4,1.17,2.58,2.58,0,0,0,.22,2.35,3.67,3.67,0,0,0,2.33,1.79A2.93,2.93,0,0,0,17.52,92.05Z"/><path class="cls-2" d="M139.42,46.67a2.61,2.61,0,0,0,.13-1,2.93,2.93,0,0,0-2.21-2.54,3.59,3.59,0,0,0-3.3,1,2.53,2.53,0,0,0-.82,1.63,2.58,2.58,0,0,0,1.14,2.07,3.67,3.67,0,0,0,2.85.72A2.93,2.93,0,0,0,139.42,46.67Z"/><path class="cls-2" d="M43,97.68a2.61,2.61,0,0,0,.13-1,2.93,2.93,0,0,0-2.21-2.54,3.59,3.59,0,0,0-3.3,1,2.53,2.53,0,0,0-.82,1.63,2.58,2.58,0,0,0,1.14,2.07,3.67,3.67,0,0,0,2.85.72A2.93,2.93,0,0,0,43,97.68Z"/><path class="cls-2" d="M135,2a2.61,2.61,0,0,0,.13-1A2.93,2.93,0,0,0,133-1.53a3.59,3.59,0,0,0-3.3,1,2.53,2.53,0,0,0-.82,1.63A2.58,2.58,0,0,0,130,3.14a3.67,3.67,0,0,0,2.85.72A2.93,2.93,0,0,0,135,2Z"/><path class="cls-2" d="M18.54,7a2.61,2.61,0,0,0,.13-1,2.93,2.93,0,0,0-2.21-2.54,3.59,3.59,0,0,0-3.3,1,2.53,2.53,0,0,0-.82,1.63,2.58,2.58,0,0,0,1.14,2.07,3.67,3.67,0,0,0,2.85.72A2.93,2.93,0,0,0,18.54,7Z"/><path class="cls-2" d="M67.16,27.73a2.61,2.61,0,0,0,.13-1,2.93,2.93,0,0,0-2.21-2.54,3.59,3.59,0,0,0-3.3,1A2.53,2.53,0,0,0,61,26.79a2.58,2.58,0,0,0,1.14,2.07,3.67,3.67,0,0,0,2.85.72A2.93,2.93,0,0,0,67.16,27.73Z"/><path class="cls-2" d="M119.71,20.79a2.61,2.61,0,0,0,.13-1,2.93,2.93,0,0,0-2.21-2.54,3.59,3.59,0,0,0-3.3,1,2.53,2.53,0,0,0-.82,1.63,2.58,2.58,0,0,0,1.14,2.07,3.67,3.67,0,0,0,2.85.72A2.93,2.93,0,0,0,119.71,20.79Z"/><path class="cls-2" d="M106.75,67.15a2.61,2.61,0,0,0-.08-1,2.93,2.93,0,0,0-2.68-2,3.59,3.59,0,0,0-3,1.64,2.53,2.53,0,0,0-.47,1.77A2.58,2.58,0,0,0,102,69.31a3.67,3.67,0,0,0,2.93.11A2.93,2.93,0,0,0,106.75,67.15Z"/><path class="cls-2" d="M32.66,67.93a2.61,2.61,0,0,0-.08-1,2.93,2.93,0,0,0-2.68-2,3.59,3.59,0,0,0-3,1.64,2.53,2.53,0,0,0-.47,1.77,2.58,2.58,0,0,0,1.55,1.79,3.67,3.67,0,0,0,2.93.11A2.93,2.93,0,0,0,32.66,67.93Z"/><path class="cls-2" d="M35.31,19a2.61,2.61,0,0,0-.08-1,2.93,2.93,0,0,0-2.68-2,3.59,3.59,0,0,0-3,1.64,2.53,2.53,0,0,0-.47,1.77,2.58,2.58,0,0,0,1.55,1.79,3.67,3.67,0,0,0,2.93.11A2.93,2.93,0,0,0,35.31,19Z"/><path class="cls-2" d="M71.32,101a2.61,2.61,0,0,0-.08-1,2.93,2.93,0,0,0-2.68-2,3.59,3.59,0,0,0-3,1.64,2.53,2.53,0,0,0-.47,1.77,2.58,2.58,0,0,0,1.55,1.79,3.67,3.67,0,0,0,2.93.11A2.93,2.93,0,0,0,71.32,101Z"/><path class="cls-2" d="M106.24,147.61a2.61,2.61,0,0,0-.08-1,2.93,2.93,0,0,0-2.68-2,3.59,3.59,0,0,0-3,1.64A2.53,2.53,0,0,0,100,148a2.58,2.58,0,0,0,1.55,1.79,3.67,3.67,0,0,0,2.93.11A2.93,2.93,0,0,0,106.24,147.61Z"/><path class="cls-2" d="M71.11,68.42a2.61,2.61,0,0,0-.08-1,2.93,2.93,0,0,0-2.68-2,3.59,3.59,0,0,0-3,1.64,2.53,2.53,0,0,0-.47,1.77,2.58,2.58,0,0,0,1.55,1.79,3.67,3.67,0,0,0,2.93.11A2.93,2.93,0,0,0,71.11,68.42Z"/><path class="cls-2" d="M148,105.94a2.61,2.61,0,0,0-.08-1,2.93,2.93,0,0,0-2.68-2,3.59,3.59,0,0,0-3,1.64,2.53,2.53,0,0,0-.47,1.77,2.58,2.58,0,0,0,1.55,1.79,3.67,3.67,0,0,0,2.93.11A2.93,2.93,0,0,0,148,105.94Z"/><path class="cls-2" d="M55.69,52.34a2.61,2.61,0,0,0-.08-1,2.93,2.93,0,0,0-2.68-2,3.59,3.59,0,0,0-3,1.64,2.53,2.53,0,0,0-.47,1.77A2.58,2.58,0,0,0,51,54.5a3.67,3.67,0,0,0,2.93.11A2.93,2.93,0,0,0,55.69,52.34Z"/><path class="cls-2" d="M26.89,116a2.61,2.61,0,0,0-.08-1,2.93,2.93,0,0,0-2.68-2,3.59,3.59,0,0,0-3,1.64,2.53,2.53,0,0,0-.47,1.77,2.58,2.58,0,0,0,1.55,1.79,3.67,3.67,0,0,0,2.93.11A2.93,2.93,0,0,0,26.89,116Z"/><path class="cls-2" d="M115.35,46.76a2.61,2.61,0,0,0-.08-1,2.93,2.93,0,0,0-2.68-2,3.59,3.59,0,0,0-3,1.64,2.53,2.53,0,0,0-.47,1.77,2.58,2.58,0,0,0,1.55,1.79,3.67,3.67,0,0,0,2.93.11A2.93,2.93,0,0,0,115.35,46.76Z"/><path class="cls-2" d="M44.18,128.18a2.61,2.61,0,0,0-.08-1,2.93,2.93,0,0,0-2.68-2,3.59,3.59,0,0,0-3,1.64,2.53,2.53,0,0,0-.47,1.77,2.58,2.58,0,0,0,1.55,1.79,3.67,3.67,0,0,0,2.93.11A2.93,2.93,0,0,0,44.18,128.18Z"/><path class="cls-2" d="M93.7,116.21a2.61,2.61,0,0,0-.08-1,2.93,2.93,0,0,0-2.68-2,3.59,3.59,0,0,0-3,1.64,2.53,2.53,0,0,0-.47,1.77A2.58,2.58,0,0,0,89,118.37a3.67,3.67,0,0,0,2.93.11A2.93,2.93,0,0,0,93.7,116.21Z"/><path class="cls-2" d="M94.2,86.28a2.61,2.61,0,0,0-.08-1,2.93,2.93,0,0,0-2.68-2,3.59,3.59,0,0,0-3,1.64,2.53,2.53,0,0,0-.47,1.77,2.58,2.58,0,0,0,1.55,1.79,3.67,3.67,0,0,0,2.93.11A2.93,2.93,0,0,0,94.2,86.28Z"/><path class="cls-2" d="M122.94,119.24a2.61,2.61,0,0,0-.08-1,2.93,2.93,0,0,0-2.68-2,3.59,3.59,0,0,0-3,1.64,2.53,2.53,0,0,0-.47,1.77,2.58,2.58,0,0,0,1.55,1.79,3.67,3.67,0,0,0,2.93.11A2.93,2.93,0,0,0,122.94,119.24Z"/><path class="cls-2" d="M70.15,133.62a2.61,2.61,0,0,0-.08-1,2.93,2.93,0,0,0-2.68-2,3.59,3.59,0,0,0-3,1.64A2.53,2.53,0,0,0,63.9,134a2.58,2.58,0,0,0,1.55,1.79,3.67,3.67,0,0,0,2.93.11A2.93,2.93,0,0,0,70.15,133.62Z"/><path class="cls-2" d="M137.38,67.91a2.61,2.61,0,0,0-.08-1,2.93,2.93,0,0,0-2.68-2,3.59,3.59,0,0,0-3,1.64,2.53,2.53,0,0,0-.47,1.77,2.58,2.58,0,0,0,1.55,1.79,3.67,3.67,0,0,0,2.93.11A2.93,2.93,0,0,0,137.38,67.91Z"/><path class="cls-2" d="M150,22.68a2.61,2.61,0,0,0-.08-1,2.93,2.93,0,0,0-2.68-2,3.59,3.59,0,0,0-3,1.64,2.53,2.53,0,0,0-.47,1.77,2.58,2.58,0,0,0,1.55,1.79,3.67,3.67,0,0,0,2.93.11A2.93,2.93,0,0,0,150,22.68Z"/><path class="cls-2" d="M41.64,35a2.61,2.61,0,0,0-.08-1,2.93,2.93,0,0,0-2.68-2,3.59,3.59,0,0,0-3,1.64,2.53,2.53,0,0,0-.47,1.77,2.58,2.58,0,0,0,1.55,1.79,3.67,3.67,0,0,0,2.93.11A2.93,2.93,0,0,0,41.64,35Z"/><path class="cls-2" d="M57.72,82.75a2.61,2.61,0,0,0-.08-1,2.93,2.93,0,0,0-2.68-2,3.59,3.59,0,0,0-3,1.64,2.53,2.53,0,0,0-.47,1.77A2.58,2.58,0,0,0,53,84.91a3.67,3.67,0,0,0,2.93.11A2.93,2.93,0,0,0,57.72,82.75Z"/><path class="cls-2" d="M16.64,138a2.61,2.61,0,0,0-.08-1,2.93,2.93,0,0,0-2.68-2,3.59,3.59,0,0,0-3,1.64,2.53,2.53,0,0,0-.47,1.77,2.58,2.58,0,0,0,1.55,1.79,3.67,3.67,0,0,0,2.93.11A2.93,2.93,0,0,0,16.64,138Z"/><path class="cls-2" d="M54.55,1.64a2.61,2.61,0,0,0-.08-1,2.93,2.93,0,0,0-2.68-2,3.59,3.59,0,0,0-3,1.64A2.53,2.53,0,0,0,48.29,2,2.58,2.58,0,0,0,49.84,3.8a3.67,3.67,0,0,0,2.93.11A2.93,2.93,0,0,0,54.55,1.64Z"/><path class="cls-2" d="M4.16,67.09a2.61,2.61,0,0,0-.08-1,2.93,2.93,0,0,0-2.68-2,3.59,3.59,0,0,0-3,1.64,2.53,2.53,0,0,0-.47,1.77A2.58,2.58,0,0,0-.55,69.24a3.67,3.67,0,0,0,2.93.11A2.93,2.93,0,0,0,4.16,67.09Z"/><path class="cls-2" d="M106.24-.8a2.61,2.61,0,0,0-.08-1,2.93,2.93,0,0,0-2.68-2,3.59,3.59,0,0,0-3,1.64A2.53,2.53,0,0,0,100-.42a2.58,2.58,0,0,0,1.55,1.79,3.67,3.67,0,0,0,2.93.11A2.93,2.93,0,0,0,106.24-.8Z"/></pattern></defs><title>background-triangle</title><g id="Layer_2" data-name="Layer 2"><g id="Layer_1-2" data-name="Layer 1"><polygon class="cls-3" points="298.81 0 298.81 394.05 0 394.05 298.81 0"/><polygon class="cls-4" points="298.81 0 298.81 394.05 0 394.05 298.81 0"/></g></g></svg>