<svg xmlns="http://www.w3.org/2000/svg" viewBox="0 0 90.44 86.3"><defs><style>.cls-1{fill:#f2f0e6;}.cls-2{fill:#d0b962;}</style></defs><title>left-brain</title><g id="Layer_2" data-name="Layer 2"><g id="Layer_1-2" data-name="Layer 1"><rect class="cls-1" y="12.3" width="74" height="74"/><path class="cls-2" d="M71.69,59.54l-5-5L70.21,51l-2.65-2.65L64,51.88l-2-2,3.52-3.52-2.65-2.65-3.52,3.52-2-2,3.52-3.52L58.18,39l-3.52,3.52-2-2,3.52-3.52L53.49,34.3,50,37.82l-2-2,3.52-3.52L48.8,29.61l-3.52,3.52-2-2,3.52-3.52-2.65-2.65-3.52,3.52-2-2,3.52-3.52-2.65-2.65-3.52,3.52-5-5L41.69,8,82.48,48.75ZM22.94,18.75,71.69,67.5,90.44,48.75,41.69,0Z"/></g></g></svg>