<svg xmlns="http://www.w3.org/2000/svg" viewBox="0 0 301.51 72.6"><defs><style>.cls-1{fill:#244c5a;}.cls-2{fill:#ffad93;}</style></defs><title>logo</title><g id="Layer_2" data-name="Layer 2"><g id="content"><path class="cls-1" d="M39.55,47v5.46a10.56,10.56,0,0,1-6.12,1.74c-3.72,0-6.7-2.48-7.69-6.37a12.5,12.5,0,0,1-11.09,6.29C6.12,54.15,0,47.11,0,38.75s6.12-15.3,14.65-15.3a12.63,12.63,0,0,1,10.67,5.46V24.19h6V44.55c0,2.4,1.41,4.13,3.89,4.13A5.65,5.65,0,0,0,39.55,47ZM25.32,36.44a9.66,9.66,0,0,0-9.51-7.86,10.18,10.18,0,0,0,0,20.35,9.59,9.59,0,0,0,9.51-7.86Z"/><path class="cls-1" d="M44.43,44.3V29.82H35.66V24.19h8.77V7.72h6V24.19h9.1v5.63h-9.1V43.64c0,2.65,1.32,5.13,4.22,5.13A6.74,6.74,0,0,0,59.25,47v5.38a8.87,8.87,0,0,1-5.71,1.74C47.58,54.15,44.43,50,44.43,44.3Z"/><path class="cls-1" d="M73.48,54.15c-5,0-8.11-4.31-8.11-9V24.19h5.95V44.55a3.87,3.87,0,0,0,4,4.13A6,6,0,0,0,79.6,47v5.38A10.35,10.35,0,0,1,73.48,54.15Z"/><path class="cls-1" d="M107.32,24.19V59.36c0,6-4.22,12.58-10.51,13.24l-2.07-5.13c3.72-.5,6.62-4.39,6.62-8.11V49.26a9.69,9.69,0,0,1-8.52,5c-6.79,0-11.09-5.13-11.09-11.67V24.19h6V42.06c0,4,2.07,6.87,6.29,6.87,4,0,6.87-3.8,7.28-7.86V24.19Z"/><path class="cls-1" d="M140.5,24.19V59.36c0,6-4.22,12.58-10.51,13.24l-2.07-5.13c3.72-.5,6.62-4.39,6.62-8.11V49.26a9.7,9.7,0,0,1-8.52,5c-6.79,0-11.09-5.13-11.09-11.67V24.19h6V42.06c0,4,2.07,6.87,6.29,6.87,4,0,6.87-3.8,7.28-7.86V24.19Z"/><path class="cls-1" d="M184.76,47v5.46a10.56,10.56,0,0,1-6.12,1.74c-3.72,0-6.7-2.48-7.69-6.37a12.5,12.5,0,0,1-11.09,6.29c-8.53,0-14.65-7-14.65-15.4s6.12-15.3,14.65-15.3a12.63,12.63,0,0,1,10.67,5.46V24.19h6V44.55c0,2.4,1.41,4.13,3.89,4.13A5.65,5.65,0,0,0,184.76,47ZM170.53,36.44A9.66,9.66,0,0,0,161,28.58a10.18,10.18,0,0,0,0,20.35,9.59,9.59,0,0,0,9.51-7.86Z"/><path class="cls-1" d="M197.56,41.69h3.65a5.34,5.34,0,1,1,0,10.67h-3.65Zm3.65,9.49a3.93,3.93,0,0,0,4.1-4.15,3.91,3.91,0,0,0-4.1-4.16h-2.32v8.31Z"/><path class="cls-1" d="M211,41.69h7v1.18h-5.67v3.44h5.55V47.5h-5.55v3.68H218v1.18h-7Z"/><path class="cls-1" d="M221.24,41.69h1.52l3.6,9.22,3.6-9.22h1.52l-4.3,10.67h-1.65Z"/><path class="cls-1" d="M235.11,41.69h7v1.18h-5.67v3.44H242V47.5h-5.55v3.68h5.67v1.18h-7Z"/><path class="cls-1" d="M246.46,41.69h1.32v9.49h5v1.18h-6.29Z"/><path class="cls-1" d="M261.18,41.51A5.21,5.21,0,0,1,266.47,47a5.3,5.3,0,1,1-10.59,0A5.21,5.21,0,0,1,261.18,41.51Zm0,1.18c-2.4,0-3.93,1.85-3.93,4.34s1.53,4.34,3.93,4.34,3.92-1.86,3.92-4.34S263.56,42.69,261.18,42.69Z"/><path class="cls-1" d="M270.79,41.69h4.29a3.22,3.22,0,1,1,0,6.43h-3v4.24h-1.33Zm4.13,1.18h-2.8v4.07h2.8a2,2,0,1,0,0-4.07Z"/><path class="cls-1" d="M282.42,41.69h7v1.18h-5.67v3.44h5.55V47.5h-5.55v3.68h5.67v1.18h-7Z"/><path class="cls-1" d="M297.22,48.12h-2.13v4.24h-1.33V41.69h4.29a3.1,3.1,0,0,1,3.35,3.21A3,3,0,0,1,298.63,48l2.88,4.35h-1.57Zm.67-5.25h-2.8V47h2.8a2,2,0,1,0,0-4.08Z"/><path class="cls-1" d="M197.56,23.38h3.65a5.2,5.2,0,0,1,5.48,5.35,5.18,5.18,0,0,1-5.48,5.33h-3.65Zm3.65,9.49a3.93,3.93,0,0,0,4.1-4.14,3.91,3.91,0,0,0-4.1-4.17h-2.32v8.31Z"/><path class="cls-1" d="M211,23.38h7v1.18h-5.67V28h5.55v1.19h-5.55v3.68H218v1.19h-7Z"/><path class="cls-1" d="M222.49,31.54a4.47,4.47,0,0,0,3.36,1.52c1.9,0,2.51-1,2.51-1.84,0-1.28-1.29-1.63-2.7-2-1.71-.45-3.62-.93-3.62-3,0-1.76,1.57-3,3.67-3a5,5,0,0,1,3.79,1.49l-.8,1a4.09,4.09,0,0,0-3.09-1.28c-1.28,0-2.19.69-2.19,1.7s1.23,1.39,2.59,1.76c1.74.47,3.73,1,3.73,3.25,0,1.55-1.06,3.14-3.94,3.14a5.31,5.31,0,0,1-4.1-1.7Z"/><path class="cls-1" d="M234,23.38h1.33V34.06H234Z"/><path class="cls-1" d="M245.08,23.2a5.13,5.13,0,0,1,4.15,2l-1.06.66a4,4,0,0,0-3.09-1.47A4.1,4.1,0,0,0,241,28.73a4.13,4.13,0,0,0,4.11,4.35A4.27,4.27,0,0,0,248,31.93V29.75h-3.67V28.57h5v3.85a5.56,5.56,0,0,1-4.2,1.84,5.35,5.35,0,0,1-5.49-5.53A5.34,5.34,0,0,1,245.08,23.2Z"/><path class="cls-1" d="M255,25.44v8.62h-1.33V23.38H255l6.15,8.43V23.38h1.33V34.06h-1.28Z"/><path class="cls-1" d="M267.24,23.38h7v1.18h-5.66V28h5.55v1.19h-5.55v3.68h5.66v1.19h-7Z"/><path class="cls-1" d="M282,29.81h-2.13v4.25h-1.33V23.38h4.29a3.12,3.12,0,0,1,3.35,3.22,3,3,0,0,1-2.77,3.1l2.88,4.36h-1.57Zm.67-5.25h-2.8v4.09h2.8a2,2,0,1,0,0-4.09Z"/><path class="cls-2" d="M60.22,8.26a8.12,8.12,0,1,1,16.23,0,8.09,8.09,0,0,1-8.11,8.12A8.19,8.19,0,0,1,60.22,8.26Z"/></g></g></svg>