<svg xmlns="http://www.w3.org/2000/svg" viewBox="0 0 286.33 72.6"><defs><style>.cls-1{fill:#244c5a;}.cls-2{fill:#ffad93;}</style></defs><title>logo-gd</title><g id="Layer_2" data-name="Layer 2"><g id="content"><path class="cls-1" d="M39.55,47v5.46a10.56,10.56,0,0,1-6.12,1.74c-3.72,0-6.7-2.48-7.69-6.37a12.5,12.5,0,0,1-11.09,6.29C6.12,54.15,0,47.11,0,38.76S6.12,23.45,14.65,23.45a12.63,12.63,0,0,1,10.67,5.46V24.19h6V44.55c0,2.4,1.41,4.13,3.89,4.13A5.65,5.65,0,0,0,39.55,47ZM25.32,36.44a9.66,9.66,0,0,0-9.51-7.86,10.18,10.18,0,0,0,0,20.35,9.59,9.59,0,0,0,9.51-7.86Z"/><path class="cls-1" d="M44.43,44.3V29.82H35.66V24.19h8.77V7.72h6V24.19h9.1v5.63h-9.1V43.64c0,2.65,1.32,5.13,4.22,5.13A6.74,6.74,0,0,0,59.25,47v5.38a8.87,8.87,0,0,1-5.71,1.74C47.58,54.15,44.43,50,44.43,44.3Z"/><path class="cls-1" d="M73.48,54.15c-5,0-8.11-4.31-8.11-9V24.19h5.95V44.55a3.87,3.87,0,0,0,4,4.13A6,6,0,0,0,79.6,47v5.38A10.35,10.35,0,0,1,73.48,54.15Z"/><path class="cls-1" d="M107.32,24.19V59.36c0,6-4.22,12.58-10.51,13.24l-2.07-5.13c3.72-.5,6.62-4.39,6.62-8.11V49.26a9.69,9.69,0,0,1-8.52,5c-6.79,0-11.09-5.13-11.09-11.67V24.19h6V42.06c0,4,2.07,6.87,6.29,6.87,4,0,6.87-3.8,7.28-7.86V24.19Z"/><path class="cls-1" d="M140.5,24.19V59.36c0,6-4.22,12.58-10.51,13.24l-2.07-5.13c3.72-.5,6.62-4.39,6.62-8.11V49.26a9.7,9.7,0,0,1-8.52,5c-6.79,0-11.09-5.13-11.09-11.67V24.19h6V42.06c0,4,2.07,6.87,6.29,6.87,4,0,6.87-3.8,7.28-7.86V24.19Z"/><path class="cls-1" d="M184.76,47v5.46a10.56,10.56,0,0,1-6.12,1.74c-3.72,0-6.7-2.48-7.69-6.37a12.5,12.5,0,0,1-11.09,6.29c-8.53,0-14.65-7-14.65-15.39s6.12-15.31,14.65-15.31a12.63,12.63,0,0,1,10.67,5.46V24.19h6V44.55c0,2.4,1.41,4.13,3.89,4.13A5.65,5.65,0,0,0,184.76,47ZM170.53,36.44A9.66,9.66,0,0,0,161,28.58a10.18,10.18,0,0,0,0,20.35,9.59,9.59,0,0,0,9.51-7.86Z"/><path class="cls-1" d="M197.56,41.69h3.65a5.34,5.34,0,1,1,0,10.67h-3.65Zm3.65,9.49a3.93,3.93,0,0,0,4.1-4.15,3.91,3.91,0,0,0-4.1-4.16h-2.32v8.31Z"/><path class="cls-1" d="M211,41.69h7v1.18h-5.67v3.44h5.55V47.5h-5.55v3.68H218v1.18h-7Z"/><path class="cls-1" d="M222.49,49.85a4.51,4.51,0,0,0,3.36,1.52c1.9,0,2.51-1,2.51-1.84,0-1.28-1.29-1.63-2.7-2-1.71-.45-3.62-.93-3.62-3,0-1.76,1.57-3,3.67-3A5,5,0,0,1,229.5,43l-.8,1a4.09,4.09,0,0,0-3.09-1.28c-1.28,0-2.19.69-2.19,1.7s1.23,1.39,2.59,1.76c1.74.46,3.73,1,3.73,3.25,0,1.55-1.06,3.13-3.94,3.13a5.31,5.31,0,0,1-4.1-1.69Z"/><path class="cls-1" d="M234,41.69h1.33V52.36H234Z"/><path class="cls-1" d="M245.08,41.51a5.1,5.1,0,0,1,4.15,2l-1.06.66a3.92,3.92,0,0,0-3.09-1.48,4.36,4.36,0,0,0,0,8.7A4.22,4.22,0,0,0,248,50.23V48.06h-3.67V46.87h5v3.86a5.59,5.59,0,0,1-4.2,1.84,5.53,5.53,0,0,1,0-11.06Z"/><path class="cls-1" d="M255,43.75v8.61h-1.33V41.69H255l6.15,8.43V41.69h1.33V52.36h-1.28Z"/><path class="cls-1" d="M267.24,41.69h7v1.18h-5.66v3.44h5.55V47.5h-5.55v3.68h5.66v1.18h-7Z"/><path class="cls-1" d="M282,48.12h-2.13v4.24h-1.33V41.69h4.29a3.11,3.11,0,0,1,3.35,3.21A3,3,0,0,1,283.45,48l2.88,4.35h-1.57Zm.67-5.25h-2.8V47h2.8a2,2,0,1,0,0-4.08Z"/><path class="cls-1" d="M202.62,23.21a5.1,5.1,0,0,1,4.15,2l-1.06.65a4,4,0,0,0-3.09-1.47,4.09,4.09,0,0,0-4.11,4.34,4.11,4.11,0,0,0,4.11,4.35,4.22,4.22,0,0,0,2.87-1.15V29.75h-3.67V28.57h5v3.85a5.54,5.54,0,0,1-4.19,1.85,5.36,5.36,0,0,1-5.49-5.54A5.33,5.33,0,0,1,202.62,23.21Z"/><path class="cls-1" d="M214.67,29.82h-2.13v4.24h-1.33V23.38h4.29a3.11,3.11,0,0,1,3.34,3.22,2.94,2.94,0,0,1-2.76,3.1L219,34.06h-1.57Zm.67-5.25h-2.8v4.08h2.8a2,2,0,1,0,0-4.08Z"/><path class="cls-1" d="M229.9,31.69h-5.41l-1,2.37h-1.47l4.29-10.68H228l4.31,10.68h-1.48Zm-5-1.19h4.63l-2.31-5.93Z"/><path class="cls-1" d="M235.94,23.38h4.29a3.22,3.22,0,1,1,0,6.44h-3v4.24h-1.33Zm4.13,1.19h-2.8v4.06h2.8a2,2,0,1,0,0-4.06Z"/><path class="cls-1" d="M255.15,29.16H248.9v4.9h-1.32V23.38h1.32V28h6.25v-4.6h1.33V34.06h-1.33Z"/><path class="cls-1" d="M261.21,23.38h1.33V34.06h-1.33Z"/><path class="cls-1" d="M266.84,28.73a5.33,5.33,0,0,1,5.44-5.52,4.8,4.8,0,0,1,4.1,2.11l-1.12.62a3.64,3.64,0,0,0-3-1.55,4.08,4.08,0,0,0-4.06,4.34,4.1,4.1,0,0,0,4.06,4.34,3.6,3.6,0,0,0,3-1.56l1.13.63a4.85,4.85,0,0,1-4.11,2.11A5.33,5.33,0,0,1,266.84,28.73Z"/><path class="cls-2" d="M60.22,8.26a8.12,8.12,0,1,1,16.23,0,8.09,8.09,0,0,1-8.11,8.12A8.19,8.19,0,0,1,60.22,8.26Z"/></g></g></svg>