<?xml version="1.0" encoding="UTF-8"?>
<svg width="1440px" height="639px" viewBox="0 0 1440 639" version="1.1" xmlns="http://www.w3.org/2000/svg" xmlns:xlink="http://www.w3.org/1999/xlink">
    <!-- Generator: Sketch 42 (36781) - http://www.bohemiancoding.com/sketch -->
    <title>banner</title>
    <desc>Created with Sketch.</desc>
    <defs>
        <linearGradient x1="50%" y1="0%" x2="50%" y2="100%" id="linearGradient-1">
            <stop stop-color="#F7A924" offset="0%"></stop>
            <stop stop-color="#FF1255" offset="100%"></stop>
        </linearGradient>
        <rect id="path-2" x="0" y="0" width="1441" height="638.519915"></rect>
        <polygon id="path-4" points="0 163.846078 527.626468 163.846078 527.626468 0 0 0"></polygon>
    </defs>
    <g id="portfolio-interior" stroke="none" stroke-width="1" fill="none" fill-rule="evenodd">
        <g id="Desktop-HD-Copy-3" transform="translate(0.000000, -121.000000)">
            <g id="banner" transform="translate(0.000000, 121.000000)">
                <g id="Page-1">
                    <mask id="mask-3" fill="white">
                        <use xlink:href="#path-2"></use>
                    </mask>
                    <use id="Mask" fill="url(#linearGradient-1)" xlink:href="#path-2"></use>
                </g>
                <g id="logo" transform="translate(467.000000, 238.000000)">
                    <path d="M51.9185957,118.044177 C54.4631064,116.560847 56.5217447,114.62583 58.0935745,112.240042 C59.6625957,109.854255 60.774766,107.070836 61.4254043,103.890702 C62.0751064,100.709651 62.3999574,97.4772939 62.3999574,94.1899642 C62.3999574,90.904467 62.0470213,87.6693609 61.3439574,84.4883106 C60.6380851,81.3072603 59.4753617,78.4725341 57.8501702,75.980467 C56.2249787,73.4902324 54.1382553,71.4755061 51.5937447,69.9372045 C49.0473617,68.4007352 45.9317872,67.6311263 42.2498298,67.6311263 C38.4564681,67.6311263 35.2875319,68.4007352 32.7439574,69.9372045 C30.1966383,71.4755061 28.138,73.4627464 26.5689787,75.9007575 C24.9971489,78.3406011 23.8877872,81.1487575 23.2380851,84.3288916 C22.5874468,87.5099419 22.2625957,90.7981877 22.2625957,94.1899642 C22.2625957,97.4772939 22.6127234,100.709651 23.3185957,103.890702 C24.0225957,107.070836 25.1600426,109.854255 26.7318723,112.240042 C28.2999574,114.62583 30.387617,116.560847 32.9873617,118.044177 C35.5880426,119.530255 38.7288936,120.271461 42.4127234,120.271461 C46.2032766,120.271461 49.3722128,119.530255 51.9185957,118.044177 Z M21.9377447,52.8408916 L21.9377447,63.3368916 L22.2625957,63.3368916 C25.0785957,58.8841542 28.6528936,55.6508804 32.9873617,53.6361542 C37.3190213,51.6232603 42.0878723,50.6145229 47.2873617,50.6145229 C53.8939149,50.6145229 59.5820851,51.8339866 64.35,54.272914 C69.1160426,56.7127575 73.0694894,59.9451151 76.2122128,63.9727352 C79.3530638,68.0040201 81.6813191,72.6949698 83.1997872,78.0474168 C84.7154468,83.4016961 85.4746809,88.9960201 85.4746809,94.8258078 C85.4746809,100.339506 84.7154468,105.63973 83.1997872,110.729227 C81.6813191,115.817808 79.3811489,120.325517 76.2936596,124.246858 C73.2061702,128.170947 69.3594468,131.298858 64.7562979,133.629674 C60.1503404,135.960489 54.7626809,137.128646 48.5877021,137.128646 C43.3872766,137.128646 38.5940851,136.094255 34.2062553,134.027305 C29.8193617,131.959439 26.2160426,128.91307 23.4000426,124.882702 L23.0751915,124.882702 L23.0751915,163.845987 L0.000468085106,163.845987 L0.000468085106,52.8408916 L21.9377447,52.8408916 Z" id="Fill-1" fill="#FFFFFF"></path>
                    <path d="M115.861081,103.651573 C116.510783,106.7804 117.620145,109.590389 119.192911,112.080623 C120.760996,114.572691 122.848655,116.560847 125.4484,118.044177 C128.049081,119.530255 131.298528,120.271461 135.198613,120.271461 C139.098698,120.271461 142.374357,119.530255 145.030272,118.044177 C147.683379,116.560847 149.795379,114.572691 151.367209,112.080623 C152.93623,109.590389 154.0484,106.7804 154.698102,103.651573 C155.34874,100.526411 155.673591,97.3178749 155.673591,94.0305453 C155.673591,90.745048 155.34874,87.5099419 154.698102,84.3288916 C154.0484,81.1487575 152.93623,78.3406011 151.367209,75.9007575 C149.795379,73.4627464 147.683379,71.4755061 145.030272,69.9372045 C142.374357,68.4007352 139.098698,67.6311263 135.198613,67.6311263 C131.298528,67.6311263 128.049081,68.4007352 125.4484,69.9372045 C122.848655,71.4755061 120.760996,73.4627464 119.192911,75.9007575 C117.620145,78.3406011 116.510783,81.1487575 115.861081,84.3288916 C115.211379,87.5099419 114.885591,90.745048 114.885591,94.0305453 C114.885591,97.3178749 115.211379,100.526411 115.861081,103.651573 M94.8983574,76.139886 C96.9551234,70.7865229 99.8806553,66.2265899 103.673081,62.4619196 C107.46457,58.6999978 112.014357,55.7828134 117.323379,53.7158637 C122.629591,51.6479978 128.589251,50.6145229 135.198613,50.6145229 C141.805166,50.6145229 147.791974,51.6479978 153.154357,53.7158637 C158.51674,55.7828134 163.09274,58.6999978 166.886102,62.4619196 C170.676655,66.2265899 173.602187,70.7865229 175.660826,76.139886 C177.717591,81.4941654 178.748315,87.4577184 178.748315,94.0305453 C178.748315,100.605204 177.717591,106.541272 175.660826,111.841495 C173.602187,117.145383 170.676655,121.67783 166.886102,125.438836 C163.09274,129.204422 158.51674,132.094121 153.154357,134.107015 C147.791974,136.119908 141.805166,137.128646 135.198613,137.128646 C128.589251,137.128646 122.629591,136.119908 117.323379,134.107015 C112.014357,132.094121 107.46457,129.204422 103.673081,125.438836 C99.8806553,121.67783 96.9551234,117.145383 94.8983574,111.841495 C92.8397191,106.541272 91.8118043,100.605204 91.8118043,94.0305453 C91.8118043,87.4577184 92.8397191,81.4941654 94.8983574,76.139886" id="Fill-3" fill="#FFFFFF"></path>
                    <mask id="mask-5" fill="white">
                        <use xlink:href="#path-4"></use>
                    </mask>
                    <g id="Clip-6"></g>
                    <polygon id="Fill-5" fill="#FFFFFF" mask="url(#mask-5)" points="184.597787 135.060872 207.672511 135.060872 207.672511 52.8409832 184.597787 52.8409832"></polygon>
                    <path d="M239.683821,52.8408916 L239.683821,64.2915732 L240.171566,64.2915732 C243.096162,59.5199978 246.886715,56.0485117 251.546034,53.8743665 C256.202545,51.7029698 260.971396,50.6145229 265.846034,50.6145229 C272.021013,50.6145229 277.083821,51.4372715 281.040077,53.0800201 C284.992587,54.7246011 288.109098,57.0031933 290.383055,59.9185453 C292.657949,62.8348134 294.255055,66.3860089 295.177183,70.573048 C296.096502,74.7628358 296.558034,79.3988134 296.558034,84.4883106 L296.558034,135.06078 L273.483311,135.06078 L273.483311,88.6240425 C273.483311,81.8395732 272.399226,76.7757296 270.233864,73.4361765 C268.064757,70.0957073 264.220843,68.4263888 258.696502,68.4263888 C252.411991,68.4263888 247.862204,70.2551263 245.046204,73.9126011 C242.227396,77.570076 240.821268,83.5895173 240.821268,91.9626793 L240.821268,135.06078 L217.745609,135.06078 L217.745609,52.8408916 L239.683821,52.8408916 Z" id="Fill-7" fill="#FFFFFF" mask="url(#mask-5)"></path>
                    <path d="M353.756723,52.8408916 L353.756723,67.949048 L336.856979,67.949048 L336.856979,108.661361 C336.856979,112.478255 337.506681,115.022545 338.806085,116.295149 C340.106426,117.566836 342.70617,118.203596 346.606255,118.203596 C347.906596,118.203596 349.150766,118.151372 350.343447,118.044177 C351.534255,117.940646 352.672638,117.781227 353.756723,117.566836 L353.756723,135.06078 C351.806681,135.378702 349.638511,135.590344 347.256894,135.69754 C344.872468,135.801987 342.544213,135.856042 340.269319,135.856042 C336.694085,135.856042 333.307021,135.61783 330.112809,135.140489 C326.916723,134.664065 324.100723,133.736869 321.662936,132.35707 C319.225149,130.980936 317.301319,129.018434 315.894255,126.473227 C314.485319,123.928936 313.781319,120.588467 313.781319,116.454568 L313.781319,67.949048 L299.807106,67.949048 L299.807106,52.8408916 L313.781319,52.8408916 L313.781319,28.1905006 L336.856979,28.1905006 L336.856979,52.8408916 L353.756723,52.8408916 Z" id="Fill-8" fill="#FFFFFF" mask="url(#mask-5)"></path>
                    <path d="M359.279566,67.9492313 L359.279566,52.8410749 L373.091821,52.8410749 L373.091821,46.4789743 C373.091821,39.1640246 375.420077,33.1757341 380.079396,28.5086056 C384.735906,23.8442257 391.779651,21.5106615 401.204077,21.5106615 C403.260843,21.5106615 405.320417,21.5903709 407.379055,21.7497899 C409.435821,21.9092089 411.442034,22.0438905 413.392077,22.1474212 L413.392077,39.0046056 C410.6828,38.6876 407.8668,38.528181 404.942204,38.528181 C401.798545,38.528181 399.551736,39.2437341 398.198034,40.673924 C396.84246,42.1059464 396.166545,44.5192201 396.166545,47.9109966 L396.166545,52.8410749 L412.091736,52.8410749 L412.091736,67.9492313 L396.166545,67.9492313 L396.166545,135.060963 L373.091821,135.060963 L373.091821,67.9492313 L359.279566,67.9492313 Z" id="Fill-9" fill="#FFFFFF" mask="url(#mask-5)"></path>
                    <path d="M474.165626,135.060963 L474.165626,123.610282 L473.677881,123.610282 C470.753285,128.381857 466.959923,131.828606 462.303413,133.947779 C457.644094,136.067868 452.878051,137.128829 448.003413,137.128829 C441.828434,137.128829 436.762817,136.333566 432.80937,134.743041 C428.854051,133.152516 425.740349,130.90141 423.465455,127.983309 C421.190562,125.06979 419.591583,121.518594 418.672264,117.328807 C417.750136,113.141768 417.290477,108.503041 417.290477,103.413544 L417.290477,52.8410749 L440.366136,52.8410749 L440.366136,99.2778123 C440.366136,106.06503 441.447413,111.126125 443.615583,114.465678 C445.781881,117.806147 449.628604,119.475466 455.152945,119.475466 C461.434647,119.475466 465.984434,117.646728 468.803243,113.989254 C471.619243,110.331779 473.028179,104.315086 473.028179,95.9391754 L473.028179,52.8410749 L496.102902,52.8410749 L496.102902,135.060963 L474.165626,135.060963 Z" id="Fill-10" fill="#FFFFFF" mask="url(#mask-5)"></path>
                    <polygon id="Fill-11" fill="#FFFFFF" mask="url(#mask-5)" points="504.551745 135.060872 527.626468 135.060872 527.626468 21.5105698 504.551745 21.5105698"></polygon>
                    <polygon id="Fill-12" fill="#FFFFFF" mask="url(#mask-5)" points="207.433881 40.5794637 196.134306 25.1561341 184.834732 40.5794637 172.661711 32.0368045 196.134306 0 219.606902 32.0368045"></polygon>
                </g>
            </g>
        </g>
    </g>
</svg>