<svg xmlns="http://www.w3.org/2000/svg" viewBox="0 0 563.6 178.83"><defs><style>.cls-1{fill:#f6a924;}.cls-2{fill:#ff1255;}</style></defs><title>logo</title><g id="Layer_2" data-name="Layer 2"><g id="logo"><path class="cls-1" d="M23.43,57.67V69.13h.35A27.1,27.1,0,0,1,35.24,58.54a35.16,35.16,0,0,1,15.27-3.3q10.59,0,18.23,4A37.68,37.68,0,0,1,81.41,69.82a44.79,44.79,0,0,1,7.46,15.36A68.29,68.29,0,0,1,91.3,103.5a61.71,61.71,0,0,1-2.43,17.36,44.2,44.2,0,0,1-7.38,14.75,36.51,36.51,0,0,1-12.32,10.24,37.1,37.1,0,0,1-17.27,3.82,35,35,0,0,1-15.36-3.38,29.06,29.06,0,0,1-11.54-10h-.35v42.53H0V57.67Zm32,71.17a19.77,19.77,0,0,0,6.6-6.33,26.14,26.14,0,0,0,3.56-9.11,53.85,53.85,0,0,0,1-10.59,50,50,0,0,0-1.13-10.59,28.23,28.23,0,0,0-3.73-9.29,20.83,20.83,0,0,0-6.68-6.6,18.68,18.68,0,0,0-10-2.52A19,19,0,0,0,35,76.33a20.25,20.25,0,0,0-6.6,6.51A27,27,0,0,0,24.82,92a54.76,54.76,0,0,0-1,10.76,49.74,49.74,0,0,0,1.13,10.59,27.32,27.32,0,0,0,3.65,9.11,19,19,0,0,0,16.75,8.77A19.53,19.53,0,0,0,55.46,128.84Z"/><path class="cls-1" d="M101.37,83.1a41,41,0,0,1,24-24.47,51.24,51.24,0,0,1,19.09-3.38,51.94,51.94,0,0,1,19.18,3.38,40.86,40.86,0,0,1,24,24.47,55.13,55.13,0,0,1,3.3,19.53,54.4,54.4,0,0,1-3.3,19.44,42.15,42.15,0,0,1-9.37,14.84,40.84,40.84,0,0,1-14.67,9.46,53.21,53.21,0,0,1-19.18,3.3,52.49,52.49,0,0,1-19.09-3.3,41,41,0,0,1-14.58-9.46,42.08,42.08,0,0,1-9.37-14.84,54.34,54.34,0,0,1-3.3-19.44A55.07,55.07,0,0,1,101.37,83.1Zm22.39,30a27.93,27.93,0,0,0,3.56,9.2,18.92,18.92,0,0,0,6.68,6.51,20.38,20.38,0,0,0,10.41,2.43,20.87,20.87,0,0,0,10.5-2.43,18.74,18.74,0,0,0,6.77-6.51,28,28,0,0,0,3.56-9.2,52.53,52.53,0,0,0,1-10.5,53.87,53.87,0,0,0-1-10.59,27.08,27.08,0,0,0-3.56-9.2,19.77,19.77,0,0,0-6.77-6.51,20.32,20.32,0,0,0-10.5-2.52,19,19,0,0,0-17.1,9,27,27,0,0,0-3.56,9.2,53.87,53.87,0,0,0-1,10.59A52.53,52.53,0,0,0,123.76,113.13Z"/><path class="cls-1" d="M221.83,57.67v89.74H197.18V57.67Z"/><path class="cls-1" d="M256,57.67v12.5h.52A28.28,28.28,0,0,1,268.7,58.8,35.16,35.16,0,0,1,284,55.24q9.89,0,16.23,2.69a24.08,24.08,0,0,1,10,7.46A28.91,28.91,0,0,1,315.3,77a72.46,72.46,0,0,1,1.48,15.19v55.2H292.13V96.73q0-11.11-3.47-16.58t-12.32-5.47q-10.07,0-14.58,6t-4.51,19.7v47H232.59V57.67Z"/><path class="cls-1" d="M377.88,57.67V74.16H359.82V118.6q0,6.25,2.08,8.33t8.33,2.08q2.08,0,4-.17a33.5,33.5,0,0,0,3.65-.52v19.09a58.9,58.9,0,0,1-6.94.69q-3.82.17-7.46.17a72,72,0,0,1-10.85-.78,25.55,25.55,0,0,1-9-3,16.06,16.06,0,0,1-6.16-6.42q-2.26-4.17-2.26-10.94V74.16H320.25V57.67h14.93V30.77h24.65V57.67Z"/><path class="cls-2" d="M383.78,74.16V57.67h14.75V50.73q0-12,7.46-19.61t22.56-7.64q3.3,0,6.6.26t6.42.43v18.4a75.87,75.87,0,0,0-9-.52q-5,0-7.2,2.34t-2.17,7.9v5.38h17V74.16h-17v73.25H398.53V74.16Z"/><path class="cls-2" d="M506.5,147.41v-12.5H506a27.73,27.73,0,0,1-12.15,11.28,35.88,35.88,0,0,1-15.27,3.47q-9.89,0-16.23-2.6a23.4,23.4,0,0,1-10-7.38,28.84,28.84,0,0,1-5.12-11.63,72.26,72.26,0,0,1-1.48-15.19V57.67h24.65v50.68q0,11.11,3.47,16.58t12.32,5.47q10.06,0,14.58-6t4.51-19.7v-47h24.65v89.74Z"/><path class="cls-2" d="M563.6,23.48V147.41H539V23.48Z"/><polygon class="cls-2" points="221.58 44.29 209.51 27.46 197.44 44.29 184.44 34.97 209.51 0 234.58 34.97 221.58 44.29"/></g></g></svg>