<svg xmlns="http://www.w3.org/2000/svg" viewBox="0 0 1440.03 639"><defs><style>.cls-1{fill:#cfebef;}.cls-2{fill:#d3d028;}.cls-3{fill:#0c5682;}.cls-4{fill:#e11a78;}.cls-5{fill:#2bbec9;}.cls-6{fill:#e11777;}.cls-7{fill:#0a5682;}.cls-8{fill:#f7fcfe;}.cls-9{fill:#d3cf28;}</style></defs><title>banner</title><g id="Layer_2" data-name="Layer 2"><g id="background"><rect class="cls-1" width="1440.03" height="639"/></g><g id="Layer_3" data-name="Layer 3"><path class="cls-2" d="M504.09,291.14s.67-.47,1.87-1.22,2.88-1.85,4.89-3.18l3.21-2.16c1.14-.75,2.29-1.63,3.53-2.46s2.45-1.79,3.7-2.73,2.5-1.92,3.75-2.9c2.47-2,4.91-4,7.16-6,1.09-1,2.2-1.94,3.2-2.88l2.83-2.64c1.74-1.65,3.19-3.05,4.2-4s1.61-1.54,1.61-1.54-.4.71-1.15,1.92c-.37.61-.84,1.33-1.42,2.14s-1.21,1.73-2,2.68-1.57,2-2.5,3-1.92,2.14-3,3.24-2.19,2.21-3.4,3.26-2.45,2.11-3.71,3.16-2.59,2-3.92,2.89-2.66,1.76-3.94,2.58-2.59,1.53-3.83,2.18-2.42,1.25-3.53,1.75-2.14,1-3.06,1.32-1.73.68-2.4.9C504.87,290.91,504.09,291.14,504.09,291.14Z"/><path class="cls-2" d="M510.79,305.23s.71.1,1.94.34c.61.12,1.36.27,2.21.48s1.81.43,2.84.73,2.15.6,3.32,1,2.4.79,3.65,1.26,2.56.94,3.84,1.52,2.6,1.14,3.9,1.72,2.58,1.24,3.82,1.9,2.45,1.34,3.62,2,2.27,1.34,3.3,2,2,1.3,2.88,1.92,1.68,1.19,2.37,1.72,1.29,1,1.78,1.39c1,.79,1.51,1.28,1.51,1.28s-.67-.26-1.82-.77-2.77-1.23-4.7-2.13l-3.1-1.45c-1.09-.53-2.27-1-3.45-1.63L531.22,315l-14-6.59c-1.92-.91-3.51-1.69-4.64-2.25S510.79,305.23,510.79,305.23Z"/><path class="cls-2" d="M500.86,321.58s.68.66,1.82,1.83c.57.59,1.26,1.31,2,2.17s1.64,1.81,2.53,2.9,1.88,2.25,2.86,3.53,2,2.63,3,4.06,2.09,2.91,3.08,4.47,2,3.14,3,4.73,1.9,3.24,2.79,4.87,1.71,3.25,2.53,4.81,1.52,3.11,2.18,4.59,1.27,2.87,1.79,4.18,1,2.51,1.39,3.59.72,2,1,2.8c.51,1.56.77,2.47.77,2.47s-.5-.8-1.32-2.22L527,364.47l-4.74-8.27-2.72-4.62c-.91-1.58-1.89-3.16-2.84-4.75s-1.9-3.18-2.88-4.73L511,337.54l-5.11-8-3.63-5.71C501.34,322.39,500.86,321.58,500.86,321.58Z"/><path class="cls-2" d="M484.64,318.34s0,.58-.07,1.57c0,.5-.08,1.1-.17,1.79s-.17,1.47-.33,2.31a55.8,55.8,0,0,1-1.26,5.69c-.3,1-.6,2.08-1,3.14s-.77,2.12-1.17,3.19-.87,2.1-1.36,3.11-1,2-1.46,2.94a55.3,55.3,0,0,1-3,5c-.47.71-.94,1.34-1.36,1.89s-.79,1-1.12,1.41c-.64.77-1,1.19-1,1.19s.17-.55.52-1.48.85-2.25,1.47-3.82l4.58-11.35,4.54-11.37c.63-1.56,1.18-2.85,1.57-3.77S484.64,318.34,484.64,318.34Z"/><path class="cls-2" d="M476,312.63s-3.47,3-8.89,7.11c-1.35,1-2.82,2.16-4.4,3.31s-3.22,2.4-5,3.63-3.51,2.54-5.35,3.81l-5.57,3.86-5.62,3.78c-1.85,1.26-3.71,2.43-5.49,3.59-3.57,2.31-6.95,4.42-9.87,6.18-5.83,3.54-9.86,5.69-9.86,5.69s3.47-3,8.89-7.11c2.7-2.08,5.89-4.45,9.35-6.94,1.74-1.23,3.5-2.54,5.35-3.8l5.57-3.86,5.63-3.78c1.85-1.25,3.71-2.42,5.49-3.59s3.53-2.25,5.18-3.29,3.23-2,4.69-2.89C472,314.78,476,312.63,476,312.63Z"/><path class="cls-2" d="M434.11,290.68s.7.14,1.92.44l5,1.14c2.06.45,4.45.93,7,1.39,1.28.25,2.62.42,4,.64s2.73.39,4.11.53,2.76.3,4.12.42,2.7.23,4,.3l3.76.17,3.38.08c2.1,0,3.85,0,5.09-.1l2-.12a19.23,19.23,0,0,1-1.84.7,32.63,32.63,0,0,1-5.06,1.23c-1.06.18-2.23.35-3.45.44s-2.53.21-3.87.23-2.74,0-4.15,0-2.85-.18-4.28-.35-2.85-.4-4.24-.66c-.7-.11-1.38-.27-2.06-.43s-1.34-.32-2-.49c-1.31-.31-2.55-.73-3.72-1.11s-2.26-.8-3.25-1.21a46.46,46.46,0,0,1-4.69-2.22C434.72,291.06,434.11,290.68,434.11,290.68Z"/><path class="cls-2" d="M440.09,222.66s.54,1.12,1.44,3.09c.43,1,1,2.18,1.64,3.54s1.35,2.89,2.16,4.56,1.7,3.45,2.63,5.35,2,3.85,3,5.9,2.23,4.11,3.41,6.22,2.42,4.22,3.66,6.34,2.51,4.21,3.84,6.23,2.59,4,3.85,6,2.52,3.76,3.75,5.48,2.36,3.37,3.45,4.85,2.08,2.87,3,4.07,1.67,2.27,2.33,3.12c1.31,1.73,2,2.73,2,2.73s-.91-.84-2.48-2.34c-.79-.75-1.73-1.68-2.76-2.78l-1.67-1.74c-.58-.62-1.16-1.3-1.78-2s-1.27-1.42-1.92-2.18l-2-2.4c-1.37-1.64-2.73-3.44-4.12-5.31s-2.81-3.83-4.12-5.9-2.66-4.16-4-6.27-2.49-4.31-3.63-6.48-2.2-4.34-3.23-6.43-1.91-4.17-2.71-6.15l-1.17-2.88c-.37-.94-.68-1.85-1-2.73s-.64-1.71-.91-2.51l-.74-2.3c-.48-1.44-.85-2.7-1.13-3.75C440.4,223.86,440.09,222.66,440.09,222.66Z"/><path class="cls-2" d="M487.89,240.41s.34.62.87,1.72c.27.55.59,1.22.92,2s.72,1.68,1.08,2.67c.77,2,1.51,4.31,2.22,6.84.33,1.27.68,2.59,1,3.94s.54,2.73.79,4.12.43,2.78.56,4.15.26,2.73.36,4c.13,2.63.18,5.09.08,7.19,0,1.05-.1,2-.17,2.87s-.15,1.59-.23,2.2c-.16,1.22-.28,1.91-.28,1.91s-.14-.7-.32-1.91l-.72-5-1-7-.59-3.93-.64-4.05-.68-4-.69-3.92-.67-3.67-.62-3.29-.91-5C488,241.11,487.89,240.41,487.89,240.41Z"/><path class="cls-3" d="M470.56,295.62a26.2,26.2,0,0,0,6.24,26.61,24.77,24.77,0,0,0,26.71,4.88c10.44-4.68,16.25-17.47,13.55-28.59-2-8.08-8.05-14.78-15.52-18.24-8.27-3.84-15.62-2.43-22.62,3.38A27,27,0,0,0,470.56,295.62Z"/><path class="cls-4" d="M535.53,244.41a14.77,14.77,0,0,0-2.87,7.48A16.07,16.07,0,0,0,534,261.4c2.91,5.54,10.56,7.85,16.19,5.13s8.58-9.86,6.82-15.87C554.45,241.88,542.12,236.29,535.53,244.41Z"/><path class="cls-4" d="M543.08,320.65A12.61,12.61,0,0,0,567,328.59a13.44,13.44,0,0,0-1.89-12.21C559,308.18,546.24,311.24,543.08,320.65Z"/><path class="cls-4" d="M519.47,370.26a15.25,15.25,0,0,0,14.84,21.31,10,10,0,0,0,6.07-2.21c2.82-2.46,3.36-6.68,2.81-10.39-.88-5.94-4.65-13.18-10-16.29S521.52,365.55,519.47,370.26Z"/><path class="cls-4" d="M458.29,351.53A11.36,11.36,0,0,0,455.41,362a13.16,13.16,0,0,0,18.54,8.57,12,12,0,0,0,5.91-13.06C477.76,348.77,464.68,345.2,458.29,351.53Z"/><path class="cls-4" d="M422.83,286.66c-1.36,3.94-1.38,8.56,1.27,11.85a10.91,10.91,0,0,0,7.66,3.85,14.71,14.71,0,0,0,8.42-2.11c9.55-5.58,7.3-17.23-2.17-21.41a10.85,10.85,0,0,0-7.38-.68,11.54,11.54,0,0,0-6.4,5.47A17.27,17.27,0,0,0,422.83,286.66Z"/><path class="cls-4" d="M427.24,228.58A12.89,12.89,0,0,0,453,227.51c0-6.43-6.45-13.43-13.1-13.47C433,214,426.73,222.07,427.24,228.58Z"/><path class="cls-4" d="M407.94,349.71a14.05,14.05,0,1,0,22.66-12.07c-3.69-2.88-10-5.25-14.29-2.59C411.44,338,407.53,343.9,407.94,349.71Z"/><path class="cls-4" d="M476.9,234a13.58,13.58,0,0,0,5.81,14.56,14,14,0,0,0,15.71-1,14.33,14.33,0,0,0,4.51-15.14C498.94,219.92,480.06,222.06,476.9,234Z"/><path class="cls-2" d="M805.06,186.69s.43-.69,1.17-1.63,1.77-2.15,2.87-3.3,2.26-2.23,3.18-3,1.58-1.23,1.58-1.23-.43.69-1.17,1.63-1.78,2.15-2.87,3.3-2.26,2.23-3.18,3S805.06,186.69,805.06,186.69Z"/><path class="cls-2" d="M808.13,191.92l.45-.23a9.51,9.51,0,0,1,1.24-.5,11.41,11.41,0,0,1,1.84-.44,19.89,19.89,0,0,1,2.14-.2c1.44,0,2.84-.1,3.91-.21l1.3-.13.5,0a9,9,0,0,1-1.69.74,11.32,11.32,0,0,1-1.84.44,19.77,19.77,0,0,1-2.14.2c-1.44,0-2.84.1-3.91.21l-1.3.13Z"/><path class="cls-2" d="M806,195.81s.55.64,1.3,1.62L810,201l2.75,3.57c.75,1,1.23,1.67,1.23,1.67a14.69,14.69,0,0,1-1.65-1.28,24,24,0,0,1-5.55-7.24A14.71,14.71,0,0,1,806,195.81Z"/><path class="cls-2" d="M801.51,196.36a16.8,16.8,0,0,1,.62,1.7,36.46,36.46,0,0,1,1.51,7.73,16.65,16.65,0,0,1,.06,1.81,16.65,16.65,0,0,1-.62-1.7,36.46,36.46,0,0,1-1.51-7.73A16.79,16.79,0,0,1,801.51,196.36Z"/><path class="cls-2" d="M798.61,195.53a12.86,12.86,0,0,1-.71,2,17.8,17.8,0,0,1-1,1.93,19.91,19.91,0,0,1-3,3.93,17.63,17.63,0,0,1-1.61,1.45,12.88,12.88,0,0,1-1.74,1.2s.53-.66,1.34-1.61,1.85-2.22,2.85-3.52,2-2.63,2.67-3.66S798.61,195.53,798.61,195.53Z"/><path class="cls-2" d="M782.95,193.92l2.21-.27c1.32-.16,3-.4,4.77-.71s3.43-.7,4.71-1l2.16-.52a13.78,13.78,0,0,1-2,1.07,18.64,18.64,0,0,1-2.15.82,20.87,20.87,0,0,1-5.19.95,18.82,18.82,0,0,1-2.3,0A13.77,13.77,0,0,1,782.95,193.92Z"/><path class="cls-2" d="M786.56,178.55a47.12,47.12,0,0,1,5.8,4,51.77,51.77,0,0,1,5.25,4.67l-.15.17c-.15-.19-.29-.38-.44-.58l.59.42-.15.17a51.77,51.77,0,0,1-5.73-4.07A47.13,47.13,0,0,1,786.56,178.55Z"/><path class="cls-2" d="M799.44,171.66a57.19,57.19,0,0,1,.82,7.79,61.16,61.16,0,0,1-.1,7.83v.15l-.1-.07-.43-.31.5.17-.11.07a61.16,61.16,0,0,1-.74-7.8A57.19,57.19,0,0,1,799.44,171.66Z"/><path class="cls-5" d="M793,188.45a9.41,9.41,0,0,0,3.86,9.9,10.44,10.44,0,0,0,10.76.27,7.88,7.88,0,0,0,3.69-4.21c1.39-4.23-1.94-8.13-5.16-10.41a9.07,9.07,0,0,0-6.07-1.83A8.77,8.77,0,0,0,793,188.45Z"/><path class="cls-4" d="M814.73,181c5.17-.19,6.48-6.51,2.91-9.59-3.82-3.3-9.51.9-8.23,5.61A5.53,5.53,0,0,0,814.73,181Z"/><path class="cls-4" d="M816.09,189.12A4.3,4.3,0,0,0,824,192a4.29,4.29,0,1,0-7.88-2.89Z"/><path class="cls-4" d="M810.49,207.47a4,4,0,0,0,2.66,1.83,5.09,5.09,0,0,0,4.42-1,4.12,4.12,0,0,0-2.21-7.12C812.46,200.77,809,204.69,810.49,207.47Z"/><path class="cls-4" d="M801.56,206a5.76,5.76,0,0,0-1.48,2.31,4.8,4.8,0,0,0-.45,3.13,3.61,3.61,0,0,0,2.33,2.21,5,5,0,0,0,4.74-.7,4.24,4.24,0,0,0,1.44-4.47C807.44,206.36,803.47,204.45,801.56,206Z"/><path class="cls-4" d="M784.91,205.3a5.52,5.52,0,0,0,.61,5.61,5.73,5.73,0,0,0,4.87,2.28,5.29,5.29,0,0,0,4.4-3,4.91,4.91,0,0,0-.82-5.22C791.54,202.34,786.7,201.65,784.91,205.3Z"/><path class="cls-4" d="M776.46,192.64a5.21,5.21,0,0,0,6.89,7.34c3.33-1.78,3.41-6.25,1-8.82C782.19,188.9,778,190.21,776.46,192.64Z"/><path class="cls-4" d="M780.24,180.21a4.68,4.68,0,0,0,2.67,4.08,5.84,5.84,0,0,0,7.89-3.55c.94-3.17-1.64-6.1-4.83-6.27C783.22,174.34,780.24,177.56,780.24,180.21Z"/><path class="cls-4" d="M795.25,167.74A5.5,5.5,0,1,0,805.54,170,5.52,5.52,0,0,0,795.25,167.74Z"/><path class="cls-2" d="M1232.23,492.18s1.26-2,3.44-4.79,5.21-6.32,8.44-9.69,6.65-6.56,9.34-8.82,4.65-3.62,4.65-3.62-1.26,2-3.43,4.79-5.21,6.32-8.44,9.69-6.65,6.55-9.34,8.82S1232.23,492.18,1232.23,492.18Z"/><path class="cls-2" d="M1241.23,507.54l1.32-.68a27.93,27.93,0,0,1,3.64-1.48,33.51,33.51,0,0,1,5.41-1.3,58.41,58.41,0,0,1,6.29-.6c4.24-.13,8.33-.3,11.48-.62l3.82-.39,1.48-.12a26.58,26.58,0,0,1-5,2.16,33.23,33.23,0,0,1-5.41,1.3,58.06,58.06,0,0,1-6.29.6c-4.24.13-8.33.3-11.48.61l-3.82.39Z"/><path class="cls-2" d="M1235,519s1.61,1.89,3.8,4.77l8,10.51,8.07,10.49c2.21,2.88,3.61,4.92,3.61,4.92a43.15,43.15,0,0,1-4.85-3.77,70.6,70.6,0,0,1-16.29-21.27A43.19,43.19,0,0,1,1235,519Z"/><path class="cls-2" d="M1221.8,520.58a49.34,49.34,0,0,1,1.83,5,107.07,107.07,0,0,1,4.43,22.7,48.89,48.89,0,0,1,.18,5.32,48.9,48.9,0,0,1-1.83-5,107.08,107.08,0,0,1-4.43-22.7A49.32,49.32,0,0,1,1221.8,520.58Z"/><path class="cls-2" d="M1213.28,518.13a37.76,37.76,0,0,1-2.1,5.83,52.27,52.27,0,0,1-2.9,5.65,58.46,58.46,0,0,1-8.87,11.54,51.76,51.76,0,0,1-4.72,4.26,37.82,37.82,0,0,1-5.1,3.52s1.56-1.95,3.92-4.73,5.43-6.51,8.36-10.33,5.75-7.74,7.84-10.74S1213.28,518.13,1213.28,518.13Z"/><path class="cls-2" d="M1167.28,513.41s2.64-.35,6.49-.81,9-1.16,14-2.1,10.06-2.06,13.84-3S1208,506,1208,506a40.48,40.48,0,0,1-5.81,3.13,54.73,54.73,0,0,1-6.32,2.41,61.29,61.29,0,0,1-15.25,2.78,55.26,55.26,0,0,1-6.77,0A40.43,40.43,0,0,1,1167.28,513.41Z"/><path class="cls-2" d="M1177.89,468.29a138.39,138.39,0,0,1,17,11.69,152,152,0,0,1,15.43,13.71l-.43.49c-.45-.55-.86-1.13-1.29-1.7.58.41,1.18.81,1.75,1.23l-.43.49a152,152,0,0,1-16.83-11.94A138.4,138.4,0,0,1,1177.89,468.29Z"/><path class="cls-2" d="M1215.73,448a168,168,0,0,1,2.39,22.89,179.61,179.61,0,0,1-.29,23l0,.43-.3-.22-1.26-.91,1.48.51-.34.21a179.63,179.63,0,0,1-2.16-22.9A168,168,0,0,1,1215.73,448Z"/><path class="cls-5" d="M1196.93,497.35c-2.83,10.73,2.12,22.89,11.34,29.07s22,6.3,31.59.8c4.86-2.78,9.07-7,10.83-12.35,4.09-12.43-5.7-23.88-15.16-30.58-5.18-3.67-11.53-6.05-17.84-5.38C1208.14,479.91,1199.35,488.16,1196.93,497.35Z"/><path class="cls-4" d="M1260.61,475.32c15.18-.56,19-19.13,8.54-28.17-11.22-9.68-27.94,2.64-24.18,16.47C1246.8,470.36,1253.58,475.58,1260.61,475.32Z"/><path class="cls-4" d="M1264.6,499.3a12.62,12.62,0,0,0,23.14,8.5,12.81,12.81,0,0,0,.63-12.38C1282.95,484.63,1266.23,487.27,1264.6,499.3Z"/><path class="cls-4" d="M1248.16,553.21a11.63,11.63,0,0,0,7.82,5.38,15,15,0,0,0,13-3c7.61-6.65,3.65-19.58-6.48-20.92C1253.94,533.54,1243.73,545,1248.16,553.21Z"/><path class="cls-4" d="M1221.93,549c-2.09,1.74-3.32,4.28-4.36,6.79-1.2,2.92-2.22,6.16-1.32,9.18s3.78,5.38,6.85,6.49a14.76,14.76,0,0,0,13.91-2,12.44,12.44,0,0,0,4.24-13.14C1239.22,550,1227.55,544.33,1221.93,549Z"/><path class="cls-4" d="M1173,546.82a16.22,16.22,0,0,0,1.78,16.48,16.83,16.83,0,0,0,14.29,6.7,15.53,15.53,0,0,0,12.92-8.85,14.42,14.42,0,0,0-2.41-15.34C1192.51,538.14,1178.3,536.12,1173,546.82Z"/><path class="cls-4" d="M1148.23,509.66a15.3,15.3,0,0,0,20.23,21.56c9.77-5.24,10-18.35,2.88-25.9C1165,498.66,1152.66,502.53,1148.23,509.66Z"/><path class="cls-4" d="M1159.32,473.16a13.74,13.74,0,0,0,7.83,12,17.16,17.16,0,0,0,23.18-10.42c2.75-9.32-4.81-17.91-14.18-18.4C1168.07,455.91,1159.34,465.37,1159.32,473.16Z"/><path class="cls-4" d="M1203.42,436.54a16.14,16.14,0,1,0,30.21,6.65C1232.46,427.45,1211.07,422.75,1203.42,436.54Z"/><path class="cls-5" d="M425.72,83s.23-.31.66-.82,1-1.26,1.78-2.13c1.49-1.74,3.55-4,5.66-6.2s4.29-4.34,6-5.9c.83-.79,1.56-1.41,2.05-1.86s.8-.69.8-.69-.23.31-.66.82-1,1.26-1.78,2.13c-1.49,1.74-3.55,4-5.66,6.2s-4.29,4.34-6,5.9c-.83.79-1.56,1.41-2.05,1.86S425.72,83,425.72,83Z"/><path class="cls-5" d="M431.6,93l.89-.36c.57-.22,1.39-.51,2.41-.8.51-.12,1.06-.29,1.65-.39s1.22-.24,1.87-.32c1.3-.18,2.7-.27,4.09-.33l2.06-.09c.68,0,1.34-.06,2-.12s1.26-.11,1.85-.18,1.14-.16,1.65-.22c1-.17,1.88-.29,2.47-.43l.94-.17-.89.36c-.57.22-1.39.52-2.41.8-.51.12-1.06.29-1.65.39s-1.22.24-1.87.32c-1.3.18-2.7.26-4.09.33l-2.06.09c-.68,0-1.34.06-2,.12s-1.26.11-1.85.18-1.14.16-1.65.22c-1,.17-1.88.29-2.47.43Z"/><path class="cls-5" d="M427.52,100.46l2.26,3.26c.66,1,1.49,2.09,2.35,3.3s1.81,2.47,2.77,3.71,1.94,2.48,2.87,3.64,1.79,2.23,2.58,3.12l2.56,3s-.31-.25-.84-.7-1.29-1.1-2.13-1.95-1.84-1.82-2.84-2.94-2-2.35-3-3.6-1.89-2.57-2.7-3.82-1.51-2.46-2.1-3.5-1-1.94-1.33-2.56S427.52,100.46,427.52,100.46Z"/><path class="cls-5" d="M418.9,101.53s.11.33.28.91.41,1.41.66,2.41c.52,2,1.13,4.68,1.66,7.38s1,5.41,1.24,7.46c.14,1,.22,1.88.29,2.48s.09.95.09.95-.11-.33-.28-.91-.41-1.41-.66-2.41c-.52-2-1.13-4.68-1.66-7.38s-1-5.41-1.24-7.46c-.14-1-.22-1.88-.29-2.48S418.9,101.53,418.9,101.53Z"/><path class="cls-5" d="M413.32,99.92s-.14.38-.4,1-.65,1.58-1.2,2.65-1.21,2.32-2,3.61c-.41.63-.81,1.3-1.28,1.95s-.93,1.3-1.41,1.95-1,1.26-1.52,1.87-1,1.18-1.55,1.74c-1,1.1-2.07,2.06-3,2.86s-1.7,1.41-2.26,1.85-.89.65-.89.65.27-.3.76-.8,1.17-1.23,2-2.1c.41-.43.85-.91,1.3-1.42l1.41-1.62c1-1.14,2-2.36,2.94-3.62s1.89-2.55,2.75-3.77l1.21-1.78c.38-.57.73-1.11,1-1.62.63-1,1.17-1.85,1.52-2.46S413.32,99.92,413.32,99.92Z"/><path class="cls-5" d="M383.24,96.84l1.17-.06c.75,0,1.81-.11,3.08-.19.64,0,1.32-.1,2-.18s1.49-.18,2.27-.26c1.57-.2,3.25-.45,4.91-.75s3.31-.67,4.86-1c.77-.21,1.52-.37,2.22-.56s1.37-.37,2-.56c1.22-.37,2.24-.66,2.95-.91l1.12-.35-1,.53c-.68.32-1.64.8-2.84,1.26s-2.61,1-4.15,1.44c-.78.21-1.57.45-2.4.63s-1.67.36-2.51.53-1.69.28-2.53.39-1.67.18-2.47.26c-1.61.12-3.11.14-4.39.12s-2.36-.11-3.1-.17Z"/><path class="cls-5" d="M390.18,67.33c1.88,1.25,3.7,2.57,5.5,3.9s3.59,2.71,5.35,4.1,3.5,2.81,5.23,4.25l2.56,2.2c.86.72,1.68,1.49,2.52,2.24l-.14.16c-.31-.34-.61-.69-.92-1,.36.29.72.58,1.07.88l-.14.16c-.92-.65-1.85-1.28-2.75-2l-2.72-2q-2.69-2-5.32-4.14c-1.75-1.41-3.5-2.82-5.2-4.29S391.82,68.88,390.18,67.33Z"/><path class="cls-5" d="M414.93,54.1c.3,2.49.5,5,.68,7.49s.31,5,.43,7.5.18,5,.22,7.51l0,3.76c0,1.25,0,2.51,0,3.76v.14l-.11-.07-.86-.53.93.39-.11.07c-.12-1.25-.27-2.49-.35-3.74l-.29-3.75c-.17-2.5-.29-5-.39-7.5s-.18-5-.18-7.51S414.83,56.61,414.93,54.1Z"/><path id="_Clipping_Path_" data-name="&lt;Clipping Path&gt;" class="cls-4" d="M402.63,86.33c-1.85,7,1.39,15,7.41,19a20.05,20.05,0,0,0,20.66.52,15.13,15.13,0,0,0,7.08-8.08c2.68-8.13-3.73-15.61-9.91-20a17.42,17.42,0,0,0-11.67-3.52C410,74.93,404.22,80.33,402.63,86.33Z"/><path id="_Clipping_Path_2" data-name="&lt;Clipping Path&gt;" class="cls-2" d="M444.28,71.93c9.93-.37,12.44-12.51,5.58-18.42-7.33-6.33-18.27,1.72-15.81,10.77A10.61,10.61,0,0,0,444.28,71.93Z"/><path id="_Clipping_Path_3" data-name="&lt;Clipping Path&gt;" class="cls-2" d="M446.88,87.61A8.25,8.25,0,0,0,462,93.17a8.38,8.38,0,0,0,.41-8.1C458.88,78,447.95,79.74,446.88,87.61Z"/><path class="cls-2" d="M436.13,122.86a7.61,7.61,0,0,0,5.11,3.51,9.78,9.78,0,0,0,8.48-2c5-4.35,2.39-12.81-4.24-13.68C439.91,110,433.24,117.52,436.13,122.86Z"/><path class="cls-2" d="M419,120.12a11.06,11.06,0,0,0-2.85,4.44c-.79,1.91-1.45,4-.87,6a6.94,6.94,0,0,0,4.48,4.24,9.65,9.65,0,0,0,9.1-1.34,8.13,8.13,0,0,0,2.77-8.59C430.29,120.74,422.66,117.06,419,120.12Z"/><path class="cls-2" d="M387,118.69a10.61,10.61,0,0,0,1.16,10.77,11,11,0,0,0,9.34,4.38,10.15,10.15,0,0,0,8.45-5.79,9.43,9.43,0,0,0-1.57-10C399.74,113,390.45,111.69,387,118.69Z"/><path class="cls-2" d="M370.79,94.39A10,10,0,0,0,384,108.49c6.39-3.43,6.55-12,1.89-16.94C381.79,87.19,373.69,89.72,370.79,94.39Z"/><path class="cls-2" d="M378,70.52a9,9,0,0,0,5.12,7.84,11.22,11.22,0,0,0,15.16-6.82c1.8-6.1-3.14-11.71-9.27-12C383.76,59.24,378.05,65.43,378,70.52Z"/><path class="cls-2" d="M406.88,46.57a10.56,10.56,0,1,0,19.76,4.35C425.87,40.63,411.88,37.55,406.88,46.57Z"/><path class="cls-5" d="M159.2,440.12s.36-.48,1-1.29,1.61-2,2.78-3.32c2.33-2.72,5.54-6.24,8.84-9.69s6.7-6.78,9.32-9.23c1.3-1.23,2.44-2.2,3.21-2.91s1.25-1.08,1.25-1.08-.36.48-1,1.29-1.6,2-2.78,3.32c-2.33,2.72-5.54,6.24-8.84,9.69s-6.71,6.78-9.33,9.22c-1.3,1.23-2.44,2.21-3.21,2.91S159.2,440.12,159.2,440.12Z"/><path class="cls-5" d="M168.4,455.81s.5-.22,1.39-.56,2.17-.8,3.76-1.25c.8-.19,1.65-.45,2.58-.61s1.9-.37,2.92-.49c2-.28,4.23-.41,6.39-.52l3.22-.14c1.06-.07,2.1-.1,3.1-.19s2-.17,2.88-.28,1.78-.24,2.58-.34c1.59-.27,2.94-.45,3.86-.66s1.47-.27,1.47-.27-.5.22-1.39.56-2.18.81-3.76,1.25c-.8.19-1.65.45-2.58.61s-1.9.37-2.92.49c-2,.28-4.23.41-6.39.52l-3.22.14c-1.06.07-2.1.1-3.1.19s-2,.17-2.88.28-1.78.24-2.58.34c-1.59.27-2.93.45-3.86.67S168.4,455.81,168.4,455.81Z"/><path class="cls-5" d="M162,467.48l3.53,5.09c1,1.54,2.33,3.27,3.67,5.16s2.82,3.85,4.33,5.8,3,3.88,4.48,5.69,2.8,3.49,4,4.88l4,4.74s-.49-.39-1.31-1.1-2-1.72-3.33-3-2.87-2.85-4.43-4.59-3.14-3.67-4.67-5.63-2.95-4-4.22-6-2.36-3.85-3.28-5.47-1.59-3-2.07-4S162,467.48,162,467.48Z"/><path class="cls-5" d="M148.55,469.14s.17.51.43,1.42.64,2.2,1,3.77c.81,3.13,1.76,7.32,2.59,11.53s1.51,8.46,1.94,11.66c.22,1.6.34,2.94.45,3.88s.13,1.48.13,1.48-.17-.51-.43-1.42-.64-2.2-1-3.77c-.81-3.12-1.76-7.32-2.59-11.53s-1.51-8.46-1.94-11.66c-.22-1.6-.34-2.94-.46-3.88S148.55,469.14,148.55,469.14Z"/><path class="cls-5" d="M139.84,466.64s-.22.59-.63,1.61-1,2.48-1.88,4.15S135.44,476,134.2,478c-.64,1-1.27,2-2,3s-1.46,2-2.21,3-1.56,2-2.38,2.91-1.63,1.84-2.43,2.71c-1.62,1.71-3.24,3.22-4.64,4.47s-2.66,2.21-3.52,2.88-1.39,1-1.39,1,.43-.47,1.19-1.25,1.83-1.93,3.11-3.29c.65-.67,1.32-1.43,2-2.23l2.2-2.54c1.5-1.78,3.08-3.69,4.59-5.66s3-4,4.29-5.89l1.88-2.78c.59-.89,1.14-1.74,1.63-2.54,1-1.59,1.83-2.9,2.37-3.85S139.84,466.64,139.84,466.64Z"/><path class="cls-5" d="M92.84,461.81l1.83-.1c1.17,0,2.82-.17,4.81-.3,1-.06,2.07-.16,3.2-.27s2.32-.28,3.55-.4c2.46-.32,5.07-.7,7.67-1.18s5.18-1,7.59-1.61c1.2-.32,2.37-.58,3.47-.88s2.14-.58,3.09-.87c1.9-.58,3.51-1,4.61-1.42l1.75-.55-1.64.84c-1.06.5-2.56,1.25-4.43,2s-4.07,1.54-6.49,2.25c-1.21.33-2.46.71-3.75,1s-2.6.57-3.92.84-2.65.44-4,.6-2.61.28-3.86.4c-2.51.18-4.86.22-6.86.19s-3.68-.18-4.84-.27Z"/><path class="cls-5" d="M103.68,415.71c2.94,1.95,5.78,4,8.6,6.1s5.6,4.23,8.36,6.4,5.48,4.39,8.17,6.64l4,3.44c1.34,1.13,2.63,2.33,3.94,3.5l-.22.25c-.49-.53-1-1.08-1.44-1.62.56.46,1.12.91,1.67,1.38l-.22.25c-1.44-1-2.9-2-4.3-3L128,435.89q-4.2-3.18-8.31-6.47c-2.73-2.2-5.46-4.41-8.12-6.71S106.24,418.13,103.68,415.71Z"/><path class="cls-5" d="M142.34,395c.47,3.9.78,7.8,1.06,11.7s.49,7.81.67,11.72.29,7.82.35,11.73l0,5.87c0,2-.05,3.92-.07,5.88v.22l-.18-.11-1.34-.83,1.46.62-.18.11c-.18-2-.41-3.9-.55-5.85l-.45-5.85c-.26-3.9-.46-7.81-.61-11.72s-.27-7.82-.29-11.73S142.19,398.95,142.34,395Z"/><path id="_Clipping_Path_4" data-name="&lt;Clipping Path&gt;" class="cls-4" d="M123.13,445.4c-2.89,11,2.17,23.39,11.58,29.7s22.44,6.44,32.28.82c5-2.84,9.27-7.19,11.06-12.62,4.18-12.7-5.82-24.4-15.49-31.25-5.29-3.75-11.78-6.18-18.23-5.5C134.59,427.59,125.61,436,123.13,445.4Z"/><path id="_Clipping_Path_5" data-name="&lt;Clipping Path&gt;" class="cls-2" d="M188.21,422.9c15.51-.57,19.44-19.54,8.73-28.79-11.46-9.89-28.55,2.7-24.71,16.83C174.1,417.82,181,423.16,188.21,422.9Z"/><path id="_Clipping_Path_6" data-name="&lt;Clipping Path&gt;" class="cls-2" d="M192.28,447.4a12.9,12.9,0,0,0,23.65,8.68,13.09,13.09,0,0,0,.64-12.65C211,432.4,193.94,435.1,192.28,447.4Z"/><path class="cls-2" d="M175.48,502.48c1.59,2.93,4.74,4.76,8,5.49a15.29,15.29,0,0,0,13.25-3.08c7.78-6.79,3.73-20-6.62-21.37C181.39,482.38,171,494.13,175.48,502.48Z"/><path class="cls-2" d="M148.69,498.19c-2.13,1.78-3.4,4.37-4.45,6.94-1.23,3-2.27,6.29-1.35,9.38s3.86,5.5,7,6.63A15.08,15.08,0,0,0,164.09,519a12.71,12.71,0,0,0,4.33-13.42C166.35,499.16,154.42,493.41,148.69,498.19Z"/><path class="cls-2" d="M98.72,496a16.57,16.57,0,0,0,1.82,16.84,17.2,17.2,0,0,0,14.6,6.84,15.87,15.87,0,0,0,13.2-9,14.74,14.74,0,0,0-2.46-15.68C118.62,487.08,104.1,485,98.72,496Z"/><path class="cls-2" d="M73.37,458A15.64,15.64,0,0,0,94,480c10-5.36,10.24-18.75,2.95-26.47C90.56,446.74,77.9,450.7,73.37,458Z"/><path class="cls-2" d="M84.7,420.69a14,14,0,0,0,8,12.26,17.54,17.54,0,0,0,23.69-10.65c2.81-9.53-4.91-18.3-14.49-18.8C93.65,403.06,84.72,412.73,84.7,420.69Z"/><path class="cls-2" d="M129.76,383.27a16.49,16.49,0,1,0,30.87,6.79C159.45,374,137.59,369.17,129.76,383.27Z"/><path class="cls-2" d="M1025,379.37s.23-.3.64-.81,1-1.24,1.74-2.08c1.46-1.7,3.47-3.91,5.54-6.07s4.2-4.25,5.84-5.78c.82-.77,1.53-1.38,2-1.82s.78-.67.78-.67-.23.3-.64.81-1,1.24-1.74,2.08c-1.46,1.7-3.47,3.91-5.54,6.07s-4.2,4.25-5.84,5.77c-.82.77-1.53,1.38-2,1.82S1025,379.37,1025,379.37Z"/><path class="cls-2" d="M1030.74,389.2l.87-.35c.55-.22,1.36-.51,2.35-.79.5-.12,1-.28,1.62-.39s1.19-.24,1.83-.31c1.28-.18,2.65-.26,4-.33l2-.09c.66,0,1.31-.06,1.94-.12s1.23-.1,1.81-.17,1.11-.15,1.62-.21c1-.17,1.84-.28,2.42-.41l.92-.16-.87.35c-.56.22-1.36.51-2.35.79-.5.12-1,.28-1.62.39s-1.19.23-1.83.31c-1.28.18-2.65.26-4,.33l-2,.09c-.66,0-1.31.06-1.94.12s-1.23.1-1.81.17-1.11.15-1.62.21c-1,.17-1.84.28-2.42.41Z"/><path class="cls-2" d="M1026.74,396.5l2.22,3.18c1.33,1.91,3.13,4.42,5,6.86s3.83,4.84,5.33,6.62l2.5,3s-.31-.24-.82-.68-1.26-1.08-2.09-1.9-1.79-1.79-2.77-2.88-2-2.3-2.93-3.53-1.85-2.52-2.64-3.74-1.5-2.4-2.06-3.43-1-1.91-1.29-2.51S1026.74,396.5,1026.74,396.5Z"/><path class="cls-2" d="M1018.3,397.55s.11.32.27.89.4,1.38.65,2.36c.51,2,1.11,4.58,1.63,7.22s.95,5.3,1.21,7.31c.14,1,.21,1.84.28,2.43s.08.93.08.93-.11-.32-.27-.89-.41-1.38-.65-2.36c-.51-2-1.11-4.58-1.63-7.22s-.95-5.3-1.21-7.31c-.14-1-.21-1.84-.28-2.43S1018.3,397.55,1018.3,397.55Z"/><path class="cls-2" d="M1012.85,396s-.13.37-.39,1-.63,1.55-1.18,2.6-1.18,2.27-2,3.53-1.68,2.55-2.63,3.81c-.49.62-1,1.24-1.49,1.83s-1,1.15-1.52,1.7c-1,1.07-2,2-2.91,2.8s-1.67,1.38-2.21,1.8-.87.64-.87.64.27-.29.74-.78,1.14-1.21,1.95-2.06c.4-.42.83-.89,1.27-1.4l1.38-1.59c.94-1.12,1.93-2.31,2.87-3.55s1.85-2.49,2.69-3.69l1.18-1.74c.37-.56.72-1.09,1-1.59.62-1,1.15-1.81,1.49-2.41S1012.85,396,1012.85,396Z"/><path class="cls-2" d="M983.41,393l1.15-.07c.73,0,1.77-.11,3-.19.62,0,1.29-.1,2-.17s1.45-.18,2.23-.25c1.54-.2,3.18-.44,4.8-.74s3.24-.65,4.75-1c.75-.2,1.48-.36,2.17-.55s1.34-.36,1.93-.55c1.19-.36,2.2-.65,2.89-.88l1.1-.34s-.37.2-1,.52-1.6.79-2.78,1.23-2.55,1-4.06,1.42c-.76.21-1.54.45-2.35.62s-1.63.35-2.45.52-1.66.28-2.48.38-1.63.18-2.42.25c-1.57.11-3,.13-4.3.11s-2.31-.11-3-.17Z"/><path class="cls-2" d="M990.2,364.08c1.84,1.22,3.62,2.51,5.39,3.82s3.51,2.65,5.24,4,3.43,2.75,5.12,4.16l2.5,2.15c.84.71,1.65,1.46,2.47,2.2l-.14.16c-.31-.33-.6-.68-.9-1,.35.29.71.57,1,.86l-.14.16c-.9-.63-1.82-1.25-2.7-1.91l-2.66-2q-2.63-2-5.21-4c-1.71-1.38-3.42-2.76-5.08-4.2S991.8,365.6,990.2,364.08Z"/><path class="cls-2" d="M1014.42,351.13c.3,2.44.5,4.88.67,7.33s.31,4.89.42,7.34.18,4.9.21,7.35l0,3.68c0,1.23,0,2.45,0,3.68v.14l-.11-.07-.84-.52.91.38-.11.07c-.11-1.22-.26-2.44-.35-3.66l-.28-3.67c-.16-2.45-.29-4.89-.38-7.34s-.17-4.9-.18-7.35S1014.32,353.58,1014.42,351.13Z"/><path class="cls-3" d="M1002.38,382.68a17.68,17.68,0,0,0,7.26,18.61,19.63,19.63,0,0,0,20.22.51,14.81,14.81,0,0,0,6.93-7.91c2.62-8-3.65-15.28-9.7-19.57a17,17,0,0,0-11.42-3.44C1009.56,371.52,1003.93,376.8,1002.38,382.68Z"/><path class="cls-4" d="M1043.14,368.58c9.72-.36,12.17-12.24,5.47-18-7.18-6.2-17.88,1.69-15.48,10.54A10.39,10.39,0,0,0,1043.14,368.58Z"/><path class="cls-4" d="M1045.69,383.93a8.08,8.08,0,0,0,14.81,5.44,8.2,8.2,0,0,0,.4-7.92C1057.44,374.54,1046.74,376.23,1045.69,383.93Z"/><path class="cls-4" d="M1035.62,418.88a7.45,7.45,0,0,0,5,3.44,9.57,9.57,0,0,0,8.3-1.93c4.87-4.25,2.33-12.53-4.15-13.39C1039.33,406.29,1032.79,413.65,1035.62,418.88Z"/><path class="cls-4" d="M1018.84,416.2a10.83,10.83,0,0,0-2.79,4.35c-.77,1.87-1.42,3.94-.85,5.88a6.79,6.79,0,0,0,4.38,4.15,9.45,9.45,0,0,0,8.9-1.31,8,8,0,0,0,2.71-8.41C1029.9,416.8,1022.43,413.2,1018.84,416.2Z"/><path class="cls-4" d="M987.54,414.8a10.38,10.38,0,0,0,1.14,10.55,10.77,10.77,0,0,0,9.15,4.29,9.94,9.94,0,0,0,8.27-5.67,9.23,9.23,0,0,0-1.54-9.82C1000,409.24,990.91,407.95,987.54,414.8Z"/><path class="cls-4" d="M971.67,391a9.79,9.79,0,0,0,12.95,13.8c6.25-3.35,6.41-11.74,1.85-16.58C982.43,384,974.5,386.45,971.67,391Z"/><path class="cls-4" d="M978.77,367.65a8.8,8.8,0,0,0,5,7.68,11,11,0,0,0,14.84-6.67c1.76-6-3.08-11.46-9.08-11.78C984.37,356.61,978.78,362.67,978.77,367.65Z"/><path class="cls-4" d="M1007,344.21a10.33,10.33,0,1,0,19.34,4.26C1025.58,338.4,1011.89,335.39,1007,344.21Z"/><path class="cls-2" d="M415.72,447.22c1.13-1.91,2.63-3.82,4.79-4.35,3-.73,6.08,1.75,6.74,4.74s-.68,6.14-2.75,8.4A28.88,28.88,0,0,1,417,461.3a36.82,36.82,0,0,1,8.12-2.95,12.38,12.38,0,0,1,8.42,1,7.54,7.54,0,0,1,4,7.15c-.47,3.82-4.53,6.36-8.37,6.5s-7.5-1.52-11-3.14c2.21,1.94,4.5,4,5.64,6.68s.77,6.3-1.64,8a6,6,0,0,1-6.8-.37,9.85,9.85,0,0,1-3.54-6.16,29.26,29.26,0,0,1-.18-7.25,27.51,27.51,0,0,1-.51,6.92,9.26,9.26,0,0,1-3.72,5.68,5.65,5.65,0,0,1-6.5-.14c-2.12-1.78-2.19-5.06-1.34-7.7a15.08,15.08,0,0,1,6.9-8.43,18.8,18.8,0,0,1-7.24,2.4,9.6,9.6,0,0,1-7.16-2.13,6.51,6.51,0,0,1-1.93-7c1.13-2.92,4.64-4.34,7.75-4s5.88,2,8.47,3.8a22.49,22.49,0,0,1-4.48-5,7.6,7.6,0,0,1-.81-6.49c.84-2.1,3.28-3.59,5.43-2.88,2.54.84,3.42,4,3.44,6.66a37,37,0,0,0,.08,4.73c.26,1.84.78,3.38,1.63,1.11C413.12,454.52,413.59,450.82,415.72,447.22Z"/><path class="cls-2" d="M1152.13,129.6c1.13-1.91,2.63-3.82,4.79-4.35,3-.73,6.08,1.75,6.74,4.74s-.68,6.14-2.75,8.4a28.88,28.88,0,0,1-7.45,5.29,36.82,36.82,0,0,1,8.12-2.95,12.38,12.38,0,0,1,8.42,1,7.54,7.54,0,0,1,4,7.15c-.47,3.82-4.53,6.36-8.37,6.5s-7.5-1.52-11-3.14c2.21,1.94,4.5,4,5.64,6.68s.77,6.3-1.64,8a6,6,0,0,1-6.8-.37,9.85,9.85,0,0,1-3.54-6.16,29.26,29.26,0,0,1-.18-7.25,27.51,27.51,0,0,1-.51,6.92,9.26,9.26,0,0,1-3.72,5.68,5.65,5.65,0,0,1-6.5-.14c-2.12-1.78-2.19-5.06-1.34-7.7a15.08,15.08,0,0,1,6.9-8.43,18.8,18.8,0,0,1-7.24,2.4,9.6,9.6,0,0,1-7.16-2.13,6.51,6.51,0,0,1-1.93-7c1.13-2.92,4.64-4.34,7.75-4s5.88,2,8.47,3.8a22.49,22.49,0,0,1-4.48-5,7.6,7.6,0,0,1-.81-6.49c.84-2.1,3.28-3.59,5.43-2.88,2.54.84,3.42,4,3.44,6.66a37,37,0,0,0,.08,4.73c.26,1.84.78,3.38,1.63,1.11C1149.54,136.9,1150,133.2,1152.13,129.6Z"/><path class="cls-6" d="M830.47,67.64A5.17,5.17,0,0,1,831.92,64a3.66,3.66,0,0,1,5,.78,6,6,0,0,1,.76,5.34A17.65,17.65,0,0,1,835,75a22.5,22.5,0,0,1,3.66-3.81,7.57,7.57,0,0,1,4.9-1.7,4.61,4.61,0,0,1,4.1,2.85c.77,2.22-.76,4.71-2.83,5.82s-4.52,1.19-6.87,1.24a12,12,0,0,1,4.9,2.14c1.36,1.18,2.12,3.25,1.26,4.82A3.67,3.67,0,0,1,840.28,88a6,6,0,0,1-3.6-2.42,17.88,17.88,0,0,1-2.05-3.93,16.81,16.81,0,0,1,1.59,3.93,5.66,5.66,0,0,1-.51,4.12,3.45,3.45,0,0,1-3.6,1.68c-1.64-.4-2.57-2.18-2.81-3.86A9.22,9.22,0,0,1,830.79,81a11.49,11.49,0,0,1-3.32,3.27,5.87,5.87,0,0,1-4.5.76A4,4,0,0,1,820,81.77c-.17-1.9,1.37-3.63,3.17-4.28a11.84,11.84,0,0,1,5.67-.2,13.75,13.75,0,0,1-3.82-1.55,4.64,4.64,0,0,1-2.19-3.34,2.84,2.84,0,0,1,2.2-3c1.62-.23,2.95,1.26,3.69,2.72a22.58,22.58,0,0,0,1.32,2.57c.64.94,1.34,1.65,1.19.17C831,72.34,830.28,70.19,830.47,67.64Z"/><path class="cls-7" d="M724.83,318.53a5.17,5.17,0,0,1,.12-4,3.66,3.66,0,0,1,4.94-.95,6,6,0,0,1,2.52,4.77,17.65,17.65,0,0,1-.84,5.52,22.5,22.5,0,0,1,2.15-4.82,7.57,7.57,0,0,1,4-3.26,4.61,4.61,0,0,1,4.82,1.29c1.48,1.83.87,4.69-.7,6.44s-3.85,2.65-6,3.49a12,12,0,0,1,5.33.36c1.68.65,3.1,2.34,2.81,4.11a3.67,3.67,0,0,1-3,2.83,6,6,0,0,1-4.21-1.06,17.88,17.88,0,0,1-3.26-3,16.81,16.81,0,0,1,2.82,3.16,5.66,5.66,0,0,1,.92,4,3.45,3.45,0,0,1-2.82,2.8c-1.68.18-3.16-1.19-4-2.68a9.22,9.22,0,0,1-.77-6.61,11.49,11.49,0,0,1-2,4.2,5.87,5.87,0,0,1-4,2.24,4,4,0,0,1-3.88-2.1c-.8-1.73.06-3.88,1.53-5.1a11.84,11.84,0,0,1,5.27-2.11,13.75,13.75,0,0,1-4.12-.17,4.64,4.64,0,0,1-3.19-2.4,2.84,2.84,0,0,1,1-3.61c1.44-.76,3.2.19,4.39,1.31a22.58,22.58,0,0,0,2.12,2c.92.67,1.82,1.1,1.18-.25C726.94,322.77,725.51,321,724.83,318.53Z"/><path class="cls-7" d="M1323.75,289.84a5.17,5.17,0,0,1,.12-4,3.66,3.66,0,0,1,4.94-.95,6,6,0,0,1,2.52,4.77,17.65,17.65,0,0,1-.84,5.52,22.5,22.5,0,0,1,2.15-4.82,7.57,7.57,0,0,1,4-3.26,4.61,4.61,0,0,1,4.82,1.29c1.48,1.83.87,4.69-.7,6.44s-3.85,2.65-6,3.49a12,12,0,0,1,5.33.36c1.68.65,3.1,2.34,2.81,4.11a3.67,3.67,0,0,1-3,2.83,6,6,0,0,1-4.21-1.06,17.88,17.88,0,0,1-3.26-3,16.81,16.81,0,0,1,2.82,3.16,5.66,5.66,0,0,1,.92,4,3.45,3.45,0,0,1-2.82,2.8c-1.68.18-3.16-1.19-4-2.68a9.22,9.22,0,0,1-.77-6.61,11.49,11.49,0,0,1-2,4.2,5.87,5.87,0,0,1-4,2.24,4,4,0,0,1-3.88-2.1c-.8-1.73.06-3.88,1.53-5.1a11.84,11.84,0,0,1,5.27-2.11,13.75,13.75,0,0,1-4.12-.17,4.64,4.64,0,0,1-3.19-2.4,2.84,2.84,0,0,1,1-3.61c1.44-.76,3.2.19,4.39,1.31a22.58,22.58,0,0,0,2.12,2c.92.67,1.82,1.1,1.18-.25C1325.85,294.08,1324.42,292.3,1323.75,289.84Z"/><path class="cls-7" d="M242.58,239.14a5.17,5.17,0,0,1,.12-4,3.66,3.66,0,0,1,4.94-.95,6,6,0,0,1,2.52,4.77,17.65,17.65,0,0,1-.84,5.52,22.5,22.5,0,0,1,2.15-4.82,7.57,7.57,0,0,1,4-3.26,4.61,4.61,0,0,1,4.82,1.29c1.48,1.83.87,4.69-.7,6.44s-3.85,2.65-6,3.49a12,12,0,0,1,5.33.36c1.68.65,3.1,2.34,2.81,4.11a3.67,3.67,0,0,1-3,2.83,6,6,0,0,1-4.21-1.06,17.88,17.88,0,0,1-3.26-3,16.81,16.81,0,0,1,2.82,3.16,5.66,5.66,0,0,1,.92,4,3.45,3.45,0,0,1-2.82,2.8c-1.68.18-3.16-1.19-4-2.68a9.22,9.22,0,0,1-.77-6.61,11.49,11.49,0,0,1-2,4.2,5.87,5.87,0,0,1-4,2.24,4,4,0,0,1-3.88-2.1c-.8-1.73.06-3.88,1.53-5.1a11.84,11.84,0,0,1,5.27-2.11,13.75,13.75,0,0,1-4.12-.17,4.64,4.64,0,0,1-3.19-2.4,2.84,2.84,0,0,1,1-3.61c1.44-.76,3.2.19,4.39,1.31a22.58,22.58,0,0,0,2.12,2c.92.67,1.82,1.1,1.18-.25C244.68,243.38,243.26,241.6,242.58,239.14Z"/><path class="cls-8" d="M967.31,244.86a5.17,5.17,0,0,1,.12-4,3.66,3.66,0,0,1,4.94-.95,6,6,0,0,1,2.52,4.77,17.65,17.65,0,0,1-.84,5.52,22.5,22.5,0,0,1,2.15-4.82,7.57,7.57,0,0,1,4-3.26,4.61,4.61,0,0,1,4.82,1.29c1.48,1.83.87,4.69-.7,6.44s-3.85,2.65-6,3.49a12,12,0,0,1,5.33.36c1.68.65,3.1,2.34,2.81,4.11a3.67,3.67,0,0,1-3,2.83,6,6,0,0,1-4.21-1.06,17.88,17.88,0,0,1-3.26-3,16.81,16.81,0,0,1,2.82,3.16,5.66,5.66,0,0,1,.92,4,3.45,3.45,0,0,1-2.82,2.8c-1.68.18-3.16-1.19-4-2.68a9.22,9.22,0,0,1-.77-6.61,11.49,11.49,0,0,1-2,4.2,5.87,5.87,0,0,1-4,2.24,4,4,0,0,1-3.88-2.1c-.8-1.73.06-3.88,1.53-5.1a11.84,11.84,0,0,1,5.27-2.11,13.75,13.75,0,0,1-4.12-.17,4.64,4.64,0,0,1-3.19-2.4,2.84,2.84,0,0,1,1-3.61c1.44-.76,3.2.19,4.39,1.31a22.58,22.58,0,0,0,2.12,2c.92.67,1.82,1.1,1.18-.25C969.41,249.1,968,247.33,967.31,244.86Z"/><path class="cls-8" d="M619.56,514.45a5.17,5.17,0,0,1,.12-4,3.66,3.66,0,0,1,4.94-.95,6,6,0,0,1,2.52,4.77,17.65,17.65,0,0,1-.84,5.52,22.5,22.5,0,0,1,2.15-4.82,7.57,7.57,0,0,1,4-3.26,4.61,4.61,0,0,1,4.82,1.29c1.48,1.83.87,4.69-.7,6.44s-3.85,2.65-6,3.49a12,12,0,0,1,5.33.36c1.68.65,3.1,2.34,2.81,4.11a3.67,3.67,0,0,1-3,2.83,6,6,0,0,1-4.21-1.06,17.88,17.88,0,0,1-3.26-3,16.81,16.81,0,0,1,2.82,3.16,5.66,5.66,0,0,1,.92,4,3.45,3.45,0,0,1-2.82,2.8c-1.68.18-3.16-1.19-4-2.68a9.22,9.22,0,0,1-.77-6.61,11.49,11.49,0,0,1-2,4.2,5.87,5.87,0,0,1-4,2.24,4,4,0,0,1-3.88-2.1c-.8-1.73.06-3.88,1.53-5.1a11.84,11.84,0,0,1,5.27-2.11,13.75,13.75,0,0,1-4.12-.17,4.64,4.64,0,0,1-3.19-2.4,2.84,2.84,0,0,1,1-3.61c1.44-.76,3.2.19,4.39,1.31a22.58,22.58,0,0,0,2.12,2c.92.67,1.82,1.1,1.18-.25C621.66,518.69,620.23,516.91,619.56,514.45Z"/><path class="cls-8" d="M913.83,483.41c-.51-1.84-.79-3.92.17-5.57,1.33-2.28,4.72-2.72,7-1.34a8.41,8.41,0,0,1,3.55,6.72,24.86,24.86,0,0,1-1.18,7.78,31.69,31.69,0,0,1,3-6.79,10.66,10.66,0,0,1,5.68-4.59,6.49,6.49,0,0,1,6.79,1.82c2.08,2.58,1.23,6.61-1,9.07s-5.42,3.73-8.51,4.92c2.52-.21,5.15-.41,7.51.5s4.36,3.29,4,5.79a5.17,5.17,0,0,1-4.29,4,8.48,8.48,0,0,1-5.93-1.49A25.19,25.19,0,0,1,926,500a23.68,23.68,0,0,1,4,4.45,8,8,0,0,1,1.29,5.7,4.86,4.86,0,0,1-4,3.94c-2.37.25-4.45-1.67-5.57-3.77a13,13,0,0,1-1.09-9.31,16.19,16.19,0,0,1-2.84,5.91,8.26,8.26,0,0,1-5.6,3.15,5.6,5.6,0,0,1-5.46-3c-1.13-2.44.09-5.47,2.16-7.19s4.78-2.42,7.42-3a19.36,19.36,0,0,1-5.8-.24,6.54,6.54,0,0,1-4.5-3.38,4,4,0,0,1,1.46-5.08c2-1.07,4.51.27,6.18,1.85a31.8,31.8,0,0,0,3,2.78c1.29.94,2.56,1.54,1.66-.35C916.8,489.38,914.78,486.88,913.83,483.41Z"/><path class="cls-8" d="M105.33,97.84c-.51-1.84-.79-3.92.17-5.57,1.33-2.28,4.72-2.72,7-1.34A8.41,8.41,0,0,1,116,97.66a24.86,24.86,0,0,1-1.18,7.78,31.69,31.69,0,0,1,3-6.79,10.66,10.66,0,0,1,5.68-4.59,6.49,6.49,0,0,1,6.79,1.82c2.08,2.58,1.23,6.61-1,9.07s-5.42,3.73-8.51,4.92c2.52-.21,5.15-.41,7.51.5s4.36,3.29,4,5.79a5.17,5.17,0,0,1-4.29,4,8.48,8.48,0,0,1-5.93-1.49,25.19,25.19,0,0,1-4.59-4.23,23.68,23.68,0,0,1,4,4.45,8,8,0,0,1,1.29,5.7,4.86,4.86,0,0,1-4,3.94c-2.37.25-4.45-1.67-5.57-3.77a13,13,0,0,1-1.09-9.31,16.19,16.19,0,0,1-2.84,5.91,8.26,8.26,0,0,1-5.6,3.15,5.6,5.6,0,0,1-5.46-3c-1.13-2.44.09-5.47,2.16-7.19s4.78-2.42,7.42-3a19.36,19.36,0,0,1-5.8-.24,6.54,6.54,0,0,1-4.5-3.38A4,4,0,0,1,99,102.67c2-1.07,4.51.27,6.18,1.85a31.8,31.8,0,0,0,3,2.78c1.29.94,2.56,1.54,1.66-.35C108.3,103.81,106.29,101.31,105.33,97.84Z"/><path class="cls-9" d="M1349.22,406.46a8.15,8.15,0,0,1-4.87-6,5.9,5.9,0,0,1,3.78-6.39,6.25,6.25,0,0,1,4.75.66,11.79,11.79,0,0,1,3.59,3.31,21.55,21.55,0,0,1,3.78,8.1c.38,1.64.37,2.47-1.47,2.11-1.5-.3-3-.4-4.54-.58A17,17,0,0,1,1349.22,406.46Z"/><path class="cls-9" d="M1364.25,394.16a10.46,10.46,0,0,1,1.51-7.33,6,6,0,0,1,11.19,3.33,10.06,10.06,0,0,1-3.25,7.26,17.58,17.58,0,0,1-3.38,2.54c-.8.47-2.46,1.76-3.44,1.37s-1.34-2.31-1.64-3.17A20,20,0,0,1,1364.25,394.16Z"/><path class="cls-9" d="M1370,416a11.88,11.88,0,0,0,5.26,4.47c2.2.8,5,.36,6.35-1.53a5.06,5.06,0,0,0,.35-5,7.28,7.28,0,0,0-3.81-3.49,13.22,13.22,0,0,0-5.17-.91,22.49,22.49,0,0,0-3.22.23c-.69.1-2.55.16-3,.74C1366.15,411.26,1369.38,415.14,1370,416Z"/><path class="cls-9" d="M1381.93,406.39a18,18,0,0,0,5.56,1,6.09,6.09,0,0,0,4.91-2.4,5.18,5.18,0,0,0-.5-6,6.77,6.77,0,0,0-5.84-2.17,9.87,9.87,0,0,0-5.7,2.85,15,15,0,0,0-2,2.36c-.33.48-1.6,2-1.5,2.62C1377.06,405.5,1381.05,406.13,1381.93,406.39Z"/><path class="cls-9" d="M1352.73,389a12.11,12.11,0,0,1-3.79-5.26,7.36,7.36,0,0,1,.64-6.31,6,6,0,0,1,10.23.24,9.62,9.62,0,0,1,1,5.75,21.69,21.69,0,0,1-2.08,7.78c-.64,1.28-1.18,1-2.31.36A27,27,0,0,1,1352.73,389Z"/><path class="cls-9" d="M1341.24,417.61c-2,.72-4.17,1.18-6.12.42a5.79,5.79,0,0,1-3.33-6.48,6.56,6.56,0,0,1,5.61-4.88,9.27,9.27,0,0,1,6.61,2.24c1.21,1,4.24,3.27,3.29,5.09S1343,416.95,1341.24,417.61Z"/><path class="cls-9" d="M1348.54,420.11a10.2,10.2,0,0,0-1.32,4.11,6.09,6.09,0,0,0,1.11,4.11,5.92,5.92,0,0,0,7,1.52,8.22,8.22,0,0,0,4.4-6,13.75,13.75,0,0,0-1-7.57c-.83-2.06-2.37-3.47-4.43-2.14A16.86,16.86,0,0,0,1348.54,420.11Z"/><path class="cls-9" d="M1363.23,431.48a8.76,8.76,0,0,0,2.67,5.29,7,7,0,0,0,7.31,1.12,6.69,6.69,0,0,0,3.83-6.29,8.64,8.64,0,0,0-3.79-6.21,20,20,0,0,0-5-2.49c-1-.36-2-.8-2.86,0C1363.32,424.83,1362.84,428.88,1363.23,431.48Z"/></g></g></svg>