<svg xmlns="http://www.w3.org/2000/svg" viewBox="0 0 1440 639"><defs><style>.cls-1{fill:#4ca89c;}.cls-2{fill:#fff;}</style></defs><title>banner</title><g id="Layer_2" data-name="Layer 2"><g id="Layer_3" data-name="Layer 3"><rect class="cls-1" width="1440" height="639"/></g><g id="Layer_4" data-name="Layer 4"><line class="cls-2" x1="1058.72" y1="385.53" x2="883.99" y2="385.53"/><rect class="cls-2" x="883.99" y="384.24" width="174.73" height="2.58"/><line class="cls-2" x1="556.01" y1="385.53" x2="381.28" y2="385.53"/><rect class="cls-2" x="381.28" y="384.24" width="174.73" height="2.58"/><path class="cls-2" d="M409.09,284.53c10.2,0,16.51,4.64,19,8.44l-10.76,10.11a8.73,8.73,0,0,0-7.51-3.8c-4.73,0-8.81,3-8.81,8.72s4.08,8.81,8.81,8.81a9,9,0,0,0,7.51-3.89l10.76,10.2c-2.5,3.71-8.81,8.44-19,8.44C394.9,331.56,384,322.28,384,308S394.9,284.53,409.09,284.53Z"/><path class="cls-2" d="M464,305.5c0-4.64-2.5-6.22-6.49-6.22a8.85,8.85,0,0,0-7.14,3.52v27.64H433.66V268.58h16.69v22.17c2.6-3,7.51-6.22,15.39-6.22,10.39,0,14.93,6.13,14.93,13.91v32H464Z"/><path class="cls-2" d="M486.87,308c0-12.52,9.27-23.47,25.13-23.47s25.23,10.95,25.23,23.47S528,331.56,512,331.56,486.87,320.52,486.87,308Zm33.2,0c0-4.91-2.87-8.72-8.07-8.72s-8,3.8-8,8.72,2.87,8.81,8,8.81S520.07,313,520.07,308Z"/><path class="cls-2" d="M567.35,284.53c10.2,0,16.51,4.64,19,8.44l-10.76,10.11a8.73,8.73,0,0,0-7.51-3.8c-4.73,0-8.81,3-8.81,8.72s4.08,8.81,8.81,8.81a9,9,0,0,0,7.51-3.89l10.76,10.2c-2.5,3.71-8.81,8.44-19,8.44-14.19,0-25.13-9.28-25.13-23.56S553.16,284.53,567.35,284.53Z"/><path class="cls-2" d="M588.76,308c0-12.52,9.27-23.47,25.13-23.47s25.23,10.95,25.23,23.47-9.27,23.56-25.23,23.56S588.76,320.52,588.76,308Zm33.2,0c0-4.91-2.87-8.72-8.07-8.72s-8,3.8-8,8.72,2.87,8.81,8,8.81S622,313,622,308Z"/><path class="cls-2" d="M645.32,268.58H662v61.86H645.32Z"/><path class="cls-2" d="M699,326.18c-2.5,3.15-8,5.38-13.54,5.38-6.67,0-15.4-4.54-15.4-14.75,0-11.13,8.72-13.81,15.4-13.81,5.84,0,11.13,1.85,13.54,4.91v-5.1c0-3.15-2.88-5.56-8.34-5.56a21.51,21.51,0,0,0-12.43,4.36l-5.66-10.3c6-4.82,14.38-6.77,21.15-6.77,11.13,0,22,3.9,22,18.83v27.08H699Zm0-10.39c-1.11-1.58-4-2.41-6.58-2.41-2.78,0-5.84.93-5.84,3.71s3.06,3.62,5.84,3.62c2.6,0,5.47-.83,6.58-2.41Z"/><path class="cls-2" d="M728.39,317.46V300.12H721V285.65h7.42V273.41h16.69v12.24h9.09v14.47h-9.09v12.52c0,2.32,1.48,4.17,3.71,4.17a6.16,6.16,0,0,0,3.34-.83l3,12.61c-1.76,1.58-5.66,3-11.31,3C733.86,331.56,728.39,326.83,728.39,317.46Z"/><path class="cls-2" d="M783.56,284.53c13.17,0,23.28,9.46,23.28,25.23v3.43H776.42c.93,2.87,4.17,5.65,9.83,5.65a17.72,17.72,0,0,0,10.11-3.15L803.22,326c-4.45,3.8-12.42,5.56-19.11,5.56-14,0-24.95-8.81-24.95-23.56C759.16,295,769.09,284.53,783.56,284.53Zm-7.33,18.09H791c-.46-2-2-5.38-7.42-5.38C778.45,297.24,776.79,300.58,776.23,302.62Z"/><path class="cls-2" d="M817.86,317.46V300.12h-7.42V285.65h7.42V273.41h16.69v12.24h9.09v14.47h-9.09v12.52c0,2.32,1.48,4.17,3.71,4.17a6.16,6.16,0,0,0,3.34-.83l3,12.61c-1.76,1.58-5.66,3-11.31,3C823.33,331.56,817.86,326.83,817.86,317.46Z"/><path class="cls-2" d="M860.78,333.87c3.25,0,5.29-.56,5.84-1.76l.37-.93-17.63-45.53H867l8.53,25.59,8.62-25.59h17.63L882.3,336c-4,10.39-11.41,12.34-20.87,12.62a33.67,33.67,0,0,1-6.49-.74L857.26,333A7.83,7.83,0,0,0,860.78,333.87Z"/><path class="cls-2" d="M906.86,347.51V285.65h16.69v4.73a15.75,15.75,0,0,1,12.61-5.84c11.13,0,19.66,8.16,19.66,23.47s-8.53,23.56-19.66,23.56a15.86,15.86,0,0,1-12.61-5.84v21.8Zm23.56-48.23a9.75,9.75,0,0,0-6.86,3.06v11.41a10,10,0,0,0,6.86,3.06c4.45,0,8.34-3.15,8.34-8.81S934.87,299.28,930.41,299.28Z"/><path class="cls-2" d="M985.21,284.53c13.17,0,23.28,9.46,23.28,25.23v3.43H978.07c.93,2.87,4.17,5.65,9.83,5.65A17.72,17.72,0,0,0,998,315.7l6.86,10.29c-4.45,3.8-12.42,5.56-19.1,5.56-14,0-24.95-8.81-24.95-23.56C960.82,295,970.74,284.53,985.21,284.53Zm-7.32,18.09h14.75c-.47-2-2-5.38-7.42-5.38C980.11,297.24,978.44,300.58,977.88,302.62Z"/><path class="cls-2" d="M1018.95,313.47c3.53,2.78,11.13,5.66,16.14,5.66,3.43,0,4.45-.93,4.45-2.13,0-1.49-2-2-6.31-2.6-7.51-1-19.1-2.41-19.1-14.57,0-8.07,7-15.3,20-15.3a35.19,35.19,0,0,1,19.39,5.75l-6.12,10.85a22.17,22.17,0,0,0-13.17-4.64c-2.41,0-4.17.65-4.17,1.95s1.3,1.86,5.75,2.5c7.51,1.11,19.66,2.69,19.66,15.21,0,8.9-8,15.39-21.24,15.39-8.25,0-17.16-2.88-22-6.86Z"/><path class="cls-2" d="M596.82,381.55,586.35,400.7h-3.7l-2.32-23.84H584l1.58,19,10.46-19h3.26l2,19,10-19h4L602.49,400.7h-3.7Z"/><path class="cls-2" d="M633.92,385.05a10.39,10.39,0,0,0,.29-1.62c0-2.77-2.12-3.85-4.93-3.85s-5.53,1.88-7.35,3.8l-3.85,17.32h-3.7l7.26-32.92h3.7l-2.76,12.53c2.07-2,5-4,8.44-4,4.2,0,7.11,2.07,7.11,5.92a10.05,10.05,0,0,1-.3,2l-3.6,16.53h-3.7Z"/><path class="cls-2" d="M664.17,376.87h3.7l-5.28,23.84h-3.7l.74-3.41a9.88,9.88,0,0,1-7.85,4c-5.48,0-9.23-3.61-9.23-9.82,0-7.75,4.79-15.2,12.49-15.2a9.44,9.44,0,0,1,8.29,4.34ZM653.12,398a9.23,9.23,0,0,0,7.26-4l2.37-10.51a8.06,8.06,0,0,0-7.21-3.85c-5.43,0-9.08,5.48-9.08,11.21C646.45,395.23,649.12,398,653.12,398Z"/><path class="cls-2" d="M671.86,395.57l3.46-15.5h-3.95l.74-3.2h3.95l1.43-6.52h3.7l-1.43,6.52h4.84l-.74,3.2H679l-3.26,14.71a6.3,6.3,0,0,0-.1,1c0,1.43.79,2.22,2.37,2.22a3.58,3.58,0,0,0,2.27-.79l.44,3a5.93,5.93,0,0,1-3.6,1.14c-3.31,0-5.43-1.38-5.43-4.35A8.85,8.85,0,0,1,671.86,395.57Z"/><path class="cls-2" d="M688.89,376.57a8.47,8.47,0,0,0,4.14-4.15h-.39a2.1,2.1,0,0,1-2.12-2.22,3,3,0,0,1,3-2.91,2.58,2.58,0,0,1,2.62,2.86c0,3.11-2.67,6.47-5.72,8Z"/><path class="cls-2" d="M695.79,394.58a10,10,0,0,0,7.95,3.7c3.41,0,5.48-2,5.48-4.2,0-2-2.52-3-5.28-4.09-3.41-1.33-7.26-2.77-7.26-6.47s3.21-7.25,9-7.25c4,0,7.5,1.73,9.08,3.9l-2.12,2.42c-1.09-1.78-4.1-3.31-7.16-3.31s-5.13,1.63-5.13,3.66c0,1.87,2.42,2.81,5.09,3.85,3.46,1.28,7.45,2.76,7.45,6.71,0,4.1-3.41,7.8-9.38,7.8-4.29,0-7.9-1.48-10.07-4.2Z"/><path class="cls-2" d="M730.34,406.92c1.33,0,2.32-.54,3.55-2.37l2.42-3.7-4.54-24h3.9l3.55,19.54,12.29-19.54h4.14l-18.36,28.68c-2.12,3.3-4.34,4.83-7.45,4.83a8.71,8.71,0,0,1-3.11-.54l1.28-3.3A6.15,6.15,0,0,0,730.34,406.92Z"/><path class="cls-2" d="M768.43,376.27c6.76,0,10.91,4.29,10.91,10.61,0,7.5-5.63,14.42-13.28,14.42-6.81,0-10.91-4.25-10.91-10.56C755.15,383.23,760.73,376.27,768.43,376.27Zm-.1,3.3c-5.43,0-9.28,5.38-9.28,11,0,4.49,2.62,7.4,7.11,7.4,5.43,0,9.28-5.38,9.28-11C775.44,382.49,772.82,379.58,768.33,379.58Z"/><path class="cls-2" d="M788,392.46a9,9,0,0,0-.25,1.68c0,2.76,2.12,3.85,4.93,3.85s5.48-1.88,7.35-3.75l3.8-17.37h3.7l-5.28,23.84h-3.7l.79-3.46c-2.07,2-5,4-8.39,4-4.25,0-7.11-2.07-7.11-5.93a14.07,14.07,0,0,1,.25-2l3.65-16.53h3.7Z"/><path class="cls-2" d="M814.92,376.87h3.7l-.84,3.65a10.63,10.63,0,0,1,8.88-4.15l-.83,3.8a7.27,7.27,0,0,0-1.88-.2c-2.77,0-5.38,1.88-6.91,3.9l-3.7,16.83h-3.7Z"/><path class="cls-2" d="M827.35,394.58a10,10,0,0,0,7.94,3.7c3.41,0,5.48-2,5.48-4.2,0-2-2.52-3-5.28-4.09-3.41-1.33-7.26-2.77-7.26-6.47s3.21-7.25,9-7.25c4,0,7.5,1.73,9.08,3.9l-2.12,2.42c-1.08-1.78-4.09-3.31-7.15-3.31-3.21,0-5.14,1.63-5.14,3.66,0,1.87,2.42,2.81,5.09,3.85,3.46,1.28,7.45,2.76,7.45,6.71,0,4.1-3.41,7.8-9.38,7.8-4.29,0-7.9-1.48-10.07-4.2Z"/><path class="cls-2" d="M853.9,388.07c0-3.7,3.16-5.33,6.17-7,2.82-1.43,5.58-2.86,5.58-5.87,0-2.57-2.17-4.3-6-4.3a10.49,10.49,0,0,0-7.55,3.16l-1.88-2.76a14,14,0,0,1,9.92-4c5.73,0,9.92,2.86,9.92,7.21,0,4.93-3.9,7-7.35,8.73-2.72,1.43-5.19,2.67-5.19,5.09a2.72,2.72,0,0,0,.89,2l-3.31,1.28A5.57,5.57,0,0,1,853.9,388.07Zm.89,7.7a2.49,2.49,0,0,1,2.52,2.52,3,3,0,0,1-3,2.91,2.44,2.44,0,0,1-2.46-2.46A3,3,0,0,1,854.79,395.77Z"/><line class="cls-2" x1="1058.72" y1="229.92" x2="381.28" y2="229.92"/><rect class="cls-2" x="381.28" y="228.63" width="677.44" height="2.58"/></g></g></svg>