<svg id="Layer_1" data-name="Layer 1" xmlns="http://www.w3.org/2000/svg" viewBox="0 0 131.52 35.29"><defs><style>.cls-1{fill:#4ba89d;stroke:#8e6646;stroke-miterlimit:10;stroke-width:0.5px;}.cls-2{fill:#412f20;}</style></defs><title>logo</title><line class="cls-1" x1="131.52" y1="30.46" x2="97.6" y2="30.46"/><line class="cls-1" x1="33.92" y1="30.46" y2="30.46"/><path class="cls-2" d="M5.4,10.6a4.34,4.34,0,0,1,3.69,1.64L7,14.21a1.7,1.7,0,0,0-1.46-.74,1.61,1.61,0,0,0-1.71,1.69,1.62,1.62,0,0,0,1.71,1.71A1.75,1.75,0,0,0,7,16.11l2.09,2A4.38,4.38,0,0,1,5.4,19.73,4.55,4.55,0,0,1,.52,15.16C0.52,12.4,2.64,10.6,5.4,10.6Z" transform="translate(0 0.25)"/><path class="cls-2" d="M16.06,14.67a1.08,1.08,0,0,0-1.26-1.21,1.72,1.72,0,0,0-1.39.68v5.37H10.17v-12h3.24v4.3a3.84,3.84,0,0,1,3-1.21,2.57,2.57,0,0,1,2.9,2.7v6.21H16.06V14.67Z" transform="translate(0 0.25)"/><path class="cls-2" d="M20.5,15.16a4.55,4.55,0,0,1,4.88-4.56,4.58,4.58,0,1,1,0,9.13A4.56,4.56,0,0,1,20.5,15.16Zm6.45,0a1.56,1.56,0,1,0-3.11,0A1.56,1.56,0,1,0,26.95,15.16Z" transform="translate(0 0.25)"/><path class="cls-2" d="M36.12,10.6a4.34,4.34,0,0,1,3.69,1.64l-2.09,2a1.7,1.7,0,0,0-1.46-.74,1.61,1.61,0,0,0-1.71,1.69,1.62,1.62,0,0,0,1.71,1.71,1.75,1.75,0,0,0,1.46-.76l2.09,2a4.38,4.38,0,0,1-3.69,1.64,4.55,4.55,0,0,1-4.88-4.57C31.25,12.4,33.37,10.6,36.12,10.6Z" transform="translate(0 0.25)"/><path class="cls-2" d="M40.28,15.16a4.55,4.55,0,0,1,4.88-4.56,4.58,4.58,0,1,1,0,9.13A4.56,4.56,0,0,1,40.28,15.16Zm6.45,0a1.56,1.56,0,1,0-3.11,0A1.56,1.56,0,1,0,46.73,15.16Z" transform="translate(0 0.25)"/><path class="cls-2" d="M51.26,7.51H54.5v12H51.26v-12Z" transform="translate(0 0.25)"/><path class="cls-2" d="M61.68,18.69a3.51,3.51,0,0,1-2.63,1,2.88,2.88,0,0,1-3-2.86c0-2.16,1.69-2.68,3-2.68a3.43,3.43,0,0,1,2.63,1v-1c0-.61-0.56-1.08-1.62-1.08a4.18,4.18,0,0,0-2.41.85l-1.1-2a6.8,6.8,0,0,1,4.11-1.31c2.16,0,4.27.76,4.27,3.66v5.26H61.68V18.69Zm0-2a1.66,1.66,0,0,0-1.28-.47,0.94,0.94,0,0,0-1.13.72,0.93,0.93,0,0,0,1.13.7,1.66,1.66,0,0,0,1.28-.47V16.67Z" transform="translate(0 0.25)"/><path class="cls-2" d="M67.39,17V13.63H65.95V10.82h1.44V8.44h3.24v2.38H72.4v2.81H70.63v2.43a0.75,0.75,0,0,0,.72.81A1.2,1.2,0,0,0,72,16.71l0.58,2.45a3.46,3.46,0,0,1-2.2.58C68.45,19.73,67.39,18.82,67.39,17Z" transform="translate(0 0.25)"/><path class="cls-2" d="M78.1,10.6c2.56,0,4.52,1.84,4.52,4.9v0.67H76.71a1.85,1.85,0,0,0,1.91,1.1,3.44,3.44,0,0,0,2-.61l1.33,2a6.14,6.14,0,0,1-3.71,1.08c-2.72,0-4.84-1.71-4.84-4.57A4.53,4.53,0,0,1,78.1,10.6Zm-1.42,3.51h2.86a1.33,1.33,0,0,0-1.44-1A1.35,1.35,0,0,0,76.68,14.12Z" transform="translate(0 0.25)"/><path class="cls-2" d="M84.76,17V13.63H83.32V10.82h1.44V8.44H88v2.38h1.76v2.81H88v2.43a0.75,0.75,0,0,0,.72.81,1.2,1.2,0,0,0,.65-0.16l0.58,2.45a3.46,3.46,0,0,1-2.2.58C85.82,19.73,84.76,18.82,84.76,17Z" transform="translate(0 0.25)"/><path class="cls-2" d="M93.09,20.18a1.24,1.24,0,0,0,1.13-.34l0.07-.18-3.42-8.84H94.3l1.66,5,1.67-5h3.42L97.27,20.6c-0.77,2-2.21,2.4-4.05,2.45A6.54,6.54,0,0,1,92,22.9L92.41,20A1.52,1.52,0,0,0,93.09,20.18Z" transform="translate(0 0.25)"/><path class="cls-2" d="M102,22.83v-12h3.24v0.92a3.06,3.06,0,0,1,2.45-1.13c2.16,0,3.82,1.58,3.82,4.56s-1.66,4.57-3.82,4.57a3.08,3.08,0,0,1-2.45-1.13v4.23H102Zm4.57-9.36a1.89,1.89,0,0,0-1.33.59v2.21a1.93,1.93,0,0,0,1.33.59,1.59,1.59,0,0,0,1.62-1.71A1.59,1.59,0,0,0,106.61,13.47Z" transform="translate(0 0.25)"/><path class="cls-2" d="M117.25,10.6c2.56,0,4.52,1.84,4.52,4.9v0.67h-5.91a1.85,1.85,0,0,0,1.91,1.1,3.44,3.44,0,0,0,2-.61l1.33,2a6.14,6.14,0,0,1-3.71,1.08c-2.72,0-4.84-1.71-4.84-4.57A4.53,4.53,0,0,1,117.25,10.6Zm-1.42,3.51h2.86a1.33,1.33,0,0,0-1.44-1A1.35,1.35,0,0,0,115.83,14.12Z" transform="translate(0 0.25)"/><path class="cls-2" d="M123.8,16.22a6.19,6.19,0,0,0,3.13,1.1c0.67,0,.86-0.18.86-0.41s-0.4-.4-1.22-0.5c-1.46-.2-3.71-0.47-3.71-2.83,0-1.57,1.37-3,3.89-3a6.83,6.83,0,0,1,3.76,1.12l-1.19,2.11a4.31,4.31,0,0,0-2.56-.9c-0.47,0-.81.13-0.81,0.38s0.25,0.36,1.12.49c1.46,0.22,3.82.52,3.82,3,0,1.73-1.55,3-4.12,3a7.26,7.26,0,0,1-4.27-1.33Z" transform="translate(0 0.25)"/><path class="cls-2" d="M41.85,29.44l-2,3.72H39.1l-0.45-4.63h0.72l0.31,3.69,2-3.69h0.63l0.39,3.69,1.94-3.69h0.79l-2.5,4.63H42.23Z" transform="translate(0 0.25)"/><path class="cls-2" d="M49,30.12a2,2,0,0,0,.06-0.32,0.79,0.79,0,0,0-1-.75,2.15,2.15,0,0,0-1.43.74L46,33.16H45.25l1.41-6.39h0.72L46.85,29.2a2.49,2.49,0,0,1,1.64-.79,1.18,1.18,0,0,1,1.38,1.15,2,2,0,0,1-.06.38l-0.7,3.21H48.39Z" transform="translate(0 0.25)"/><path class="cls-2" d="M54.92,28.53h0.72l-1,4.63H53.9L54,32.5a1.92,1.92,0,0,1-1.52.78,1.72,1.72,0,0,1-1.79-1.91,2.7,2.7,0,0,1,2.42-3,1.83,1.83,0,0,1,1.61.84Zm-2.15,4.1a1.79,1.79,0,0,0,1.41-.79l0.46-2a1.57,1.57,0,0,0-1.4-.75,2,2,0,0,0-1.76,2.18A1.26,1.26,0,0,0,52.78,32.63Z" transform="translate(0 0.25)"/><path class="cls-2" d="M56.42,32.16l0.67-3H56.32l0.14-.62h0.77l0.28-1.27h0.72l-0.28,1.27h0.94l-0.14.62H57.8L57.17,32a1.22,1.22,0,0,0,0,.19,0.4,0.4,0,0,0,.46.43,0.69,0.69,0,0,0,.44-0.15l0.09,0.58a1.15,1.15,0,0,1-.7.22,0.87,0.87,0,0,1-1.05-.84A1.72,1.72,0,0,1,56.42,32.16Z" transform="translate(0 0.25)"/><path class="cls-2" d="M59.72,28.47a1.64,1.64,0,0,0,.8-0.81H60.45A0.41,0.41,0,0,1,60,27.24a0.59,0.59,0,0,1,.58-0.57,0.5,0.5,0,0,1,.51.56A2,2,0,0,1,60,28.79Z" transform="translate(0 0.25)"/><path class="cls-2" d="M61.06,32a2,2,0,0,0,1.54.72,0.94,0.94,0,0,0,1.06-.81,1.24,1.24,0,0,0-1-.79c-0.66-.26-1.41-0.54-1.41-1.26A1.53,1.53,0,0,1,63,28.41a2.21,2.21,0,0,1,1.76.76l-0.41.47A1.72,1.72,0,0,0,62.95,29a0.84,0.84,0,0,0-1,.71,1.2,1.2,0,0,0,1,.75c0.67,0.25,1.45.54,1.45,1.3a1.62,1.62,0,0,1-1.82,1.51,2.43,2.43,0,0,1-2-.81Z" transform="translate(0 0.25)"/><path class="cls-2" d="M67.77,34.36a0.79,0.79,0,0,0,.69-0.46l0.47-.72L68,28.53H68.8l0.69,3.79,2.39-3.79h0.8L69.12,34.1a1.65,1.65,0,0,1-1.45.94,1.69,1.69,0,0,1-.6-0.11l0.25-.64A1.19,1.19,0,0,0,67.77,34.36Z" transform="translate(0 0.25)"/><path class="cls-2" d="M75.16,28.41a2,2,0,0,1,2.12,2.06,2.71,2.71,0,0,1-2.58,2.8,2,2,0,0,1-2.12-2.05A2.71,2.71,0,0,1,75.16,28.41Zm0,0.64a2,2,0,0,0-1.8,2.14,1.3,1.3,0,0,0,1.38,1.44,2,2,0,0,0,1.8-2.14A1.3,1.3,0,0,0,75.14,29.06Z" transform="translate(0 0.25)"/><path class="cls-2" d="M79,31.56a1.75,1.75,0,0,0,0,.33,0.79,0.79,0,0,0,1,.75,2.23,2.23,0,0,0,1.43-.73L82,28.53h0.72l-1,4.63H81l0.15-.67a2.46,2.46,0,0,1-1.63.79,1.18,1.18,0,0,1-1.38-1.15,2.73,2.73,0,0,1,0-.38l0.71-3.21h0.72Z" transform="translate(0 0.25)"/><path class="cls-2" d="M84.19,28.53h0.72l-0.16.71a2.06,2.06,0,0,1,1.72-.81l-0.16.74a1.41,1.41,0,0,0-.36,0,1.81,1.81,0,0,0-1.34.76l-0.72,3.27H83.16Z" transform="translate(0 0.25)"/><path class="cls-2" d="M86.6,32a2,2,0,0,0,1.54.72,0.94,0.94,0,0,0,1.06-.81,1.24,1.24,0,0,0-1-.79c-0.66-.26-1.41-0.54-1.41-1.26a1.53,1.53,0,0,1,1.75-1.41,2.21,2.21,0,0,1,1.76.76l-0.41.47A1.72,1.72,0,0,0,88.49,29a0.85,0.85,0,0,0-1,.71,1.2,1.2,0,0,0,1,.75c0.67,0.25,1.45.54,1.45,1.3a1.62,1.62,0,0,1-1.82,1.51,2.43,2.43,0,0,1-2-.81Z" transform="translate(0 0.25)"/><path class="cls-2" d="M91.76,30.7A1.67,1.67,0,0,1,93,29.35,1.46,1.46,0,0,0,94,28.21a1,1,0,0,0-1.17-.83A2,2,0,0,0,91.4,28L91,27.46A2.71,2.71,0,0,1,93,26.67c1.11,0,1.93.56,1.93,1.4a2,2,0,0,1-1.43,1.7,1.39,1.39,0,0,0-1,1,0.53,0.53,0,0,0,.17.38L92,31.39A1.08,1.08,0,0,1,91.76,30.7Zm0.17,1.5a0.48,0.48,0,0,1,.49.49,0.58,0.58,0,0,1-.58.57,0.47,0.47,0,0,1-.48-0.48A0.58,0.58,0,0,1,91.93,32.2Z" transform="translate(0 0.25)"/><line class="cls-1" x1="131.52" y1="0.25" y2="0.25"/></svg>