<?xml version="1.0" encoding="utf-8"?>
<!-- Generator: Adobe Illustrator 22.0.1, SVG Export Plug-In . SVG Version: 6.00 Build 0)  -->
<svg version="1.1" xmlns="http://www.w3.org/2000/svg" xmlns:xlink="http://www.w3.org/1999/xlink" x="0px" y="0px"
	 viewBox="0 0 1439.9 638.9" style="enable-background:new 0 0 1439.9 638.9;" xml:space="preserve">
<style type="text/css">
	.st0{fill:#0076A8;}
	.st1{fill:#FFFFFF;}
</style>
<g id="Layer_4">
	<rect y="-0.2" class="st0" width="1439.9" height="638.5"/>
</g>
<g id="Layer_3">
	<g>
		<g>
			<path class="st1" d="M621.3,358.2h-21.9V256.4h21.9V358.2z M604.8,352.8h11.1v-91h-11.1V352.8z"/>
		</g>
		<g>
			<polygon class="st1" points="660.2,358.2 638.3,358.2 638.3,278.6 654.8,278.6 654.8,267.3 641,267.3 641,261.9 660.2,261.9 
				660.2,284.1 643.7,284.1 643.7,352.8 654.8,352.8 654.8,292.4 660.2,292.4 			"/>
		</g>
		<g>
			<path class="st1" d="M741.5,358.2h-21.9v-44.5c0-4.4-1.5-9.6-8.7-9.6c-1.5,0-2.9,0.2-4.1,0.7l-1.8-5.1c1.8-0.6,3.8-1,5.9-1
				c8.7,0,14.1,5.8,14.1,15v39.1h11.1v-44.1c0-14-6.6-20.6-20.8-20.6c-4.9,0-11.7,1.9-16.4,7.1l0.1,63h-21.9v-79.3h13.8v5.4h-8.4
				v68.5h11.1l-0.1-59.6l0.6-0.7c4.9-6,13-9.8,21.2-9.8c17.2,0,26.3,9,26.3,26V358.2z"/>
		</g>
		<g>
			<g>
				<polygon class="st1" points="832.8,358.2 806,358.2 786.6,329 780.4,335.1 780.4,358.2 758.4,358.2 758.7,345.2 764.1,339.8 
					763.9,352.8 775,352.8 775,332.9 787.4,320.6 808.9,352.8 822.4,352.8 795,313.4 818.5,289.7 804.8,289.7 758.4,335.9 
					758.4,256.4 780.4,256.4 780.4,298.2 775,303.6 775,261.9 763.9,261.9 763.9,322.8 802.5,284.3 831.6,284.3 802,314 				"/>
			</g>
		</g>
	</g>
	<g>
		<rect x="599.4" y="380" class="st1" width="60.2" height="5.4"/>
	</g>
	<g>
		<rect x="772.6" y="380" class="st1" width="60.2" height="5.4"/>
	</g>
	<g>
		<path class="st1" d="M668.6,379.7c1.2-1.1,2.6-1.6,4.2-1.6c0.6,0,1.1,0.1,1.6,0.3c0.5,0.2,0.9,0.5,1.2,0.8
			c0.3,0.3,0.6,0.8,0.7,1.2c0.2,0.5,0.3,1,0.3,1.6v6.4h-1.1c-0.2,0-0.4,0-0.5-0.1c-0.1-0.1-0.2-0.2-0.3-0.4l-0.2-0.7
			c-0.3,0.2-0.5,0.4-0.7,0.6c-0.2,0.2-0.5,0.3-0.8,0.4c-0.3,0.1-0.5,0.2-0.8,0.3c-0.3,0.1-0.6,0.1-1,0.1c-0.4,0-0.8-0.1-1.2-0.2
			c-0.4-0.1-0.7-0.3-0.9-0.5c-0.3-0.2-0.5-0.5-0.6-0.9c-0.1-0.3-0.2-0.7-0.2-1.2c0-0.3,0-0.5,0.1-0.8c0.1-0.3,0.2-0.5,0.4-0.7
			c0.2-0.2,0.4-0.4,0.8-0.7c0.3-0.2,0.7-0.4,1.1-0.5c0.4-0.2,1-0.3,1.6-0.4c0.6-0.1,1.3-0.2,2-0.2V382c0-0.7-0.1-1.2-0.4-1.5
			c-0.3-0.3-0.7-0.5-1.2-0.5c-0.4,0-0.7,0-1,0.1c-0.3,0.1-0.5,0.2-0.7,0.3c-0.2,0.1-0.4,0.2-0.5,0.3s-0.3,0.1-0.5,0.1
			c-0.2,0-0.3,0-0.4-0.1c-0.1-0.1-0.2-0.2-0.3-0.3L668.6,379.7z M674.2,384.1c-0.7,0-1.3,0.1-1.8,0.2c-0.5,0.1-0.9,0.2-1.1,0.3
			c-0.3,0.1-0.5,0.3-0.6,0.5s-0.2,0.4-0.2,0.6c0,0.4,0.1,0.7,0.4,0.9c0.3,0.2,0.6,0.3,1,0.3c0.5,0,0.9-0.1,1.3-0.3
			c0.4-0.2,0.7-0.5,1.1-0.8V384.1z"/>
		<path class="st1" d="M681.1,379.7c0.4-0.5,0.9-0.8,1.4-1.1c0.5-0.3,1.1-0.4,1.8-0.4c0.6,0,1.1,0.1,1.5,0.3c0.5,0.2,0.8,0.6,1.2,1
			c0.3,0.4,0.6,1,0.8,1.6c0.2,0.6,0.3,1.4,0.3,2.2c0,0.8-0.1,1.5-0.3,2.1s-0.5,1.2-0.9,1.7c-0.4,0.5-0.8,0.8-1.4,1.1
			c-0.5,0.3-1.1,0.4-1.8,0.4c-0.6,0-1-0.1-1.4-0.3c-0.4-0.2-0.8-0.4-1.1-0.7v4.1h-2.4v-13.4h1.5c0.3,0,0.5,0.1,0.6,0.4L681.1,379.7z
			 M681.3,385.8c0.3,0.3,0.6,0.6,0.9,0.7c0.3,0.1,0.7,0.2,1.1,0.2c0.4,0,0.7-0.1,1-0.2c0.3-0.1,0.5-0.3,0.8-0.6
			c0.2-0.3,0.4-0.6,0.5-1.1c0.1-0.4,0.2-0.9,0.2-1.5c0-0.6,0-1.1-0.1-1.5c-0.1-0.4-0.2-0.7-0.4-1c-0.2-0.3-0.4-0.4-0.6-0.6
			c-0.3-0.1-0.5-0.2-0.9-0.2c-0.5,0-0.9,0.1-1.3,0.3c-0.4,0.2-0.7,0.5-1,0.9V385.8z"/>
		<path class="st1" d="M689.8,379.7c1.2-1.1,2.6-1.6,4.2-1.6c0.6,0,1.1,0.1,1.6,0.3c0.5,0.2,0.9,0.5,1.2,0.8
			c0.3,0.3,0.6,0.8,0.7,1.2c0.2,0.5,0.3,1,0.3,1.6v6.4h-1.1c-0.2,0-0.4,0-0.5-0.1s-0.2-0.2-0.3-0.4l-0.2-0.7
			c-0.3,0.2-0.5,0.4-0.7,0.6c-0.2,0.2-0.5,0.3-0.8,0.4c-0.3,0.1-0.5,0.2-0.8,0.3c-0.3,0.1-0.6,0.1-1,0.1c-0.4,0-0.8-0.1-1.2-0.2
			c-0.4-0.1-0.7-0.3-0.9-0.5c-0.3-0.2-0.5-0.5-0.6-0.9c-0.1-0.3-0.2-0.7-0.2-1.2c0-0.3,0-0.5,0.1-0.8c0.1-0.3,0.2-0.5,0.4-0.7
			c0.2-0.2,0.4-0.4,0.8-0.7c0.3-0.2,0.7-0.4,1.1-0.5c0.4-0.2,1-0.3,1.6-0.4c0.6-0.1,1.3-0.2,2-0.2V382c0-0.7-0.1-1.2-0.4-1.5
			c-0.3-0.3-0.7-0.5-1.2-0.5c-0.4,0-0.7,0-1,0.1c-0.3,0.1-0.5,0.2-0.7,0.3c-0.2,0.1-0.4,0.2-0.5,0.3s-0.3,0.1-0.5,0.1
			c-0.2,0-0.3,0-0.4-0.1c-0.1-0.1-0.2-0.2-0.3-0.3L689.8,379.7z M695.3,384.1c-0.7,0-1.3,0.1-1.8,0.2c-0.5,0.1-0.9,0.2-1.1,0.3
			c-0.3,0.1-0.5,0.3-0.6,0.5c-0.1,0.2-0.2,0.4-0.2,0.6c0,0.4,0.1,0.7,0.4,0.9c0.3,0.2,0.6,0.3,1,0.3c0.5,0,0.9-0.1,1.3-0.3
			c0.4-0.2,0.7-0.5,1.1-0.8V384.1z"/>
		<path class="st1" d="M702.3,380c0.3-0.6,0.7-1.1,1.1-1.4c0.4-0.3,0.9-0.5,1.5-0.5c0.5,0,0.8,0.1,1.1,0.3l-0.2,1.8
			c0,0.1-0.1,0.2-0.1,0.3c-0.1,0-0.1,0.1-0.3,0.1c-0.1,0-0.2,0-0.4-0.1c-0.2,0-0.4-0.1-0.6-0.1c-0.3,0-0.5,0-0.7,0.1
			c-0.2,0.1-0.4,0.2-0.6,0.3c-0.2,0.1-0.3,0.3-0.4,0.5c-0.1,0.2-0.2,0.4-0.4,0.7v6.2H700v-10.1h1.4c0.2,0,0.4,0,0.5,0.1
			c0.1,0.1,0.2,0.2,0.2,0.5L702.3,380z"/>
		<path class="st1" d="M710.7,388.5c-0.9,0-1.6-0.2-2-0.7c-0.5-0.5-0.7-1.2-0.7-2v-5.6h-1c-0.1,0-0.2,0-0.3-0.1
			c-0.1-0.1-0.1-0.2-0.1-0.4v-1l1.6-0.3l0.5-2.8c0-0.1,0.1-0.2,0.2-0.3s0.2-0.1,0.4-0.1h1.3v3.2h2.7v1.7h-2.7v5.5
			c0,0.3,0.1,0.6,0.2,0.7c0.2,0.2,0.4,0.3,0.6,0.3c0.2,0,0.3,0,0.4-0.1c0.1,0,0.2-0.1,0.3-0.1c0.1,0,0.1-0.1,0.2-0.1
			c0.1,0,0.1-0.1,0.2-0.1c0.1,0,0.1,0,0.2,0.1c0,0,0.1,0.1,0.1,0.2l0.7,1.2c-0.4,0.3-0.8,0.5-1.2,0.7
			C711.6,388.5,711.2,388.5,710.7,388.5z"/>
		<path class="st1" d="M714.6,388.4v-10.1h1.5c0.3,0,0.5,0.1,0.6,0.4l0.2,0.7c0.2-0.2,0.4-0.4,0.6-0.5c0.2-0.2,0.4-0.3,0.6-0.4
			s0.5-0.2,0.7-0.3c0.3-0.1,0.5-0.1,0.8-0.1c0.6,0,1.2,0.2,1.6,0.5c0.4,0.3,0.7,0.8,0.9,1.4c0.2-0.3,0.4-0.6,0.6-0.9
			c0.2-0.2,0.5-0.4,0.8-0.6c0.3-0.2,0.6-0.3,0.9-0.3c0.3-0.1,0.6-0.1,1-0.1c0.6,0,1.1,0.1,1.5,0.3c0.4,0.2,0.8,0.4,1.1,0.7
			c0.3,0.3,0.5,0.7,0.7,1.2c0.2,0.5,0.2,1,0.2,1.6v6.4h-2.4V382c0-0.6-0.1-1.1-0.4-1.4c-0.3-0.3-0.7-0.5-1.2-0.5
			c-0.3,0-0.5,0-0.7,0.1c-0.2,0.1-0.4,0.2-0.6,0.4c-0.2,0.2-0.3,0.4-0.4,0.6c-0.1,0.2-0.1,0.5-0.1,0.8v6.4h-2.4V382
			c0-0.7-0.1-1.2-0.4-1.5c-0.3-0.3-0.7-0.5-1.2-0.5c-0.4,0-0.7,0.1-1,0.3c-0.3,0.2-0.6,0.4-0.9,0.7v7.4H714.6z"/>
		<path class="st1" d="M732.9,383.6c0,0.5,0.1,1,0.3,1.3c0.1,0.4,0.3,0.7,0.6,0.9c0.2,0.2,0.5,0.4,0.8,0.5c0.3,0.1,0.7,0.2,1.1,0.2
			s0.7,0,1-0.1c0.3-0.1,0.5-0.2,0.7-0.3c0.2-0.1,0.4-0.2,0.6-0.3c0.2-0.1,0.3-0.1,0.5-0.1c0.2,0,0.4,0.1,0.5,0.2l0.7,0.9
			c-0.3,0.3-0.6,0.6-0.9,0.8c-0.3,0.2-0.7,0.4-1,0.5c-0.4,0.1-0.7,0.2-1.1,0.3c-0.4,0.1-0.7,0.1-1.1,0.1c-0.7,0-1.4-0.1-2-0.3
			c-0.6-0.2-1.1-0.6-1.6-1c-0.4-0.5-0.8-1-1.1-1.7c-0.3-0.7-0.4-1.4-0.4-2.3c0-0.7,0.1-1.3,0.3-1.9c0.2-0.6,0.5-1.1,1-1.6
			c0.4-0.4,0.9-0.8,1.5-1.1c0.6-0.3,1.3-0.4,2-0.4c0.6,0,1.2,0.1,1.8,0.3s1,0.5,1.4,0.9c0.4,0.4,0.7,0.9,0.9,1.4
			c0.2,0.6,0.3,1.2,0.3,1.9c0,0.4,0,0.6-0.1,0.7c-0.1,0.1-0.2,0.2-0.5,0.2H732.9z M737.6,382.2c0-0.3,0-0.6-0.1-0.9
			c-0.1-0.3-0.2-0.5-0.4-0.7c-0.2-0.2-0.4-0.4-0.7-0.5c-0.3-0.1-0.6-0.2-0.9-0.2c-0.7,0-1.3,0.2-1.7,0.6c-0.4,0.4-0.7,1-0.8,1.7
			H737.6z"/>
		<path class="st1" d="M743.8,379.5c0.2-0.2,0.4-0.4,0.6-0.6c0.2-0.2,0.5-0.3,0.7-0.4c0.3-0.1,0.5-0.2,0.8-0.3
			c0.3-0.1,0.6-0.1,0.9-0.1c0.5,0,1,0.1,1.5,0.3c0.4,0.2,0.8,0.4,1.1,0.8c0.3,0.3,0.5,0.7,0.6,1.2c0.1,0.5,0.2,1,0.2,1.5v6.4h-2.4
			V382c0-0.6-0.1-1.1-0.4-1.4c-0.3-0.3-0.7-0.5-1.3-0.5c-0.4,0-0.8,0.1-1.2,0.3c-0.4,0.2-0.7,0.4-1,0.8v7.3h-2.4v-10.1h1.5
			c0.3,0,0.5,0.1,0.6,0.4L743.8,379.5z"/>
		<path class="st1" d="M755.9,388.5c-0.9,0-1.6-0.2-2-0.7c-0.5-0.5-0.7-1.2-0.7-2v-5.6h-1c-0.1,0-0.2,0-0.3-0.1
			c-0.1-0.1-0.1-0.2-0.1-0.4v-1l1.6-0.3l0.5-2.8c0-0.1,0.1-0.2,0.2-0.3s0.2-0.1,0.4-0.1h1.3v3.2h2.7v1.7h-2.7v5.5
			c0,0.3,0.1,0.6,0.2,0.7c0.2,0.2,0.4,0.3,0.6,0.3c0.2,0,0.3,0,0.4-0.1c0.1,0,0.2-0.1,0.3-0.1c0.1,0,0.1-0.1,0.2-0.1
			c0.1,0,0.1-0.1,0.2-0.1c0.1,0,0.1,0,0.2,0.1c0,0,0.1,0.1,0.1,0.2l0.7,1.2c-0.4,0.3-0.8,0.5-1.2,0.7
			C756.8,388.5,756.4,388.5,755.9,388.5z"/>
		<path class="st1" d="M766,380.3c-0.1,0.1-0.1,0.2-0.2,0.2c-0.1,0-0.2,0.1-0.3,0.1c-0.1,0-0.2,0-0.4-0.1c-0.1-0.1-0.3-0.1-0.5-0.2
			c-0.2-0.1-0.4-0.2-0.6-0.2c-0.2-0.1-0.5-0.1-0.8-0.1c-0.5,0-0.9,0.1-1.1,0.3c-0.3,0.2-0.4,0.5-0.4,0.8c0,0.2,0.1,0.4,0.2,0.5
			c0.1,0.1,0.3,0.3,0.6,0.4s0.5,0.2,0.8,0.3c0.3,0.1,0.6,0.2,0.9,0.3s0.6,0.2,0.9,0.4c0.3,0.1,0.6,0.3,0.8,0.5
			c0.2,0.2,0.4,0.5,0.6,0.7c0.1,0.3,0.2,0.6,0.2,1c0,0.5-0.1,0.9-0.3,1.3c-0.2,0.4-0.4,0.8-0.8,1.1s-0.8,0.5-1.3,0.7
			c-0.5,0.2-1.1,0.3-1.7,0.3c-0.3,0-0.7,0-1-0.1c-0.3-0.1-0.6-0.1-1-0.3c-0.3-0.1-0.6-0.2-0.8-0.4c-0.3-0.2-0.5-0.3-0.7-0.5l0.6-0.9
			c0.1-0.1,0.2-0.2,0.3-0.3c0.1-0.1,0.2-0.1,0.4-0.1c0.2,0,0.3,0,0.4,0.1c0.1,0.1,0.3,0.2,0.5,0.3s0.4,0.2,0.6,0.3
			c0.2,0.1,0.5,0.1,0.9,0.1c0.3,0,0.5,0,0.7-0.1c0.2-0.1,0.4-0.2,0.5-0.3c0.1-0.1,0.2-0.2,0.3-0.4c0.1-0.1,0.1-0.3,0.1-0.5
			c0-0.2-0.1-0.4-0.2-0.6c-0.1-0.2-0.3-0.3-0.6-0.4c-0.2-0.1-0.5-0.2-0.8-0.3c-0.3-0.1-0.6-0.2-0.9-0.3c-0.3-0.1-0.6-0.2-0.9-0.4
			s-0.6-0.3-0.8-0.5c-0.2-0.2-0.4-0.5-0.6-0.8c-0.1-0.3-0.2-0.7-0.2-1.1c0-0.4,0.1-0.8,0.2-1.2c0.2-0.4,0.4-0.7,0.7-1
			c0.3-0.3,0.7-0.5,1.2-0.7s1-0.3,1.6-0.3c0.7,0,1.3,0.1,1.9,0.3c0.6,0.2,1,0.5,1.4,0.9L766,380.3z"/>
	</g>
</g>
</svg>
