<?xml version="1.0" encoding="utf-8"?>
<!-- Generator: Adobe Illustrator 22.0.1, SVG Export Plug-In . SVG Version: 6.00 Build 0)  -->
<svg version="1.1" id="Layer_1" xmlns="http://www.w3.org/2000/svg" xmlns:xlink="http://www.w3.org/1999/xlink" x="0px" y="0px"
	 viewBox="0 0 86.2 50.8" style="enable-background:new 0 0 86.2 50.8;" xml:space="preserve">
<style type="text/css">
	.st0{fill:none;stroke:#0076A8;stroke-width:2;}
	.st1{fill:#231F20;}
	.st2{fill:#0076A8;}
</style>
<g>
	<path class="st0" d="M-225.3-139.9h6.1v35.6h-6.1V-139.9z"/>
	<path class="st0" d="M-204.8-127.6v23.3h-6.1v-27.4h6.1v-6.2h-6.1"/>
	<path class="st0" d="M-186.9-124c0.6-0.2,1.2-0.3,1.9-0.3c3.2,0,4.2,2.2,4.2,4.5v15.5h6.1v-17.3c0-5.6-2.7-8.6-8.7-8.6
		c-2.5,0-5.2,1-7,3.2l0,22.7h-6.1v-27.3h4.1"/>
	<g>
		<polygon class="st1" points="-140,-103.3 -149.9,-103.3 -157.1,-114.1 -159.4,-111.8 -159.4,-103.3 -167.5,-103.3 -167.4,-108.1 
			-165.4,-110.1 -165.5,-105.3 -161.4,-105.3 -161.4,-112.7 -156.8,-117.2 -148.9,-105.3 -143.9,-105.3 -154,-119.9 -145.3,-128.6 
			-150.4,-128.6 -167.5,-111.6 -167.5,-140.9 -159.4,-140.9 -159.4,-125.5 -161.4,-123.5 -161.4,-138.9 -165.5,-138.9 
			-165.5,-116.4 -151.2,-130.6 -140.5,-130.6 -151.4,-119.6 		"/>
	</g>
</g>
<text transform="matrix(1 0 0 1 -167.8794 773.3585)" class="st1" style="font-family:'Lato-Regular'; font-size:18px;"> </text>
<text transform="matrix(1 0 0 1 -123.6264 773.3585)" class="st1" style="font-family:'Lato-Regular'; font-size:18px;"> </text>
<g>
	<g>
		<path class="st2" d="M8.1,37.6H0V0h8.1V37.6z M2,35.6h4.1V2H2V35.6z"/>
	</g>
	<g>
		<polygon class="st2" points="22.4,37.6 14.3,37.6 14.3,8.2 20.4,8.2 20.4,4 15.3,4 15.3,2 22.4,2 22.4,10.2 16.3,10.2 16.3,35.6 
			20.4,35.6 20.4,13.3 22.4,13.3 		"/>
	</g>
	<g>
		<path class="st2" d="M52.5,37.6h-8.1V21.2c0-1.6-0.6-3.5-3.2-3.5c-0.5,0-1.1,0.1-1.5,0.2L39,16c0.7-0.2,1.4-0.4,2.2-0.4
			c3.2,0,5.2,2.1,5.2,5.5v14.5h4.1V19.3c0-5.2-2.4-7.6-7.7-7.6c-1.8,0-4.3,0.7-6,2.6l0,23.3h-8.1V8.3h5.1v2h-3.1v25.3h4.1l0-22
			l0.2-0.3c1.8-2.2,4.8-3.6,7.8-3.6c6.3,0,9.7,3.3,9.7,9.6V37.6z"/>
	</g>
	<g>
		<g>
			<polygon class="st2" points="86.2,37.6 76.3,37.6 69.1,26.8 66.8,29.1 66.8,37.6 58.7,37.6 58.8,32.8 60.8,30.8 60.7,35.6 
				64.8,35.6 64.8,28.2 69.5,23.7 77.4,35.6 82.4,35.6 72.3,21 80.9,12.3 75.9,12.3 58.7,29.3 58.7,0 66.8,0 66.8,15.4 64.8,17.4 
				64.8,2 60.7,2 60.7,24.5 75,10.3 85.8,10.3 74.8,21.3 			"/>
		</g>
	</g>
</g>
<g>
	<rect x="0" y="45.6" class="st2" width="22.2" height="2"/>
</g>
<g>
	<rect x="64" y="45.6" class="st2" width="22.2" height="2"/>
</g>
<g>
	<path class="st2" d="M25.6,45.5c0.4-0.4,0.9-0.6,1.5-0.6c0.2,0,0.4,0,0.6,0.1c0.2,0.1,0.3,0.2,0.4,0.3c0.1,0.1,0.2,0.3,0.3,0.5
		s0.1,0.4,0.1,0.6v2.4h-0.4c-0.1,0-0.1,0-0.2,0s-0.1-0.1-0.1-0.2l-0.1-0.3c-0.1,0.1-0.2,0.2-0.3,0.2c-0.1,0.1-0.2,0.1-0.3,0.2
		c-0.1,0-0.2,0.1-0.3,0.1c-0.1,0-0.2,0-0.4,0c-0.2,0-0.3,0-0.4-0.1c-0.1,0-0.2-0.1-0.3-0.2c-0.1-0.1-0.2-0.2-0.2-0.3
		c-0.1-0.1-0.1-0.3-0.1-0.4c0-0.1,0-0.2,0-0.3c0-0.1,0.1-0.2,0.2-0.3c0.1-0.1,0.2-0.2,0.3-0.2c0.1-0.1,0.3-0.1,0.4-0.2
		c0.2-0.1,0.4-0.1,0.6-0.1c0.2,0,0.5-0.1,0.8-0.1v-0.2c0-0.2-0.1-0.4-0.2-0.6s-0.3-0.2-0.5-0.2c-0.1,0-0.3,0-0.4,0.1
		s-0.2,0.1-0.3,0.1c-0.1,0-0.1,0.1-0.2,0.1S26.1,46,26,46c-0.1,0-0.1,0-0.2,0c0,0-0.1-0.1-0.1-0.1L25.6,45.5z M27.6,47.1
		c-0.3,0-0.5,0-0.7,0.1c-0.2,0-0.3,0.1-0.4,0.1c-0.1,0.1-0.2,0.1-0.2,0.2s-0.1,0.1-0.1,0.2c0,0.2,0,0.3,0.1,0.3
		c0.1,0.1,0.2,0.1,0.4,0.1c0.2,0,0.3,0,0.5-0.1c0.1-0.1,0.3-0.2,0.4-0.3V47.1z"/>
	<path class="st2" d="M30.2,45.5c0.2-0.2,0.3-0.3,0.5-0.4c0.2-0.1,0.4-0.2,0.7-0.2c0.2,0,0.4,0,0.6,0.1c0.2,0.1,0.3,0.2,0.4,0.4
		c0.1,0.2,0.2,0.4,0.3,0.6s0.1,0.5,0.1,0.8c0,0.3,0,0.5-0.1,0.8s-0.2,0.4-0.3,0.6c-0.1,0.2-0.3,0.3-0.5,0.4
		c-0.2,0.1-0.4,0.1-0.7,0.1c-0.2,0-0.4,0-0.5-0.1c-0.1-0.1-0.3-0.2-0.4-0.3V50h-0.9V45h0.5c0.1,0,0.2,0.1,0.2,0.2L30.2,45.5z
		 M30.2,47.8c0.1,0.1,0.2,0.2,0.3,0.3s0.2,0.1,0.4,0.1c0.1,0,0.3,0,0.4-0.1c0.1-0.1,0.2-0.1,0.3-0.2s0.1-0.2,0.2-0.4
		c0-0.2,0.1-0.3,0.1-0.6c0-0.2,0-0.4-0.1-0.6c0-0.2-0.1-0.3-0.2-0.4c-0.1-0.1-0.1-0.2-0.2-0.2c-0.1,0-0.2-0.1-0.3-0.1
		c-0.2,0-0.3,0-0.5,0.1c-0.1,0.1-0.3,0.2-0.4,0.3V47.8z"/>
	<path class="st2" d="M33.4,45.5c0.4-0.4,0.9-0.6,1.5-0.6c0.2,0,0.4,0,0.6,0.1c0.2,0.1,0.3,0.2,0.4,0.3c0.1,0.1,0.2,0.3,0.3,0.5
		s0.1,0.4,0.1,0.6v2.4h-0.4c-0.1,0-0.1,0-0.2,0s-0.1-0.1-0.1-0.2l-0.1-0.3c-0.1,0.1-0.2,0.2-0.3,0.2c-0.1,0.1-0.2,0.1-0.3,0.2
		c-0.1,0-0.2,0.1-0.3,0.1c-0.1,0-0.2,0-0.4,0c-0.2,0-0.3,0-0.4-0.1c-0.1,0-0.2-0.1-0.3-0.2c-0.1-0.1-0.2-0.2-0.2-0.3
		c-0.1-0.1-0.1-0.3-0.1-0.4c0-0.1,0-0.2,0-0.3c0-0.1,0.1-0.2,0.2-0.3c0.1-0.1,0.2-0.2,0.3-0.2c0.1-0.1,0.3-0.1,0.4-0.2
		c0.2-0.1,0.4-0.1,0.6-0.1c0.2,0,0.5-0.1,0.8-0.1v-0.2c0-0.2-0.1-0.4-0.2-0.6s-0.3-0.2-0.5-0.2c-0.1,0-0.3,0-0.4,0.1
		s-0.2,0.1-0.3,0.1c-0.1,0-0.1,0.1-0.2,0.1S33.9,46,33.8,46c-0.1,0-0.1,0-0.2,0c0,0-0.1-0.1-0.1-0.1L33.4,45.5z M35.4,47.1
		c-0.3,0-0.5,0-0.7,0.1c-0.2,0-0.3,0.1-0.4,0.1c-0.1,0.1-0.2,0.1-0.2,0.2s-0.1,0.1-0.1,0.2c0,0.2,0,0.3,0.1,0.3
		c0.1,0.1,0.2,0.1,0.4,0.1c0.2,0,0.3,0,0.5-0.1c0.1-0.1,0.3-0.2,0.4-0.3V47.1z"/>
	<path class="st2" d="M38,45.7c0.1-0.2,0.3-0.4,0.4-0.5c0.2-0.1,0.3-0.2,0.6-0.2c0.2,0,0.3,0,0.4,0.1l-0.1,0.7c0,0,0,0.1-0.1,0.1
		c0,0-0.1,0-0.1,0c0,0-0.1,0-0.2,0s-0.1,0-0.2,0c-0.1,0-0.2,0-0.3,0c-0.1,0-0.1,0.1-0.2,0.1c-0.1,0.1-0.1,0.1-0.2,0.2
		c0,0.1-0.1,0.2-0.1,0.3v2.3h-0.9V45h0.5c0.1,0,0.2,0,0.2,0c0,0,0.1,0.1,0.1,0.2L38,45.7z"/>
	<path class="st2" d="M41.1,48.8c-0.3,0-0.6-0.1-0.7-0.3s-0.3-0.4-0.3-0.8v-2.1h-0.4c0,0-0.1,0-0.1,0c0,0-0.1-0.1-0.1-0.1v-0.4
		l0.6-0.1l0.2-1c0,0,0-0.1,0.1-0.1s0.1,0,0.1,0H41V45h1v0.6h-1v2c0,0.1,0,0.2,0.1,0.3c0.1,0.1,0.1,0.1,0.2,0.1c0.1,0,0.1,0,0.1,0
		c0,0,0.1,0,0.1,0c0,0,0.1,0,0.1,0c0,0,0,0,0.1,0c0,0,0,0,0.1,0c0,0,0,0,0.1,0.1l0.3,0.4c-0.1,0.1-0.3,0.2-0.5,0.2
		C41.5,48.8,41.3,48.8,41.1,48.8z"/>
	<path class="st2" d="M42.6,48.7V45h0.5c0.1,0,0.2,0.1,0.2,0.2l0.1,0.3c0.1-0.1,0.1-0.1,0.2-0.2s0.1-0.1,0.2-0.2S44,45,44.1,45
		c0.1,0,0.2,0,0.3,0c0.2,0,0.4,0.1,0.6,0.2s0.3,0.3,0.3,0.5c0.1-0.1,0.1-0.2,0.2-0.3c0.1-0.1,0.2-0.2,0.3-0.2
		c0.1-0.1,0.2-0.1,0.3-0.1c0.1,0,0.2,0,0.4,0c0.2,0,0.4,0,0.5,0.1c0.2,0.1,0.3,0.2,0.4,0.3c0.1,0.1,0.2,0.3,0.2,0.4
		c0.1,0.2,0.1,0.4,0.1,0.6v2.4h-0.9v-2.4c0-0.2-0.1-0.4-0.2-0.5c-0.1-0.1-0.3-0.2-0.5-0.2c-0.1,0-0.2,0-0.3,0
		c-0.1,0-0.1,0.1-0.2,0.1c-0.1,0.1-0.1,0.1-0.1,0.2c0,0.1-0.1,0.2-0.1,0.3v2.4h-0.9v-2.4c0-0.2,0-0.4-0.2-0.5
		c-0.1-0.1-0.2-0.2-0.4-0.2c-0.1,0-0.3,0-0.4,0.1c-0.1,0.1-0.2,0.2-0.3,0.3v2.7H42.6z"/>
	<path class="st2" d="M49.3,47c0,0.2,0,0.4,0.1,0.5c0.1,0.1,0.1,0.3,0.2,0.3s0.2,0.2,0.3,0.2c0.1,0,0.3,0.1,0.4,0.1s0.3,0,0.4-0.1
		c0.1,0,0.2-0.1,0.3-0.1c0.1,0,0.1-0.1,0.2-0.1c0.1,0,0.1-0.1,0.2-0.1c0.1,0,0.1,0,0.2,0.1l0.3,0.3c-0.1,0.1-0.2,0.2-0.3,0.3
		c-0.1,0.1-0.3,0.1-0.4,0.2c-0.1,0-0.3,0.1-0.4,0.1c-0.1,0-0.3,0-0.4,0c-0.3,0-0.5,0-0.7-0.1s-0.4-0.2-0.6-0.4
		c-0.2-0.2-0.3-0.4-0.4-0.6c-0.1-0.2-0.1-0.5-0.1-0.9c0-0.3,0-0.5,0.1-0.7s0.2-0.4,0.4-0.6c0.2-0.2,0.3-0.3,0.6-0.4
		c0.2-0.1,0.5-0.1,0.7-0.1c0.2,0,0.5,0,0.7,0.1s0.4,0.2,0.5,0.3c0.1,0.1,0.3,0.3,0.3,0.5c0.1,0.2,0.1,0.4,0.1,0.7c0,0.1,0,0.2,0,0.3
		c0,0-0.1,0.1-0.2,0.1H49.3z M51,46.4c0-0.1,0-0.2,0-0.3c0-0.1-0.1-0.2-0.1-0.3c-0.1-0.1-0.1-0.1-0.2-0.2s-0.2-0.1-0.4-0.1
		c-0.3,0-0.5,0.1-0.6,0.2c-0.1,0.1-0.2,0.4-0.3,0.6H51z"/>
	<path class="st2" d="M53.4,45.5c0.1-0.1,0.2-0.1,0.2-0.2c0.1-0.1,0.2-0.1,0.3-0.2c0.1,0,0.2-0.1,0.3-0.1s0.2,0,0.3,0
		c0.2,0,0.4,0,0.5,0.1s0.3,0.2,0.4,0.3c0.1,0.1,0.2,0.3,0.2,0.4s0.1,0.4,0.1,0.6v2.4h-0.9v-2.4c0-0.2-0.1-0.4-0.2-0.5
		c-0.1-0.1-0.3-0.2-0.5-0.2c-0.2,0-0.3,0-0.4,0.1s-0.3,0.2-0.4,0.3v2.7h-0.9V45h0.5c0.1,0,0.2,0.1,0.2,0.2L53.4,45.5z"/>
	<path class="st2" d="M57.8,48.8c-0.3,0-0.6-0.1-0.7-0.3s-0.3-0.4-0.3-0.8v-2.1h-0.4c0,0-0.1,0-0.1,0c0,0-0.1-0.1-0.1-0.1v-0.4
		l0.6-0.1l0.2-1c0,0,0-0.1,0.1-0.1s0.1,0,0.1,0h0.5V45h1v0.6h-1v2c0,0.1,0,0.2,0.1,0.3c0.1,0.1,0.1,0.1,0.2,0.1c0.1,0,0.1,0,0.1,0
		c0,0,0.1,0,0.1,0c0,0,0.1,0,0.1,0c0,0,0,0,0.1,0c0,0,0,0,0.1,0c0,0,0,0,0.1,0.1l0.3,0.4c-0.1,0.1-0.3,0.2-0.5,0.2
		C58.2,48.8,58,48.8,57.8,48.8z"/>
	<path class="st2" d="M61.5,45.7C61.5,45.8,61.5,45.8,61.5,45.7c-0.1,0.1-0.1,0.1-0.2,0.1c0,0-0.1,0-0.1,0s-0.1-0.1-0.2-0.1
		s-0.1-0.1-0.2-0.1c-0.1,0-0.2,0-0.3,0c-0.2,0-0.3,0-0.4,0.1C60,45.8,60,45.9,60,46c0,0.1,0,0.1,0.1,0.2c0.1,0.1,0.1,0.1,0.2,0.1
		s0.2,0.1,0.3,0.1c0.1,0,0.2,0.1,0.3,0.1s0.2,0.1,0.3,0.1c0.1,0,0.2,0.1,0.3,0.2s0.2,0.2,0.2,0.3c0.1,0.1,0.1,0.2,0.1,0.4
		c0,0.2,0,0.3-0.1,0.5c-0.1,0.2-0.2,0.3-0.3,0.4s-0.3,0.2-0.5,0.3s-0.4,0.1-0.6,0.1c-0.1,0-0.3,0-0.4,0c-0.1,0-0.2-0.1-0.4-0.1
		c-0.1,0-0.2-0.1-0.3-0.1c-0.1-0.1-0.2-0.1-0.3-0.2l0.2-0.3c0,0,0.1-0.1,0.1-0.1s0.1,0,0.1,0s0.1,0,0.2,0s0.1,0.1,0.2,0.1
		s0.1,0.1,0.2,0.1c0.1,0,0.2,0,0.3,0c0.1,0,0.2,0,0.3,0s0.1-0.1,0.2-0.1c0,0,0.1-0.1,0.1-0.1c0-0.1,0-0.1,0-0.2c0-0.1,0-0.2-0.1-0.2
		c-0.1-0.1-0.1-0.1-0.2-0.1c-0.1,0-0.2-0.1-0.3-0.1c-0.1,0-0.2-0.1-0.3-0.1c-0.1,0-0.2-0.1-0.3-0.1s-0.2-0.1-0.3-0.2
		s-0.2-0.2-0.2-0.3c-0.1-0.1-0.1-0.3-0.1-0.4c0-0.2,0-0.3,0.1-0.4c0.1-0.1,0.1-0.3,0.3-0.4c0.1-0.1,0.3-0.2,0.4-0.2s0.4-0.1,0.6-0.1
		c0.3,0,0.5,0,0.7,0.1c0.2,0.1,0.4,0.2,0.5,0.3L61.5,45.7z"/>
</g>
</svg>
