<?xml version="1.0" encoding="utf-8"?>
<!-- Generator: Adobe Illustrator 22.0.1, SVG Export Plug-In . SVG Version: 6.00 Build 0)  -->
<svg version="1.1" xmlns="http://www.w3.org/2000/svg" xmlns:xlink="http://www.w3.org/1999/xlink" x="0px" y="0px"
	 viewBox="0 0 1439.9 638.9" style="enable-background:new 0 0 1439.9 638.9;" xml:space="preserve">
<style type="text/css">
	.st0{fill:#D0D3D4;}
	.st1{fill:#FFFFFF;}
	.st2{fill:none;stroke:#FFFFFF;stroke-width:0.75;stroke-miterlimit:10;}
</style>
<g id="Layer_4">
	<rect y="-0.2" class="st0" width="1439.9" height="638.5"/>
</g>
<g id="Layer_3">
	<g>
		<g>
			<path class="st1" d="M588.5,293.8l-13.3,19.4l-30.6-59.7h22.6L588.5,293.8z M626.4,293.8l-13.3,19.4l-30.6-59.7h22.6L626.4,293.8
				z M636.4,272.9c-1.1-2.4-2.3-4.8-3.7-7.1c-1.3-2-2.9-4.1-4.8-6.3c-1.9-2.2-4.1-4.2-6.7-5.9h15.2h13.7c-2,2.4-3.8,4.8-5.4,7.1
				c-1.6,2.3-3.1,4.4-4.4,6.2C639,269.1,637.7,271.1,636.4,272.9z"/>
			<path class="st1" d="M683.3,313c-4,0-7.3-0.5-9.9-1.4c-2.6-0.9-4.7-2.2-6.2-3.6c-1.5-1.5-2.6-3.1-3.1-4.8
				c-0.6-1.7-0.8-3.4-0.8-5.1c0-1.6,0.3-3.2,1-5c0.6-1.7,1.7-3.3,3.2-4.8c1.5-1.5,3.6-2.7,6.2-3.7c2.6-1,5.8-1.5,9.7-1.5h10
				c-3.1,1.1-5.6,2.9-7.6,5.7c-2,2.7-2.9,5.8-2.9,9.3c0,3.5,1,6.6,2.9,9.3c2,2.7,4.5,4.6,7.6,5.7h-8.7H683.3z M672,274.2
				c0.9,0.8,1.9,1.5,3.1,1.9c1.1,0.4,2.3,0.6,3.6,0.6c1.2,0,2.4-0.3,3.6-0.8c1.2-0.5,2.2-1.2,3.1-2.2c0.8-0.9,1.5-1.9,1.9-3.1
				c0.5-1.1,0.7-2.3,0.6-3.6c0-1.2-0.3-2.4-0.8-3.6c-0.8-1.7-1.2-3.3-1.1-4.6c0.1-1.3,0.3-2.4,0.7-3.3c0.5-1.1,1.1-2,1.9-2.7
				c-1.5,0-3.1,0.2-4.8,0.5c-1.4,0.3-3,0.8-4.7,1.5c-1.7,0.7-3.4,1.8-5,3.1c-4.8,4-6.1,8.4-4.1,13.1
				C670.4,272.3,671.1,273.4,672,274.2z M714.7,257.4c2.4,1.7,4.5,3.8,6.3,6.2c1.8,2.4,3.2,5.1,4.3,8.2c1.1,3,1.6,6.2,1.6,9.5v32
				h-20.7v-33.5v-26.1l1,0.2C709.8,254.5,712.3,255.7,714.7,257.4z"/>
			<path class="st1" d="M784.4,294.9l-11,18.1l-32.2-59.7H763L784.4,294.9z M788.3,245.1c-2.3,1.2-3.9,3.2-4.8,5.7
				c-0.8,2.6-0.5,5,0.7,7.4c1.2,2.3,3.2,3.9,5.7,4.8c1.9,0.6,3.3,1.4,4.3,2.3c1,0.9,1.7,1.8,2.2,2.7c0.5,1.1,0.8,2.2,0.8,3.3
				c1.1-1.1,2.1-2.5,2.9-4c0.8-1.3,1.4-2.8,2-4.6c0.6-1.8,0.9-3.9,1-6.1c0.1-6.5-2.4-10.5-7.5-12.1
				C793.1,243.6,790.6,243.9,788.3,245.1z"/>
			<path class="st1" d="M871.2,306.3c2.6,0,5-0.3,7.1-0.8c-3.1,2.9-6.7,5.2-10.8,6.9c-4.1,1.7-8.6,2.5-13.3,2.5
				c-4.7,0-9.1-0.8-13.2-2.4c-4.1-1.6-7.7-3.9-10.8-6.7c-3.1-2.8-5.5-6.2-7.3-10s-2.7-7.9-2.7-12.2c0-4.2,0.8-8,2.3-11.7
				c1.5-3.6,3.6-6.8,6.2-9.6c2.6-2.8,5.7-5,9.2-6.7c3.6-1.7,7.3-2.7,11.3-2.9c-2.8,3.2-4.8,6.7-6.1,10.7c-1.3,3.9-1.9,8.3-1.9,13.3
				c0,4.4,0.8,8.4,2.3,12c1.5,3.6,3.7,6.7,6.4,9.3c2.7,2.6,5.9,4.6,9.5,6.1C863.1,305.5,867,306.3,871.2,306.3z M865.4,285
				c0.2-1.2,0.4-2.4,0.6-3.6c0.2-1.2,0.2-2.5,0.2-3.7c0-5.1-0.6-9.6-1.9-13.8c-1.3-4.1-3.3-7.8-6.1-11c4,0.2,7.8,1.2,11.3,3
				c3.5,1.8,6.6,4.1,9.2,7c2.6,2.9,4.7,6.2,6.2,9.9c1.5,3.7,2.3,7.8,2.3,12.1v0.2H865.4z"/>
		</g>
		<g>
			<path class="st1" d="M629.7,393.9h-15.3v-15.8h3.1v13h12.2V393.9z"/>
			<path class="st1" d="M660.8,393.9h-3.4l-1.8-3.4H645l-1.8,3.4h-3.4l8.6-15.8h3.8L660.8,393.9z M654,387.8l-3.7-7l-3.8,7H654z"/>
			<path class="st1" d="M691,393.9h-4l-7.5-8l-4.5,3.2v4.8h-3.1v-15.8h3.1v7.7l10.7-7.7h4.6l-8.5,6L691,393.9z"/>
			<path class="st1" d="M718.9,393.9h-17v-15.8h16.4v2.8H705v3.4h9.3v2.8H705v4.1h13.9V393.9z"/>
			<path class="st1" d="M749.9,378.1l-8.7,15.8h-3.5l-8.7-15.8h3.4l7.1,13.1l7.1-13.1H749.9z"/>
			<path class="st1" d="M764,393.9h-3.1v-15.8h3.1V393.9z"/>
			<path class="st1" d="M794.3,393.9h-17v-15.8h16.4v2.8h-13.3v3.4h9.3v2.8h-9.3v4.1h13.9V393.9z"/>
			<path class="st1" d="M830.2,378.1l-5.4,15.8h-3.7l-3.8-13.2l-3.8,13.2h-3.7l-5.4-15.8h3.4l3.8,13.1l3.8-13.1h3.7l3.8,13.1
				l3.8-13.1H830.2z"/>
		</g>
		<line class="st2" x1="633.4" y1="347.4" x2="809" y2="347.4"/>
	</g>
</g>
</svg>
