<svg xmlns="http://www.w3.org/2000/svg" viewBox="0 0 114 75.05"><defs><style>.cls-1{fill:#f2f0e6;}.cls-2{fill:#d0b962;}</style></defs><title>right-brain</title><g id="Layer_2" data-name="Layer 2"><g id="Layer_1-2" data-name="Layer 1"><polygon class="cls-1" points="73 4.1 114 61.1 0 61.1 73 4.1"/><path class="cls-2" d="M101.44,70.18c-8.63-10.5-2.63-14.25-11.63-21.75a11.91,11.91,0,0,0-15.37-.37c-4.87,4.5-4.5,11.25-.37,16.5,6.38,7.88,17.63,10.13,24.75,10.5C101.82,75.05,103.32,72.05,101.44,70.18Z"/><path class="cls-2" d="M75.57,37.93C62.07,24.05,33.94-5.2,27.94.8s22.5,33.37,36.38,47.25c.38.38.75.38,1.13-.37a18.24,18.24,0,0,1,4.13-5.25,14.12,14.12,0,0,1,5.63-3.37C75.94,39.05,75.94,38.3,75.57,37.93Z"/></g></g></svg>