<?xml version="1.0" encoding="utf-8"?>
<!-- Generator: Adobe Illustrator 22.1.0, SVG Export Plug-In . SVG Version: 6.00 Build 0)  -->
<svg version="1.1" xmlns="http://www.w3.org/2000/svg" xmlns:xlink="http://www.w3.org/1999/xlink" x="0px" y="0px"
	 viewBox="0 0 1440 639" style="enable-background:new 0 0 1440 639;" xml:space="preserve">
<style type="text/css">
	.st0{fill:#F7F6F6;}
	.st1{fill:#696158;}
	.st2{fill:#221F1F;}
	.st3{fill:#FFFFFF;}
</style>
<g id="background">
	<rect x="0.1" y="0.1" class="st0" width="1439.9" height="638.9"/>
</g>
<g id="faces">
	<g>
		<g>
			<path class="st1" d="M657.1,313.7c1.9-4.9,5.8-8,10.9-8c8,0,10.9,6.1,10.9,12v21.8h6.1v2h-19.1v-2h6.6v-22.9c0-4.9-0.8-9-6.1-9
				c-2.7,0-9.2,2.5-9.2,16.1v15.8h5.8v2h-18.7v-2h6.5v-40.9c0-3.8-2.5-5.1-6.5-5.1v-2l12.9-0.6V313.7z"/>
			<path class="st1" d="M709.3,315.1c0-7.1-5-8-7.6-8c-3.9,0-6,1.7-6,2.9c0,1.4,3.7,1.4,3.7,5c0,1.2-1,4.2-4.3,4.2
				c-2.6,0-4.7-2.2-4.7-4.8c0-4.8,4.6-9.1,12.8-9.1c10.9,0,12.6,6.3,12.6,10.5v16.7c0,3.4,0.9,5.4,2.9,5.4c2.4,0,3.3-3.5,3.3-8.9
				v-2.7h2v1.1c0,8.6-0.7,14.6-7.4,14.6c-5,0-6.5-3.2-6.5-9c-1.7,5.4-5.2,9-11.2,9c-4.4,0-9.7-1.8-9.7-8.2c0-2.2,1.1-4.6,3.1-6.6
				c4.1-4.2,10.5-5,17-8.6V315.1z M709.3,320.7c-4.9,2.9-8.2,2.9-10.9,5.6c-1.7,1.6-2.2,3.8-2.2,6.5c0,4.8,2.3,7.2,5.3,7.2
				c3.1,0,7.8-3.3,7.8-14.4V320.7z"/>
			<path class="st1" d="M723.6,306.6h19v2H738c-1,0-1.4,0.2-1.4,0.8c0,0.3,0.1,0.8,0.4,1.5l7.9,22l7.3-17.1c0.7-1.5,1-2.8,1-3.8
				c0-2.4-1.7-3.4-5.1-3.4h-1.7v-2h16.8v2h-1.9c-3,0-4.8,2.2-6.6,6.3l-11.9,27.5h-1.2L730,310.4c-0.5-1.4-0.9-1.8-2.3-1.8h-4.2
				V306.6z"/>
			<path class="st1" d="M794,330.7c-0.3,2.5-3.7,11.8-14.3,11.8c-11.7,0-16-11.4-16-19.1c0-9.5,6.4-18.5,15.3-18.5
				c8.7,0,14.5,7.3,15,17.8h-23v3.2c0,8.8,2.9,13.6,9.5,13.6c4.6,0,9.5-3.3,10.5-8.8H794z M786.5,316.4c0-3.6-0.4-10.1-7.5-10.1
				c-7.2,0-7.9,6.2-7.9,14h15.4V316.4z"/>
			<path class="st1" d="M810.7,315.8c2.5-8.2,7.1-10.3,10.9-10.3c7.8,0,11.1,7.8,11.1,13.9v20.1h5.5v2h-18v-2h6.1v-23
				c0-6.3-2.2-9.2-5.7-9.2c-1.3,0-3.1,0.3-5.1,2.3c-2.4,2.5-4.9,6.7-4.9,22.3v7.6h5.9v2H798v-2h6.3V313c0-2.7-1.7-4.4-6.4-4.4v-2
				l12-0.9h0.8V315.8z"/>
		</g>
		<g>
			<path class="st2" d="M689.6,368.2c-0.3,0.4-0.7,0.7-1.2,1c-0.5,0.3-1,0.4-1.7,0.4c-0.6,0-1.1-0.1-1.6-0.3
				c-0.5-0.2-0.9-0.5-1.3-0.8s-0.6-0.8-0.8-1.3c-0.2-0.5-0.3-1-0.3-1.6c0-0.6,0.1-1.1,0.3-1.6s0.5-0.9,0.8-1.2
				c0.4-0.3,0.8-0.6,1.3-0.8c0.5-0.2,1-0.3,1.6-0.3c0.3,0,0.5,0,0.8,0.1c0.3,0,0.5,0.1,0.8,0.2s0.5,0.2,0.7,0.4
				c0.2,0.1,0.4,0.3,0.5,0.5l-0.8,0.6c-0.2-0.3-0.4-0.5-0.8-0.6c-0.3-0.2-0.7-0.2-1.1-0.2c-0.4,0-0.8,0.1-1.2,0.2
				c-0.4,0.2-0.6,0.4-0.9,0.7c-0.2,0.3-0.4,0.6-0.6,1c-0.1,0.4-0.2,0.8-0.2,1.2c0,0.4,0.1,0.8,0.2,1.2c0.1,0.4,0.3,0.7,0.6,1
				s0.5,0.5,0.9,0.6c0.4,0.2,0.7,0.2,1.2,0.2c0.4,0,0.8-0.1,1.2-0.3s0.6-0.4,0.9-0.7L689.6,368.2z"/>
			<path class="st2" d="M695.4,369.4h-1.1v-7.5h2.4c0.4,0,0.7,0,1,0.1s0.6,0.2,0.9,0.4c0.2,0.2,0.4,0.4,0.6,0.6s0.2,0.6,0.2,1
				c0,0.6-0.2,1-0.5,1.3s-0.8,0.6-1.3,0.6l2.1,3.5h-1.3l-1.9-3.3h-1.1V369.4z M695.4,365.2h1.2c0.2,0,0.5,0,0.7-0.1
				c0.2,0,0.4-0.1,0.6-0.2c0.2-0.1,0.3-0.2,0.4-0.4c0.1-0.2,0.1-0.3,0.1-0.6s0-0.4-0.1-0.6c-0.1-0.2-0.2-0.3-0.4-0.4
				s-0.3-0.2-0.5-0.2c-0.2,0-0.4-0.1-0.6-0.1h-1.3V365.2z"/>
			<path class="st2" d="M707.3,369.4h-1.1v-3.3l-2.8-4.3h1.3l2.1,3.4l2.1-3.4h1.2l-2.8,4.3V369.4z"/>
			<path class="st2" d="M718.4,363.3c-0.1-0.2-0.4-0.4-0.6-0.5c-0.3-0.1-0.5-0.2-0.9-0.2c-0.2,0-0.3,0-0.5,0.1
				c-0.2,0-0.3,0.1-0.5,0.2c-0.1,0.1-0.3,0.2-0.3,0.4c-0.1,0.2-0.1,0.3-0.1,0.5c0,0.2,0,0.4,0.1,0.5c0.1,0.1,0.2,0.3,0.3,0.4
				s0.3,0.2,0.5,0.2c0.2,0.1,0.4,0.1,0.6,0.2c0.3,0.1,0.5,0.2,0.8,0.3c0.3,0.1,0.5,0.2,0.7,0.4s0.4,0.4,0.5,0.6
				c0.1,0.2,0.2,0.6,0.2,0.9c0,0.4-0.1,0.7-0.2,1c-0.1,0.3-0.3,0.5-0.6,0.7s-0.5,0.3-0.8,0.4c-0.3,0.1-0.6,0.1-1,0.1
				c-0.5,0-0.9-0.1-1.4-0.3c-0.4-0.2-0.8-0.5-1.1-0.8l0.8-0.7c0.2,0.3,0.4,0.5,0.7,0.6s0.6,0.2,1,0.2c0.2,0,0.4,0,0.5-0.1
				c0.2,0,0.3-0.1,0.5-0.2c0.1-0.1,0.3-0.2,0.4-0.4c0.1-0.2,0.1-0.4,0.1-0.6s0-0.4-0.1-0.6c-0.1-0.2-0.2-0.3-0.4-0.4
				s-0.4-0.2-0.6-0.3c-0.2-0.1-0.4-0.2-0.7-0.2c-0.2-0.1-0.5-0.2-0.7-0.3c-0.2-0.1-0.4-0.2-0.6-0.4c-0.2-0.2-0.3-0.4-0.4-0.6
				c-0.1-0.2-0.2-0.5-0.2-0.9c0-0.4,0.1-0.7,0.2-1c0.2-0.3,0.4-0.5,0.6-0.7c0.2-0.2,0.5-0.3,0.8-0.4c0.3-0.1,0.6-0.1,0.9-0.1
				c0.4,0,0.8,0.1,1.2,0.2c0.4,0.2,0.7,0.4,0.9,0.6L718.4,363.3z"/>
			<path class="st2" d="M726.7,369.4h-1.1v-6.6h-2.4v-0.9h5.9v0.9h-2.4V369.4z"/>
			<path class="st2" d="M733.4,369.4h-1.2l3.3-7.5h1l3.2,7.5h-1.2l-0.8-1.8h-3.6L733.4,369.4z M734.5,366.6h2.8l-1.4-3.5
				L734.5,366.6z"/>
			<path class="st2" d="M745.3,368.5h3.4v0.9h-4.4v-7.5h1.1V368.5z"/>
			<path class="st2" d="M760.4,368.5h3.4v0.9h-4.4v-7.5h1.1V368.5z"/>
			<path class="st2" d="M768.7,369.4h-1.2l3.3-7.5h1l3.2,7.5h-1.2l-0.8-1.8h-3.6L768.7,369.4z M769.8,366.6h2.8l-1.4-3.5
				L769.8,366.6z"/>
			<path class="st2" d="M780.6,365.2L780.6,365.2l3.4-3.3h1.5l-3.7,3.4l3.9,4.1h-1.5l-3.5-3.9h0v3.9h-1.1v-7.5h1.1V365.2z"/>
			<path class="st2" d="M791.2,368.5h3.9v0.9h-5v-7.5h4.8v0.9h-3.8v2.3h3.5v0.9h-3.5V368.5z"/>
		</g>
		<path class="st1" d="M604.3,311c-3.2,0-10.8,3-10.8,18.9V342c1.3,0.2,2.5,0.3,3.9,0.3c5.2,0,10.1-1.6,14.1-4.3v-16.5
			C611.5,315.8,610.6,311,604.3,311"/>
		<path class="st1" d="M606.3,308.8c9.4,0,12.7,7.2,12.7,14.1v7.5c2.4-3.9,3.9-8.5,3.9-13.4c0-14.1-11.4-25.5-25.5-25.5
			c-1.3,0-2.6,0.1-3.9,0.3v26.4C595.8,312.4,600.3,308.8,606.3,308.8"/>
		<path class="st1" d="M583.5,295.5c-7,4.5-11.6,12.4-11.6,21.3c0,10,5.7,18.6,14.1,22.8v-39.2C586,298,585.1,296.4,583.5,295.5"/>
		<path class="st3" d="M619,330.3v-7.5c0-6.9-3.4-14.1-12.7-14.1c-5.9,0-10.5,3.7-12.7,9.4v-26.5c-3.6,0.6-7,1.9-10,3.8
			c1.6,0.9,2.5,2.5,2.5,4.9v39.2c2.3,1.2,4.8,2,7.5,2.4v-12.1c0-16,7.6-18.9,10.8-18.9c6.3,0,7.2,4.8,7.2,10.5v16.5
			C614.5,336,617.1,333.4,619,330.3"/>
	</g>
</g>
</svg>
