<svg xmlns="http://www.w3.org/2000/svg" viewBox="0 0 1437.86 636.88"><defs><style>.cls-1{fill:#102530;}.cls-2{fill:#f5b349;}.cls-3{fill:#e9d5b7;}.cls-4{fill:#ef3f55;}</style></defs><title>banner</title><g id="Layer_2" data-name="Layer 2"><g id="Layer_2-2" data-name="Layer 2"><rect class="cls-1" width="1437.86" height="636.88"/></g><g id="Layer_3" data-name="Layer 3"><path class="cls-2" d="M158.3,301.06a21.36,21.36,0,0,1,8.23-18.79,25.17,25.17,0,0,1,20.3-4.42c4.76,1,9.37,3.39,12.2,7.34,3.28,4.58,3.75,10.53,4.11,16.15"/><path class="cls-3" d="M309,375.5a20.32,20.32,0,0,0-18.68,2.4A17.12,17.12,0,0,0,287,381l-30-14.45a4,4,0,1,0-3.47,7.21l30.34,14.62c0,.37,0,.75,0,1.12a14.68,14.68,0,0,0,2.35,7.39,23.72,23.72,0,0,0,9.21,8.71,4,4,0,0,0,3.75-7.07,15.94,15.94,0,0,1-6.1-5.78,7.15,7.15,0,0,1-1.21-3.4,4,4,0,0,1,.21-1.26c0-.06.07-.12.1-.18a4,4,0,0,0,.24-.66,8.59,8.59,0,0,1,2.61-2.87A12.39,12.39,0,0,1,306.21,383,4,4,0,0,0,309,375.5Z"/><path class="cls-3" d="M97.1,380.76a234.17,234.17,0,0,0-27,13.58,18.12,18.12,0,0,0-7.4-2.09A21.18,21.18,0,0,0,45.81,399a4,4,0,0,0,5.88,5.42,13.3,13.3,0,0,1,10.48-4.17,9.52,9.52,0,0,1,5,1.7,5.62,5.62,0,0,1,2.3,3.64A7,7,0,0,1,68,410.25a23.92,23.92,0,0,1-4.91,4.68A4,4,0,1,0,68,421.26a30.77,30.77,0,0,0,6.54-6.38,14.77,14.77,0,0,0,2.9-10.31,12.69,12.69,0,0,0-1.44-4.4,226.39,226.39,0,0,1,24.21-12,4,4,0,0,0-3.13-7.36Z"/><path class="cls-4" d="M203.69,301.43c-21.2-5.79-44.64-3.41-63.94,7.1S105.6,337.67,100.3,359s-.77,45,12.52,62.52A71.57,71.57,0,0,0,137.43,442c10.93,5.52,23.17,8.15,35.4,8.65,25.82,1.06,53.08-8.34,68.72-28.91s17.38-49.56,9.24-74.18c-4-12.18-10.42-23.84-20.08-32.28C223,308.57,213.54,304.12,203.69,301.43Z"/><path class="cls-2" d="M151.54,371.17a16.82,16.82,0,0,0,5.82-5.31,21.12,21.12,0,0,0,4-12.09A16.8,16.8,0,0,0,156.76,342,14,14,0,0,0,145,338a16.26,16.26,0,0,0-9.86,6.11,19.91,19.91,0,0,0-4.53,13.67,16.47,16.47,0,0,0,6.94,12.44A14.07,14.07,0,0,0,151.54,371.17Z"/><path class="cls-2" d="M208.19,371.17a16.82,16.82,0,0,1-5.82-5.31,21.12,21.12,0,0,1-4-12.09A16.8,16.8,0,0,1,203,342,14,14,0,0,1,214.76,338a16.26,16.26,0,0,1,9.86,6.11,19.91,19.91,0,0,1,4.53,13.67,16.47,16.47,0,0,1-6.94,12.44A14.07,14.07,0,0,1,208.19,371.17Z"/><path class="cls-4" d="M142.1,486.95a2.5,2.5,0,0,1-1.16-4.72l19.39-10.11a171.66,171.66,0,0,0-1.24-23.9,2.5,2.5,0,0,1,5-.61,176.52,176.52,0,0,1,1.24,26.1l0,1.47-22,11.48A2.49,2.49,0,0,1,142.1,486.95Zm20.7-13.3h0Z"/><path class="cls-4" d="M208.41,481.81a2.52,2.52,0,0,1-.67-.09l-19.07-5.29.77-28.15a2.5,2.5,0,1,1,5,.14l-.67,24.24,15.3,4.24a2.5,2.5,0,0,1-.67,4.91Z"/><path class="cls-4" d="M215.56,282l34.66-20.68L216.08,282.9a.5.5,0,0,1-.53-.85Z"/><path class="cls-4" d="M192.61,259.15,203,230.38l-9.44,29.09a.5.5,0,0,1-1-.31Z"/><path class="cls-4" d="M163.18,265.21l-20-29.52L164,264.64a.5.5,0,1,1-.81.58Z"/><path class="cls-4" d="M139.12,281,98.31,270.42l41.06,9.65a.5.5,0,0,1-.23,1Z"/><path class="cls-4" d="M494.95,495.27a2.5,2.5,0,0,1-.72-.11,142.43,142.43,0,0,1-22.56-8.89l-1.61-.8,4-29.86a2.5,2.5,0,0,1,5,.67l-3.54,26.3a137.63,137.63,0,0,0,20.16,7.79,2.5,2.5,0,0,1-.71,4.9Z"/><path class="cls-4" d="M413.27,492.12a2.5,2.5,0,0,1-.87-4.84,188,188,0,0,1,20.07-6.21,196.79,196.79,0,0,1,5.49-27,2.5,2.5,0,0,1,4.82,1.34,191.78,191.78,0,0,0-5.57,28l-.21,1.72-1.69.4A182.94,182.94,0,0,0,414.15,492,2.48,2.48,0,0,1,413.27,492.12Z"/><path class="cls-2" d="M447.08,221.89a22.09,22.09,0,0,1,10.8-26.26,26.94,26.94,0,0,1,12.72-2.84c5.79.05,11.9,1.82,15.61,6.26a18.26,18.26,0,0,1,3.88,10.69,39.91,39.91,0,0,1-1.33,11.45"/><path class="cls-3" d="M382,368a4,4,0,0,1-1.81-7.57c16.86-8.51,28.12-17.1,38.89-29.64,3.71-4.32,7.5-9.48,7.47-14.93a4,4,0,0,1,4-4h0a4,4,0,0,1,4,4c0,8.08-4.73,14.74-9.4,20.19-11.51,13.4-23.49,22.54-41.35,31.56A4,4,0,0,1,382,368Z"/><path class="cls-3" d="M549.87,384a4,4,0,0,1-2.38-.78,154.17,154.17,0,0,1-39.95-43.91c-3.35-5.55-6.5-11.65-6.83-18.61a4,4,0,0,1,8-.38c.25,5.19,2.88,10.21,5.68,14.86a146.1,146.1,0,0,0,37.86,41.61,4,4,0,0,1-2.38,7.22Z"/><path class="cls-3" d="M373.73,386.9a4,4,0,0,1-1.68-7.63c4.08-1.88,6.62-4.06,7.54-6.49A7.32,7.32,0,0,0,378.5,366a8.79,8.79,0,0,0-6.61-3.29,10.66,10.66,0,0,0-7.4,2.83,4,4,0,1,1-5.37-5.93,18.82,18.82,0,0,1,13-4.9,16.74,16.74,0,0,1,12.73,6.45,15.18,15.18,0,0,1,2.2,14.43c-1.71,4.52-5.53,8.09-11.67,10.92A4,4,0,0,1,373.73,386.9Z"/><path class="cls-3" d="M549.94,401.81a4,4,0,0,1-3.51-2.08,24.86,24.86,0,0,1-3.07-9.43,17.9,17.9,0,0,1,2-10.46,16.92,16.92,0,0,1,15.74-8.28,19.34,19.34,0,0,1,14.77,9.15,4,4,0,0,1-6.8,4.21,11.22,11.22,0,0,0-8.52-5.38,8.93,8.93,0,0,0-8.22,4.21,9.84,9.84,0,0,0-1,5.75,17,17,0,0,0,2.13,6.38,4,4,0,0,1-3.5,5.92Z"/><path class="cls-4" d="M424.81,309.4c-1.4-11.14-5.88-21.62-8.82-32.45s-4.21-22.81.6-32.95c5.26-11.06,16.8-17.81,28.44-21.6,14.13-4.59,29.76-5.71,43.77-.79s26.08,16.49,29.39,31c4.56,19.88-7.32,39.67-8.88,60s7.3,40,14,59.34c7.42,21.36,10.44,47.18-5.32,65.66-15,17.63-41.11,19.95-62.77,19-12.46-.52-25.51-2.42-35.47-9.92-13.26-10-17.88-24.27-16.62-40.83s7.69-32.21,13.27-47.86S426.88,325.88,424.81,309.4Z"/><path class="cls-2" d="M438.3,278.29a10.61,10.61,0,0,0,9.93-.76,14.21,14.21,0,0,0,6-8.23,21.74,21.74,0,0,0,.17-10.29,17.75,17.75,0,0,0-2.42-6.28,9.89,9.89,0,0,0-5.21-4.11,9.33,9.33,0,0,0-5.7.19,13.5,13.5,0,0,0-4.87,3.07,17.38,17.38,0,0,0-2.79,21.7A12.13,12.13,0,0,0,438.3,278.29Z"/><path class="cls-2" d="M491.69,278.29a10.61,10.61,0,0,1-9.93-.76,14.21,14.21,0,0,1-6-8.23,21.74,21.74,0,0,1-.17-10.29,17.75,17.75,0,0,1,2.42-6.28,9.89,9.89,0,0,1,5.21-4.11,9.33,9.33,0,0,1,5.7.19,13.5,13.5,0,0,1,4.87,3.07,17.38,17.38,0,0,1,2.79,21.7A12.13,12.13,0,0,1,491.69,278.29Z"/><path class="cls-4" d="M503.16,209.51l31.59,2.78-31.66-1.78a.5.5,0,0,1,.06-1Z"/><path class="cls-4" d="M504,192.57,525,180l-20.47,13.37a.5.5,0,0,1-.55-.84Z"/><path class="cls-4" d="M480.31,175.17l12.93-19.73L481.16,175.7a.5.5,0,0,1-.86-.51Z"/><path class="cls-4" d="M457.89,173.12l-.49-26.27,1.49,26.23a.5.5,0,1,1-1,.06Z"/><path class="cls-4" d="M434.64,183.54l-19-11.66,19.46,10.8a.5.5,0,0,1-.49.87Z"/><path class="cls-4" d="M425.57,205.73l-27-3.35,27.07,2.35a.5.5,0,0,1-.09,1Z"/><path class="cls-2" d="M970.45,289.67c-2.26-6.77-.05-14.62,4.87-19.79s12.23-7.73,19.37-7.58a24.12,24.12,0,0,1,12.52,3.55,19.79,19.79,0,0,1,5.77,27.64"/><path class="cls-3" d="M905.52,400.45a4,4,0,0,1-3.18-6.43,143.25,143.25,0,0,1,10.29-11.66c1.35-1.42,2.71-2.85,4-4.29,4.09-4.45,8.63-9.83,11.37-16.06a4,4,0,1,1,7.33,3.21c-3.2,7.3-8.27,13.33-12.8,18.26-1.36,1.48-2.74,2.94-4.13,4.39a135.31,135.31,0,0,0-9.73,11A4,4,0,0,1,905.52,400.45Z"/><path class="cls-3" d="M1071.64,414a4,4,0,0,1-3-1.36l-18.57-21.08c-2.28-2.58-5.11-5.8-6.18-10.05a4,4,0,0,1,7.76-2c.6,2.37,2.63,4.68,4.43,6.72l18.57,21.08a4,4,0,0,1-3,6.64Z"/><path class="cls-3" d="M1069.31,434.59a4,4,0,0,1-3.07-1.43,18.28,18.28,0,1,1,28.84-22.44,4,4,0,0,1-6.49,4.68A10.28,10.28,0,1,0,1072.37,428a4,4,0,0,1-3.06,6.57Z"/><path class="cls-3" d="M907.8,420.5a4,4,0,0,1-3.81-5.21c1-3.15,2-6.4,2-9.43-.07-2.7-1.19-5.08-2.85-6.08s-3.83-.86-5.41-.6a17.42,17.42,0,0,0-9.22,4.66,4,4,0,1,1-5.58-5.73,25.49,25.49,0,0,1,13.5-6.82,15.81,15.81,0,0,1,10.83,1.63c4.07,2.44,6.59,7.2,6.73,12.73.12,4.38-1.18,8.47-2.33,12.07A4,4,0,0,1,907.8,420.5Z"/><path class="cls-4" d="M924.52,391.22c3,19,8.25,38.58,21.65,52.32a56,56,0,0,0,46.54,16.18c21.42-2.77,39.82-18.38,49.61-37.63s11.83-41.68,9.78-63.18c-1.5-15.66-5.25-31.53-14.21-44.46A62.25,62.25,0,0,0,936.62,313c-8,10.91-12.34,24.27-13.85,37.74S922.44,377.83,924.52,391.22Z"/><path class="cls-2" d="M951.57,370.08c-3.43-2.23-5-6.49-5.37-10.57a19.34,19.34,0,0,1,1.8-10.43,13.32,13.32,0,0,1,7.89-6.82,10.21,10.21,0,0,1,9.94,2.34,13.58,13.58,0,0,1,3.31,7.09,20.85,20.85,0,0,1-.49,10.67,14,14,0,0,1-6.76,8.08A10.62,10.62,0,0,1,951.57,370.08Z"/><path class="cls-2" d="M1025,370.08c3.43-2.23,5-6.49,5.37-10.57a19.34,19.34,0,0,0-1.8-10.43,13.32,13.32,0,0,0-7.89-6.82,10.21,10.21,0,0,0-9.94,2.34,13.58,13.58,0,0,0-3.31,7.09,20.85,20.85,0,0,0,.49,10.67,14,14,0,0,0,6.76,8.08A10.62,10.62,0,0,0,1025,370.08Z"/><path class="cls-4" d="M944.82,491.1a2.5,2.5,0,0,1-.77-4.88l19.47-6.29a140.24,140.24,0,0,1,3.79-23,2.5,2.5,0,1,1,4.85,1.22A135.35,135.35,0,0,0,968.38,482l-.12,1.69L945.59,491A2.51,2.51,0,0,1,944.82,491.1Z"/><path class="cls-4" d="M1015.48,499.85a2.49,2.49,0,0,1-1.09-.25L988.54,487l2.67-27.71a2.5,2.5,0,1,1,5,.48l-2.34,24.25,22.72,11a2.5,2.5,0,0,1-1.09,4.75Z"/><path class="cls-4" d="M1030.73,276.62l37.87-14.52-37.5,15.45a.5.5,0,0,1-.38-.92Z"/><path class="cls-4" d="M1027.8,255.78l29.63-21.05-29,21.86a.5.5,0,1,1-.6-.8Z"/><path class="cls-4" d="M1004.51,243.2l16.08-31.77-15.18,32.21a.5.5,0,0,1-.9-.43Z"/><path class="cls-4" d="M984,244.49l-.18-1.49c-.12-1-.3-2.28-.57-3.89s-.62-3.48-1.05-5.47-1-4.1-1.57-6.19-1.28-4.16-2-6.09-1.38-3.7-2-5.21-1.19-2.75-1.6-3.62l-.64-1.36.68,1.34c.43.85,1,2.08,1.7,3.57s1.42,3.25,2.17,5.16,1.47,4,2.14,6.05,1.26,4.19,1.76,6.18.92,3.86,1.22,5.48.54,3,.69,3.91l.22,1.48a.5.5,0,0,1-1,.15Z"/><path class="cls-4" d="M960.15,266l-33.92-17.75L960.6,265.1a.5.5,0,0,1-.44.9Z"/><path class="cls-2" d="M1233.51,344.86a20.57,20.57,0,0,1,2.31-16.39,23.85,23.85,0,0,1,13.29-10.09,28.43,28.43,0,0,1,16.79.24,21.57,21.57,0,0,1,10.71,7,20.35,20.35,0,0,1,3.78,9.22,39.63,39.63,0,0,1,.13,10"/><path class="cls-3" d="M1159.88,432.5a4,4,0,0,1-2.16-7.37l20-12.75a4,4,0,1,1,4.31,6.74l-20,12.75A4,4,0,0,1,1159.88,432.5Z"/><path class="cls-3" d="M1358.55,435.11a4,4,0,0,1-2.68-1c-8.54-7.72-17.07-15.69-25.33-23.71a4,4,0,1,1,5.57-5.74c8.2,7.95,16.65,15.86,25.13,23.51a4,4,0,0,1-2.68,7Z"/><path class="cls-3" d="M1358.1,455.14a4,4,0,0,1-2.81-1.15,17.36,17.36,0,0,1-.76-23.91,19.09,19.09,0,0,1,14.12-6.12h.05a23.08,23.08,0,0,1,14,5.05,4,4,0,1,1-4.93,6.3,15.07,15.07,0,0,0-9.1-3.35h0a11,11,0,0,0-8.15,3.44,9.36,9.36,0,0,0,.41,12.89,4,4,0,0,1-2.81,6.85Z"/><path class="cls-3" d="M1156.24,451.55a4,4,0,0,1-2.48-7.14,18.83,18.83,0,0,0,3.88-3.89,8.35,8.35,0,0,0,1.62-4.14c.18-2.63-1.65-5.57-4.35-7a13,13,0,0,0-9.9-.45,17.85,17.85,0,0,0-4.28,2,4,4,0,1,1-4.36-6.71,25.87,25.87,0,0,1,6.19-2.94,21,21,0,0,1,16.05,1c5.57,2.91,9,8.79,8.62,14.63a16.31,16.31,0,0,1-3.06,8.19,26.52,26.52,0,0,1-5.47,5.57A4,4,0,0,1,1156.24,451.55Z"/><path class="cls-4" d="M1180.48,375.06a49.6,49.6,0,0,1,18.74-19.54c13.27-8,29.13-10.38,44.59-11.5,15.27-1.11,30.83-1.13,45.65,2.72s29,11.91,37.81,24.41A51.72,51.72,0,0,1,1313.8,444c-10.89,7.29-24.12,10.17-37.14,11.73-17,2-34.59,2-51.1-2.68s-32-14.49-41.27-28.93S1172.67,390.35,1180.48,375.06Z"/><path class="cls-2" d="M1217.32,378.7c2.32-1.51,5.3-2.37,7.88-1.36s4,3.36,4.9,5.82a15,15,0,0,1,.17,10.44,10.57,10.57,0,0,1-7.71,6.68,9.87,9.87,0,0,1-9.17-3.63,11.53,11.53,0,0,1-2-9.79A13.88,13.88,0,0,1,1217.32,378.7Z"/><path class="cls-2" d="M1298.52,378.7c-2.32-1.51-5.3-2.37-7.88-1.36s-4,3.36-4.9,5.82a15,15,0,0,0-.17,10.44,10.57,10.57,0,0,0,7.71,6.68,9.87,9.87,0,0,0,9.17-3.63,11.53,11.53,0,0,0,2-9.79A13.88,13.88,0,0,0,1298.52,378.7Z"/><path class="cls-4" d="M1302.22,502a2.48,2.48,0,0,1-.56-.06,107.83,107.83,0,0,1-29.26-11.33l-1.35-.77,2-34.22a2.5,2.5,0,1,1,5,.29l-1.83,31.1A102.86,102.86,0,0,0,1302.77,497a2.5,2.5,0,0,1-.55,4.94Z"/><path class="cls-4" d="M1215.61,500.14a2.5,2.5,0,0,1-.47-5l20.46-3.92a153,153,0,0,1,2.76-35.73,2.5,2.5,0,1,1,4.91,1,147.93,147.93,0,0,0-2.57,36.68l.12,2.18-24.73,4.74A2.53,2.53,0,0,1,1215.61,500.14Z"/><path class="cls-4" d="M1298.45,319.73l27.15-10.29-26.78,11.22a.5.5,0,1,1-.39-.92Z"/><path class="cls-4" d="M1285,293.8l14.14-19.4-13.32,20a.5.5,0,1,1-.83-.55Z"/><path class="cls-4" d="M1252.55,284.75,1249.38,267l4.15,17.54a.5.5,0,0,1-1,.23Z"/><path class="cls-4" d="M1215.07,297.33s-1.58-1-4-2.42-5.64-3.26-8.94-5-6.66-3.33-9.21-4.47-4.27-1.86-4.27-1.86,1.74.66,4.33,1.72,6,2.55,9.37,4.17,6.68,3.34,9.13,4.69,4.06,2.3,4.06,2.3h0a.5.5,0,1,1-.51.86Z"/><path class="cls-4" d="M1209.35,322.62s-1.91-.21-4.76-.42-6.68-.4-10.51-.41-7.66.12-10.53.31-4.78.38-4.78.38,1.9-.25,4.76-.53,6.69-.55,10.53-.66,7.68-.05,10.57.07,4.8.27,4.8.27h0a.5.5,0,0,1-.08,1Z"/><path class="cls-2" d="M717.09,313.56a22.81,22.81,0,0,1,14.26-25.78,19.57,19.57,0,0,1,12.34-.69,19.15,19.15,0,0,1,12,11.32,24.78,24.78,0,0,1,.23,16.74"/><path class="cls-3" d="M648.11,406.93a4,4,0,0,1-2.71-6.95,98.46,98.46,0,0,0,23.36-32.69,4,4,0,1,1,7.33,3.21,106.5,106.5,0,0,1-25.28,35.36A4,4,0,0,1,648.11,406.93Z"/><path class="cls-3" d="M647.31,425.41a4,4,0,0,1-3.12-6.5,30.59,30.59,0,0,0,3.33-4.7,7.64,7.64,0,0,0,1-4,6.47,6.47,0,0,0-1.91-3.72,9.1,9.1,0,0,0-14.68,2.37,4,4,0,1,1-7.19-3.51,17.1,17.1,0,0,1,27.59-4.45,14.38,14.38,0,0,1,4.15,8.54,15.34,15.34,0,0,1-1.89,8.53,37.11,37.11,0,0,1-4.18,6A4,4,0,0,1,647.31,425.41Z"/><path class="cls-3" d="M822.37,410.34a4,4,0,0,1-2.35-.77,100.63,100.63,0,0,1-30.16-35.25,4,4,0,0,1,7.12-3.65,92.57,92.57,0,0,0,27.75,32.43,4,4,0,0,1-2.36,7.23Z"/><path class="cls-3" d="M823.43,426.25a4,4,0,0,1-2.83-1.17,16.29,16.29,0,0,1,9.29-27.66,15.23,15.23,0,0,1,9.16,1.56,13.52,13.52,0,0,1,6.38,7.29,4,4,0,0,1-7.54,2.68,5.51,5.51,0,0,0-2.59-2.9,7.16,7.16,0,0,0-4.32-.7,8.29,8.29,0,0,0-4.73,14.08,4,4,0,0,1-2.83,6.83Z"/><path class="cls-4" d="M722.09,312.34A63.35,63.35,0,0,1,779.2,330c14.39,14.83,20.57,36.31,19.9,57-.72,21.9-9,43.94-24.89,59.09s-40.27,19.46-61.38,13.58a56.77,56.77,0,0,1-24.39-14.1c-8.19-8-13-15.42-16.72-26.28-7.21-21.09-7.53-44.87,1.29-65.34S700.26,316.81,722.09,312.34Z"/><path class="cls-2" d="M696.12,379.87a16,16,0,0,1,2.91-23.2c2.85-2.06,6.73-3.13,9.92-1.65a9.12,9.12,0,0,1,4.17,4.31,18.42,18.42,0,0,1,1.59,5.87,23.78,23.78,0,0,1-.37,9,13.64,13.64,0,0,1-4.82,7.52,9.62,9.62,0,0,1-8.62,1.59A10.93,10.93,0,0,1,696.12,379.87Z"/><path class="cls-2" d="M771.11,379.87a16,16,0,0,0-2.91-23.2c-2.85-2.06-6.73-3.13-9.92-1.65a9.12,9.12,0,0,0-4.17,4.31,18.42,18.42,0,0,0-1.59,5.87,23.78,23.78,0,0,0,.37,9,13.64,13.64,0,0,0,4.82,7.52,9.62,9.62,0,0,0,8.62,1.59A10.93,10.93,0,0,0,771.11,379.87Z"/><path class="cls-4" d="M703.3,491.27a2.5,2.5,0,0,1-.87-4.85L717,481.05a86,86,0,0,1,2-20.15,2.5,2.5,0,0,1,4.88,1.09A81,81,0,0,0,722,482.68l.07,1.81-17.94,6.62A2.49,2.49,0,0,1,703.3,491.27Z"/><path class="cls-4" d="M767.48,491.13a2.48,2.48,0,0,1-.66-.09l-21.08-5.8-1.91-24a2.5,2.5,0,1,1,5-.4l1.63,20.5,17.7,4.87a2.5,2.5,0,0,1-.66,4.91Z"/><path class="cls-4" d="M775.29,295.92,803.82,291l-28.34,5.93a.5.5,0,1,1-.2-1Z"/><path class="cls-4" d="M768.82,280.73l17.58-9.55L769.31,281.6a.5.5,0,1,1-.52-.85Z"/><path class="cls-4" d="M754.07,268.46l14.68-18.67-13.88,19.27a.5.5,0,0,1-.81-.58Z"/><path class="cls-4" d="M737.86,264.6,737.18,248l1.68,16.56a.5.5,0,1,1-1,.1Z"/><path class="cls-4" d="M711.06,271.12s-.52-1.22-1.38-3-2.09-4.12-3.45-6.39-2.83-4.47-4-6.07-2-2.65-2-2.65.87,1,2.11,2.55,2.83,3.69,4.3,5.9,2.83,4.51,3.78,6.27,1.54,3,1.54,3h0a.5.5,0,1,1-.9.44Z"/><path class="cls-4" d="M704.88,292.48s-1.48-.78-3.72-1.84-5.3-2.4-8.41-3.58-6.28-2.21-8.69-2.9-4-1.09-4-1.09,1.63.33,4.06.94,5.65,1.51,8.81,2.58,6.29,2.29,8.59,3.28,3.81,1.71,3.81,1.71h0a.5.5,0,1,1-.43.9Z"/></g></g></svg>