<?xml version="1.0" encoding="utf-8"?>
<!-- Generator: Adobe Illustrator 22.1.0, SVG Export Plug-In . SVG Version: 6.00 Build 0)  -->
<svg version="1.1" id="Layer_1" xmlns="http://www.w3.org/2000/svg" xmlns:xlink="http://www.w3.org/1999/xlink" x="0px" y="0px"
	 viewBox="0 0 585.7 338.8" style="enable-background:new 0 0 585.7 338.8;" xml:space="preserve">
<style type="text/css">
	.st0{fill:#3E5259;}
	.st1{fill:#E6EEEC;}
	.st2{fill:#94A596;}
</style>
<g>
	<path class="st0" d="M508,320.2H78c-7.1,0-12.8-5.7-12.8-12.8v-283c0-7.1,5.7-12.8,12.8-12.8h430c7.1,0,12.8,5.7,12.8,12.8v283
		C520.7,314.5,515,320.2,508,320.2z"/>
	<path class="st1" d="M508,323.7H78c-9,0-16.3-7.3-16.3-16.3v-283c0-9,7.3-16.3,16.3-16.3h430c9,0,16.3,7.3,16.3,16.3v283
		C524.2,316.4,516.9,323.7,508,323.7z M78,15.2c-5.1,0-9.3,4.2-9.3,9.3v283c0,5.1,4.2,9.3,9.3,9.3h430c5.1,0,9.3-4.2,9.3-9.3v-283
		c0-5.1-4.2-9.3-9.3-9.3H78z"/>
</g>
<g>
	<g>
		<path class="st0" d="M495.5,291.2h-405c-1.9,0-3.4-1.5-3.4-3.4V33.5c0-1.9,1.5-3.4,3.4-3.4h405c1.9,0,3.4,1.5,3.4,3.4v254.3
			C498.9,289.7,497.4,291.2,495.5,291.2z"/>
		<path class="st0" d="M495.5,291.7h-405c-2.2,0-3.9-1.8-3.9-3.9V33.5c0-2.2,1.8-3.9,3.9-3.9h405c2.2,0,3.9,1.8,3.9,3.9v254.3
			C499.4,290,497.7,291.7,495.5,291.7z M90.5,30.6c-1.6,0-2.9,1.3-2.9,2.9v254.3c0,1.6,1.3,2.9,2.9,2.9h405c1.6,0,2.9-1.3,2.9-2.9
			V33.5c0-1.6-1.3-2.9-2.9-2.9H90.5z"/>
	</g>
	<g>
		<path class="st1" d="M495.5,291.2h-405c-1.9,0-3.4-1.5-3.4-3.4V33.5c0-1.9,1.5-3.4,3.4-3.4h405c1.9,0,3.4,1.5,3.4,3.4v254.3
			C498.9,289.7,497.4,291.2,495.5,291.2z"/>
		<path class="st0" d="M495.5,291.7h-405c-2.2,0-3.9-1.8-3.9-3.9V33.5c0-2.2,1.8-3.9,3.9-3.9h405c2.2,0,3.9,1.8,3.9,3.9v254.3
			C499.4,290,497.7,291.7,495.5,291.7z M90.5,30.6c-1.6,0-2.9,1.3-2.9,2.9v254.3c0,1.6,1.3,2.9,2.9,2.9h405c1.6,0,2.9-1.3,2.9-2.9
			V33.5c0-1.6-1.3-2.9-2.9-2.9H90.5z"/>
	</g>
</g>
<g>
	<circle class="st1" cx="293.4" cy="21.9" r="2.9"/>
	<path class="st0" d="M293.4,25.3c-1.9,0-3.4-1.5-3.4-3.4s1.5-3.4,3.4-3.4s3.4,1.5,3.4,3.4S295.2,25.3,293.4,25.3z M293.4,19.5
		c-1.3,0-2.4,1.1-2.4,2.4s1.1,2.4,2.4,2.4s2.4-1.1,2.4-2.4S294.7,19.5,293.4,19.5z"/>
</g>
<g>
	<circle class="st0" cx="293.4" cy="22" r="1"/>
</g>
<g>
	<path class="st0" d="M292.8,333.2c35.8,0,281,5,281-13H292.7h-281C11.7,338.2,257,333.2,292.8,333.2L292.8,333.2z"/>
</g>
<g>
	<circle class="st2" cx="287" cy="22.2" r="0.9"/>
</g>
</svg>
