<?xml version="1.0" encoding="utf-8"?>
<!-- Generator: Adobe Illustrator 22.1.0, SVG Export Plug-In . SVG Version: 6.00 Build 0)  -->
<svg version="1.1" id="Layer_1" xmlns="http://www.w3.org/2000/svg" xmlns:xlink="http://www.w3.org/1999/xlink" x="0px" y="0px"
	 viewBox="0 0 250.7 349.8" style="enable-background:new 0 0 250.7 349.8;" xml:space="preserve">
<style type="text/css">
	.st0{fill:#3E5259;}
	.st1{fill:#E6EEEC;}
	.st2{fill:#94A596;}
</style>
<g>
	<path class="st0" d="M228.8,339.4H21.5c-6.4,0-11.6-5.2-11.6-11.6V22.6c0-6.4,5.2-11.6,11.6-11.6h207.4c6.4,0,11.6,5.2,11.6,11.6
		v305.2C240.4,334.2,235.2,339.4,228.8,339.4z"/>
	<path class="st1" d="M228.8,341.4H21.5c-7.5,0-13.6-6.1-13.6-13.6V22.6C7.9,15.1,14,9,21.5,9h207.4c7.5,0,13.6,6.1,13.6,13.6v305.2
		C242.4,335.3,236.3,341.4,228.8,341.4z M21.5,13.1c-5.3,0-9.6,4.3-9.6,9.6v305.2c0,5.3,4.3,9.6,9.6,9.6h207.4
		c5.3,0,9.6-4.3,9.6-9.6V22.6c0-5.3-4.3-9.6-9.6-9.6H21.5V13.1z"/>
</g>
<g>
	<path class="st1" d="M220.9,311H28.4c-2.6,0-4.7-2.1-4.7-4.7V44.6c0-2.6,2.1-4.7,4.7-4.7h192.5c2.6,0,4.7,2.1,4.7,4.7v261.7
		C225.6,308.9,223.5,311,220.9,311z"/>
	<path class="st0" d="M220.9,311.5H28.4c-2.9,0-5.2-2.3-5.2-5.2V44.6c0-2.9,2.3-5.2,5.2-5.2h192.5c2.9,0,5.2,2.3,5.2,5.2v261.7
		C226.1,309.2,223.7,311.5,220.9,311.5z M28.4,40.4c-2.3,0-4.2,1.9-4.2,4.2v261.7c0,2.3,1.9,4.2,4.2,4.2h192.5
		c2.3,0,4.2-1.9,4.2-4.2V44.6c0-2.3-1.9-4.2-4.2-4.2C220.9,40.4,28.4,40.4,28.4,40.4z"/>
</g>
<g>
	<path class="st1" d="M125.2,27.3c-1.3,0-2.3-1-2.3-2.3s1-2.3,2.3-2.3s2.3,1,2.3,2.3S126.5,27.3,125.2,27.3z M125.2,23.7
		c-0.7,0-1.3,0.6-1.3,1.3c0,0.7,0.6,1.3,1.3,1.3c0.7,0,1.3-0.6,1.3-1.3C126.5,24.3,125.9,23.7,125.2,23.7z"/>
</g>
<g>
	<circle class="st2" cx="119.6" cy="25" r="0.9"/>
</g>
<g>
	<circle class="st2" cx="125.1" cy="325" r="8.4"/>
</g>
<g>
	<path class="st1" d="M126.5,328.2h-2.7c-1,0-1.8-0.8-1.8-1.8v-2.7c0-1,0.8-1.8,1.8-1.8h2.7c1,0,1.8,0.8,1.8,1.8v2.7
		C128.3,327.5,127.5,328.2,126.5,328.2z M123.8,322.9c-0.4,0-0.8,0.3-0.8,0.8v2.7c0,0.4,0.3,0.8,0.8,0.8h2.7c0.4,0,0.8-0.3,0.8-0.8
		v-2.7c0-0.4-0.3-0.8-0.8-0.8H123.8z"/>
</g>
</svg>
