<svg xmlns="http://www.w3.org/2000/svg" viewBox="0 0 1440 639"><defs><style>.cls-1{fill:#d57e00;}.cls-2{fill:#fff;}</style></defs><title>banner</title><g id="Layer_2" data-name="Layer 2"><g id="Layer_2-2" data-name="Layer 2"><rect class="cls-1" width="1440" height="639"/></g><g id="Layer_1-2" data-name="Layer 1"><path class="cls-2" d="M913.54,280.42l-11.87,7q-3.33-5.78-6.34-7.54a14.77,14.77,0,0,0-8.1-2,15,15,0,0,0-10.11,3.45,10.72,10.72,0,0,0-4,8.54q0,7.1,10.55,11.43l9.67,4q11.81,4.77,17.27,11.65t5.46,16.86q0,13.38-8.92,22.11t-22.3,8.79q-12.63,0-20.85-7.47t-10.11-21l14.82-3.27q1,8.55,3.52,11.81,4.52,6.28,13.19,6.28a15.31,15.31,0,0,0,11.36-4.58,15.86,15.86,0,0,0,4.52-11.62,16.31,16.31,0,0,0-.79-5.18,13.13,13.13,0,0,0-2.45-4.33,19.65,19.65,0,0,0-4.3-3.71,42,42,0,0,0-6.28-3.3l-9.36-3.89q-19.91-8.41-19.91-24.62a23.35,23.35,0,0,1,8.35-18.27q8.35-7.42,20.79-7.41Q904.12,264.09,913.54,280.42Z"/><path class="cls-2" d="M944,303.91h41.83V266h14.63v97H985.88V317.66H944v45.28H929.42V266H944Z"/><path class="cls-2" d="M1105.82,279.73H1072V303h32.59v13.75H1072v46.16h-14.63V266h48.42Z"/><path class="cls-2" d="M1153.81,279.73v83.21h-14.63V279.73h-22.29V266H1176v13.76Z"/><path class="cls-2" d="M1028.44,389l-8.63-26.09V250h16.77l0,113.3ZM1022,362.77l6.43,19.3,6.06-19.29V252.11H1022Z"/><polygon class="cls-2" points="1020.91 260.69 1034.85 260.69 1035.38 358.22 1032.97 364.39 1030.56 358.22 1028.07 364.12 1025.74 358.22 1023.41 364.12 1020.91 358.22 1020.91 260.69"/><polygon class="cls-2" points="1026.27 375.91 1030.56 375.91 1028.42 385.56 1026.27 375.91"/><path class="cls-2" d="M323.9,278.36,312,285.42q-3.34-5.8-6.37-7.57a14.87,14.87,0,0,0-8.14-2,15.05,15.05,0,0,0-10.16,3.47,10.77,10.77,0,0,0-4,8.59q0,7.13,10.6,11.48l9.72,4q11.86,4.79,17.35,11.71T326.43,332q0,13.44-9,22.22t-22.4,8.83q-12.69,0-21-7.51T264,334.4l14.89-3.28q1,8.58,3.54,11.87,4.54,6.31,13.25,6.31a15.37,15.37,0,0,0,11.42-4.61A15.93,15.93,0,0,0,311.6,333a16.42,16.42,0,0,0-.79-5.21,13.21,13.21,0,0,0-2.46-4.35,19.68,19.68,0,0,0-4.32-3.72,41.58,41.58,0,0,0-6.31-3.31l-9.4-3.91q-20-8.46-20-24.74a23.48,23.48,0,0,1,8.39-18.37q8.39-7.45,20.89-7.45Q314.45,261.95,323.9,278.36Z"/><path class="cls-2" d="M397.93,277.66H358.87v23.41H396.8V314.9H358.87v32.57h39.06v13.82H344.17V263.84h53.77Z"/><path class="cls-2" d="M489.26,269.08V286.5q-12.76-10.66-26.38-10.67a33.61,33.61,0,0,0-25.31,10.79q-10.35,10.73-10.35,26.25a35.51,35.51,0,0,0,10.35,25.88,34.19,34.19,0,0,0,25.37,10.54,31.08,31.08,0,0,0,13.19-2.53,37.52,37.52,0,0,0,6.28-3.41,73.41,73.41,0,0,0,6.85-5.17v17.73a53.08,53.08,0,0,1-26.51,7.13,48.92,48.92,0,0,1-35.66-14.58A48.34,48.34,0,0,1,412.39,313a50.06,50.06,0,0,1,12.31-33.2q15.15-17.86,39.19-17.86A49.77,49.77,0,0,1,489.26,269.08Z"/><path class="cls-2" d="M622.67,361.29V257.22l71.06,74.34V263.84h14.7V367.22l-71.06-74.15v68.22Z"/><path class="cls-2" d="M731.79,361.29V263.84h20.45q14.7,0,23.23,2.9a43.45,43.45,0,0,1,16.6,9.65q15.09,13.76,15.09,36.16t-15.72,36.35a45.91,45.91,0,0,1-16.54,9.65q-8.08,2.71-22.9,2.72Zm14.7-13.82h6.63a55.3,55.3,0,0,0,16.47-2.08,33.45,33.45,0,0,0,11.87-7q10.86-9.91,10.85-25.81t-10.73-26q-9.65-8.9-28.46-8.9h-6.63Z"/><rect class="cls-2" x="551.35" y="285.81" width="4.28" height="35.37"/><rect class="cls-2" x="559.86" y="312.44" width="4.29" height="19.97" transform="translate(72.78 747.24) rotate(-70.81)"/><path class="cls-2" d="M502.56,312.05q0-20.57,15.08-35.34a49.64,49.64,0,0,1,36.1-14.77,51,51,0,0,1,50.68,50.68,47.91,47.91,0,0,1-15,35.66A50.26,50.26,0,0,1,553,363q-18.87,0-33.89-13.06Q502.56,335.46,502.56,312.05Zm14.83.19q0,16.16,10.85,26.57t24.93,10.41A35.07,35.07,0,0,0,579,338.62a35.88,35.88,0,0,0,10.54-26.13q0-15.58-10.41-26.13a36.35,36.35,0,0,0-51.31,0Q517.39,296.84,517.39,312.24Z"/></g></g></svg>